<?xml version="1.0" encoding="utf-8" standalone="no"?>
<!DOCTYPE svg PUBLIC "-//W3C//DTD SVG 1.1//EN"
  "http://www.w3.org/Graphics/SVG/1.1/DTD/svg11.dtd">
<svg xmlns:xlink="http://www.w3.org/1999/xlink" width="504pt" height="360pt" viewBox="0 0 504 360" xmlns="http://www.w3.org/2000/svg" version="1.1">
 <metadata>
  <rdf:RDF xmlns:dc="http://purl.org/dc/elements/1.1/" xmlns:cc="http://creativecommons.org/ns#" xmlns:rdf="http://www.w3.org/1999/02/22-rdf-syntax-ns#">
   <cc:Work>
    <dc:type rdf:resource="http://purl.org/dc/dcmitype/StillImage"/>
    <dc:date>2025-07-09T13:45:09.043885</dc:date>
    <dc:format>image/svg+xml</dc:format>
    <dc:creator>
     <cc:Agent>
      <dc:title>Matplotlib v3.10.1, https://matplotlib.org/</dc:title>
     </cc:Agent>
    </dc:creator>
   </cc:Work>
  </rdf:RDF>
 </metadata>
 <defs>
  <style type="text/css">*{stroke-linejoin: round; stroke-linecap: butt}</style>
 </defs>
 <g id="figure_1">
  <g id="patch_1">
   <path d="M 0 360 
L 504 360 
L 504 0 
L 0 0 
z
" style="fill: #ffffff"/>
  </g>
  <g id="axes_1">
   <g id="patch_2">
    <path d="M 63 320.4 
L 453.6 320.4 
L 453.6 43.2 
L 63 43.2 
z
" style="fill: #ffffff"/>
   </g>
   <g id="matplotlib.axis_1">
    <g id="xtick_1">
     <g id="line2d_1">
      <defs>
       <path id="m8aaf9803a2" d="M 0 0 
L 0 3.5 
" style="stroke: #262626; stroke-width: 0.8"/>
      </defs>
      <g>
       <use xlink:href="#m8aaf9803a2" x="63" y="320.4" style="fill: #262626; stroke: #262626; stroke-width: 0.8"/>
      </g>
     </g>
     <g id="text_1">
      <!-- 0 -->
      <g style="fill: #262626" transform="translate(58.54625 338.037813) scale(0.14 -0.14)">
       <defs>
        <path id="DejaVuSans-30" d="M 2034 4250 
Q 1547 4250 1301 3770 
Q 1056 3291 1056 2328 
Q 1056 1369 1301 889 
Q 1547 409 2034 409 
Q 2525 409 2770 889 
Q 3016 1369 3016 2328 
Q 3016 3291 2770 3770 
Q 2525 4250 2034 4250 
z
M 2034 4750 
Q 2819 4750 3233 4129 
Q 3647 3509 3647 2328 
Q 3647 1150 3233 529 
Q 2819 -91 2034 -91 
Q 1250 -91 836 529 
Q 422 1150 422 2328 
Q 422 3509 836 4129 
Q 1250 4750 2034 4750 
z
" transform="scale(0.015625)"/>
       </defs>
       <use xlink:href="#DejaVuSans-30"/>
      </g>
     </g>
    </g>
    <g id="xtick_2">
     <g id="line2d_2">
      <g>
       <use xlink:href="#m8aaf9803a2" x="121.59" y="320.4" style="fill: #262626; stroke: #262626; stroke-width: 0.8"/>
      </g>
     </g>
     <g id="text_2">
      <!-- 12 -->
      <g style="fill: #262626" transform="translate(112.6825 338.037813) scale(0.14 -0.14)">
       <defs>
        <path id="DejaVuSans-31" d="M 794 531 
L 1825 531 
L 1825 4091 
L 703 3866 
L 703 4441 
L 1819 4666 
L 2450 4666 
L 2450 531 
L 3481 531 
L 3481 0 
L 794 0 
L 794 531 
z
" transform="scale(0.015625)"/>
        <path id="DejaVuSans-32" d="M 1228 531 
L 3431 531 
L 3431 0 
L 469 0 
L 469 531 
Q 828 903 1448 1529 
Q 2069 2156 2228 2338 
Q 2531 2678 2651 2914 
Q 2772 3150 2772 3378 
Q 2772 3750 2511 3984 
Q 2250 4219 1831 4219 
Q 1534 4219 1204 4116 
Q 875 4013 500 3803 
L 500 4441 
Q 881 4594 1212 4672 
Q 1544 4750 1819 4750 
Q 2544 4750 2975 4387 
Q 3406 4025 3406 3419 
Q 3406 3131 3298 2873 
Q 3191 2616 2906 2266 
Q 2828 2175 2409 1742 
Q 1991 1309 1228 531 
z
" transform="scale(0.015625)"/>
       </defs>
       <use xlink:href="#DejaVuSans-31"/>
       <use xlink:href="#DejaVuSans-32" transform="translate(63.623047 0)"/>
      </g>
     </g>
    </g>
    <g id="xtick_3">
     <g id="line2d_3">
      <g>
       <use xlink:href="#m8aaf9803a2" x="180.18" y="320.4" style="fill: #262626; stroke: #262626; stroke-width: 0.8"/>
      </g>
     </g>
     <g id="text_3">
      <!-- 24 -->
      <g style="fill: #262626" transform="translate(171.2725 338.037813) scale(0.14 -0.14)">
       <defs>
        <path id="DejaVuSans-34" d="M 2419 4116 
L 825 1625 
L 2419 1625 
L 2419 4116 
z
M 2253 4666 
L 3047 4666 
L 3047 1625 
L 3713 1625 
L 3713 1100 
L 3047 1100 
L 3047 0 
L 2419 0 
L 2419 1100 
L 313 1100 
L 313 1709 
L 2253 4666 
z
" transform="scale(0.015625)"/>
       </defs>
       <use xlink:href="#DejaVuSans-32"/>
       <use xlink:href="#DejaVuSans-34" transform="translate(63.623047 0)"/>
      </g>
     </g>
    </g>
    <g id="xtick_4">
     <g id="line2d_4">
      <g>
       <use xlink:href="#m8aaf9803a2" x="238.77" y="320.4" style="fill: #262626; stroke: #262626; stroke-width: 0.8"/>
      </g>
     </g>
     <g id="text_4">
      <!-- 36 -->
      <g style="fill: #262626" transform="translate(229.8625 338.037813) scale(0.14 -0.14)">
       <defs>
        <path id="DejaVuSans-33" d="M 2597 2516 
Q 3050 2419 3304 2112 
Q 3559 1806 3559 1356 
Q 3559 666 3084 287 
Q 2609 -91 1734 -91 
Q 1441 -91 1130 -33 
Q 819 25 488 141 
L 488 750 
Q 750 597 1062 519 
Q 1375 441 1716 441 
Q 2309 441 2620 675 
Q 2931 909 2931 1356 
Q 2931 1769 2642 2001 
Q 2353 2234 1838 2234 
L 1294 2234 
L 1294 2753 
L 1863 2753 
Q 2328 2753 2575 2939 
Q 2822 3125 2822 3475 
Q 2822 3834 2567 4026 
Q 2313 4219 1838 4219 
Q 1578 4219 1281 4162 
Q 984 4106 628 3988 
L 628 4550 
Q 988 4650 1302 4700 
Q 1616 4750 1894 4750 
Q 2613 4750 3031 4423 
Q 3450 4097 3450 3541 
Q 3450 3153 3228 2886 
Q 3006 2619 2597 2516 
z
" transform="scale(0.015625)"/>
        <path id="DejaVuSans-36" d="M 2113 2584 
Q 1688 2584 1439 2293 
Q 1191 2003 1191 1497 
Q 1191 994 1439 701 
Q 1688 409 2113 409 
Q 2538 409 2786 701 
Q 3034 994 3034 1497 
Q 3034 2003 2786 2293 
Q 2538 2584 2113 2584 
z
M 3366 4563 
L 3366 3988 
Q 3128 4100 2886 4159 
Q 2644 4219 2406 4219 
Q 1781 4219 1451 3797 
Q 1122 3375 1075 2522 
Q 1259 2794 1537 2939 
Q 1816 3084 2150 3084 
Q 2853 3084 3261 2657 
Q 3669 2231 3669 1497 
Q 3669 778 3244 343 
Q 2819 -91 2113 -91 
Q 1303 -91 875 529 
Q 447 1150 447 2328 
Q 447 3434 972 4092 
Q 1497 4750 2381 4750 
Q 2619 4750 2861 4703 
Q 3103 4656 3366 4563 
z
" transform="scale(0.015625)"/>
       </defs>
       <use xlink:href="#DejaVuSans-33"/>
       <use xlink:href="#DejaVuSans-36" transform="translate(63.623047 0)"/>
      </g>
     </g>
    </g>
    <g id="xtick_5">
     <g id="line2d_5">
      <g>
       <use xlink:href="#m8aaf9803a2" x="297.36" y="320.4" style="fill: #262626; stroke: #262626; stroke-width: 0.8"/>
      </g>
     </g>
     <g id="text_5">
      <!-- 48 -->
      <g style="fill: #262626" transform="translate(288.4525 338.037813) scale(0.14 -0.14)">
       <defs>
        <path id="DejaVuSans-38" d="M 2034 2216 
Q 1584 2216 1326 1975 
Q 1069 1734 1069 1313 
Q 1069 891 1326 650 
Q 1584 409 2034 409 
Q 2484 409 2743 651 
Q 3003 894 3003 1313 
Q 3003 1734 2745 1975 
Q 2488 2216 2034 2216 
z
M 1403 2484 
Q 997 2584 770 2862 
Q 544 3141 544 3541 
Q 544 4100 942 4425 
Q 1341 4750 2034 4750 
Q 2731 4750 3128 4425 
Q 3525 4100 3525 3541 
Q 3525 3141 3298 2862 
Q 3072 2584 2669 2484 
Q 3125 2378 3379 2068 
Q 3634 1759 3634 1313 
Q 3634 634 3220 271 
Q 2806 -91 2034 -91 
Q 1263 -91 848 271 
Q 434 634 434 1313 
Q 434 1759 690 2068 
Q 947 2378 1403 2484 
z
M 1172 3481 
Q 1172 3119 1398 2916 
Q 1625 2713 2034 2713 
Q 2441 2713 2670 2916 
Q 2900 3119 2900 3481 
Q 2900 3844 2670 4047 
Q 2441 4250 2034 4250 
Q 1625 4250 1398 4047 
Q 1172 3844 1172 3481 
z
" transform="scale(0.015625)"/>
       </defs>
       <use xlink:href="#DejaVuSans-34"/>
       <use xlink:href="#DejaVuSans-38" transform="translate(63.623047 0)"/>
      </g>
     </g>
    </g>
    <g id="xtick_6">
     <g id="line2d_6">
      <g>
       <use xlink:href="#m8aaf9803a2" x="355.95" y="320.4" style="fill: #262626; stroke: #262626; stroke-width: 0.8"/>
      </g>
     </g>
     <g id="text_6">
      <!-- 60 -->
      <g style="fill: #262626" transform="translate(347.0425 338.037813) scale(0.14 -0.14)">
       <use xlink:href="#DejaVuSans-36"/>
       <use xlink:href="#DejaVuSans-30" transform="translate(63.623047 0)"/>
      </g>
     </g>
    </g>
    <g id="xtick_7">
     <g id="line2d_7">
      <g>
       <use xlink:href="#m8aaf9803a2" x="414.54" y="320.4" style="fill: #262626; stroke: #262626; stroke-width: 0.8"/>
      </g>
     </g>
     <g id="text_7">
      <!-- 72 -->
      <g style="fill: #262626" transform="translate(405.6325 338.037813) scale(0.14 -0.14)">
       <defs>
        <path id="DejaVuSans-37" d="M 525 4666 
L 3525 4666 
L 3525 4397 
L 1831 0 
L 1172 0 
L 2766 4134 
L 525 4134 
L 525 4666 
z
" transform="scale(0.015625)"/>
       </defs>
       <use xlink:href="#DejaVuSans-37"/>
       <use xlink:href="#DejaVuSans-32" transform="translate(63.623047 0)"/>
      </g>
     </g>
    </g>
    <g id="text_8">
     <!-- Hour -->
     <g style="fill: #262626" transform="translate(241.43875 361.587188) scale(0.14 -0.14)">
      <defs>
       <path id="DejaVuSans-48" d="M 628 4666 
L 1259 4666 
L 1259 2753 
L 3553 2753 
L 3553 4666 
L 4184 4666 
L 4184 0 
L 3553 0 
L 3553 2222 
L 1259 2222 
L 1259 0 
L 628 0 
L 628 4666 
z
" transform="scale(0.015625)"/>
       <path id="DejaVuSans-6f" d="M 1959 3097 
Q 1497 3097 1228 2736 
Q 959 2375 959 1747 
Q 959 1119 1226 758 
Q 1494 397 1959 397 
Q 2419 397 2687 759 
Q 2956 1122 2956 1747 
Q 2956 2369 2687 2733 
Q 2419 3097 1959 3097 
z
M 1959 3584 
Q 2709 3584 3137 3096 
Q 3566 2609 3566 1747 
Q 3566 888 3137 398 
Q 2709 -91 1959 -91 
Q 1206 -91 779 398 
Q 353 888 353 1747 
Q 353 2609 779 3096 
Q 1206 3584 1959 3584 
z
" transform="scale(0.015625)"/>
       <path id="DejaVuSans-75" d="M 544 1381 
L 544 3500 
L 1119 3500 
L 1119 1403 
Q 1119 906 1312 657 
Q 1506 409 1894 409 
Q 2359 409 2629 706 
Q 2900 1003 2900 1516 
L 2900 3500 
L 3475 3500 
L 3475 0 
L 2900 0 
L 2900 538 
Q 2691 219 2414 64 
Q 2138 -91 1772 -91 
Q 1169 -91 856 284 
Q 544 659 544 1381 
z
M 1991 3584 
L 1991 3584 
z
" transform="scale(0.015625)"/>
       <path id="DejaVuSans-72" d="M 2631 2963 
Q 2534 3019 2420 3045 
Q 2306 3072 2169 3072 
Q 1681 3072 1420 2755 
Q 1159 2438 1159 1844 
L 1159 0 
L 581 0 
L 581 3500 
L 1159 3500 
L 1159 2956 
Q 1341 3275 1631 3429 
Q 1922 3584 2338 3584 
Q 2397 3584 2469 3576 
Q 2541 3569 2628 3553 
L 2631 2963 
z
" transform="scale(0.015625)"/>
      </defs>
      <use xlink:href="#DejaVuSans-48"/>
      <use xlink:href="#DejaVuSans-6f" transform="translate(75.195312 0)"/>
      <use xlink:href="#DejaVuSans-75" transform="translate(136.376953 0)"/>
      <use xlink:href="#DejaVuSans-72" transform="translate(199.755859 0)"/>
     </g>
    </g>
   </g>
   <g id="matplotlib.axis_2">
    <g id="ytick_1">
     <g id="line2d_8">
      <defs>
       <path id="md914b525de" d="M 0 0 
L -3.5 0 
" style="stroke: #262626; stroke-width: 0.8"/>
      </defs>
      <g>
       <use xlink:href="#md914b525de" x="63" y="320.4" style="fill: #262626; stroke: #262626; stroke-width: 0.8"/>
      </g>
     </g>
     <g id="text_9">
      <!-- −3 -->
      <g style="fill: #262626" transform="translate(35.360937 325.718906) scale(0.14 -0.14)">
       <defs>
        <path id="DejaVuSans-2212" d="M 678 2272 
L 4684 2272 
L 4684 1741 
L 678 1741 
L 678 2272 
z
" transform="scale(0.015625)"/>
       </defs>
       <use xlink:href="#DejaVuSans-2212"/>
       <use xlink:href="#DejaVuSans-33" transform="translate(83.789062 0)"/>
      </g>
     </g>
    </g>
    <g id="ytick_2">
     <g id="line2d_9">
      <g>
       <use xlink:href="#md914b525de" x="63" y="289.6" style="fill: #262626; stroke: #262626; stroke-width: 0.8"/>
      </g>
     </g>
     <g id="text_10">
      <!-- −2 -->
      <g style="fill: #262626" transform="translate(35.360937 294.918906) scale(0.14 -0.14)">
       <use xlink:href="#DejaVuSans-2212"/>
       <use xlink:href="#DejaVuSans-32" transform="translate(83.789062 0)"/>
      </g>
     </g>
    </g>
    <g id="ytick_3">
     <g id="line2d_10">
      <g>
       <use xlink:href="#md914b525de" x="63" y="258.8" style="fill: #262626; stroke: #262626; stroke-width: 0.8"/>
      </g>
     </g>
     <g id="text_11">
      <!-- −1 -->
      <g style="fill: #262626" transform="translate(35.360937 264.118906) scale(0.14 -0.14)">
       <use xlink:href="#DejaVuSans-2212"/>
       <use xlink:href="#DejaVuSans-31" transform="translate(83.789062 0)"/>
      </g>
     </g>
    </g>
    <g id="ytick_4">
     <g id="line2d_11">
      <g>
       <use xlink:href="#md914b525de" x="63" y="228" style="fill: #262626; stroke: #262626; stroke-width: 0.8"/>
      </g>
     </g>
     <g id="text_12">
      <!-- 0 -->
      <g style="fill: #262626" transform="translate(47.0925 233.318906) scale(0.14 -0.14)">
       <use xlink:href="#DejaVuSans-30"/>
      </g>
     </g>
    </g>
    <g id="ytick_5">
     <g id="line2d_12">
      <g>
       <use xlink:href="#md914b525de" x="63" y="197.2" style="fill: #262626; stroke: #262626; stroke-width: 0.8"/>
      </g>
     </g>
     <g id="text_13">
      <!-- 1 -->
      <g style="fill: #262626" transform="translate(47.0925 202.518906) scale(0.14 -0.14)">
       <use xlink:href="#DejaVuSans-31"/>
      </g>
     </g>
    </g>
    <g id="ytick_6">
     <g id="line2d_13">
      <g>
       <use xlink:href="#md914b525de" x="63" y="166.4" style="fill: #262626; stroke: #262626; stroke-width: 0.8"/>
      </g>
     </g>
     <g id="text_14">
      <!-- 2 -->
      <g style="fill: #262626" transform="translate(47.0925 171.718906) scale(0.14 -0.14)">
       <use xlink:href="#DejaVuSans-32"/>
      </g>
     </g>
    </g>
    <g id="ytick_7">
     <g id="line2d_14">
      <g>
       <use xlink:href="#md914b525de" x="63" y="135.6" style="fill: #262626; stroke: #262626; stroke-width: 0.8"/>
      </g>
     </g>
     <g id="text_15">
      <!-- 3 -->
      <g style="fill: #262626" transform="translate(47.0925 140.918906) scale(0.14 -0.14)">
       <use xlink:href="#DejaVuSans-33"/>
      </g>
     </g>
    </g>
    <g id="ytick_8">
     <g id="line2d_15">
      <g>
       <use xlink:href="#md914b525de" x="63" y="104.8" style="fill: #262626; stroke: #262626; stroke-width: 0.8"/>
      </g>
     </g>
     <g id="text_16">
      <!-- 4 -->
      <g style="fill: #262626" transform="translate(47.0925 110.118906) scale(0.14 -0.14)">
       <use xlink:href="#DejaVuSans-34"/>
      </g>
     </g>
    </g>
    <g id="ytick_9">
     <g id="line2d_16">
      <g>
       <use xlink:href="#md914b525de" x="63" y="74" style="fill: #262626; stroke: #262626; stroke-width: 0.8"/>
      </g>
     </g>
     <g id="text_17">
      <!-- 5 -->
      <g style="fill: #262626" transform="translate(47.0925 79.318906) scale(0.14 -0.14)">
       <defs>
        <path id="DejaVuSans-35" d="M 691 4666 
L 3169 4666 
L 3169 4134 
L 1269 4134 
L 1269 2991 
Q 1406 3038 1543 3061 
Q 1681 3084 1819 3084 
Q 2600 3084 3056 2656 
Q 3513 2228 3513 1497 
Q 3513 744 3044 326 
Q 2575 -91 1722 -91 
Q 1428 -91 1123 -41 
Q 819 9 494 109 
L 494 744 
Q 775 591 1075 516 
Q 1375 441 1709 441 
Q 2250 441 2565 725 
Q 2881 1009 2881 1497 
Q 2881 1984 2565 2268 
Q 2250 2553 1709 2553 
Q 1456 2553 1204 2497 
Q 953 2441 691 2322 
L 691 4666 
z
" transform="scale(0.015625)"/>
       </defs>
       <use xlink:href="#DejaVuSans-35"/>
      </g>
     </g>
    </g>
    <g id="ytick_10">
     <g id="line2d_17">
      <g>
       <use xlink:href="#md914b525de" x="63" y="43.2" style="fill: #262626; stroke: #262626; stroke-width: 0.8"/>
      </g>
     </g>
     <g id="text_18">
      <!-- 6 -->
      <g style="fill: #262626" transform="translate(47.0925 48.518906) scale(0.14 -0.14)">
       <use xlink:href="#DejaVuSans-36"/>
      </g>
     </g>
    </g>
    <g id="text_19">
     <!-- Log 10 Parasite Density (Parasites/μl) -->
     <g style="fill: #262626" transform="translate(22.449375 312.599375) rotate(-90) scale(0.14 -0.14)">
      <defs>
       <path id="DejaVuSans-4c" d="M 628 4666 
L 1259 4666 
L 1259 531 
L 3531 531 
L 3531 0 
L 628 0 
L 628 4666 
z
" transform="scale(0.015625)"/>
       <path id="DejaVuSans-67" d="M 2906 1791 
Q 2906 2416 2648 2759 
Q 2391 3103 1925 3103 
Q 1463 3103 1205 2759 
Q 947 2416 947 1791 
Q 947 1169 1205 825 
Q 1463 481 1925 481 
Q 2391 481 2648 825 
Q 2906 1169 2906 1791 
z
M 3481 434 
Q 3481 -459 3084 -895 
Q 2688 -1331 1869 -1331 
Q 1566 -1331 1297 -1286 
Q 1028 -1241 775 -1147 
L 775 -588 
Q 1028 -725 1275 -790 
Q 1522 -856 1778 -856 
Q 2344 -856 2625 -561 
Q 2906 -266 2906 331 
L 2906 616 
Q 2728 306 2450 153 
Q 2172 0 1784 0 
Q 1141 0 747 490 
Q 353 981 353 1791 
Q 353 2603 747 3093 
Q 1141 3584 1784 3584 
Q 2172 3584 2450 3431 
Q 2728 3278 2906 2969 
L 2906 3500 
L 3481 3500 
L 3481 434 
z
" transform="scale(0.015625)"/>
       <path id="DejaVuSans-20" transform="scale(0.015625)"/>
       <path id="DejaVuSans-50" d="M 1259 4147 
L 1259 2394 
L 2053 2394 
Q 2494 2394 2734 2622 
Q 2975 2850 2975 3272 
Q 2975 3691 2734 3919 
Q 2494 4147 2053 4147 
L 1259 4147 
z
M 628 4666 
L 2053 4666 
Q 2838 4666 3239 4311 
Q 3641 3956 3641 3272 
Q 3641 2581 3239 2228 
Q 2838 1875 2053 1875 
L 1259 1875 
L 1259 0 
L 628 0 
L 628 4666 
z
" transform="scale(0.015625)"/>
       <path id="DejaVuSans-61" d="M 2194 1759 
Q 1497 1759 1228 1600 
Q 959 1441 959 1056 
Q 959 750 1161 570 
Q 1363 391 1709 391 
Q 2188 391 2477 730 
Q 2766 1069 2766 1631 
L 2766 1759 
L 2194 1759 
z
M 3341 1997 
L 3341 0 
L 2766 0 
L 2766 531 
Q 2569 213 2275 61 
Q 1981 -91 1556 -91 
Q 1019 -91 701 211 
Q 384 513 384 1019 
Q 384 1609 779 1909 
Q 1175 2209 1959 2209 
L 2766 2209 
L 2766 2266 
Q 2766 2663 2505 2880 
Q 2244 3097 1772 3097 
Q 1472 3097 1187 3025 
Q 903 2953 641 2809 
L 641 3341 
Q 956 3463 1253 3523 
Q 1550 3584 1831 3584 
Q 2591 3584 2966 3190 
Q 3341 2797 3341 1997 
z
" transform="scale(0.015625)"/>
       <path id="DejaVuSans-73" d="M 2834 3397 
L 2834 2853 
Q 2591 2978 2328 3040 
Q 2066 3103 1784 3103 
Q 1356 3103 1142 2972 
Q 928 2841 928 2578 
Q 928 2378 1081 2264 
Q 1234 2150 1697 2047 
L 1894 2003 
Q 2506 1872 2764 1633 
Q 3022 1394 3022 966 
Q 3022 478 2636 193 
Q 2250 -91 1575 -91 
Q 1294 -91 989 -36 
Q 684 19 347 128 
L 347 722 
Q 666 556 975 473 
Q 1284 391 1588 391 
Q 1994 391 2212 530 
Q 2431 669 2431 922 
Q 2431 1156 2273 1281 
Q 2116 1406 1581 1522 
L 1381 1569 
Q 847 1681 609 1914 
Q 372 2147 372 2553 
Q 372 3047 722 3315 
Q 1072 3584 1716 3584 
Q 2034 3584 2315 3537 
Q 2597 3491 2834 3397 
z
" transform="scale(0.015625)"/>
       <path id="DejaVuSans-69" d="M 603 3500 
L 1178 3500 
L 1178 0 
L 603 0 
L 603 3500 
z
M 603 4863 
L 1178 4863 
L 1178 4134 
L 603 4134 
L 603 4863 
z
" transform="scale(0.015625)"/>
       <path id="DejaVuSans-74" d="M 1172 4494 
L 1172 3500 
L 2356 3500 
L 2356 3053 
L 1172 3053 
L 1172 1153 
Q 1172 725 1289 603 
Q 1406 481 1766 481 
L 2356 481 
L 2356 0 
L 1766 0 
Q 1100 0 847 248 
Q 594 497 594 1153 
L 594 3053 
L 172 3053 
L 172 3500 
L 594 3500 
L 594 4494 
L 1172 4494 
z
" transform="scale(0.015625)"/>
       <path id="DejaVuSans-65" d="M 3597 1894 
L 3597 1613 
L 953 1613 
Q 991 1019 1311 708 
Q 1631 397 2203 397 
Q 2534 397 2845 478 
Q 3156 559 3463 722 
L 3463 178 
Q 3153 47 2828 -22 
Q 2503 -91 2169 -91 
Q 1331 -91 842 396 
Q 353 884 353 1716 
Q 353 2575 817 3079 
Q 1281 3584 2069 3584 
Q 2775 3584 3186 3129 
Q 3597 2675 3597 1894 
z
M 3022 2063 
Q 3016 2534 2758 2815 
Q 2500 3097 2075 3097 
Q 1594 3097 1305 2825 
Q 1016 2553 972 2059 
L 3022 2063 
z
" transform="scale(0.015625)"/>
       <path id="DejaVuSans-44" d="M 1259 4147 
L 1259 519 
L 2022 519 
Q 2988 519 3436 956 
Q 3884 1394 3884 2338 
Q 3884 3275 3436 3711 
Q 2988 4147 2022 4147 
L 1259 4147 
z
M 628 4666 
L 1925 4666 
Q 3281 4666 3915 4102 
Q 4550 3538 4550 2338 
Q 4550 1131 3912 565 
Q 3275 0 1925 0 
L 628 0 
L 628 4666 
z
" transform="scale(0.015625)"/>
       <path id="DejaVuSans-6e" d="M 3513 2113 
L 3513 0 
L 2938 0 
L 2938 2094 
Q 2938 2591 2744 2837 
Q 2550 3084 2163 3084 
Q 1697 3084 1428 2787 
Q 1159 2491 1159 1978 
L 1159 0 
L 581 0 
L 581 3500 
L 1159 3500 
L 1159 2956 
Q 1366 3272 1645 3428 
Q 1925 3584 2291 3584 
Q 2894 3584 3203 3211 
Q 3513 2838 3513 2113 
z
" transform="scale(0.015625)"/>
       <path id="DejaVuSans-79" d="M 2059 -325 
Q 1816 -950 1584 -1140 
Q 1353 -1331 966 -1331 
L 506 -1331 
L 506 -850 
L 844 -850 
Q 1081 -850 1212 -737 
Q 1344 -625 1503 -206 
L 1606 56 
L 191 3500 
L 800 3500 
L 1894 763 
L 2988 3500 
L 3597 3500 
L 2059 -325 
z
" transform="scale(0.015625)"/>
       <path id="DejaVuSans-28" d="M 1984 4856 
Q 1566 4138 1362 3434 
Q 1159 2731 1159 2009 
Q 1159 1288 1364 580 
Q 1569 -128 1984 -844 
L 1484 -844 
Q 1016 -109 783 600 
Q 550 1309 550 2009 
Q 550 2706 781 3412 
Q 1013 4119 1484 4856 
L 1984 4856 
z
" transform="scale(0.015625)"/>
       <path id="DejaVuSans-2f" d="M 1625 4666 
L 2156 4666 
L 531 -594 
L 0 -594 
L 1625 4666 
z
" transform="scale(0.015625)"/>
       <path id="DejaVuSans-3bc" d="M 544 -1331 
L 544 3500 
L 1119 3500 
L 1119 1325 
Q 1119 872 1334 640 
Q 1550 409 1972 409 
Q 2434 409 2667 671 
Q 2900 934 2900 1459 
L 2900 3500 
L 3475 3500 
L 3475 806 
Q 3475 619 3529 530 
Q 3584 441 3700 441 
Q 3728 441 3778 458 
Q 3828 475 3916 513 
L 3916 50 
Q 3788 -22 3673 -56 
Q 3559 -91 3450 -91 
Q 3234 -91 3106 31 
Q 2978 153 2931 403 
Q 2775 156 2548 32 
Q 2322 -91 2016 -91 
Q 1697 -91 1473 31 
Q 1250 153 1119 397 
L 1119 -1331 
L 544 -1331 
z
" transform="scale(0.015625)"/>
       <path id="DejaVuSans-6c" d="M 603 4863 
L 1178 4863 
L 1178 0 
L 603 0 
L 603 4863 
z
" transform="scale(0.015625)"/>
       <path id="DejaVuSans-29" d="M 513 4856 
L 1013 4856 
Q 1481 4119 1714 3412 
Q 1947 2706 1947 2009 
Q 1947 1309 1714 600 
Q 1481 -109 1013 -844 
L 513 -844 
Q 928 -128 1133 580 
Q 1338 1288 1338 2009 
Q 1338 2731 1133 3434 
Q 928 4138 513 4856 
z
" transform="scale(0.015625)"/>
      </defs>
      <use xlink:href="#DejaVuSans-4c"/>
      <use xlink:href="#DejaVuSans-6f" transform="translate(53.962891 0)"/>
      <use xlink:href="#DejaVuSans-67" transform="translate(115.144531 0)"/>
      <use xlink:href="#DejaVuSans-20" transform="translate(178.621094 0)"/>
      <use xlink:href="#DejaVuSans-31" transform="translate(210.408203 0)"/>
      <use xlink:href="#DejaVuSans-30" transform="translate(274.03125 0)"/>
      <use xlink:href="#DejaVuSans-20" transform="translate(337.654297 0)"/>
      <use xlink:href="#DejaVuSans-50" transform="translate(369.441406 0)"/>
      <use xlink:href="#DejaVuSans-61" transform="translate(425.244141 0)"/>
      <use xlink:href="#DejaVuSans-72" transform="translate(486.523438 0)"/>
      <use xlink:href="#DejaVuSans-61" transform="translate(527.636719 0)"/>
      <use xlink:href="#DejaVuSans-73" transform="translate(588.916016 0)"/>
      <use xlink:href="#DejaVuSans-69" transform="translate(641.015625 0)"/>
      <use xlink:href="#DejaVuSans-74" transform="translate(668.798828 0)"/>
      <use xlink:href="#DejaVuSans-65" transform="translate(708.007812 0)"/>
      <use xlink:href="#DejaVuSans-20" transform="translate(769.53125 0)"/>
      <use xlink:href="#DejaVuSans-44" transform="translate(801.318359 0)"/>
      <use xlink:href="#DejaVuSans-65" transform="translate(878.320312 0)"/>
      <use xlink:href="#DejaVuSans-6e" transform="translate(939.84375 0)"/>
      <use xlink:href="#DejaVuSans-73" transform="translate(1003.222656 0)"/>
      <use xlink:href="#DejaVuSans-69" transform="translate(1055.322266 0)"/>
      <use xlink:href="#DejaVuSans-74" transform="translate(1083.105469 0)"/>
      <use xlink:href="#DejaVuSans-79" transform="translate(1122.314453 0)"/>
      <use xlink:href="#DejaVuSans-20" transform="translate(1181.494141 0)"/>
      <use xlink:href="#DejaVuSans-28" transform="translate(1213.28125 0)"/>
      <use xlink:href="#DejaVuSans-50" transform="translate(1252.294922 0)"/>
      <use xlink:href="#DejaVuSans-61" transform="translate(1308.097656 0)"/>
      <use xlink:href="#DejaVuSans-72" transform="translate(1369.376953 0)"/>
      <use xlink:href="#DejaVuSans-61" transform="translate(1410.490234 0)"/>
      <use xlink:href="#DejaVuSans-73" transform="translate(1471.769531 0)"/>
      <use xlink:href="#DejaVuSans-69" transform="translate(1523.869141 0)"/>
      <use xlink:href="#DejaVuSans-74" transform="translate(1551.652344 0)"/>
      <use xlink:href="#DejaVuSans-65" transform="translate(1590.861328 0)"/>
      <use xlink:href="#DejaVuSans-73" transform="translate(1652.384766 0)"/>
      <use xlink:href="#DejaVuSans-2f" transform="translate(1704.484375 0)"/>
      <use xlink:href="#DejaVuSans-3bc" transform="translate(1738.175781 0)"/>
      <use xlink:href="#DejaVuSans-6c" transform="translate(1801.798828 0)"/>
      <use xlink:href="#DejaVuSans-29" transform="translate(1829.582031 0)"/>
     </g>
    </g>
   </g>
   <g id="FillBetweenPolyCollection_1"/>
   <g id="FillBetweenPolyCollection_2"/>
   <g id="FillBetweenPolyCollection_3"/>
   <g id="FillBetweenPolyCollection_4"/>
   <g id="FillBetweenPolyCollection_5"/>
   <g id="FillBetweenPolyCollection_6">
    <path d="M 63 80.081838 
L 63 111.053764 
L 67.8825 117.906432 
L 72.765 126.481119 
L 77.6475 135.049955 
L 82.53 143.61565 
L 87.4125 152.179701 
L 92.295 160.742841 
L 97.1775 169.305477 
L 102.06 177.867909 
L 106.9425 186.380005 
L 111.825 194.846205 
L 116.7075 202.918097 
L 121.59 209.551359 
L 126.4725 217.557145 
L 131.355 226.107264 
L 136.2375 234.65577 
L 141.12 243.168441 
L 146.0025 251.702173 
L 150.885 260.209331 
L 155.7675 268.61777 
L 160.65 276.818821 
L 165.5325 285.099257 
L 170.415 292.584828 
L 175.2975 298.871724 
L 180.18 305.704665 
L 185.0625 311.128276 
L 189.945 311.128276 
L 194.8275 320.4 
L 199.71 320.4 
L 204.5925 320.4 
L 209.475 320.4 
L 214.3575 320.4 
L 219.24 320.4 
L 224.1225 320.4 
L 229.005 320.4 
L 233.8875 320.4 
L 238.77 320.4 
L 243.6525 320.4 
L 248.535 320.4 
L 253.4175 320.4 
L 258.3 320.4 
L 263.1825 320.4 
L 268.065 320.4 
L 272.9475 320.4 
L 277.83 320.4 
L 282.7125 320.4 
L 287.595 320.4 
L 292.4775 320.4 
L 297.36 320.4 
L 302.2425 320.4 
L 307.125 320.4 
L 312.0075 320.4 
L 316.89 320.4 
L 321.7725 320.4 
L 326.655 320.4 
L 331.5375 320.4 
L 336.42 320.4 
L 341.3025 320.4 
L 346.185 320.4 
L 351.0675 320.4 
L 355.95 320.4 
L 360.8325 320.4 
L 365.715 320.4 
L 370.5975 320.4 
L 375.48 320.4 
L 380.3625 320.4 
L 385.245 320.4 
L 390.1275 320.4 
L 395.01 320.4 
L 399.8925 320.4 
L 404.775 320.4 
L 409.6575 320.4 
L 414.54 320.4 
L 419.4225 320.4 
L 424.305 320.4 
L 429.1875 320.4 
L 434.07 320.4 
L 438.9525 320.4 
L 443.835 320.4 
L 448.7175 320.4 
L 453.6 320.4 
L 458.4825 320.4 
L 463.365 320.4 
L 468.2475 320.4 
L 473.13 320.4 
L 478.0125 320.4 
L 482.895 320.4 
L 487.7775 320.4 
L 492.66 320.4 
L 497.5425 320.4 
L 502.425 320.4 
L 507.3075 320.4 
L 512.19 320.4 
L 517.0725 320.4 
L 521.955 320.4 
L 526.8375 320.4 
L 531.72 320.4 
L 536.6025 320.4 
L 541.485 320.4 
L 546.3675 320.4 
L 551.25 320.4 
L 556.1325 320.4 
L 561.015 320.4 
L 565.8975 320.4 
L 570.78 320.4 
L 575.6625 320.4 
L 580.545 320.4 
L 585.4275 320.4 
L 590.31 320.4 
L 595.1925 320.4 
L 600.075 320.4 
L 604.9575 320.4 
L 609.84 320.4 
L 614.7225 320.4 
L 619.605 320.4 
L 624.4875 320.4 
L 629.37 320.4 
L 634.2525 320.4 
L 639.135 320.4 
L 644.0175 320.4 
L 648.9 320.4 
L 653.7825 320.4 
L 658.665 320.4 
L 663.5475 320.4 
L 668.43 320.4 
L 673.3125 320.4 
L 678.195 320.4 
L 683.0775 320.4 
L 687.96 320.4 
L 692.8425 320.4 
L 697.725 320.4 
L 702.6075 320.4 
L 707.49 320.4 
L 712.3725 320.4 
L 717.255 320.4 
L 722.1375 320.4 
L 727.02 320.4 
L 731.9025 320.4 
L 736.785 320.4 
L 741.6675 320.4 
L 746.55 320.4 
L 751.4325 320.4 
L 756.315 320.4 
L 761.1975 320.4 
L 766.08 320.4 
L 770.9625 320.4 
L 775.845 320.4 
L 780.7275 320.4 
L 785.61 320.4 
L 790.4925 320.4 
L 795.375 320.4 
L 800.2575 320.4 
L 805.14 320.4 
L 810.0225 320.4 
L 814.905 320.4 
L 819.7875 320.4 
L 824.67 320.4 
L 829.5525 320.4 
L 834.435 320.4 
L 839.3175 320.4 
L 844.2 320.4 
L 849.0825 320.4 
L 853.965 320.4 
L 858.8475 320.4 
L 863.73 320.4 
L 868.6125 320.4 
L 873.495 320.4 
L 878.3775 320.4 
L 883.26 320.4 
L 888.1425 320.4 
L 893.025 320.4 
L 897.9075 320.4 
L 902.79 320.4 
L 907.6725 320.4 
L 912.555 320.4 
L 917.4375 320.4 
L 922.32 320.4 
L 927.2025 320.4 
L 932.085 320.4 
L 936.9675 320.4 
L 941.85 320.4 
L 946.7325 320.4 
L 951.615 320.4 
L 956.4975 320.4 
L 961.38 320.4 
L 966.2625 320.4 
L 971.145 320.4 
L 976.0275 320.4 
L 980.91 320.4 
L 985.7925 320.4 
L 990.675 320.4 
L 995.5575 320.4 
L 1000.44 320.4 
L 1005.3225 320.4 
L 1010.205 320.4 
L 1015.0875 320.4 
L 1019.97 320.4 
L 1024.8525 320.4 
L 1029.735 320.4 
L 1034.6175 320.4 
L 1039.5 320.4 
L 1044.3825 320.4 
L 1049.265 320.4 
L 1054.1475 320.4 
L 1059.03 320.4 
L 1063.9125 320.4 
L 1068.795 320.4 
L 1073.6775 320.4 
L 1078.56 320.4 
L 1083.4425 320.4 
L 1088.325 320.4 
L 1093.2075 320.4 
L 1098.09 320.4 
L 1102.9725 320.4 
L 1107.855 320.4 
L 1112.7375 320.4 
L 1117.62 320.4 
L 1122.5025 320.4 
L 1127.385 320.4 
L 1132.2675 320.4 
L 1137.15 320.4 
L 1142.0325 320.4 
L 1146.915 320.4 
L 1151.7975 320.4 
L 1156.68 320.4 
L 1161.5625 320.4 
L 1166.445 320.4 
L 1171.3275 320.4 
L 1176.21 320.4 
L 1181.0925 320.4 
L 1185.975 320.4 
L 1190.8575 320.4 
L 1195.74 320.4 
L 1200.6225 320.4 
L 1205.505 320.4 
L 1210.3875 320.4 
L 1215.27 320.4 
L 1220.1525 320.4 
L 1225.035 320.4 
L 1229.9175 320.4 
L 1234.8 320.4 
L 1239.6825 320.4 
L 1244.565 320.4 
L 1249.4475 320.4 
L 1254.33 320.4 
L 1259.2125 320.4 
L 1264.095 320.4 
L 1268.9775 320.4 
L 1273.86 320.4 
L 1278.7425 320.4 
L 1283.625 320.4 
L 1288.5075 320.4 
L 1293.39 320.4 
L 1298.2725 320.4 
L 1303.155 320.4 
L 1308.0375 320.4 
L 1312.92 320.4 
L 1317.8025 320.4 
L 1322.685 320.4 
L 1327.5675 320.4 
L 1332.45 320.4 
L 1337.3325 320.4 
L 1342.215 320.4 
L 1347.0975 320.4 
L 1351.98 320.4 
L 1356.8625 320.4 
L 1361.745 320.4 
L 1366.6275 320.4 
L 1371.51 320.4 
L 1376.3925 320.4 
L 1381.275 320.4 
L 1386.1575 320.4 
L 1391.04 320.4 
L 1395.9225 320.4 
L 1400.805 320.4 
L 1405.6875 320.4 
L 1410.57 320.4 
L 1415.4525 320.4 
L 1420.335 320.4 
L 1425.2175 320.4 
L 1430.1 320.4 
L 1434.9825 320.4 
L 1439.865 320.4 
L 1444.7475 320.4 
L 1449.63 320.4 
L 1454.5125 320.4 
L 1459.395 320.4 
L 1464.2775 320.4 
L 1469.16 320.4 
L 1474.0425 320.4 
L 1478.925 320.4 
L 1483.8075 320.4 
L 1488.69 320.4 
L 1493.5725 320.4 
L 1498.455 320.4 
L 1503.3375 320.4 
L 1508.22 320.4 
L 1513.1025 320.4 
L 1517.985 320.4 
L 1522.8675 320.4 
L 1527.75 320.4 
L 1532.6325 320.4 
L 1537.515 320.4 
L 1542.3975 320.4 
L 1547.28 320.4 
L 1552.1625 320.4 
L 1557.045 320.4 
L 1561.9275 320.4 
L 1566.81 320.4 
L 1571.6925 320.4 
L 1576.575 320.4 
L 1581.4575 320.4 
L 1586.34 320.4 
L 1591.2225 320.4 
L 1596.105 320.4 
L 1600.9875 320.4 
L 1605.87 320.4 
L 1610.7525 320.4 
L 1615.635 320.4 
L 1620.5175 320.4 
L 1625.4 320.4 
L 1630.2825 320.4 
L 1635.165 320.4 
L 1640.0475 320.4 
L 1644.93 320.4 
L 1649.8125 320.4 
L 1654.695 320.4 
L 1659.5775 320.4 
L 1664.46 320.4 
L 1669.3425 320.4 
L 1674.225 320.4 
L 1679.1075 320.4 
L 1683.99 320.4 
L 1688.8725 320.4 
L 1693.755 320.4 
L 1698.6375 320.4 
L 1703.52 320.4 
L 1708.4025 320.4 
L 1713.285 320.4 
L 1718.1675 320.4 
L 1723.05 320.4 
L 1727.9325 320.4 
L 1732.815 320.4 
L 1737.6975 320.4 
L 1742.58 320.4 
L 1747.4625 320.4 
L 1752.345 320.4 
L 1757.2275 320.4 
L 1762.11 320.4 
L 1766.9925 320.4 
L 1771.875 320.4 
L 1776.7575 320.4 
L 1781.64 320.4 
L 1786.5225 320.4 
L 1791.405 320.4 
L 1796.2875 320.4 
L 1801.17 320.4 
L 1806.0525 320.4 
L 1810.935 320.4 
L 1815.8175 320.4 
L 1820.7 320.4 
L 1825.5825 320.4 
L 1830.465 320.4 
L 1835.3475 320.4 
L 1840.23 320.4 
L 1845.1125 320.4 
L 1849.995 320.4 
L 1854.8775 320.4 
L 1859.76 320.4 
L 1864.6425 320.4 
L 1869.525 320.4 
L 1874.4075 320.4 
L 1879.29 320.4 
L 1884.1725 320.4 
L 1889.055 320.4 
L 1893.9375 320.4 
L 1898.82 320.4 
L 1903.7025 320.4 
L 1908.585 320.4 
L 1913.4675 320.4 
L 1918.35 320.4 
L 1923.2325 320.4 
L 1928.115 320.4 
L 1932.9975 320.4 
L 1937.88 320.4 
L 1942.7625 320.4 
L 1947.645 320.4 
L 1952.5275 320.4 
L 1957.41 320.4 
L 1962.2925 320.4 
L 1967.175 320.4 
L 1972.0575 320.4 
L 1976.94 320.4 
L 1981.8225 320.4 
L 1986.705 320.4 
L 1991.5875 320.4 
L 1996.47 320.4 
L 2001.3525 320.4 
L 2006.235 320.4 
L 2011.1175 320.4 
L 2016 320.4 
L 2020.8825 320.4 
L 2025.765 320.4 
L 2030.6475 320.4 
L 2035.53 320.4 
L 2040.4125 320.4 
L 2045.295 320.4 
L 2050.1775 320.4 
L 2055.06 320.4 
L 2059.9425 320.4 
L 2064.825 320.4 
L 2069.7075 320.4 
L 2074.59 320.4 
L 2079.4725 320.4 
L 2084.355 320.4 
L 2089.2375 320.4 
L 2094.12 320.4 
L 2099.0025 320.4 
L 2103.885 320.4 
L 2108.7675 320.4 
L 2113.65 320.4 
L 2118.5325 320.4 
L 2123.415 320.4 
L 2128.2975 320.4 
L 2133.18 320.4 
L 2138.0625 320.4 
L 2142.945 320.4 
L 2147.8275 320.4 
L 2152.71 320.4 
L 2157.5925 320.4 
L 2162.475 320.4 
L 2167.3575 320.4 
L 2172.24 320.4 
L 2177.1225 320.4 
L 2182.005 320.4 
L 2186.8875 320.4 
L 2191.77 320.4 
L 2196.6525 320.4 
L 2201.535 320.4 
L 2206.4175 320.4 
L 2211.3 320.4 
L 2216.1825 320.4 
L 2221.065 320.4 
L 2225.9475 320.4 
L 2230.83 320.4 
L 2235.7125 320.4 
L 2240.595 320.4 
L 2245.4775 320.4 
L 2250.36 320.4 
L 2255.2425 320.4 
L 2260.125 320.4 
L 2265.0075 320.4 
L 2269.89 320.4 
L 2274.7725 320.4 
L 2279.655 320.4 
L 2284.5375 320.4 
L 2289.42 320.4 
L 2294.3025 320.4 
L 2299.185 320.4 
L 2304.0675 320.4 
L 2308.95 320.4 
L 2313.8325 320.4 
L 2318.715 320.4 
L 2323.5975 320.4 
L 2328.48 320.4 
L 2333.3625 320.4 
L 2338.245 320.4 
L 2343.1275 320.4 
L 2348.01 320.4 
L 2352.8925 320.4 
L 2357.775 320.4 
L 2362.6575 320.4 
L 2367.54 320.4 
L 2372.4225 320.4 
L 2377.305 320.4 
L 2382.1875 320.4 
L 2387.07 320.4 
L 2391.9525 320.4 
L 2396.835 320.4 
L 2401.7175 320.4 
L 2406.6 320.4 
L 2411.4825 320.4 
L 2416.365 320.4 
L 2421.2475 320.4 
L 2426.13 320.4 
L 2431.0125 320.4 
L 2435.895 320.4 
L 2440.7775 320.4 
L 2445.66 320.4 
L 2450.5425 320.4 
L 2455.425 320.4 
L 2460.3075 320.4 
L 2465.19 320.4 
L 2470.0725 320.4 
L 2474.955 320.4 
L 2479.8375 320.4 
L 2484.72 320.4 
L 2489.6025 320.4 
L 2494.485 320.4 
L 2499.3675 320.4 
L 2504.25 320.4 
L 2509.1325 320.4 
L 2514.015 320.4 
L 2518.8975 320.4 
L 2523.78 320.4 
L 2528.6625 320.4 
L 2533.545 320.4 
L 2538.4275 320.4 
L 2543.31 320.4 
L 2548.1925 320.4 
L 2553.075 320.4 
L 2557.9575 320.4 
L 2562.84 320.4 
L 2567.7225 320.4 
L 2572.605 320.4 
L 2577.4875 320.4 
L 2582.37 320.4 
L 2587.2525 320.4 
L 2592.135 320.4 
L 2597.0175 320.4 
L 2601.9 320.4 
L 2606.7825 320.4 
L 2611.665 320.4 
L 2616.5475 320.4 
L 2621.43 320.4 
L 2626.3125 320.4 
L 2631.195 320.4 
L 2636.0775 320.4 
L 2640.96 320.4 
L 2645.8425 320.4 
L 2650.725 320.4 
L 2655.6075 320.4 
L 2660.49 320.4 
L 2665.3725 320.4 
L 2670.255 320.4 
L 2675.1375 320.4 
L 2680.02 320.4 
L 2684.9025 320.4 
L 2689.785 320.4 
L 2694.6675 320.4 
L 2699.55 320.4 
L 2704.4325 320.4 
L 2709.315 320.4 
L 2714.1975 320.4 
L 2719.08 320.4 
L 2723.9625 320.4 
L 2728.845 320.4 
L 2733.7275 320.4 
L 2738.61 320.4 
L 2743.4925 320.4 
L 2748.375 320.4 
L 2753.2575 320.4 
L 2758.14 320.4 
L 2763.0225 320.4 
L 2767.905 320.4 
L 2772.7875 320.4 
L 2777.67 320.4 
L 2782.5525 320.4 
L 2787.435 320.4 
L 2792.3175 320.4 
L 2797.2 320.4 
L 2802.0825 320.4 
L 2806.965 320.4 
L 2811.8475 320.4 
L 2816.73 320.4 
L 2821.6125 320.4 
L 2826.495 320.4 
L 2831.3775 320.4 
L 2836.26 320.4 
L 2841.1425 320.4 
L 2846.025 320.4 
L 2850.9075 320.4 
L 2855.79 320.4 
L 2860.6725 320.4 
L 2865.555 320.4 
L 2870.4375 320.4 
L 2875.32 320.4 
L 2880.2025 320.4 
L 2885.085 320.4 
L 2889.9675 320.4 
L 2894.85 320.4 
L 2899.7325 320.4 
L 2904.615 320.4 
L 2909.4975 320.4 
L 2914.38 320.4 
L 2919.2625 320.4 
L 2924.145 320.4 
L 2929.0275 320.4 
L 2933.91 320.4 
L 2938.7925 320.4 
L 2943.675 320.4 
L 2948.5575 320.4 
L 2953.44 320.4 
L 2958.3225 320.4 
L 2963.205 320.4 
L 2968.0875 320.4 
L 2972.97 320.4 
L 2977.8525 320.4 
L 2982.735 320.4 
L 2987.6175 320.4 
L 2992.5 320.4 
L 2997.3825 320.4 
L 3002.265 320.4 
L 3007.1475 320.4 
L 3012.03 320.4 
L 3016.9125 320.4 
L 3021.795 320.4 
L 3026.6775 320.4 
L 3031.56 320.4 
L 3036.4425 320.4 
L 3041.325 320.4 
L 3046.2075 320.4 
L 3051.09 320.4 
L 3055.9725 320.4 
L 3060.855 320.4 
L 3065.7375 320.4 
L 3070.62 320.4 
L 3075.5025 320.4 
L 3080.385 320.4 
L 3085.2675 320.4 
L 3090.15 320.4 
L 3095.0325 320.4 
L 3099.915 320.4 
L 3104.7975 320.4 
L 3109.68 320.4 
L 3114.5625 320.4 
L 3119.445 320.4 
L 3124.3275 320.4 
L 3129.21 320.4 
L 3134.0925 320.4 
L 3138.975 320.4 
L 3143.8575 320.4 
L 3148.74 320.4 
L 3153.6225 320.4 
L 3158.505 320.4 
L 3163.3875 320.4 
L 3168.27 320.4 
L 3173.1525 320.4 
L 3178.035 320.4 
L 3182.9175 320.4 
L 3187.8 320.4 
L 3192.6825 320.4 
L 3197.565 320.4 
L 3202.4475 320.4 
L 3207.33 320.4 
L 3212.2125 320.4 
L 3217.095 320.4 
L 3221.9775 320.4 
L 3226.86 320.4 
L 3231.7425 320.4 
L 3236.625 320.4 
L 3241.5075 320.4 
L 3246.39 320.4 
L 3251.2725 320.4 
L 3256.155 320.4 
L 3261.0375 320.4 
L 3265.92 320.4 
L 3270.8025 320.4 
L 3275.685 320.4 
L 3280.5675 320.4 
L 3285.45 320.4 
L 3290.3325 320.4 
L 3295.215 320.4 
L 3300.0975 320.4 
L 3304.98 320.4 
L 3309.8625 320.4 
L 3314.745 320.4 
L 3319.6275 320.4 
L 3324.51 320.4 
L 3329.3925 320.4 
L 3334.275 320.4 
L 3339.1575 320.4 
L 3339.1575 320.4 
L 3339.1575 320.4 
L 3334.275 320.4 
L 3329.3925 320.4 
L 3324.51 320.4 
L 3319.6275 320.4 
L 3314.745 320.4 
L 3309.8625 320.4 
L 3304.98 320.4 
L 3300.0975 320.4 
L 3295.215 320.4 
L 3290.3325 320.4 
L 3285.45 320.4 
L 3280.5675 320.4 
L 3275.685 320.4 
L 3270.8025 320.4 
L 3265.92 320.4 
L 3261.0375 320.4 
L 3256.155 320.4 
L 3251.2725 320.4 
L 3246.39 320.4 
L 3241.5075 320.4 
L 3236.625 320.4 
L 3231.7425 320.4 
L 3226.86 320.4 
L 3221.9775 320.4 
L 3217.095 320.4 
L 3212.2125 320.4 
L 3207.33 320.4 
L 3202.4475 320.4 
L 3197.565 320.4 
L 3192.6825 320.4 
L 3187.8 320.4 
L 3182.9175 320.4 
L 3178.035 320.4 
L 3173.1525 320.4 
L 3168.27 320.4 
L 3163.3875 320.4 
L 3158.505 320.4 
L 3153.6225 320.4 
L 3148.74 320.4 
L 3143.8575 320.4 
L 3138.975 320.4 
L 3134.0925 320.4 
L 3129.21 320.4 
L 3124.3275 320.4 
L 3119.445 320.4 
L 3114.5625 320.4 
L 3109.68 320.4 
L 3104.7975 320.4 
L 3099.915 320.4 
L 3095.0325 320.4 
L 3090.15 320.4 
L 3085.2675 320.4 
L 3080.385 320.4 
L 3075.5025 320.4 
L 3070.62 320.4 
L 3065.7375 320.4 
L 3060.855 320.4 
L 3055.9725 320.4 
L 3051.09 320.4 
L 3046.2075 320.4 
L 3041.325 320.4 
L 3036.4425 320.4 
L 3031.56 320.4 
L 3026.6775 320.4 
L 3021.795 320.4 
L 3016.9125 320.4 
L 3012.03 320.4 
L 3007.1475 320.4 
L 3002.265 320.4 
L 2997.3825 320.4 
L 2992.5 320.4 
L 2987.6175 320.4 
L 2982.735 320.4 
L 2977.8525 320.4 
L 2972.97 320.4 
L 2968.0875 320.4 
L 2963.205 320.4 
L 2958.3225 320.4 
L 2953.44 320.4 
L 2948.5575 320.4 
L 2943.675 320.4 
L 2938.7925 320.4 
L 2933.91 320.4 
L 2929.0275 320.4 
L 2924.145 320.4 
L 2919.2625 320.4 
L 2914.38 320.4 
L 2909.4975 320.4 
L 2904.615 320.4 
L 2899.7325 320.4 
L 2894.85 320.4 
L 2889.9675 320.4 
L 2885.085 320.4 
L 2880.2025 320.4 
L 2875.32 320.4 
L 2870.4375 320.4 
L 2865.555 320.4 
L 2860.6725 320.4 
L 2855.79 320.4 
L 2850.9075 320.4 
L 2846.025 320.4 
L 2841.1425 320.4 
L 2836.26 320.4 
L 2831.3775 320.4 
L 2826.495 320.4 
L 2821.6125 320.4 
L 2816.73 320.4 
L 2811.8475 320.4 
L 2806.965 320.4 
L 2802.0825 320.4 
L 2797.2 320.4 
L 2792.3175 320.4 
L 2787.435 320.4 
L 2782.5525 320.4 
L 2777.67 320.4 
L 2772.7875 320.4 
L 2767.905 320.4 
L 2763.0225 320.4 
L 2758.14 320.4 
L 2753.2575 320.4 
L 2748.375 320.4 
L 2743.4925 320.4 
L 2738.61 320.4 
L 2733.7275 320.4 
L 2728.845 320.4 
L 2723.9625 320.4 
L 2719.08 320.4 
L 2714.1975 320.4 
L 2709.315 320.4 
L 2704.4325 320.4 
L 2699.55 320.4 
L 2694.6675 320.4 
L 2689.785 320.4 
L 2684.9025 320.4 
L 2680.02 320.4 
L 2675.1375 320.4 
L 2670.255 320.4 
L 2665.3725 320.4 
L 2660.49 320.4 
L 2655.6075 320.4 
L 2650.725 320.4 
L 2645.8425 320.4 
L 2640.96 320.4 
L 2636.0775 320.4 
L 2631.195 320.4 
L 2626.3125 320.4 
L 2621.43 320.4 
L 2616.5475 320.4 
L 2611.665 320.4 
L 2606.7825 320.4 
L 2601.9 320.4 
L 2597.0175 320.4 
L 2592.135 320.4 
L 2587.2525 320.4 
L 2582.37 320.4 
L 2577.4875 320.4 
L 2572.605 320.4 
L 2567.7225 320.4 
L 2562.84 320.4 
L 2557.9575 320.4 
L 2553.075 320.4 
L 2548.1925 320.4 
L 2543.31 320.4 
L 2538.4275 320.4 
L 2533.545 320.4 
L 2528.6625 320.4 
L 2523.78 320.4 
L 2518.8975 320.4 
L 2514.015 320.4 
L 2509.1325 320.4 
L 2504.25 320.4 
L 2499.3675 320.4 
L 2494.485 320.4 
L 2489.6025 320.4 
L 2484.72 320.4 
L 2479.8375 320.4 
L 2474.955 320.4 
L 2470.0725 320.4 
L 2465.19 320.4 
L 2460.3075 320.4 
L 2455.425 320.4 
L 2450.5425 320.4 
L 2445.66 320.4 
L 2440.7775 320.4 
L 2435.895 320.4 
L 2431.0125 320.4 
L 2426.13 320.4 
L 2421.2475 320.4 
L 2416.365 320.4 
L 2411.4825 320.4 
L 2406.6 320.4 
L 2401.7175 320.4 
L 2396.835 320.4 
L 2391.9525 320.4 
L 2387.07 320.4 
L 2382.1875 320.4 
L 2377.305 320.4 
L 2372.4225 320.4 
L 2367.54 320.4 
L 2362.6575 320.4 
L 2357.775 320.4 
L 2352.8925 320.4 
L 2348.01 320.4 
L 2343.1275 320.4 
L 2338.245 320.4 
L 2333.3625 320.4 
L 2328.48 320.4 
L 2323.5975 320.4 
L 2318.715 320.4 
L 2313.8325 320.4 
L 2308.95 320.4 
L 2304.0675 320.4 
L 2299.185 320.4 
L 2294.3025 320.4 
L 2289.42 320.4 
L 2284.5375 320.4 
L 2279.655 320.4 
L 2274.7725 320.4 
L 2269.89 320.4 
L 2265.0075 320.4 
L 2260.125 320.4 
L 2255.2425 320.4 
L 2250.36 320.4 
L 2245.4775 320.4 
L 2240.595 320.4 
L 2235.7125 320.4 
L 2230.83 320.4 
L 2225.9475 320.4 
L 2221.065 320.4 
L 2216.1825 320.4 
L 2211.3 320.4 
L 2206.4175 320.4 
L 2201.535 320.4 
L 2196.6525 320.4 
L 2191.77 320.4 
L 2186.8875 320.4 
L 2182.005 320.4 
L 2177.1225 320.4 
L 2172.24 320.4 
L 2167.3575 320.4 
L 2162.475 320.4 
L 2157.5925 320.4 
L 2152.71 320.4 
L 2147.8275 320.4 
L 2142.945 320.4 
L 2138.0625 320.4 
L 2133.18 320.4 
L 2128.2975 320.4 
L 2123.415 320.4 
L 2118.5325 320.4 
L 2113.65 320.4 
L 2108.7675 320.4 
L 2103.885 320.4 
L 2099.0025 320.4 
L 2094.12 320.4 
L 2089.2375 320.4 
L 2084.355 320.4 
L 2079.4725 320.4 
L 2074.59 320.4 
L 2069.7075 320.4 
L 2064.825 320.4 
L 2059.9425 320.4 
L 2055.06 320.4 
L 2050.1775 320.4 
L 2045.295 320.4 
L 2040.4125 320.4 
L 2035.53 320.4 
L 2030.6475 320.4 
L 2025.765 320.4 
L 2020.8825 320.4 
L 2016 320.4 
L 2011.1175 320.4 
L 2006.235 320.4 
L 2001.3525 320.4 
L 1996.47 320.4 
L 1991.5875 320.4 
L 1986.705 320.4 
L 1981.8225 320.4 
L 1976.94 320.4 
L 1972.0575 320.4 
L 1967.175 320.4 
L 1962.2925 320.4 
L 1957.41 320.4 
L 1952.5275 320.4 
L 1947.645 320.4 
L 1942.7625 320.4 
L 1937.88 320.4 
L 1932.9975 320.4 
L 1928.115 320.4 
L 1923.2325 320.4 
L 1918.35 320.4 
L 1913.4675 320.4 
L 1908.585 320.4 
L 1903.7025 320.4 
L 1898.82 320.4 
L 1893.9375 320.4 
L 1889.055 320.4 
L 1884.1725 320.4 
L 1879.29 320.4 
L 1874.4075 320.4 
L 1869.525 320.4 
L 1864.6425 320.4 
L 1859.76 320.4 
L 1854.8775 320.4 
L 1849.995 320.4 
L 1845.1125 320.4 
L 1840.23 320.4 
L 1835.3475 320.4 
L 1830.465 320.4 
L 1825.5825 320.4 
L 1820.7 320.4 
L 1815.8175 320.4 
L 1810.935 320.4 
L 1806.0525 320.4 
L 1801.17 320.4 
L 1796.2875 320.4 
L 1791.405 320.4 
L 1786.5225 320.4 
L 1781.64 320.4 
L 1776.7575 320.4 
L 1771.875 320.4 
L 1766.9925 320.4 
L 1762.11 320.4 
L 1757.2275 320.4 
L 1752.345 320.4 
L 1747.4625 320.4 
L 1742.58 320.4 
L 1737.6975 320.4 
L 1732.815 320.4 
L 1727.9325 320.4 
L 1723.05 320.4 
L 1718.1675 320.4 
L 1713.285 320.4 
L 1708.4025 320.4 
L 1703.52 320.4 
L 1698.6375 320.4 
L 1693.755 320.4 
L 1688.8725 320.4 
L 1683.99 320.4 
L 1679.1075 320.4 
L 1674.225 320.4 
L 1669.3425 320.4 
L 1664.46 320.4 
L 1659.5775 320.4 
L 1654.695 320.4 
L 1649.8125 320.4 
L 1644.93 320.4 
L 1640.0475 320.4 
L 1635.165 320.4 
L 1630.2825 320.4 
L 1625.4 320.4 
L 1620.5175 320.4 
L 1615.635 320.4 
L 1610.7525 320.4 
L 1605.87 320.4 
L 1600.9875 320.4 
L 1596.105 320.4 
L 1591.2225 320.4 
L 1586.34 320.4 
L 1581.4575 320.4 
L 1576.575 320.4 
L 1571.6925 320.4 
L 1566.81 320.4 
L 1561.9275 320.4 
L 1557.045 320.4 
L 1552.1625 320.4 
L 1547.28 320.4 
L 1542.3975 320.4 
L 1537.515 320.4 
L 1532.6325 320.4 
L 1527.75 320.4 
L 1522.8675 320.4 
L 1517.985 320.4 
L 1513.1025 320.4 
L 1508.22 320.4 
L 1503.3375 320.4 
L 1498.455 320.4 
L 1493.5725 320.4 
L 1488.69 320.4 
L 1483.8075 320.4 
L 1478.925 320.4 
L 1474.0425 320.4 
L 1469.16 320.4 
L 1464.2775 320.4 
L 1459.395 320.4 
L 1454.5125 320.4 
L 1449.63 320.4 
L 1444.7475 320.4 
L 1439.865 320.4 
L 1434.9825 320.4 
L 1430.1 320.4 
L 1425.2175 320.4 
L 1420.335 320.4 
L 1415.4525 320.4 
L 1410.57 320.4 
L 1405.6875 320.4 
L 1400.805 320.4 
L 1395.9225 320.4 
L 1391.04 320.4 
L 1386.1575 320.4 
L 1381.275 320.4 
L 1376.3925 320.4 
L 1371.51 320.4 
L 1366.6275 320.4 
L 1361.745 320.4 
L 1356.8625 320.4 
L 1351.98 320.4 
L 1347.0975 320.4 
L 1342.215 320.4 
L 1337.3325 320.4 
L 1332.45 320.4 
L 1327.5675 320.4 
L 1322.685 320.4 
L 1317.8025 320.4 
L 1312.92 320.4 
L 1308.0375 320.4 
L 1303.155 320.4 
L 1298.2725 320.4 
L 1293.39 320.4 
L 1288.5075 320.4 
L 1283.625 320.4 
L 1278.7425 320.4 
L 1273.86 320.4 
L 1268.9775 320.4 
L 1264.095 320.4 
L 1259.2125 320.4 
L 1254.33 320.4 
L 1249.4475 320.4 
L 1244.565 320.4 
L 1239.6825 320.4 
L 1234.8 320.4 
L 1229.9175 320.4 
L 1225.035 320.4 
L 1220.1525 320.4 
L 1215.27 320.4 
L 1210.3875 320.4 
L 1205.505 320.4 
L 1200.6225 320.4 
L 1195.74 320.4 
L 1190.8575 320.4 
L 1185.975 320.4 
L 1181.0925 320.4 
L 1176.21 320.4 
L 1171.3275 320.4 
L 1166.445 320.4 
L 1161.5625 320.4 
L 1156.68 320.4 
L 1151.7975 320.4 
L 1146.915 320.4 
L 1142.0325 320.4 
L 1137.15 320.4 
L 1132.2675 320.4 
L 1127.385 320.4 
L 1122.5025 320.4 
L 1117.62 320.4 
L 1112.7375 320.4 
L 1107.855 320.4 
L 1102.9725 320.4 
L 1098.09 320.4 
L 1093.2075 320.4 
L 1088.325 320.4 
L 1083.4425 320.4 
L 1078.56 320.4 
L 1073.6775 320.4 
L 1068.795 320.4 
L 1063.9125 320.4 
L 1059.03 320.4 
L 1054.1475 320.4 
L 1049.265 320.4 
L 1044.3825 320.4 
L 1039.5 320.4 
L 1034.6175 320.4 
L 1029.735 320.4 
L 1024.8525 320.4 
L 1019.97 320.4 
L 1015.0875 320.4 
L 1010.205 320.4 
L 1005.3225 320.4 
L 1000.44 320.4 
L 995.5575 320.4 
L 990.675 320.4 
L 985.7925 320.4 
L 980.91 320.4 
L 976.0275 320.4 
L 971.145 320.4 
L 966.2625 320.4 
L 961.38 320.4 
L 956.4975 320.4 
L 951.615 320.4 
L 946.7325 320.4 
L 941.85 320.4 
L 936.9675 320.4 
L 932.085 320.4 
L 927.2025 320.4 
L 922.32 320.4 
L 917.4375 320.4 
L 912.555 320.4 
L 907.6725 320.4 
L 902.79 320.4 
L 897.9075 320.4 
L 893.025 320.4 
L 888.1425 320.4 
L 883.26 320.4 
L 878.3775 320.4 
L 873.495 320.4 
L 868.6125 320.4 
L 863.73 320.4 
L 858.8475 320.4 
L 853.965 320.4 
L 849.0825 320.4 
L 844.2 320.4 
L 839.3175 320.4 
L 834.435 320.4 
L 829.5525 320.4 
L 824.67 320.4 
L 819.7875 320.4 
L 814.905 320.4 
L 810.0225 320.4 
L 805.14 320.4 
L 800.2575 320.4 
L 795.375 320.4 
L 790.4925 320.4 
L 785.61 320.4 
L 780.7275 320.4 
L 775.845 320.4 
L 770.9625 320.4 
L 766.08 320.4 
L 761.1975 320.4 
L 756.315 320.4 
L 751.4325 320.4 
L 746.55 320.4 
L 741.6675 320.4 
L 736.785 320.4 
L 731.9025 320.4 
L 727.02 320.4 
L 722.1375 320.4 
L 717.255 320.4 
L 712.3725 320.4 
L 707.49 320.4 
L 702.6075 320.4 
L 697.725 320.4 
L 692.8425 320.4 
L 687.96 320.4 
L 683.0775 320.4 
L 678.195 320.4 
L 673.3125 320.4 
L 668.43 320.4 
L 663.5475 320.4 
L 658.665 320.4 
L 653.7825 320.4 
L 648.9 320.4 
L 644.0175 320.4 
L 639.135 320.4 
L 634.2525 320.4 
L 629.37 320.4 
L 624.4875 320.4 
L 619.605 320.4 
L 614.7225 320.4 
L 609.84 320.4 
L 604.9575 320.4 
L 600.075 320.4 
L 595.1925 320.4 
L 590.31 320.4 
L 585.4275 320.4 
L 580.545 320.4 
L 575.6625 320.4 
L 570.78 320.4 
L 565.8975 320.4 
L 561.015 320.4 
L 556.1325 320.4 
L 551.25 320.4 
L 546.3675 320.4 
L 541.485 320.4 
L 536.6025 320.4 
L 531.72 320.4 
L 526.8375 320.4 
L 521.955 320.4 
L 517.0725 320.4 
L 512.19 320.4 
L 507.3075 320.4 
L 502.425 320.4 
L 497.5425 320.4 
L 492.66 320.4 
L 487.7775 320.4 
L 482.895 320.4 
L 478.0125 320.4 
L 473.13 320.4 
L 468.2475 320.4 
L 463.365 320.4 
L 458.4825 320.4 
L 453.6 320.4 
L 448.7175 320.4 
L 443.835 320.4 
L 438.9525 320.4 
L 434.07 320.4 
L 429.1875 320.4 
L 424.305 320.4 
L 419.4225 320.4 
L 414.54 320.4 
L 409.6575 320.4 
L 404.775 320.4 
L 399.8925 320.4 
L 395.01 320.4 
L 390.1275 320.4 
L 385.245 320.4 
L 380.3625 320.4 
L 375.48 320.4 
L 370.5975 320.4 
L 365.715 320.4 
L 360.8325 320.4 
L 355.95 320.4 
L 351.0675 320.4 
L 346.185 320.4 
L 341.3025 320.4 
L 336.42 320.4 
L 331.5375 320.4 
L 326.655 320.4 
L 321.7725 320.4 
L 316.89 320.4 
L 312.0075 320.4 
L 307.125 320.4 
L 302.2425 320.4 
L 297.36 320.4 
L 292.4775 320.4 
L 287.595 320.4 
L 282.7125 320.4 
L 277.83 320.4 
L 272.9475 320.4 
L 268.065 320.4 
L 263.1825 320.4 
L 258.3 320.4 
L 253.4175 320.4 
L 248.535 320.4 
L 243.6525 320.4 
L 238.77 320.4 
L 233.8875 320.4 
L 229.005 320.4 
L 224.1225 320.4 
L 219.24 320.4 
L 214.3575 320.4 
L 209.475 311.128276 
L 204.5925 311.128276 
L 199.71 305.704665 
L 194.8275 298.871724 
L 189.945 292.584828 
L 185.0625 285.099257 
L 180.18 277.889494 
L 175.2975 271.39521 
L 170.415 263.57098 
L 165.5325 255.188044 
L 160.65 246.704934 
L 155.7675 238.18504 
L 150.885 229.64927 
L 146.0025 221.090366 
L 141.12 212.529452 
L 136.2375 203.970109 
L 131.355 195.408373 
L 126.4725 186.846598 
L 121.59 178.923719 
L 116.7075 172.226838 
L 111.825 164.184731 
L 106.9425 155.806131 
L 102.06 147.244167 
L 97.1775 138.679423 
L 92.295 130.112155 
L 87.4125 121.540394 
L 82.53 112.960294 
L 77.6475 104.365008 
L 72.765 95.742893 
L 67.8825 87.075716 
L 63 80.081838 
z
" clip-path="url(#pdb3bc450ef)" style="fill: #008400; fill-opacity: 0.5; stroke: #008400; stroke-opacity: 0.5"/>
   </g>
   <g id="FillBetweenPolyCollection_7">
    <path d="M 63 68.129489 
L 63 123.274332 
L 67.8825 129.913748 
L 72.765 138.481091 
L 77.6475 147.045983 
L 82.53 155.609621 
L 87.4125 164.172523 
L 92.295 172.734922 
L 97.1775 181.297248 
L 102.06 189.85933 
L 106.9425 198.417647 
L 111.825 206.890329 
L 116.7075 215.030315 
L 121.59 222.64792 
L 126.4725 230.984828 
L 131.355 239.5103 
L 136.2375 248.07221 
L 141.12 256.586034 
L 146.0025 264.980311 
L 150.885 273.230449 
L 155.7675 281.737607 
L 160.65 289.6 
L 165.5325 296.432941 
L 170.415 301.856552 
L 175.2975 311.128276 
L 180.18 311.128276 
L 185.0625 320.4 
L 189.945 320.4 
L 194.8275 320.4 
L 199.71 320.4 
L 204.5925 320.4 
L 209.475 320.4 
L 214.3575 320.4 
L 219.24 320.4 
L 224.1225 320.4 
L 229.005 320.4 
L 233.8875 320.4 
L 238.77 320.4 
L 243.6525 320.4 
L 248.535 320.4 
L 253.4175 320.4 
L 258.3 320.4 
L 263.1825 320.4 
L 268.065 320.4 
L 272.9475 320.4 
L 277.83 320.4 
L 282.7125 320.4 
L 287.595 320.4 
L 292.4775 320.4 
L 297.36 320.4 
L 302.2425 320.4 
L 307.125 320.4 
L 312.0075 320.4 
L 316.89 320.4 
L 321.7725 320.4 
L 326.655 320.4 
L 331.5375 320.4 
L 336.42 320.4 
L 341.3025 320.4 
L 346.185 320.4 
L 351.0675 320.4 
L 355.95 320.4 
L 360.8325 320.4 
L 365.715 320.4 
L 370.5975 320.4 
L 375.48 320.4 
L 380.3625 320.4 
L 385.245 320.4 
L 390.1275 320.4 
L 395.01 320.4 
L 399.8925 320.4 
L 404.775 320.4 
L 409.6575 320.4 
L 414.54 320.4 
L 419.4225 320.4 
L 424.305 320.4 
L 429.1875 320.4 
L 434.07 320.4 
L 438.9525 320.4 
L 443.835 320.4 
L 448.7175 320.4 
L 453.6 320.4 
L 458.4825 320.4 
L 463.365 320.4 
L 468.2475 320.4 
L 473.13 320.4 
L 478.0125 320.4 
L 482.895 320.4 
L 487.7775 320.4 
L 492.66 320.4 
L 497.5425 320.4 
L 502.425 320.4 
L 507.3075 320.4 
L 512.19 320.4 
L 517.0725 320.4 
L 521.955 320.4 
L 526.8375 320.4 
L 531.72 320.4 
L 536.6025 320.4 
L 541.485 320.4 
L 546.3675 320.4 
L 551.25 320.4 
L 556.1325 320.4 
L 561.015 320.4 
L 565.8975 320.4 
L 570.78 320.4 
L 575.6625 320.4 
L 580.545 320.4 
L 585.4275 320.4 
L 590.31 320.4 
L 595.1925 320.4 
L 600.075 320.4 
L 604.9575 320.4 
L 609.84 320.4 
L 614.7225 320.4 
L 619.605 320.4 
L 624.4875 320.4 
L 629.37 320.4 
L 634.2525 320.4 
L 639.135 320.4 
L 644.0175 320.4 
L 648.9 320.4 
L 653.7825 320.4 
L 658.665 320.4 
L 663.5475 320.4 
L 668.43 320.4 
L 673.3125 320.4 
L 678.195 320.4 
L 683.0775 320.4 
L 687.96 320.4 
L 692.8425 320.4 
L 697.725 320.4 
L 702.6075 320.4 
L 707.49 320.4 
L 712.3725 320.4 
L 717.255 320.4 
L 722.1375 320.4 
L 727.02 320.4 
L 731.9025 320.4 
L 736.785 320.4 
L 741.6675 320.4 
L 746.55 320.4 
L 751.4325 320.4 
L 756.315 320.4 
L 761.1975 320.4 
L 766.08 320.4 
L 770.9625 320.4 
L 775.845 320.4 
L 780.7275 320.4 
L 785.61 320.4 
L 790.4925 320.4 
L 795.375 320.4 
L 800.2575 320.4 
L 805.14 320.4 
L 810.0225 320.4 
L 814.905 320.4 
L 819.7875 320.4 
L 824.67 320.4 
L 829.5525 320.4 
L 834.435 320.4 
L 839.3175 320.4 
L 844.2 320.4 
L 849.0825 320.4 
L 853.965 320.4 
L 858.8475 320.4 
L 863.73 320.4 
L 868.6125 320.4 
L 873.495 320.4 
L 878.3775 320.4 
L 883.26 320.4 
L 888.1425 320.4 
L 893.025 320.4 
L 897.9075 320.4 
L 902.79 320.4 
L 907.6725 320.4 
L 912.555 320.4 
L 917.4375 320.4 
L 922.32 320.4 
L 927.2025 320.4 
L 932.085 320.4 
L 936.9675 320.4 
L 941.85 320.4 
L 946.7325 320.4 
L 951.615 320.4 
L 956.4975 320.4 
L 961.38 320.4 
L 966.2625 320.4 
L 971.145 320.4 
L 976.0275 320.4 
L 980.91 320.4 
L 985.7925 320.4 
L 990.675 320.4 
L 995.5575 320.4 
L 1000.44 320.4 
L 1005.3225 320.4 
L 1010.205 320.4 
L 1015.0875 320.4 
L 1019.97 320.4 
L 1024.8525 320.4 
L 1029.735 320.4 
L 1034.6175 320.4 
L 1039.5 320.4 
L 1044.3825 320.4 
L 1049.265 320.4 
L 1054.1475 320.4 
L 1059.03 320.4 
L 1063.9125 320.4 
L 1068.795 320.4 
L 1073.6775 320.4 
L 1078.56 320.4 
L 1083.4425 320.4 
L 1088.325 320.4 
L 1093.2075 320.4 
L 1098.09 320.4 
L 1102.9725 320.4 
L 1107.855 320.4 
L 1112.7375 320.4 
L 1117.62 320.4 
L 1122.5025 320.4 
L 1127.385 320.4 
L 1132.2675 320.4 
L 1137.15 320.4 
L 1142.0325 320.4 
L 1146.915 320.4 
L 1151.7975 320.4 
L 1156.68 320.4 
L 1161.5625 320.4 
L 1166.445 320.4 
L 1171.3275 320.4 
L 1176.21 320.4 
L 1181.0925 320.4 
L 1185.975 320.4 
L 1190.8575 320.4 
L 1195.74 320.4 
L 1200.6225 320.4 
L 1205.505 320.4 
L 1210.3875 320.4 
L 1215.27 320.4 
L 1220.1525 320.4 
L 1225.035 320.4 
L 1229.9175 320.4 
L 1234.8 320.4 
L 1239.6825 320.4 
L 1244.565 320.4 
L 1249.4475 320.4 
L 1254.33 320.4 
L 1259.2125 320.4 
L 1264.095 320.4 
L 1268.9775 320.4 
L 1273.86 320.4 
L 1278.7425 320.4 
L 1283.625 320.4 
L 1288.5075 320.4 
L 1293.39 320.4 
L 1298.2725 320.4 
L 1303.155 320.4 
L 1308.0375 320.4 
L 1312.92 320.4 
L 1317.8025 320.4 
L 1322.685 320.4 
L 1327.5675 320.4 
L 1332.45 320.4 
L 1337.3325 320.4 
L 1342.215 320.4 
L 1347.0975 320.4 
L 1351.98 320.4 
L 1356.8625 320.4 
L 1361.745 320.4 
L 1366.6275 320.4 
L 1371.51 320.4 
L 1376.3925 320.4 
L 1381.275 320.4 
L 1386.1575 320.4 
L 1391.04 320.4 
L 1395.9225 320.4 
L 1400.805 320.4 
L 1405.6875 320.4 
L 1410.57 320.4 
L 1415.4525 320.4 
L 1420.335 320.4 
L 1425.2175 320.4 
L 1430.1 320.4 
L 1434.9825 320.4 
L 1439.865 320.4 
L 1444.7475 320.4 
L 1449.63 320.4 
L 1454.5125 320.4 
L 1459.395 320.4 
L 1464.2775 320.4 
L 1469.16 320.4 
L 1474.0425 320.4 
L 1478.925 320.4 
L 1483.8075 320.4 
L 1488.69 320.4 
L 1493.5725 320.4 
L 1498.455 320.4 
L 1503.3375 320.4 
L 1508.22 320.4 
L 1513.1025 320.4 
L 1517.985 320.4 
L 1522.8675 320.4 
L 1527.75 320.4 
L 1532.6325 320.4 
L 1537.515 320.4 
L 1542.3975 320.4 
L 1547.28 320.4 
L 1552.1625 320.4 
L 1557.045 320.4 
L 1561.9275 320.4 
L 1566.81 320.4 
L 1571.6925 320.4 
L 1576.575 320.4 
L 1581.4575 320.4 
L 1586.34 320.4 
L 1591.2225 320.4 
L 1596.105 320.4 
L 1600.9875 320.4 
L 1605.87 320.4 
L 1610.7525 320.4 
L 1615.635 320.4 
L 1620.5175 320.4 
L 1625.4 320.4 
L 1630.2825 320.4 
L 1635.165 320.4 
L 1640.0475 320.4 
L 1644.93 320.4 
L 1649.8125 320.4 
L 1654.695 320.4 
L 1659.5775 320.4 
L 1664.46 320.4 
L 1669.3425 320.4 
L 1674.225 320.4 
L 1679.1075 320.4 
L 1683.99 320.4 
L 1688.8725 320.4 
L 1693.755 320.4 
L 1698.6375 320.4 
L 1703.52 320.4 
L 1708.4025 320.4 
L 1713.285 320.4 
L 1718.1675 320.4 
L 1723.05 320.4 
L 1727.9325 320.4 
L 1732.815 320.4 
L 1737.6975 320.4 
L 1742.58 320.4 
L 1747.4625 320.4 
L 1752.345 320.4 
L 1757.2275 320.4 
L 1762.11 320.4 
L 1766.9925 320.4 
L 1771.875 320.4 
L 1776.7575 320.4 
L 1781.64 320.4 
L 1786.5225 320.4 
L 1791.405 320.4 
L 1796.2875 320.4 
L 1801.17 320.4 
L 1806.0525 320.4 
L 1810.935 320.4 
L 1815.8175 320.4 
L 1820.7 320.4 
L 1825.5825 320.4 
L 1830.465 320.4 
L 1835.3475 320.4 
L 1840.23 320.4 
L 1845.1125 320.4 
L 1849.995 320.4 
L 1854.8775 320.4 
L 1859.76 320.4 
L 1864.6425 320.4 
L 1869.525 320.4 
L 1874.4075 320.4 
L 1879.29 320.4 
L 1884.1725 320.4 
L 1889.055 320.4 
L 1893.9375 320.4 
L 1898.82 320.4 
L 1903.7025 320.4 
L 1908.585 320.4 
L 1913.4675 320.4 
L 1918.35 320.4 
L 1923.2325 320.4 
L 1928.115 320.4 
L 1932.9975 320.4 
L 1937.88 320.4 
L 1942.7625 320.4 
L 1947.645 320.4 
L 1952.5275 320.4 
L 1957.41 320.4 
L 1962.2925 320.4 
L 1967.175 320.4 
L 1972.0575 320.4 
L 1976.94 320.4 
L 1981.8225 320.4 
L 1986.705 320.4 
L 1991.5875 320.4 
L 1996.47 320.4 
L 2001.3525 320.4 
L 2006.235 320.4 
L 2011.1175 320.4 
L 2016 320.4 
L 2020.8825 320.4 
L 2025.765 320.4 
L 2030.6475 320.4 
L 2035.53 320.4 
L 2040.4125 320.4 
L 2045.295 320.4 
L 2050.1775 320.4 
L 2055.06 320.4 
L 2059.9425 320.4 
L 2064.825 320.4 
L 2069.7075 320.4 
L 2074.59 320.4 
L 2079.4725 320.4 
L 2084.355 320.4 
L 2089.2375 320.4 
L 2094.12 320.4 
L 2099.0025 320.4 
L 2103.885 320.4 
L 2108.7675 320.4 
L 2113.65 320.4 
L 2118.5325 320.4 
L 2123.415 320.4 
L 2128.2975 320.4 
L 2133.18 320.4 
L 2138.0625 320.4 
L 2142.945 320.4 
L 2147.8275 320.4 
L 2152.71 320.4 
L 2157.5925 320.4 
L 2162.475 320.4 
L 2167.3575 320.4 
L 2172.24 320.4 
L 2177.1225 320.4 
L 2182.005 320.4 
L 2186.8875 320.4 
L 2191.77 320.4 
L 2196.6525 320.4 
L 2201.535 320.4 
L 2206.4175 320.4 
L 2211.3 320.4 
L 2216.1825 320.4 
L 2221.065 320.4 
L 2225.9475 320.4 
L 2230.83 320.4 
L 2235.7125 320.4 
L 2240.595 320.4 
L 2245.4775 320.4 
L 2250.36 320.4 
L 2255.2425 320.4 
L 2260.125 320.4 
L 2265.0075 320.4 
L 2269.89 320.4 
L 2274.7725 320.4 
L 2279.655 320.4 
L 2284.5375 320.4 
L 2289.42 320.4 
L 2294.3025 320.4 
L 2299.185 320.4 
L 2304.0675 320.4 
L 2308.95 320.4 
L 2313.8325 320.4 
L 2318.715 320.4 
L 2323.5975 320.4 
L 2328.48 320.4 
L 2333.3625 320.4 
L 2338.245 320.4 
L 2343.1275 320.4 
L 2348.01 320.4 
L 2352.8925 320.4 
L 2357.775 320.4 
L 2362.6575 320.4 
L 2367.54 320.4 
L 2372.4225 320.4 
L 2377.305 320.4 
L 2382.1875 320.4 
L 2387.07 320.4 
L 2391.9525 320.4 
L 2396.835 320.4 
L 2401.7175 320.4 
L 2406.6 320.4 
L 2411.4825 320.4 
L 2416.365 320.4 
L 2421.2475 320.4 
L 2426.13 320.4 
L 2431.0125 320.4 
L 2435.895 320.4 
L 2440.7775 320.4 
L 2445.66 320.4 
L 2450.5425 320.4 
L 2455.425 320.4 
L 2460.3075 320.4 
L 2465.19 320.4 
L 2470.0725 320.4 
L 2474.955 320.4 
L 2479.8375 320.4 
L 2484.72 320.4 
L 2489.6025 320.4 
L 2494.485 320.4 
L 2499.3675 320.4 
L 2504.25 320.4 
L 2509.1325 320.4 
L 2514.015 320.4 
L 2518.8975 320.4 
L 2523.78 320.4 
L 2528.6625 320.4 
L 2533.545 320.4 
L 2538.4275 320.4 
L 2543.31 320.4 
L 2548.1925 320.4 
L 2553.075 320.4 
L 2557.9575 320.4 
L 2562.84 320.4 
L 2567.7225 320.4 
L 2572.605 320.4 
L 2577.4875 320.4 
L 2582.37 320.4 
L 2587.2525 320.4 
L 2592.135 320.4 
L 2597.0175 320.4 
L 2601.9 320.4 
L 2606.7825 320.4 
L 2611.665 320.4 
L 2616.5475 320.4 
L 2621.43 320.4 
L 2626.3125 320.4 
L 2631.195 320.4 
L 2636.0775 320.4 
L 2640.96 320.4 
L 2645.8425 320.4 
L 2650.725 320.4 
L 2655.6075 320.4 
L 2660.49 320.4 
L 2665.3725 320.4 
L 2670.255 320.4 
L 2675.1375 320.4 
L 2680.02 320.4 
L 2684.9025 320.4 
L 2689.785 320.4 
L 2694.6675 320.4 
L 2699.55 320.4 
L 2704.4325 320.4 
L 2709.315 320.4 
L 2714.1975 320.4 
L 2719.08 320.4 
L 2723.9625 320.4 
L 2728.845 320.4 
L 2733.7275 320.4 
L 2738.61 320.4 
L 2743.4925 320.4 
L 2748.375 320.4 
L 2753.2575 320.4 
L 2758.14 320.4 
L 2763.0225 320.4 
L 2767.905 320.4 
L 2772.7875 320.4 
L 2777.67 320.4 
L 2782.5525 320.4 
L 2787.435 320.4 
L 2792.3175 320.4 
L 2797.2 320.4 
L 2802.0825 320.4 
L 2806.965 320.4 
L 2811.8475 320.4 
L 2816.73 320.4 
L 2821.6125 320.4 
L 2826.495 320.4 
L 2831.3775 320.4 
L 2836.26 320.4 
L 2841.1425 320.4 
L 2846.025 320.4 
L 2850.9075 320.4 
L 2855.79 320.4 
L 2860.6725 320.4 
L 2865.555 320.4 
L 2870.4375 320.4 
L 2875.32 320.4 
L 2880.2025 320.4 
L 2885.085 320.4 
L 2889.9675 320.4 
L 2894.85 320.4 
L 2899.7325 320.4 
L 2904.615 320.4 
L 2909.4975 320.4 
L 2914.38 320.4 
L 2919.2625 320.4 
L 2924.145 320.4 
L 2929.0275 320.4 
L 2933.91 320.4 
L 2938.7925 320.4 
L 2943.675 320.4 
L 2948.5575 320.4 
L 2953.44 320.4 
L 2958.3225 320.4 
L 2963.205 320.4 
L 2968.0875 320.4 
L 2972.97 320.4 
L 2977.8525 320.4 
L 2982.735 320.4 
L 2987.6175 320.4 
L 2992.5 320.4 
L 2997.3825 320.4 
L 3002.265 320.4 
L 3007.1475 320.4 
L 3012.03 320.4 
L 3016.9125 320.4 
L 3021.795 320.4 
L 3026.6775 320.4 
L 3031.56 320.4 
L 3036.4425 320.4 
L 3041.325 320.4 
L 3046.2075 320.4 
L 3051.09 320.4 
L 3055.9725 320.4 
L 3060.855 320.4 
L 3065.7375 320.4 
L 3070.62 320.4 
L 3075.5025 320.4 
L 3080.385 320.4 
L 3085.2675 320.4 
L 3090.15 320.4 
L 3095.0325 320.4 
L 3099.915 320.4 
L 3104.7975 320.4 
L 3109.68 320.4 
L 3114.5625 320.4 
L 3119.445 320.4 
L 3124.3275 320.4 
L 3129.21 320.4 
L 3134.0925 320.4 
L 3138.975 320.4 
L 3143.8575 320.4 
L 3148.74 320.4 
L 3153.6225 320.4 
L 3158.505 320.4 
L 3163.3875 320.4 
L 3168.27 320.4 
L 3173.1525 320.4 
L 3178.035 320.4 
L 3182.9175 320.4 
L 3187.8 320.4 
L 3192.6825 320.4 
L 3197.565 320.4 
L 3202.4475 320.4 
L 3207.33 320.4 
L 3212.2125 320.4 
L 3217.095 320.4 
L 3221.9775 320.4 
L 3226.86 320.4 
L 3231.7425 320.4 
L 3236.625 320.4 
L 3241.5075 320.4 
L 3246.39 320.4 
L 3251.2725 320.4 
L 3256.155 320.4 
L 3261.0375 320.4 
L 3265.92 320.4 
L 3270.8025 320.4 
L 3275.685 320.4 
L 3280.5675 320.4 
L 3285.45 320.4 
L 3290.3325 320.4 
L 3295.215 320.4 
L 3300.0975 320.4 
L 3304.98 320.4 
L 3309.8625 320.4 
L 3314.745 320.4 
L 3319.6275 320.4 
L 3324.51 320.4 
L 3329.3925 320.4 
L 3334.275 320.4 
L 3339.1575 320.4 
L 3339.1575 320.4 
L 3339.1575 320.4 
L 3334.275 320.4 
L 3329.3925 320.4 
L 3324.51 320.4 
L 3319.6275 320.4 
L 3314.745 320.4 
L 3309.8625 320.4 
L 3304.98 320.4 
L 3300.0975 320.4 
L 3295.215 320.4 
L 3290.3325 320.4 
L 3285.45 320.4 
L 3280.5675 320.4 
L 3275.685 320.4 
L 3270.8025 320.4 
L 3265.92 320.4 
L 3261.0375 320.4 
L 3256.155 320.4 
L 3251.2725 320.4 
L 3246.39 320.4 
L 3241.5075 320.4 
L 3236.625 320.4 
L 3231.7425 320.4 
L 3226.86 320.4 
L 3221.9775 320.4 
L 3217.095 320.4 
L 3212.2125 320.4 
L 3207.33 320.4 
L 3202.4475 320.4 
L 3197.565 320.4 
L 3192.6825 320.4 
L 3187.8 320.4 
L 3182.9175 320.4 
L 3178.035 320.4 
L 3173.1525 320.4 
L 3168.27 320.4 
L 3163.3875 320.4 
L 3158.505 320.4 
L 3153.6225 320.4 
L 3148.74 320.4 
L 3143.8575 320.4 
L 3138.975 320.4 
L 3134.0925 320.4 
L 3129.21 320.4 
L 3124.3275 320.4 
L 3119.445 320.4 
L 3114.5625 320.4 
L 3109.68 320.4 
L 3104.7975 320.4 
L 3099.915 320.4 
L 3095.0325 320.4 
L 3090.15 320.4 
L 3085.2675 320.4 
L 3080.385 320.4 
L 3075.5025 320.4 
L 3070.62 320.4 
L 3065.7375 320.4 
L 3060.855 320.4 
L 3055.9725 320.4 
L 3051.09 320.4 
L 3046.2075 320.4 
L 3041.325 320.4 
L 3036.4425 320.4 
L 3031.56 320.4 
L 3026.6775 320.4 
L 3021.795 320.4 
L 3016.9125 320.4 
L 3012.03 320.4 
L 3007.1475 320.4 
L 3002.265 320.4 
L 2997.3825 320.4 
L 2992.5 320.4 
L 2987.6175 320.4 
L 2982.735 320.4 
L 2977.8525 320.4 
L 2972.97 320.4 
L 2968.0875 320.4 
L 2963.205 320.4 
L 2958.3225 320.4 
L 2953.44 320.4 
L 2948.5575 320.4 
L 2943.675 320.4 
L 2938.7925 320.4 
L 2933.91 320.4 
L 2929.0275 320.4 
L 2924.145 320.4 
L 2919.2625 320.4 
L 2914.38 320.4 
L 2909.4975 320.4 
L 2904.615 320.4 
L 2899.7325 320.4 
L 2894.85 320.4 
L 2889.9675 320.4 
L 2885.085 320.4 
L 2880.2025 320.4 
L 2875.32 320.4 
L 2870.4375 320.4 
L 2865.555 320.4 
L 2860.6725 320.4 
L 2855.79 320.4 
L 2850.9075 320.4 
L 2846.025 320.4 
L 2841.1425 320.4 
L 2836.26 320.4 
L 2831.3775 320.4 
L 2826.495 320.4 
L 2821.6125 320.4 
L 2816.73 320.4 
L 2811.8475 320.4 
L 2806.965 320.4 
L 2802.0825 320.4 
L 2797.2 320.4 
L 2792.3175 320.4 
L 2787.435 320.4 
L 2782.5525 320.4 
L 2777.67 320.4 
L 2772.7875 320.4 
L 2767.905 320.4 
L 2763.0225 320.4 
L 2758.14 320.4 
L 2753.2575 320.4 
L 2748.375 320.4 
L 2743.4925 320.4 
L 2738.61 320.4 
L 2733.7275 320.4 
L 2728.845 320.4 
L 2723.9625 320.4 
L 2719.08 320.4 
L 2714.1975 320.4 
L 2709.315 320.4 
L 2704.4325 320.4 
L 2699.55 320.4 
L 2694.6675 320.4 
L 2689.785 320.4 
L 2684.9025 320.4 
L 2680.02 320.4 
L 2675.1375 320.4 
L 2670.255 320.4 
L 2665.3725 320.4 
L 2660.49 320.4 
L 2655.6075 320.4 
L 2650.725 320.4 
L 2645.8425 320.4 
L 2640.96 320.4 
L 2636.0775 320.4 
L 2631.195 320.4 
L 2626.3125 320.4 
L 2621.43 320.4 
L 2616.5475 320.4 
L 2611.665 320.4 
L 2606.7825 320.4 
L 2601.9 320.4 
L 2597.0175 320.4 
L 2592.135 320.4 
L 2587.2525 320.4 
L 2582.37 320.4 
L 2577.4875 320.4 
L 2572.605 320.4 
L 2567.7225 320.4 
L 2562.84 320.4 
L 2557.9575 320.4 
L 2553.075 320.4 
L 2548.1925 320.4 
L 2543.31 320.4 
L 2538.4275 320.4 
L 2533.545 320.4 
L 2528.6625 320.4 
L 2523.78 320.4 
L 2518.8975 320.4 
L 2514.015 320.4 
L 2509.1325 320.4 
L 2504.25 320.4 
L 2499.3675 320.4 
L 2494.485 320.4 
L 2489.6025 320.4 
L 2484.72 320.4 
L 2479.8375 320.4 
L 2474.955 320.4 
L 2470.0725 320.4 
L 2465.19 320.4 
L 2460.3075 320.4 
L 2455.425 320.4 
L 2450.5425 320.4 
L 2445.66 320.4 
L 2440.7775 320.4 
L 2435.895 320.4 
L 2431.0125 320.4 
L 2426.13 320.4 
L 2421.2475 320.4 
L 2416.365 320.4 
L 2411.4825 320.4 
L 2406.6 320.4 
L 2401.7175 320.4 
L 2396.835 320.4 
L 2391.9525 320.4 
L 2387.07 320.4 
L 2382.1875 320.4 
L 2377.305 320.4 
L 2372.4225 320.4 
L 2367.54 320.4 
L 2362.6575 320.4 
L 2357.775 320.4 
L 2352.8925 320.4 
L 2348.01 320.4 
L 2343.1275 320.4 
L 2338.245 320.4 
L 2333.3625 320.4 
L 2328.48 320.4 
L 2323.5975 320.4 
L 2318.715 320.4 
L 2313.8325 320.4 
L 2308.95 320.4 
L 2304.0675 320.4 
L 2299.185 320.4 
L 2294.3025 320.4 
L 2289.42 320.4 
L 2284.5375 320.4 
L 2279.655 320.4 
L 2274.7725 320.4 
L 2269.89 320.4 
L 2265.0075 320.4 
L 2260.125 320.4 
L 2255.2425 320.4 
L 2250.36 320.4 
L 2245.4775 320.4 
L 2240.595 320.4 
L 2235.7125 320.4 
L 2230.83 320.4 
L 2225.9475 320.4 
L 2221.065 320.4 
L 2216.1825 320.4 
L 2211.3 320.4 
L 2206.4175 320.4 
L 2201.535 320.4 
L 2196.6525 320.4 
L 2191.77 320.4 
L 2186.8875 320.4 
L 2182.005 320.4 
L 2177.1225 320.4 
L 2172.24 320.4 
L 2167.3575 320.4 
L 2162.475 320.4 
L 2157.5925 320.4 
L 2152.71 320.4 
L 2147.8275 320.4 
L 2142.945 320.4 
L 2138.0625 320.4 
L 2133.18 320.4 
L 2128.2975 320.4 
L 2123.415 320.4 
L 2118.5325 320.4 
L 2113.65 320.4 
L 2108.7675 320.4 
L 2103.885 320.4 
L 2099.0025 320.4 
L 2094.12 320.4 
L 2089.2375 320.4 
L 2084.355 320.4 
L 2079.4725 320.4 
L 2074.59 320.4 
L 2069.7075 320.4 
L 2064.825 320.4 
L 2059.9425 320.4 
L 2055.06 320.4 
L 2050.1775 320.4 
L 2045.295 320.4 
L 2040.4125 320.4 
L 2035.53 320.4 
L 2030.6475 320.4 
L 2025.765 320.4 
L 2020.8825 320.4 
L 2016 320.4 
L 2011.1175 320.4 
L 2006.235 320.4 
L 2001.3525 320.4 
L 1996.47 320.4 
L 1991.5875 320.4 
L 1986.705 320.4 
L 1981.8225 320.4 
L 1976.94 320.4 
L 1972.0575 320.4 
L 1967.175 320.4 
L 1962.2925 320.4 
L 1957.41 320.4 
L 1952.5275 320.4 
L 1947.645 320.4 
L 1942.7625 320.4 
L 1937.88 320.4 
L 1932.9975 320.4 
L 1928.115 320.4 
L 1923.2325 320.4 
L 1918.35 320.4 
L 1913.4675 320.4 
L 1908.585 320.4 
L 1903.7025 320.4 
L 1898.82 320.4 
L 1893.9375 320.4 
L 1889.055 320.4 
L 1884.1725 320.4 
L 1879.29 320.4 
L 1874.4075 320.4 
L 1869.525 320.4 
L 1864.6425 320.4 
L 1859.76 320.4 
L 1854.8775 320.4 
L 1849.995 320.4 
L 1845.1125 320.4 
L 1840.23 320.4 
L 1835.3475 320.4 
L 1830.465 320.4 
L 1825.5825 320.4 
L 1820.7 320.4 
L 1815.8175 320.4 
L 1810.935 320.4 
L 1806.0525 320.4 
L 1801.17 320.4 
L 1796.2875 320.4 
L 1791.405 320.4 
L 1786.5225 320.4 
L 1781.64 320.4 
L 1776.7575 320.4 
L 1771.875 320.4 
L 1766.9925 320.4 
L 1762.11 320.4 
L 1757.2275 320.4 
L 1752.345 320.4 
L 1747.4625 320.4 
L 1742.58 320.4 
L 1737.6975 320.4 
L 1732.815 320.4 
L 1727.9325 320.4 
L 1723.05 320.4 
L 1718.1675 320.4 
L 1713.285 320.4 
L 1708.4025 320.4 
L 1703.52 320.4 
L 1698.6375 320.4 
L 1693.755 320.4 
L 1688.8725 320.4 
L 1683.99 320.4 
L 1679.1075 320.4 
L 1674.225 320.4 
L 1669.3425 320.4 
L 1664.46 320.4 
L 1659.5775 320.4 
L 1654.695 320.4 
L 1649.8125 320.4 
L 1644.93 320.4 
L 1640.0475 320.4 
L 1635.165 320.4 
L 1630.2825 320.4 
L 1625.4 320.4 
L 1620.5175 320.4 
L 1615.635 320.4 
L 1610.7525 320.4 
L 1605.87 320.4 
L 1600.9875 320.4 
L 1596.105 320.4 
L 1591.2225 320.4 
L 1586.34 320.4 
L 1581.4575 320.4 
L 1576.575 320.4 
L 1571.6925 320.4 
L 1566.81 320.4 
L 1561.9275 320.4 
L 1557.045 320.4 
L 1552.1625 320.4 
L 1547.28 320.4 
L 1542.3975 320.4 
L 1537.515 320.4 
L 1532.6325 320.4 
L 1527.75 320.4 
L 1522.8675 320.4 
L 1517.985 320.4 
L 1513.1025 320.4 
L 1508.22 320.4 
L 1503.3375 320.4 
L 1498.455 320.4 
L 1493.5725 320.4 
L 1488.69 320.4 
L 1483.8075 320.4 
L 1478.925 320.4 
L 1474.0425 320.4 
L 1469.16 320.4 
L 1464.2775 320.4 
L 1459.395 320.4 
L 1454.5125 320.4 
L 1449.63 320.4 
L 1444.7475 320.4 
L 1439.865 320.4 
L 1434.9825 320.4 
L 1430.1 320.4 
L 1425.2175 320.4 
L 1420.335 320.4 
L 1415.4525 320.4 
L 1410.57 320.4 
L 1405.6875 320.4 
L 1400.805 320.4 
L 1395.9225 320.4 
L 1391.04 320.4 
L 1386.1575 320.4 
L 1381.275 320.4 
L 1376.3925 320.4 
L 1371.51 320.4 
L 1366.6275 320.4 
L 1361.745 320.4 
L 1356.8625 320.4 
L 1351.98 320.4 
L 1347.0975 320.4 
L 1342.215 320.4 
L 1337.3325 320.4 
L 1332.45 320.4 
L 1327.5675 320.4 
L 1322.685 320.4 
L 1317.8025 320.4 
L 1312.92 320.4 
L 1308.0375 320.4 
L 1303.155 320.4 
L 1298.2725 320.4 
L 1293.39 320.4 
L 1288.5075 320.4 
L 1283.625 320.4 
L 1278.7425 320.4 
L 1273.86 320.4 
L 1268.9775 320.4 
L 1264.095 320.4 
L 1259.2125 320.4 
L 1254.33 320.4 
L 1249.4475 320.4 
L 1244.565 320.4 
L 1239.6825 320.4 
L 1234.8 320.4 
L 1229.9175 320.4 
L 1225.035 320.4 
L 1220.1525 320.4 
L 1215.27 320.4 
L 1210.3875 320.4 
L 1205.505 320.4 
L 1200.6225 320.4 
L 1195.74 320.4 
L 1190.8575 320.4 
L 1185.975 320.4 
L 1181.0925 320.4 
L 1176.21 320.4 
L 1171.3275 320.4 
L 1166.445 320.4 
L 1161.5625 320.4 
L 1156.68 320.4 
L 1151.7975 320.4 
L 1146.915 320.4 
L 1142.0325 320.4 
L 1137.15 320.4 
L 1132.2675 320.4 
L 1127.385 320.4 
L 1122.5025 320.4 
L 1117.62 320.4 
L 1112.7375 320.4 
L 1107.855 320.4 
L 1102.9725 320.4 
L 1098.09 320.4 
L 1093.2075 320.4 
L 1088.325 320.4 
L 1083.4425 320.4 
L 1078.56 320.4 
L 1073.6775 320.4 
L 1068.795 320.4 
L 1063.9125 320.4 
L 1059.03 320.4 
L 1054.1475 320.4 
L 1049.265 320.4 
L 1044.3825 320.4 
L 1039.5 320.4 
L 1034.6175 320.4 
L 1029.735 320.4 
L 1024.8525 320.4 
L 1019.97 320.4 
L 1015.0875 320.4 
L 1010.205 320.4 
L 1005.3225 320.4 
L 1000.44 320.4 
L 995.5575 320.4 
L 990.675 320.4 
L 985.7925 320.4 
L 980.91 320.4 
L 976.0275 320.4 
L 971.145 320.4 
L 966.2625 320.4 
L 961.38 320.4 
L 956.4975 320.4 
L 951.615 320.4 
L 946.7325 320.4 
L 941.85 320.4 
L 936.9675 320.4 
L 932.085 320.4 
L 927.2025 320.4 
L 922.32 320.4 
L 917.4375 320.4 
L 912.555 320.4 
L 907.6725 320.4 
L 902.79 320.4 
L 897.9075 320.4 
L 893.025 320.4 
L 888.1425 320.4 
L 883.26 320.4 
L 878.3775 320.4 
L 873.495 320.4 
L 868.6125 320.4 
L 863.73 320.4 
L 858.8475 320.4 
L 853.965 320.4 
L 849.0825 320.4 
L 844.2 320.4 
L 839.3175 320.4 
L 834.435 320.4 
L 829.5525 320.4 
L 824.67 320.4 
L 819.7875 320.4 
L 814.905 320.4 
L 810.0225 320.4 
L 805.14 320.4 
L 800.2575 320.4 
L 795.375 320.4 
L 790.4925 320.4 
L 785.61 320.4 
L 780.7275 320.4 
L 775.845 320.4 
L 770.9625 320.4 
L 766.08 320.4 
L 761.1975 320.4 
L 756.315 320.4 
L 751.4325 320.4 
L 746.55 320.4 
L 741.6675 320.4 
L 736.785 320.4 
L 731.9025 320.4 
L 727.02 320.4 
L 722.1375 320.4 
L 717.255 320.4 
L 712.3725 320.4 
L 707.49 320.4 
L 702.6075 320.4 
L 697.725 320.4 
L 692.8425 320.4 
L 687.96 320.4 
L 683.0775 320.4 
L 678.195 320.4 
L 673.3125 320.4 
L 668.43 320.4 
L 663.5475 320.4 
L 658.665 320.4 
L 653.7825 320.4 
L 648.9 320.4 
L 644.0175 320.4 
L 639.135 320.4 
L 634.2525 320.4 
L 629.37 320.4 
L 624.4875 320.4 
L 619.605 320.4 
L 614.7225 320.4 
L 609.84 320.4 
L 604.9575 320.4 
L 600.075 320.4 
L 595.1925 320.4 
L 590.31 320.4 
L 585.4275 320.4 
L 580.545 320.4 
L 575.6625 320.4 
L 570.78 320.4 
L 565.8975 320.4 
L 561.015 320.4 
L 556.1325 320.4 
L 551.25 320.4 
L 546.3675 320.4 
L 541.485 320.4 
L 536.6025 320.4 
L 531.72 320.4 
L 526.8375 320.4 
L 521.955 320.4 
L 517.0725 320.4 
L 512.19 320.4 
L 507.3075 320.4 
L 502.425 320.4 
L 497.5425 320.4 
L 492.66 320.4 
L 487.7775 320.4 
L 482.895 320.4 
L 478.0125 320.4 
L 473.13 320.4 
L 468.2475 320.4 
L 463.365 320.4 
L 458.4825 320.4 
L 453.6 320.4 
L 448.7175 320.4 
L 443.835 320.4 
L 438.9525 320.4 
L 434.07 320.4 
L 429.1875 320.4 
L 424.305 320.4 
L 419.4225 320.4 
L 414.54 320.4 
L 409.6575 320.4 
L 404.775 320.4 
L 399.8925 320.4 
L 395.01 320.4 
L 390.1275 320.4 
L 385.245 320.4 
L 380.3625 320.4 
L 375.48 320.4 
L 370.5975 320.4 
L 365.715 320.4 
L 360.8325 320.4 
L 355.95 320.4 
L 351.0675 320.4 
L 346.185 320.4 
L 341.3025 320.4 
L 336.42 320.4 
L 331.5375 320.4 
L 326.655 320.4 
L 321.7725 320.4 
L 316.89 320.4 
L 312.0075 320.4 
L 307.125 320.4 
L 302.2425 320.4 
L 297.36 320.4 
L 292.4775 320.4 
L 287.595 320.4 
L 282.7125 320.4 
L 277.83 320.4 
L 272.9475 320.4 
L 268.065 320.4 
L 263.1825 320.4 
L 258.3 320.4 
L 253.4175 320.4 
L 248.535 320.4 
L 243.6525 320.4 
L 238.77 320.4 
L 233.8875 320.4 
L 229.005 320.4 
L 224.1225 320.4 
L 219.24 320.4 
L 214.3575 311.128276 
L 209.475 305.704665 
L 204.5925 301.856552 
L 199.71 294.37098 
L 194.8275 286.090545 
L 189.945 278.430318 
L 185.0625 269.781658 
L 180.18 262.818686 
L 175.2975 258.14103 
L 170.415 251.087064 
L 165.5325 242.870366 
L 160.65 234.329768 
L 155.7675 225.785468 
L 150.885 217.223712 
L 146.0025 208.664046 
L 141.12 200.104229 
L 136.2375 191.543278 
L 131.355 182.981086 
L 126.4725 174.451445 
L 121.59 166.693523 
L 116.7075 160.28137 
L 111.825 152.387372 
L 106.9425 144.096772 
L 102.06 135.537945 
L 97.1775 126.969339 
L 92.295 118.395091 
L 87.4125 109.810428 
L 82.53 101.20697 
L 77.6475 92.570835 
L 72.765 83.88112 
L 67.8825 75.110332 
L 63 68.129489 
z
" clip-path="url(#pdb3bc450ef)" style="fill: #008400; fill-opacity: 0.1; stroke: #008400; stroke-opacity: 0.1"/>
   </g>
   <g id="line2d_18">
    <path d="M 63 102.345087 
L 97.1775 162.361813 
L 106.9425 179.260386 
L 111.825 187.217177 
L 116.7075 193.977067 
L 121.59 201.85966 
L 155.7675 261.618661 
L 160.65 270.089172 
L 165.5325 277.889494 
L 170.415 285.099257 
L 175.2975 292.584828 
L 180.18 298.871724 
L 185.0625 305.704665 
L 189.945 311.128276 
L 194.8275 311.128276 
L 199.71 320.4 
L 505 320.4 
L 505 320.4 
" clip-path="url(#pdb3bc450ef)" style="fill: none; stroke: #000000; stroke-width: 1.5; stroke-linecap: round"/>
   </g>
   <g id="line2d_19">
    <path d="M 63 129.913748 
L 106.9425 206.890329 
L 111.825 215.030315 
L 116.7075 222.64792 
L 126.4725 239.5103 
L 141.12 264.980311 
L 146.0025 273.230449 
L 150.885 281.737607 
L 155.7675 289.6 
L 160.65 296.432941 
L 165.5325 301.856552 
L 170.415 311.128276 
L 175.2975 311.128276 
L 180.18 320.4 
L 505 320.4 
L 505 320.4 
" clip-path="url(#pdb3bc450ef)" style="fill: none; stroke-dasharray: 5.55,2.4; stroke-dashoffset: 0; stroke: #000000; stroke-width: 1.5"/>
   </g>
   <g id="line2d_20">
    <path d="M 63 117.906432 
L 102.06 186.380005 
L 106.9425 194.846205 
L 111.825 202.918097 
L 116.7075 209.551359 
L 121.59 217.557145 
L 146.0025 260.209331 
L 155.7675 276.818821 
L 160.65 285.099257 
L 165.5325 292.584828 
L 170.415 298.871724 
L 175.2975 305.704665 
L 180.18 311.128276 
L 185.0625 311.128276 
L 189.945 320.4 
L 505 320.4 
L 505 320.4 
" clip-path="url(#pdb3bc450ef)" style="fill: none; stroke-dasharray: 5.55,2.4; stroke-dashoffset: 0; stroke: #000000; stroke-width: 1.5"/>
   </g>
   <g id="line2d_21">
    <path d="M 63 87.075716 
L 82.53 121.540394 
L 106.9425 164.184731 
L 111.825 172.226838 
L 116.7075 178.923719 
L 121.59 186.846598 
L 160.65 255.188044 
L 165.5325 263.57098 
L 170.415 271.39521 
L 175.2975 277.889494 
L 180.18 285.099257 
L 185.0625 292.584828 
L 189.945 298.871724 
L 194.8275 305.704665 
L 199.71 311.128276 
L 204.5925 311.128276 
L 209.475 320.4 
L 505 320.4 
L 505 320.4 
" clip-path="url(#pdb3bc450ef)" style="fill: none; stroke-dasharray: 5.55,2.4; stroke-dashoffset: 0; stroke: #000000; stroke-width: 1.5"/>
   </g>
   <g id="line2d_22">
    <path d="M 63 75.110332 
L 77.6475 101.20697 
L 102.06 144.096772 
L 106.9425 152.387372 
L 111.825 160.28137 
L 116.7075 166.693523 
L 121.59 174.451445 
L 165.5325 251.087064 
L 170.415 258.14103 
L 175.2975 262.818686 
L 180.18 269.781658 
L 185.0625 278.430318 
L 189.945 286.090545 
L 194.8275 294.37098 
L 199.71 301.856552 
L 204.5925 305.704665 
L 209.475 311.128276 
L 214.3575 320.4 
L 505 320.4 
L 505 320.4 
" clip-path="url(#pdb3bc450ef)" style="fill: none; stroke-dasharray: 5.55,2.4; stroke-dashoffset: 0; stroke: #000000; stroke-width: 1.5"/>
   </g>
   <g id="patch_3">
    <path d="M 63 320.4 
L 63 43.2 
" style="fill: none; stroke: #262626; stroke-width: 0.8; stroke-linejoin: miter; stroke-linecap: square"/>
   </g>
   <g id="patch_4">
    <path d="M 453.6 320.4 
L 453.6 43.2 
" style="fill: none; stroke: #262626; stroke-width: 0.8; stroke-linejoin: miter; stroke-linecap: square"/>
   </g>
   <g id="patch_5">
    <path d="M 63 320.4 
L 453.6 320.4 
" style="fill: none; stroke: #262626; stroke-width: 0.8; stroke-linejoin: miter; stroke-linecap: square"/>
   </g>
   <g id="patch_6">
    <path d="M 63 43.2 
L 453.6 43.2 
" style="fill: none; stroke: #262626; stroke-width: 0.8; stroke-linejoin: miter; stroke-linecap: square"/>
   </g>
   <g id="text_20">
    <!-- Parasite Density in Patients Treated Successfully -->
    <g style="fill: #262626" transform="translate(88.992969 23.2) scale(0.14 -0.14)">
     <defs>
      <path id="DejaVuSans-54" d="M -19 4666 
L 3928 4666 
L 3928 4134 
L 2272 4134 
L 2272 0 
L 1638 0 
L 1638 4134 
L -19 4134 
L -19 4666 
z
" transform="scale(0.015625)"/>
      <path id="DejaVuSans-64" d="M 2906 2969 
L 2906 4863 
L 3481 4863 
L 3481 0 
L 2906 0 
L 2906 525 
Q 2725 213 2448 61 
Q 2172 -91 1784 -91 
Q 1150 -91 751 415 
Q 353 922 353 1747 
Q 353 2572 751 3078 
Q 1150 3584 1784 3584 
Q 2172 3584 2448 3432 
Q 2725 3281 2906 2969 
z
M 947 1747 
Q 947 1113 1208 752 
Q 1469 391 1925 391 
Q 2381 391 2643 752 
Q 2906 1113 2906 1747 
Q 2906 2381 2643 2742 
Q 2381 3103 1925 3103 
Q 1469 3103 1208 2742 
Q 947 2381 947 1747 
z
" transform="scale(0.015625)"/>
      <path id="DejaVuSans-53" d="M 3425 4513 
L 3425 3897 
Q 3066 4069 2747 4153 
Q 2428 4238 2131 4238 
Q 1616 4238 1336 4038 
Q 1056 3838 1056 3469 
Q 1056 3159 1242 3001 
Q 1428 2844 1947 2747 
L 2328 2669 
Q 3034 2534 3370 2195 
Q 3706 1856 3706 1288 
Q 3706 609 3251 259 
Q 2797 -91 1919 -91 
Q 1588 -91 1214 -16 
Q 841 59 441 206 
L 441 856 
Q 825 641 1194 531 
Q 1563 422 1919 422 
Q 2459 422 2753 634 
Q 3047 847 3047 1241 
Q 3047 1584 2836 1778 
Q 2625 1972 2144 2069 
L 1759 2144 
Q 1053 2284 737 2584 
Q 422 2884 422 3419 
Q 422 4038 858 4394 
Q 1294 4750 2059 4750 
Q 2388 4750 2728 4690 
Q 3069 4631 3425 4513 
z
" transform="scale(0.015625)"/>
      <path id="DejaVuSans-63" d="M 3122 3366 
L 3122 2828 
Q 2878 2963 2633 3030 
Q 2388 3097 2138 3097 
Q 1578 3097 1268 2742 
Q 959 2388 959 1747 
Q 959 1106 1268 751 
Q 1578 397 2138 397 
Q 2388 397 2633 464 
Q 2878 531 3122 666 
L 3122 134 
Q 2881 22 2623 -34 
Q 2366 -91 2075 -91 
Q 1284 -91 818 406 
Q 353 903 353 1747 
Q 353 2603 823 3093 
Q 1294 3584 2113 3584 
Q 2378 3584 2631 3529 
Q 2884 3475 3122 3366 
z
" transform="scale(0.015625)"/>
      <path id="DejaVuSans-66" d="M 2375 4863 
L 2375 4384 
L 1825 4384 
Q 1516 4384 1395 4259 
Q 1275 4134 1275 3809 
L 1275 3500 
L 2222 3500 
L 2222 3053 
L 1275 3053 
L 1275 0 
L 697 0 
L 697 3053 
L 147 3053 
L 147 3500 
L 697 3500 
L 697 3744 
Q 697 4328 969 4595 
Q 1241 4863 1831 4863 
L 2375 4863 
z
" transform="scale(0.015625)"/>
     </defs>
     <use xlink:href="#DejaVuSans-50"/>
     <use xlink:href="#DejaVuSans-61" transform="translate(55.802734 0)"/>
     <use xlink:href="#DejaVuSans-72" transform="translate(117.082031 0)"/>
     <use xlink:href="#DejaVuSans-61" transform="translate(158.195312 0)"/>
     <use xlink:href="#DejaVuSans-73" transform="translate(219.474609 0)"/>
     <use xlink:href="#DejaVuSans-69" transform="translate(271.574219 0)"/>
     <use xlink:href="#DejaVuSans-74" transform="translate(299.357422 0)"/>
     <use xlink:href="#DejaVuSans-65" transform="translate(338.566406 0)"/>
     <use xlink:href="#DejaVuSans-20" transform="translate(400.089844 0)"/>
     <use xlink:href="#DejaVuSans-44" transform="translate(431.876953 0)"/>
     <use xlink:href="#DejaVuSans-65" transform="translate(508.878906 0)"/>
     <use xlink:href="#DejaVuSans-6e" transform="translate(570.402344 0)"/>
     <use xlink:href="#DejaVuSans-73" transform="translate(633.78125 0)"/>
     <use xlink:href="#DejaVuSans-69" transform="translate(685.880859 0)"/>
     <use xlink:href="#DejaVuSans-74" transform="translate(713.664062 0)"/>
     <use xlink:href="#DejaVuSans-79" transform="translate(752.873047 0)"/>
     <use xlink:href="#DejaVuSans-20" transform="translate(812.052734 0)"/>
     <use xlink:href="#DejaVuSans-69" transform="translate(843.839844 0)"/>
     <use xlink:href="#DejaVuSans-6e" transform="translate(871.623047 0)"/>
     <use xlink:href="#DejaVuSans-20" transform="translate(935.001953 0)"/>
     <use xlink:href="#DejaVuSans-50" transform="translate(966.789062 0)"/>
     <use xlink:href="#DejaVuSans-61" transform="translate(1022.591797 0)"/>
     <use xlink:href="#DejaVuSans-74" transform="translate(1083.871094 0)"/>
     <use xlink:href="#DejaVuSans-69" transform="translate(1123.080078 0)"/>
     <use xlink:href="#DejaVuSans-65" transform="translate(1150.863281 0)"/>
     <use xlink:href="#DejaVuSans-6e" transform="translate(1212.386719 0)"/>
     <use xlink:href="#DejaVuSans-74" transform="translate(1275.765625 0)"/>
     <use xlink:href="#DejaVuSans-73" transform="translate(1314.974609 0)"/>
     <use xlink:href="#DejaVuSans-20" transform="translate(1367.074219 0)"/>
     <use xlink:href="#DejaVuSans-54" transform="translate(1398.861328 0)"/>
     <use xlink:href="#DejaVuSans-72" transform="translate(1445.195312 0)"/>
     <use xlink:href="#DejaVuSans-65" transform="translate(1484.058594 0)"/>
     <use xlink:href="#DejaVuSans-61" transform="translate(1545.582031 0)"/>
     <use xlink:href="#DejaVuSans-74" transform="translate(1606.861328 0)"/>
     <use xlink:href="#DejaVuSans-65" transform="translate(1646.070312 0)"/>
     <use xlink:href="#DejaVuSans-64" transform="translate(1707.59375 0)"/>
     <use xlink:href="#DejaVuSans-20" transform="translate(1771.070312 0)"/>
     <use xlink:href="#DejaVuSans-53" transform="translate(1802.857422 0)"/>
     <use xlink:href="#DejaVuSans-75" transform="translate(1866.333984 0)"/>
     <use xlink:href="#DejaVuSans-63" transform="translate(1929.712891 0)"/>
     <use xlink:href="#DejaVuSans-63" transform="translate(1984.693359 0)"/>
     <use xlink:href="#DejaVuSans-65" transform="translate(2039.673828 0)"/>
     <use xlink:href="#DejaVuSans-73" transform="translate(2101.197266 0)"/>
     <use xlink:href="#DejaVuSans-73" transform="translate(2153.296875 0)"/>
     <use xlink:href="#DejaVuSans-66" transform="translate(2205.396484 0)"/>
     <use xlink:href="#DejaVuSans-75" transform="translate(2240.601562 0)"/>
     <use xlink:href="#DejaVuSans-6c" transform="translate(2303.980469 0)"/>
     <use xlink:href="#DejaVuSans-6c" transform="translate(2331.763672 0)"/>
     <use xlink:href="#DejaVuSans-79" transform="translate(2359.546875 0)"/>
    </g>
   </g>
  </g>
 </g>
 <defs>
  <clipPath id="pdb3bc450ef">
   <rect x="63" y="43.2" width="390.6" height="277.2"/>
  </clipPath>
 </defs>
</svg>
