<?xml version="1.0" encoding="utf-8" standalone="no"?>
<!DOCTYPE svg PUBLIC "-//W3C//DTD SVG 1.1//EN"
  "http://www.w3.org/Graphics/SVG/1.1/DTD/svg11.dtd">
<svg xmlns:xlink="http://www.w3.org/1999/xlink" width="504pt" height="360pt" viewBox="0 0 504 360" xmlns="http://www.w3.org/2000/svg" version="1.1">
 <metadata>
  <rdf:RDF xmlns:dc="http://purl.org/dc/elements/1.1/" xmlns:cc="http://creativecommons.org/ns#" xmlns:rdf="http://www.w3.org/1999/02/22-rdf-syntax-ns#">
   <cc:Work>
    <dc:type rdf:resource="http://purl.org/dc/dcmitype/StillImage"/>
    <dc:date>2025-07-09T15:28:35.965677</dc:date>
    <dc:format>image/svg+xml</dc:format>
    <dc:creator>
     <cc:Agent>
      <dc:title>Matplotlib v3.10.1, https://matplotlib.org/</dc:title>
     </cc:Agent>
    </dc:creator>
   </cc:Work>
  </rdf:RDF>
 </metadata>
 <defs>
  <style type="text/css">*{stroke-linejoin: round; stroke-linecap: butt}</style>
 </defs>
 <g id="figure_1">
  <g id="patch_1">
   <path d="M 0 360 
L 504 360 
L 504 0 
L 0 0 
z
" style="fill: #ffffff"/>
  </g>
  <g id="axes_1">
   <g id="patch_2">
    <path d="M 63 320.4 
L 453.6 320.4 
L 453.6 43.2 
L 63 43.2 
z
" style="fill: #ffffff"/>
   </g>
   <g id="matplotlib.axis_1">
    <g id="xtick_1">
     <g id="line2d_1">
      <defs>
       <path id="mc1fd3c8022" d="M 0 0 
L 0 3.5 
" style="stroke: #262626; stroke-width: 0.8"/>
      </defs>
      <g>
       <use xlink:href="#mc1fd3c8022" x="63" y="320.4" style="fill: #262626; stroke: #262626; stroke-width: 0.8"/>
      </g>
     </g>
     <g id="text_1">
      <!-- 0 -->
      <g style="fill: #262626" transform="translate(58.54625 338.037813) scale(0.14 -0.14)">
       <defs>
        <path id="DejaVuSans-30" d="M 2034 4250 
Q 1547 4250 1301 3770 
Q 1056 3291 1056 2328 
Q 1056 1369 1301 889 
Q 1547 409 2034 409 
Q 2525 409 2770 889 
Q 3016 1369 3016 2328 
Q 3016 3291 2770 3770 
Q 2525 4250 2034 4250 
z
M 2034 4750 
Q 2819 4750 3233 4129 
Q 3647 3509 3647 2328 
Q 3647 1150 3233 529 
Q 2819 -91 2034 -91 
Q 1250 -91 836 529 
Q 422 1150 422 2328 
Q 422 3509 836 4129 
Q 1250 4750 2034 4750 
z
" transform="scale(0.015625)"/>
       </defs>
       <use xlink:href="#DejaVuSans-30"/>
      </g>
     </g>
    </g>
    <g id="xtick_2">
     <g id="line2d_2">
      <g>
       <use xlink:href="#mc1fd3c8022" x="106.4" y="320.4" style="fill: #262626; stroke: #262626; stroke-width: 0.8"/>
      </g>
     </g>
     <g id="text_2">
      <!-- 2 -->
      <g style="fill: #262626" transform="translate(101.94625 338.037813) scale(0.14 -0.14)">
       <defs>
        <path id="DejaVuSans-32" d="M 1228 531 
L 3431 531 
L 3431 0 
L 469 0 
L 469 531 
Q 828 903 1448 1529 
Q 2069 2156 2228 2338 
Q 2531 2678 2651 2914 
Q 2772 3150 2772 3378 
Q 2772 3750 2511 3984 
Q 2250 4219 1831 4219 
Q 1534 4219 1204 4116 
Q 875 4013 500 3803 
L 500 4441 
Q 881 4594 1212 4672 
Q 1544 4750 1819 4750 
Q 2544 4750 2975 4387 
Q 3406 4025 3406 3419 
Q 3406 3131 3298 2873 
Q 3191 2616 2906 2266 
Q 2828 2175 2409 1742 
Q 1991 1309 1228 531 
z
" transform="scale(0.015625)"/>
       </defs>
       <use xlink:href="#DejaVuSans-32"/>
      </g>
     </g>
    </g>
    <g id="xtick_3">
     <g id="line2d_3">
      <g>
       <use xlink:href="#mc1fd3c8022" x="149.8" y="320.4" style="fill: #262626; stroke: #262626; stroke-width: 0.8"/>
      </g>
     </g>
     <g id="text_3">
      <!-- 4 -->
      <g style="fill: #262626" transform="translate(145.34625 338.037813) scale(0.14 -0.14)">
       <defs>
        <path id="DejaVuSans-34" d="M 2419 4116 
L 825 1625 
L 2419 1625 
L 2419 4116 
z
M 2253 4666 
L 3047 4666 
L 3047 1625 
L 3713 1625 
L 3713 1100 
L 3047 1100 
L 3047 0 
L 2419 0 
L 2419 1100 
L 313 1100 
L 313 1709 
L 2253 4666 
z
" transform="scale(0.015625)"/>
       </defs>
       <use xlink:href="#DejaVuSans-34"/>
      </g>
     </g>
    </g>
    <g id="xtick_4">
     <g id="line2d_4">
      <g>
       <use xlink:href="#mc1fd3c8022" x="193.2" y="320.4" style="fill: #262626; stroke: #262626; stroke-width: 0.8"/>
      </g>
     </g>
     <g id="text_4">
      <!-- 6 -->
      <g style="fill: #262626" transform="translate(188.74625 338.037813) scale(0.14 -0.14)">
       <defs>
        <path id="DejaVuSans-36" d="M 2113 2584 
Q 1688 2584 1439 2293 
Q 1191 2003 1191 1497 
Q 1191 994 1439 701 
Q 1688 409 2113 409 
Q 2538 409 2786 701 
Q 3034 994 3034 1497 
Q 3034 2003 2786 2293 
Q 2538 2584 2113 2584 
z
M 3366 4563 
L 3366 3988 
Q 3128 4100 2886 4159 
Q 2644 4219 2406 4219 
Q 1781 4219 1451 3797 
Q 1122 3375 1075 2522 
Q 1259 2794 1537 2939 
Q 1816 3084 2150 3084 
Q 2853 3084 3261 2657 
Q 3669 2231 3669 1497 
Q 3669 778 3244 343 
Q 2819 -91 2113 -91 
Q 1303 -91 875 529 
Q 447 1150 447 2328 
Q 447 3434 972 4092 
Q 1497 4750 2381 4750 
Q 2619 4750 2861 4703 
Q 3103 4656 3366 4563 
z
" transform="scale(0.015625)"/>
       </defs>
       <use xlink:href="#DejaVuSans-36"/>
      </g>
     </g>
    </g>
    <g id="xtick_5">
     <g id="line2d_5">
      <g>
       <use xlink:href="#mc1fd3c8022" x="236.6" y="320.4" style="fill: #262626; stroke: #262626; stroke-width: 0.8"/>
      </g>
     </g>
     <g id="text_5">
      <!-- 8 -->
      <g style="fill: #262626" transform="translate(232.14625 338.037813) scale(0.14 -0.14)">
       <defs>
        <path id="DejaVuSans-38" d="M 2034 2216 
Q 1584 2216 1326 1975 
Q 1069 1734 1069 1313 
Q 1069 891 1326 650 
Q 1584 409 2034 409 
Q 2484 409 2743 651 
Q 3003 894 3003 1313 
Q 3003 1734 2745 1975 
Q 2488 2216 2034 2216 
z
M 1403 2484 
Q 997 2584 770 2862 
Q 544 3141 544 3541 
Q 544 4100 942 4425 
Q 1341 4750 2034 4750 
Q 2731 4750 3128 4425 
Q 3525 4100 3525 3541 
Q 3525 3141 3298 2862 
Q 3072 2584 2669 2484 
Q 3125 2378 3379 2068 
Q 3634 1759 3634 1313 
Q 3634 634 3220 271 
Q 2806 -91 2034 -91 
Q 1263 -91 848 271 
Q 434 634 434 1313 
Q 434 1759 690 2068 
Q 947 2378 1403 2484 
z
M 1172 3481 
Q 1172 3119 1398 2916 
Q 1625 2713 2034 2713 
Q 2441 2713 2670 2916 
Q 2900 3119 2900 3481 
Q 2900 3844 2670 4047 
Q 2441 4250 2034 4250 
Q 1625 4250 1398 4047 
Q 1172 3844 1172 3481 
z
" transform="scale(0.015625)"/>
       </defs>
       <use xlink:href="#DejaVuSans-38"/>
      </g>
     </g>
    </g>
    <g id="xtick_6">
     <g id="line2d_6">
      <g>
       <use xlink:href="#mc1fd3c8022" x="280" y="320.4" style="fill: #262626; stroke: #262626; stroke-width: 0.8"/>
      </g>
     </g>
     <g id="text_6">
      <!-- 10 -->
      <g style="fill: #262626" transform="translate(271.0925 338.037813) scale(0.14 -0.14)">
       <defs>
        <path id="DejaVuSans-31" d="M 794 531 
L 1825 531 
L 1825 4091 
L 703 3866 
L 703 4441 
L 1819 4666 
L 2450 4666 
L 2450 531 
L 3481 531 
L 3481 0 
L 794 0 
L 794 531 
z
" transform="scale(0.015625)"/>
       </defs>
       <use xlink:href="#DejaVuSans-31"/>
       <use xlink:href="#DejaVuSans-30" transform="translate(63.623047 0)"/>
      </g>
     </g>
    </g>
    <g id="xtick_7">
     <g id="line2d_7">
      <g>
       <use xlink:href="#mc1fd3c8022" x="323.4" y="320.4" style="fill: #262626; stroke: #262626; stroke-width: 0.8"/>
      </g>
     </g>
     <g id="text_7">
      <!-- 12 -->
      <g style="fill: #262626" transform="translate(314.4925 338.037813) scale(0.14 -0.14)">
       <use xlink:href="#DejaVuSans-31"/>
       <use xlink:href="#DejaVuSans-32" transform="translate(63.623047 0)"/>
      </g>
     </g>
    </g>
    <g id="xtick_8">
     <g id="line2d_8">
      <g>
       <use xlink:href="#mc1fd3c8022" x="366.8" y="320.4" style="fill: #262626; stroke: #262626; stroke-width: 0.8"/>
      </g>
     </g>
     <g id="text_8">
      <!-- 14 -->
      <g style="fill: #262626" transform="translate(357.8925 338.037813) scale(0.14 -0.14)">
       <use xlink:href="#DejaVuSans-31"/>
       <use xlink:href="#DejaVuSans-34" transform="translate(63.623047 0)"/>
      </g>
     </g>
    </g>
    <g id="xtick_9">
     <g id="line2d_9">
      <g>
       <use xlink:href="#mc1fd3c8022" x="410.2" y="320.4" style="fill: #262626; stroke: #262626; stroke-width: 0.8"/>
      </g>
     </g>
     <g id="text_9">
      <!-- 16 -->
      <g style="fill: #262626" transform="translate(401.2925 338.037813) scale(0.14 -0.14)">
       <use xlink:href="#DejaVuSans-31"/>
       <use xlink:href="#DejaVuSans-36" transform="translate(63.623047 0)"/>
      </g>
     </g>
    </g>
    <g id="xtick_10">
     <g id="line2d_10">
      <g>
       <use xlink:href="#mc1fd3c8022" x="453.6" y="320.4" style="fill: #262626; stroke: #262626; stroke-width: 0.8"/>
      </g>
     </g>
     <g id="text_10">
      <!-- 18 -->
      <g style="fill: #262626" transform="translate(444.6925 338.037813) scale(0.14 -0.14)">
       <use xlink:href="#DejaVuSans-31"/>
       <use xlink:href="#DejaVuSans-38" transform="translate(63.623047 0)"/>
      </g>
     </g>
    </g>
    <g id="text_11">
     <!-- Artemether Concentration (mg/ml) -->
     <g style="fill: #262626" transform="translate(136.276875 361.587188) scale(0.14 -0.14)">
      <defs>
       <path id="DejaVuSans-41" d="M 2188 4044 
L 1331 1722 
L 3047 1722 
L 2188 4044 
z
M 1831 4666 
L 2547 4666 
L 4325 0 
L 3669 0 
L 3244 1197 
L 1141 1197 
L 716 0 
L 50 0 
L 1831 4666 
z
" transform="scale(0.015625)"/>
       <path id="DejaVuSans-72" d="M 2631 2963 
Q 2534 3019 2420 3045 
Q 2306 3072 2169 3072 
Q 1681 3072 1420 2755 
Q 1159 2438 1159 1844 
L 1159 0 
L 581 0 
L 581 3500 
L 1159 3500 
L 1159 2956 
Q 1341 3275 1631 3429 
Q 1922 3584 2338 3584 
Q 2397 3584 2469 3576 
Q 2541 3569 2628 3553 
L 2631 2963 
z
" transform="scale(0.015625)"/>
       <path id="DejaVuSans-74" d="M 1172 4494 
L 1172 3500 
L 2356 3500 
L 2356 3053 
L 1172 3053 
L 1172 1153 
Q 1172 725 1289 603 
Q 1406 481 1766 481 
L 2356 481 
L 2356 0 
L 1766 0 
Q 1100 0 847 248 
Q 594 497 594 1153 
L 594 3053 
L 172 3053 
L 172 3500 
L 594 3500 
L 594 4494 
L 1172 4494 
z
" transform="scale(0.015625)"/>
       <path id="DejaVuSans-65" d="M 3597 1894 
L 3597 1613 
L 953 1613 
Q 991 1019 1311 708 
Q 1631 397 2203 397 
Q 2534 397 2845 478 
Q 3156 559 3463 722 
L 3463 178 
Q 3153 47 2828 -22 
Q 2503 -91 2169 -91 
Q 1331 -91 842 396 
Q 353 884 353 1716 
Q 353 2575 817 3079 
Q 1281 3584 2069 3584 
Q 2775 3584 3186 3129 
Q 3597 2675 3597 1894 
z
M 3022 2063 
Q 3016 2534 2758 2815 
Q 2500 3097 2075 3097 
Q 1594 3097 1305 2825 
Q 1016 2553 972 2059 
L 3022 2063 
z
" transform="scale(0.015625)"/>
       <path id="DejaVuSans-6d" d="M 3328 2828 
Q 3544 3216 3844 3400 
Q 4144 3584 4550 3584 
Q 5097 3584 5394 3201 
Q 5691 2819 5691 2113 
L 5691 0 
L 5113 0 
L 5113 2094 
Q 5113 2597 4934 2840 
Q 4756 3084 4391 3084 
Q 3944 3084 3684 2787 
Q 3425 2491 3425 1978 
L 3425 0 
L 2847 0 
L 2847 2094 
Q 2847 2600 2669 2842 
Q 2491 3084 2119 3084 
Q 1678 3084 1418 2786 
Q 1159 2488 1159 1978 
L 1159 0 
L 581 0 
L 581 3500 
L 1159 3500 
L 1159 2956 
Q 1356 3278 1631 3431 
Q 1906 3584 2284 3584 
Q 2666 3584 2933 3390 
Q 3200 3197 3328 2828 
z
" transform="scale(0.015625)"/>
       <path id="DejaVuSans-68" d="M 3513 2113 
L 3513 0 
L 2938 0 
L 2938 2094 
Q 2938 2591 2744 2837 
Q 2550 3084 2163 3084 
Q 1697 3084 1428 2787 
Q 1159 2491 1159 1978 
L 1159 0 
L 581 0 
L 581 4863 
L 1159 4863 
L 1159 2956 
Q 1366 3272 1645 3428 
Q 1925 3584 2291 3584 
Q 2894 3584 3203 3211 
Q 3513 2838 3513 2113 
z
" transform="scale(0.015625)"/>
       <path id="DejaVuSans-20" transform="scale(0.015625)"/>
       <path id="DejaVuSans-43" d="M 4122 4306 
L 4122 3641 
Q 3803 3938 3442 4084 
Q 3081 4231 2675 4231 
Q 1875 4231 1450 3742 
Q 1025 3253 1025 2328 
Q 1025 1406 1450 917 
Q 1875 428 2675 428 
Q 3081 428 3442 575 
Q 3803 722 4122 1019 
L 4122 359 
Q 3791 134 3420 21 
Q 3050 -91 2638 -91 
Q 1578 -91 968 557 
Q 359 1206 359 2328 
Q 359 3453 968 4101 
Q 1578 4750 2638 4750 
Q 3056 4750 3426 4639 
Q 3797 4528 4122 4306 
z
" transform="scale(0.015625)"/>
       <path id="DejaVuSans-6f" d="M 1959 3097 
Q 1497 3097 1228 2736 
Q 959 2375 959 1747 
Q 959 1119 1226 758 
Q 1494 397 1959 397 
Q 2419 397 2687 759 
Q 2956 1122 2956 1747 
Q 2956 2369 2687 2733 
Q 2419 3097 1959 3097 
z
M 1959 3584 
Q 2709 3584 3137 3096 
Q 3566 2609 3566 1747 
Q 3566 888 3137 398 
Q 2709 -91 1959 -91 
Q 1206 -91 779 398 
Q 353 888 353 1747 
Q 353 2609 779 3096 
Q 1206 3584 1959 3584 
z
" transform="scale(0.015625)"/>
       <path id="DejaVuSans-6e" d="M 3513 2113 
L 3513 0 
L 2938 0 
L 2938 2094 
Q 2938 2591 2744 2837 
Q 2550 3084 2163 3084 
Q 1697 3084 1428 2787 
Q 1159 2491 1159 1978 
L 1159 0 
L 581 0 
L 581 3500 
L 1159 3500 
L 1159 2956 
Q 1366 3272 1645 3428 
Q 1925 3584 2291 3584 
Q 2894 3584 3203 3211 
Q 3513 2838 3513 2113 
z
" transform="scale(0.015625)"/>
       <path id="DejaVuSans-63" d="M 3122 3366 
L 3122 2828 
Q 2878 2963 2633 3030 
Q 2388 3097 2138 3097 
Q 1578 3097 1268 2742 
Q 959 2388 959 1747 
Q 959 1106 1268 751 
Q 1578 397 2138 397 
Q 2388 397 2633 464 
Q 2878 531 3122 666 
L 3122 134 
Q 2881 22 2623 -34 
Q 2366 -91 2075 -91 
Q 1284 -91 818 406 
Q 353 903 353 1747 
Q 353 2603 823 3093 
Q 1294 3584 2113 3584 
Q 2378 3584 2631 3529 
Q 2884 3475 3122 3366 
z
" transform="scale(0.015625)"/>
       <path id="DejaVuSans-61" d="M 2194 1759 
Q 1497 1759 1228 1600 
Q 959 1441 959 1056 
Q 959 750 1161 570 
Q 1363 391 1709 391 
Q 2188 391 2477 730 
Q 2766 1069 2766 1631 
L 2766 1759 
L 2194 1759 
z
M 3341 1997 
L 3341 0 
L 2766 0 
L 2766 531 
Q 2569 213 2275 61 
Q 1981 -91 1556 -91 
Q 1019 -91 701 211 
Q 384 513 384 1019 
Q 384 1609 779 1909 
Q 1175 2209 1959 2209 
L 2766 2209 
L 2766 2266 
Q 2766 2663 2505 2880 
Q 2244 3097 1772 3097 
Q 1472 3097 1187 3025 
Q 903 2953 641 2809 
L 641 3341 
Q 956 3463 1253 3523 
Q 1550 3584 1831 3584 
Q 2591 3584 2966 3190 
Q 3341 2797 3341 1997 
z
" transform="scale(0.015625)"/>
       <path id="DejaVuSans-69" d="M 603 3500 
L 1178 3500 
L 1178 0 
L 603 0 
L 603 3500 
z
M 603 4863 
L 1178 4863 
L 1178 4134 
L 603 4134 
L 603 4863 
z
" transform="scale(0.015625)"/>
       <path id="DejaVuSans-28" d="M 1984 4856 
Q 1566 4138 1362 3434 
Q 1159 2731 1159 2009 
Q 1159 1288 1364 580 
Q 1569 -128 1984 -844 
L 1484 -844 
Q 1016 -109 783 600 
Q 550 1309 550 2009 
Q 550 2706 781 3412 
Q 1013 4119 1484 4856 
L 1984 4856 
z
" transform="scale(0.015625)"/>
       <path id="DejaVuSans-67" d="M 2906 1791 
Q 2906 2416 2648 2759 
Q 2391 3103 1925 3103 
Q 1463 3103 1205 2759 
Q 947 2416 947 1791 
Q 947 1169 1205 825 
Q 1463 481 1925 481 
Q 2391 481 2648 825 
Q 2906 1169 2906 1791 
z
M 3481 434 
Q 3481 -459 3084 -895 
Q 2688 -1331 1869 -1331 
Q 1566 -1331 1297 -1286 
Q 1028 -1241 775 -1147 
L 775 -588 
Q 1028 -725 1275 -790 
Q 1522 -856 1778 -856 
Q 2344 -856 2625 -561 
Q 2906 -266 2906 331 
L 2906 616 
Q 2728 306 2450 153 
Q 2172 0 1784 0 
Q 1141 0 747 490 
Q 353 981 353 1791 
Q 353 2603 747 3093 
Q 1141 3584 1784 3584 
Q 2172 3584 2450 3431 
Q 2728 3278 2906 2969 
L 2906 3500 
L 3481 3500 
L 3481 434 
z
" transform="scale(0.015625)"/>
       <path id="DejaVuSans-2f" d="M 1625 4666 
L 2156 4666 
L 531 -594 
L 0 -594 
L 1625 4666 
z
" transform="scale(0.015625)"/>
       <path id="DejaVuSans-6c" d="M 603 4863 
L 1178 4863 
L 1178 0 
L 603 0 
L 603 4863 
z
" transform="scale(0.015625)"/>
       <path id="DejaVuSans-29" d="M 513 4856 
L 1013 4856 
Q 1481 4119 1714 3412 
Q 1947 2706 1947 2009 
Q 1947 1309 1714 600 
Q 1481 -109 1013 -844 
L 513 -844 
Q 928 -128 1133 580 
Q 1338 1288 1338 2009 
Q 1338 2731 1133 3434 
Q 928 4138 513 4856 
z
" transform="scale(0.015625)"/>
      </defs>
      <use xlink:href="#DejaVuSans-41"/>
      <use xlink:href="#DejaVuSans-72" transform="translate(68.408203 0)"/>
      <use xlink:href="#DejaVuSans-74" transform="translate(109.521484 0)"/>
      <use xlink:href="#DejaVuSans-65" transform="translate(148.730469 0)"/>
      <use xlink:href="#DejaVuSans-6d" transform="translate(210.253906 0)"/>
      <use xlink:href="#DejaVuSans-65" transform="translate(307.666016 0)"/>
      <use xlink:href="#DejaVuSans-74" transform="translate(369.189453 0)"/>
      <use xlink:href="#DejaVuSans-68" transform="translate(408.398438 0)"/>
      <use xlink:href="#DejaVuSans-65" transform="translate(471.777344 0)"/>
      <use xlink:href="#DejaVuSans-72" transform="translate(533.300781 0)"/>
      <use xlink:href="#DejaVuSans-20" transform="translate(574.414062 0)"/>
      <use xlink:href="#DejaVuSans-43" transform="translate(606.201172 0)"/>
      <use xlink:href="#DejaVuSans-6f" transform="translate(676.025391 0)"/>
      <use xlink:href="#DejaVuSans-6e" transform="translate(737.207031 0)"/>
      <use xlink:href="#DejaVuSans-63" transform="translate(800.585938 0)"/>
      <use xlink:href="#DejaVuSans-65" transform="translate(855.566406 0)"/>
      <use xlink:href="#DejaVuSans-6e" transform="translate(917.089844 0)"/>
      <use xlink:href="#DejaVuSans-74" transform="translate(980.46875 0)"/>
      <use xlink:href="#DejaVuSans-72" transform="translate(1019.677734 0)"/>
      <use xlink:href="#DejaVuSans-61" transform="translate(1060.791016 0)"/>
      <use xlink:href="#DejaVuSans-74" transform="translate(1122.070312 0)"/>
      <use xlink:href="#DejaVuSans-69" transform="translate(1161.279297 0)"/>
      <use xlink:href="#DejaVuSans-6f" transform="translate(1189.0625 0)"/>
      <use xlink:href="#DejaVuSans-6e" transform="translate(1250.244141 0)"/>
      <use xlink:href="#DejaVuSans-20" transform="translate(1313.623047 0)"/>
      <use xlink:href="#DejaVuSans-28" transform="translate(1345.410156 0)"/>
      <use xlink:href="#DejaVuSans-6d" transform="translate(1384.423828 0)"/>
      <use xlink:href="#DejaVuSans-67" transform="translate(1481.835938 0)"/>
      <use xlink:href="#DejaVuSans-2f" transform="translate(1545.3125 0)"/>
      <use xlink:href="#DejaVuSans-6d" transform="translate(1579.003906 0)"/>
      <use xlink:href="#DejaVuSans-6c" transform="translate(1676.416016 0)"/>
      <use xlink:href="#DejaVuSans-29" transform="translate(1704.199219 0)"/>
     </g>
    </g>
   </g>
   <g id="matplotlib.axis_2">
    <g id="ytick_1">
     <g id="line2d_11">
      <defs>
       <path id="m4575a2008a" d="M 0 0 
L -3.5 0 
" style="stroke: #262626; stroke-width: 0.8"/>
      </defs>
      <g>
       <use xlink:href="#m4575a2008a" x="63" y="307.8" style="fill: #262626; stroke: #262626; stroke-width: 0.8"/>
      </g>
     </g>
     <g id="text_12">
      <!-- 0 -->
      <g style="fill: #262626" transform="translate(47.0925 313.118906) scale(0.14 -0.14)">
       <use xlink:href="#DejaVuSans-30"/>
      </g>
     </g>
    </g>
    <g id="ytick_2">
     <g id="line2d_12">
      <g>
       <use xlink:href="#m4575a2008a" x="63" y="246.684577" style="fill: #262626; stroke: #262626; stroke-width: 0.8"/>
      </g>
     </g>
     <g id="text_13">
      <!-- 10000 -->
      <g style="fill: #262626" transform="translate(11.4625 252.003483) scale(0.14 -0.14)">
       <use xlink:href="#DejaVuSans-31"/>
       <use xlink:href="#DejaVuSans-30" transform="translate(63.623047 0)"/>
       <use xlink:href="#DejaVuSans-30" transform="translate(127.246094 0)"/>
       <use xlink:href="#DejaVuSans-30" transform="translate(190.869141 0)"/>
       <use xlink:href="#DejaVuSans-30" transform="translate(254.492188 0)"/>
      </g>
     </g>
    </g>
    <g id="ytick_3">
     <g id="line2d_13">
      <g>
       <use xlink:href="#m4575a2008a" x="63" y="185.569154" style="fill: #262626; stroke: #262626; stroke-width: 0.8"/>
      </g>
     </g>
     <g id="text_14">
      <!-- 20000 -->
      <g style="fill: #262626" transform="translate(11.4625 190.88806) scale(0.14 -0.14)">
       <use xlink:href="#DejaVuSans-32"/>
       <use xlink:href="#DejaVuSans-30" transform="translate(63.623047 0)"/>
       <use xlink:href="#DejaVuSans-30" transform="translate(127.246094 0)"/>
       <use xlink:href="#DejaVuSans-30" transform="translate(190.869141 0)"/>
       <use xlink:href="#DejaVuSans-30" transform="translate(254.492188 0)"/>
      </g>
     </g>
    </g>
    <g id="ytick_4">
     <g id="line2d_14">
      <g>
       <use xlink:href="#m4575a2008a" x="63" y="124.453731" style="fill: #262626; stroke: #262626; stroke-width: 0.8"/>
      </g>
     </g>
     <g id="text_15">
      <!-- 30000 -->
      <g style="fill: #262626" transform="translate(11.4625 129.772638) scale(0.14 -0.14)">
       <defs>
        <path id="DejaVuSans-33" d="M 2597 2516 
Q 3050 2419 3304 2112 
Q 3559 1806 3559 1356 
Q 3559 666 3084 287 
Q 2609 -91 1734 -91 
Q 1441 -91 1130 -33 
Q 819 25 488 141 
L 488 750 
Q 750 597 1062 519 
Q 1375 441 1716 441 
Q 2309 441 2620 675 
Q 2931 909 2931 1356 
Q 2931 1769 2642 2001 
Q 2353 2234 1838 2234 
L 1294 2234 
L 1294 2753 
L 1863 2753 
Q 2328 2753 2575 2939 
Q 2822 3125 2822 3475 
Q 2822 3834 2567 4026 
Q 2313 4219 1838 4219 
Q 1578 4219 1281 4162 
Q 984 4106 628 3988 
L 628 4550 
Q 988 4650 1302 4700 
Q 1616 4750 1894 4750 
Q 2613 4750 3031 4423 
Q 3450 4097 3450 3541 
Q 3450 3153 3228 2886 
Q 3006 2619 2597 2516 
z
" transform="scale(0.015625)"/>
       </defs>
       <use xlink:href="#DejaVuSans-33"/>
       <use xlink:href="#DejaVuSans-30" transform="translate(63.623047 0)"/>
       <use xlink:href="#DejaVuSans-30" transform="translate(127.246094 0)"/>
       <use xlink:href="#DejaVuSans-30" transform="translate(190.869141 0)"/>
       <use xlink:href="#DejaVuSans-30" transform="translate(254.492188 0)"/>
      </g>
     </g>
    </g>
    <g id="ytick_5">
     <g id="line2d_15">
      <g>
       <use xlink:href="#m4575a2008a" x="63" y="63.338308" style="fill: #262626; stroke: #262626; stroke-width: 0.8"/>
      </g>
     </g>
     <g id="text_16">
      <!-- 40000 -->
      <g style="fill: #262626" transform="translate(11.4625 68.657215) scale(0.14 -0.14)">
       <use xlink:href="#DejaVuSans-34"/>
       <use xlink:href="#DejaVuSans-30" transform="translate(63.623047 0)"/>
       <use xlink:href="#DejaVuSans-30" transform="translate(127.246094 0)"/>
       <use xlink:href="#DejaVuSans-30" transform="translate(190.869141 0)"/>
       <use xlink:href="#DejaVuSans-30" transform="translate(254.492188 0)"/>
      </g>
     </g>
    </g>
    <g id="text_17">
     <!-- Parasite Density (parasites/µL) -->
     <g style="fill: #262626" transform="translate(-1.449063 289.231406) rotate(-90) scale(0.14 -0.14)">
      <defs>
       <path id="DejaVuSans-50" d="M 1259 4147 
L 1259 2394 
L 2053 2394 
Q 2494 2394 2734 2622 
Q 2975 2850 2975 3272 
Q 2975 3691 2734 3919 
Q 2494 4147 2053 4147 
L 1259 4147 
z
M 628 4666 
L 2053 4666 
Q 2838 4666 3239 4311 
Q 3641 3956 3641 3272 
Q 3641 2581 3239 2228 
Q 2838 1875 2053 1875 
L 1259 1875 
L 1259 0 
L 628 0 
L 628 4666 
z
" transform="scale(0.015625)"/>
       <path id="DejaVuSans-73" d="M 2834 3397 
L 2834 2853 
Q 2591 2978 2328 3040 
Q 2066 3103 1784 3103 
Q 1356 3103 1142 2972 
Q 928 2841 928 2578 
Q 928 2378 1081 2264 
Q 1234 2150 1697 2047 
L 1894 2003 
Q 2506 1872 2764 1633 
Q 3022 1394 3022 966 
Q 3022 478 2636 193 
Q 2250 -91 1575 -91 
Q 1294 -91 989 -36 
Q 684 19 347 128 
L 347 722 
Q 666 556 975 473 
Q 1284 391 1588 391 
Q 1994 391 2212 530 
Q 2431 669 2431 922 
Q 2431 1156 2273 1281 
Q 2116 1406 1581 1522 
L 1381 1569 
Q 847 1681 609 1914 
Q 372 2147 372 2553 
Q 372 3047 722 3315 
Q 1072 3584 1716 3584 
Q 2034 3584 2315 3537 
Q 2597 3491 2834 3397 
z
" transform="scale(0.015625)"/>
       <path id="DejaVuSans-44" d="M 1259 4147 
L 1259 519 
L 2022 519 
Q 2988 519 3436 956 
Q 3884 1394 3884 2338 
Q 3884 3275 3436 3711 
Q 2988 4147 2022 4147 
L 1259 4147 
z
M 628 4666 
L 1925 4666 
Q 3281 4666 3915 4102 
Q 4550 3538 4550 2338 
Q 4550 1131 3912 565 
Q 3275 0 1925 0 
L 628 0 
L 628 4666 
z
" transform="scale(0.015625)"/>
       <path id="DejaVuSans-79" d="M 2059 -325 
Q 1816 -950 1584 -1140 
Q 1353 -1331 966 -1331 
L 506 -1331 
L 506 -850 
L 844 -850 
Q 1081 -850 1212 -737 
Q 1344 -625 1503 -206 
L 1606 56 
L 191 3500 
L 800 3500 
L 1894 763 
L 2988 3500 
L 3597 3500 
L 2059 -325 
z
" transform="scale(0.015625)"/>
       <path id="DejaVuSans-70" d="M 1159 525 
L 1159 -1331 
L 581 -1331 
L 581 3500 
L 1159 3500 
L 1159 2969 
Q 1341 3281 1617 3432 
Q 1894 3584 2278 3584 
Q 2916 3584 3314 3078 
Q 3713 2572 3713 1747 
Q 3713 922 3314 415 
Q 2916 -91 2278 -91 
Q 1894 -91 1617 61 
Q 1341 213 1159 525 
z
M 3116 1747 
Q 3116 2381 2855 2742 
Q 2594 3103 2138 3103 
Q 1681 3103 1420 2742 
Q 1159 2381 1159 1747 
Q 1159 1113 1420 752 
Q 1681 391 2138 391 
Q 2594 391 2855 752 
Q 3116 1113 3116 1747 
z
" transform="scale(0.015625)"/>
       <path id="DejaVuSans-b5" d="M 544 -1331 
L 544 3500 
L 1119 3500 
L 1119 1325 
Q 1119 872 1334 640 
Q 1550 409 1972 409 
Q 2434 409 2667 671 
Q 2900 934 2900 1459 
L 2900 3500 
L 3475 3500 
L 3475 806 
Q 3475 619 3529 530 
Q 3584 441 3700 441 
Q 3728 441 3778 458 
Q 3828 475 3916 513 
L 3916 50 
Q 3788 -22 3673 -56 
Q 3559 -91 3450 -91 
Q 3234 -91 3106 31 
Q 2978 153 2931 403 
Q 2775 156 2548 32 
Q 2322 -91 2016 -91 
Q 1697 -91 1473 31 
Q 1250 153 1119 397 
L 1119 -1331 
L 544 -1331 
z
" transform="scale(0.015625)"/>
       <path id="DejaVuSans-4c" d="M 628 4666 
L 1259 4666 
L 1259 531 
L 3531 531 
L 3531 0 
L 628 0 
L 628 4666 
z
" transform="scale(0.015625)"/>
      </defs>
      <use xlink:href="#DejaVuSans-50"/>
      <use xlink:href="#DejaVuSans-61" transform="translate(55.802734 0)"/>
      <use xlink:href="#DejaVuSans-72" transform="translate(117.082031 0)"/>
      <use xlink:href="#DejaVuSans-61" transform="translate(158.195312 0)"/>
      <use xlink:href="#DejaVuSans-73" transform="translate(219.474609 0)"/>
      <use xlink:href="#DejaVuSans-69" transform="translate(271.574219 0)"/>
      <use xlink:href="#DejaVuSans-74" transform="translate(299.357422 0)"/>
      <use xlink:href="#DejaVuSans-65" transform="translate(338.566406 0)"/>
      <use xlink:href="#DejaVuSans-20" transform="translate(400.089844 0)"/>
      <use xlink:href="#DejaVuSans-44" transform="translate(431.876953 0)"/>
      <use xlink:href="#DejaVuSans-65" transform="translate(508.878906 0)"/>
      <use xlink:href="#DejaVuSans-6e" transform="translate(570.402344 0)"/>
      <use xlink:href="#DejaVuSans-73" transform="translate(633.78125 0)"/>
      <use xlink:href="#DejaVuSans-69" transform="translate(685.880859 0)"/>
      <use xlink:href="#DejaVuSans-74" transform="translate(713.664062 0)"/>
      <use xlink:href="#DejaVuSans-79" transform="translate(752.873047 0)"/>
      <use xlink:href="#DejaVuSans-20" transform="translate(812.052734 0)"/>
      <use xlink:href="#DejaVuSans-28" transform="translate(843.839844 0)"/>
      <use xlink:href="#DejaVuSans-70" transform="translate(882.853516 0)"/>
      <use xlink:href="#DejaVuSans-61" transform="translate(946.330078 0)"/>
      <use xlink:href="#DejaVuSans-72" transform="translate(1007.609375 0)"/>
      <use xlink:href="#DejaVuSans-61" transform="translate(1048.722656 0)"/>
      <use xlink:href="#DejaVuSans-73" transform="translate(1110.001953 0)"/>
      <use xlink:href="#DejaVuSans-69" transform="translate(1162.101562 0)"/>
      <use xlink:href="#DejaVuSans-74" transform="translate(1189.884766 0)"/>
      <use xlink:href="#DejaVuSans-65" transform="translate(1229.09375 0)"/>
      <use xlink:href="#DejaVuSans-73" transform="translate(1290.617188 0)"/>
      <use xlink:href="#DejaVuSans-2f" transform="translate(1342.716797 0)"/>
      <use xlink:href="#DejaVuSans-b5" transform="translate(1376.408203 0)"/>
      <use xlink:href="#DejaVuSans-4c" transform="translate(1440.03125 0)"/>
      <use xlink:href="#DejaVuSans-29" transform="translate(1495.744141 0)"/>
     </g>
    </g>
   </g>
   <g id="FillBetweenPolyCollection_1"/>
   <g id="FillBetweenPolyCollection_2"/>
   <g id="FillBetweenPolyCollection_3"/>
   <g id="FillBetweenPolyCollection_4"/>
   <g id="FillBetweenPolyCollection_5"/>
   <g id="FillBetweenPolyCollection_6">
    <defs>
     <path id="m19aa6eabe5" d="M 63.944495 -52.2 
L 63.944495 -52.2 
L 65.833486 -52.2 
L 67.722476 -52.2 
L 69.611467 -52.2 
L 71.500457 -52.2 
L 73.389447 -52.2 
L 75.278438 -52.2 
L 77.167428 -52.2 
L 79.056419 -52.2 
L 80.945409 -52.2 
L 82.8344 -52.2 
L 84.72339 -52.2 
L 86.612381 -52.2 
L 88.501371 -52.2 
L 90.390362 -52.2 
L 92.279352 -52.2 
L 94.168342 -52.2 
L 96.057333 -52.2 
L 97.946323 -52.2 
L 99.835314 -52.2 
L 101.724304 -52.2 
L 103.613295 -52.2 
L 105.502285 -52.2 
L 107.391276 -52.2 
L 109.280266 -52.2 
L 111.169257 -52.2 
L 113.058247 -52.2 
L 114.947237 -52.2 
L 116.836228 -52.2 
L 118.725218 -52.2 
L 120.614209 -52.2 
L 122.503199 -52.2 
L 124.39219 -52.2 
L 126.28118 -52.2 
L 128.170171 -52.2 
L 130.059161 -52.2 
L 131.948152 -52.2 
L 133.837142 -52.2 
L 135.726132 -52.2 
L 137.615123 -52.2 
L 139.504113 -52.2 
L 141.393104 -52.2 
L 143.282094 -52.2 
L 145.171085 -52.2 
L 147.060075 -52.2 
L 148.949066 -52.2 
L 150.838056 -52.2 
L 152.727046 -52.2 
L 154.616037 -52.2 
L 156.505027 -52.2 
L 158.394018 -52.2 
L 160.283008 -52.2 
L 162.171999 -52.2 
L 164.060989 -52.2 
L 165.94998 -52.2 
L 167.83897 -52.2 
L 169.727961 -52.2 
L 171.616951 -52.2 
L 173.505941 -52.2 
L 175.394932 -52.2 
L 177.283922 -52.2 
L 179.172913 -52.2 
L 181.061903 -52.2 
L 182.950894 -52.2 
L 184.839884 -52.2 
L 186.728875 -52.2 
L 188.617865 -52.2 
L 190.506856 -52.2 
L 192.395846 -52.2 
L 194.284836 -52.2 
L 196.173827 -52.2 
L 198.062817 -52.2 
L 199.951808 -52.2 
L 201.840798 -52.2 
L 203.729789 -52.2 
L 205.618779 -52.2 
L 207.50777 -52.2 
L 209.39676 -52.2 
L 211.285751 -52.2 
L 213.174741 -52.2 
L 215.063731 -52.2 
L 216.952722 -52.2 
L 218.841712 -52.2 
L 220.730703 -52.2 
L 222.619693 -52.2 
L 224.508684 -52.2 
L 226.397674 -52.2 
L 228.286665 -52.2 
L 230.175655 -52.2 
L 232.064645 -52.2 
L 233.953636 -52.2 
L 235.842626 -52.2 
L 237.731617 -52.2 
L 239.620607 -52.2 
L 241.509598 -52.2 
L 243.398588 -52.2 
L 245.287579 -52.2 
L 247.176569 -52.2 
L 249.06556 -52.2 
L 250.95455 -52.2 
L 252.84354 -52.2 
L 254.732531 -52.2 
L 256.621521 -52.2 
L 258.510512 -52.2 
L 260.399502 -52.2 
L 262.288493 -52.2 
L 264.177483 -52.2 
L 266.066474 -52.2 
L 267.955464 -52.2 
L 269.844455 -52.2 
L 271.733445 -52.2 
L 273.622435 -52.2 
L 275.511426 -52.2 
L 277.400416 -52.2 
L 279.289407 -52.2 
L 281.178397 -52.2 
L 283.067388 -52.2 
L 284.956378 -52.2 
L 286.845369 -52.2 
L 288.734359 -52.2 
L 290.623349 -52.2 
L 292.51234 -52.2 
L 294.40133 -52.2 
L 296.290321 -52.2 
L 298.179311 -52.2 
L 300.068302 -52.2 
L 301.957292 -52.2 
L 303.846283 -52.2 
L 305.735273 -52.2 
L 307.624264 -52.2 
L 309.513254 -52.2 
L 311.402244 -52.2 
L 313.291235 -52.2 
L 315.180225 -52.2 
L 317.069216 -52.2 
L 318.958206 -52.2 
L 320.847197 -52.2 
L 322.736187 -52.2 
L 324.625178 -52.2 
L 326.514168 -52.2 
L 328.403159 -52.2 
L 330.292149 -52.2 
L 332.181139 -52.2 
L 334.07013 -52.2 
L 335.95912 -52.2 
L 337.848111 -52.2 
L 339.737101 -52.2 
L 341.626092 -52.2 
L 343.515082 -52.2 
L 345.404073 -52.2 
L 347.293063 -52.2 
L 349.182054 -52.2 
L 351.071044 -52.2 
L 352.960034 -52.2 
L 354.849025 -52.2 
L 356.738015 -52.2 
L 358.627006 -52.2 
L 360.515996 -52.2 
L 362.404987 -52.2 
L 364.293977 -52.2 
L 366.182968 -52.2 
L 368.071958 -52.2 
L 369.960948 -52.2 
L 371.849939 -52.2 
L 373.738929 -52.2 
L 375.62792 -52.2 
L 377.51691 -52.2 
L 379.405901 -52.2 
L 381.294891 -52.2 
L 383.183882 -52.2 
L 385.072872 -52.2 
L 386.961863 -52.2 
L 388.850853 -52.2 
L 390.739843 -52.2 
L 392.628834 -52.2 
L 394.517824 -52.2 
L 396.406815 -52.2 
L 398.295805 -52.2 
L 400.184796 -52.2 
L 402.073786 -52.2 
L 403.962777 -52.2 
L 405.851767 -52.2 
L 407.740758 -52.2 
L 409.629748 -52.2 
L 411.518738 -52.2 
L 413.407729 -52.2 
L 415.296719 -52.2 
L 417.18571 -52.2 
L 419.0747 -52.2 
L 420.963691 -52.2 
L 422.852681 -52.2 
L 424.741672 -52.2 
L 426.630662 -52.2 
L 428.519653 -52.2 
L 430.408643 -52.2 
L 432.297633 -52.2 
L 434.186624 -52.2 
L 436.075614 -52.245467 
L 437.964605 -52.2 
L 437.964605 -52.200043 
L 437.964605 -52.200043 
L 436.075614 -52.3364 
L 434.186624 -52.200058 
L 432.297633 -52.217879 
L 430.408643 -52.217971 
L 428.519653 -56.982911 
L 426.630662 -52.208674 
L 424.741672 -52.210163 
L 422.852681 -52.248095 
L 420.963691 -52.28986 
L 419.0747 -52.273455 
L 417.18571 -52.375137 
L 415.296719 -52.264892 
L 413.407729 -52.230362 
L 411.518738 -52.209106 
L 409.629748 -52.375912 
L 407.740758 -52.30521 
L 405.851767 -52.250241 
L 403.962777 -52.300546 
L 402.073786 -52.254986 
L 400.184796 -52.314382 
L 398.295805 -52.281169 
L 396.406815 -52.246579 
L 394.517824 -52.265711 
L 392.628834 -52.258958 
L 390.739843 -52.25655 
L 388.850853 -52.347759 
L 386.961863 -52.258264 
L 385.072872 -52.22006 
L 383.183882 -52.25666 
L 381.294891 -52.256469 
L 379.405901 -52.27156 
L 377.51691 -52.223847 
L 375.62792 -52.260993 
L 373.738929 -52.279511 
L 371.849939 -52.21938 
L 369.960948 -52.208416 
L 368.071958 -52.211658 
L 366.182968 -52.205598 
L 364.293977 -52.208846 
L 362.404987 -52.259325 
L 360.515996 -52.209445 
L 358.627006 -52.243154 
L 356.738015 -52.222064 
L 354.849025 -52.211404 
L 352.960034 -52.23728 
L 351.071044 -52.257736 
L 349.182054 -52.313056 
L 347.293063 -52.231945 
L 345.404073 -52.253916 
L 343.515082 -52.254657 
L 341.626092 -52.267514 
L 339.737101 -52.224989 
L 337.848111 -52.305106 
L 335.95912 -52.329018 
L 334.07013 -52.26835 
L 332.181139 -52.256474 
L 330.292149 -52.334209 
L 328.403159 -52.316636 
L 326.514168 -52.251254 
L 324.625178 -52.404252 
L 322.736187 -52.353502 
L 320.847197 -57.599364 
L 318.958206 -52.300749 
L 317.069216 -56.343106 
L 315.180225 -52.520098 
L 313.291235 -52.381134 
L 311.402244 -52.339606 
L 309.513254 -52.299033 
L 307.624264 -52.36352 
L 305.735273 -55.977078 
L 303.846283 -52.344504 
L 301.957292 -52.316645 
L 300.068302 -52.300518 
L 298.179311 -52.299832 
L 296.290321 -52.298471 
L 294.40133 -52.273664 
L 292.51234 -52.419093 
L 290.623349 -52.257403 
L 288.734359 -52.271743 
L 286.845369 -52.312205 
L 284.956378 -52.266087 
L 283.067388 -52.252345 
L 281.178397 -52.250872 
L 279.289407 -52.231731 
L 277.400416 -52.217393 
L 275.511426 -52.257775 
L 273.622435 -52.255574 
L 271.733445 -52.24503 
L 269.844455 -52.255847 
L 267.955464 -52.250478 
L 266.066474 -52.230668 
L 264.177483 -52.241717 
L 262.288493 -52.238274 
L 260.399502 -52.227151 
L 258.510512 -52.210524 
L 256.621521 -52.208119 
L 254.732531 -52.21534 
L 252.84354 -52.223297 
L 250.95455 -52.230686 
L 249.06556 -52.209818 
L 247.176569 -52.212257 
L 245.287579 -52.21732 
L 243.398588 -52.214619 
L 241.509598 -52.204523 
L 239.620607 -52.214139 
L 237.731617 -52.2089 
L 235.842626 -52.207377 
L 233.953636 -52.208171 
L 232.064645 -52.206738 
L 230.175655 -52.210506 
L 228.286665 -52.204136 
L 226.397674 -52.205523 
L 224.508684 -52.204321 
L 222.619693 -52.204431 
L 220.730703 -52.204515 
L 218.841712 -52.203331 
L 216.952722 -52.204761 
L 215.063731 -52.202659 
L 213.174741 -52.20771 
L 211.285751 -52.206093 
L 209.39676 -52.205451 
L 207.50777 -52.209076 
L 205.618779 -52.204474 
L 203.729789 -52.206093 
L 201.840798 -52.206043 
L 199.951808 -52.206747 
L 198.062817 -52.214671 
L 196.173827 -52.20195 
L 194.284836 -52.205939 
L 192.395846 -52.204437 
L 190.506856 -52.202322 
L 188.617865 -52.203294 
L 186.728875 -52.208468 
L 184.839884 -52.21105 
L 182.950894 -52.203189 
L 181.061903 -52.208278 
L 179.172913 -52.20547 
L 177.283922 -52.212076 
L 175.394932 -52.203221 
L 173.505941 -52.203626 
L 171.616951 -52.20259 
L 169.727961 -52.203685 
L 167.83897 -52.204571 
L 165.94998 -52.205351 
L 164.060989 -52.202695 
L 162.171999 -52.203245 
L 160.283008 -52.203441 
L 158.394018 -52.201673 
L 156.505027 -52.201097 
L 154.616037 -52.201875 
L 152.727046 -52.20194 
L 150.838056 -52.201424 
L 148.949066 -52.201207 
L 147.060075 -52.201387 
L 145.171085 -52.202257 
L 143.282094 -52.203361 
L 141.393104 -52.201082 
L 139.504113 -52.202304 
L 137.615123 -52.200863 
L 135.726132 -52.203134 
L 133.837142 -52.201864 
L 131.948152 -52.20125 
L 130.059161 -52.20363 
L 128.170171 -52.205184 
L 126.28118 -52.202196 
L 124.39219 -52.20162 
L 122.503199 -52.202652 
L 120.614209 -52.201491 
L 118.725218 -52.202341 
L 116.836228 -52.200984 
L 114.947237 -52.201656 
L 113.058247 -52.201479 
L 111.169257 -52.201008 
L 109.280266 -52.201644 
L 107.391276 -52.201161 
L 105.502285 -52.202333 
L 103.613295 -52.200975 
L 101.724304 -52.20173 
L 99.835314 -52.201523 
L 97.946323 -52.201073 
L 96.057333 -52.201149 
L 94.168342 -52.201461 
L 92.279352 -52.201163 
L 90.390362 -52.200762 
L 88.501371 -52.20121 
L 86.612381 -52.200892 
L 84.72339 -52.200853 
L 82.8344 -52.20092 
L 80.945409 -52.200654 
L 79.056419 -52.200697 
L 77.167428 -52.200617 
L 75.278438 -52.200568 
L 73.389447 -52.200408 
L 71.500457 -52.200367 
L 69.611467 -52.200306 
L 67.722476 -52.200251 
L 65.833486 -52.200147 
L 63.944495 -52.2 
z
" style="stroke: #008400; stroke-opacity: 0.5"/>
    </defs>
    <g clip-path="url(#pc6b005342c)">
     <use xlink:href="#m19aa6eabe5" x="0" y="360" style="fill: #008400; fill-opacity: 0.5; stroke: #008400; stroke-opacity: 0.5"/>
    </g>
   </g>
   <g id="FillBetweenPolyCollection_7">
    <defs>
     <path id="m0c3e813066" d="M 63.944495 -52.2 
L 63.944495 -52.2 
L 65.833486 -52.2 
L 67.722476 -52.2 
L 69.611467 -52.2 
L 71.500457 -52.2 
L 73.389447 -52.2 
L 75.278438 -52.2 
L 77.167428 -52.2 
L 79.056419 -52.2 
L 80.945409 -52.2 
L 82.8344 -52.2 
L 84.72339 -52.2 
L 86.612381 -52.2 
L 88.501371 -52.2 
L 90.390362 -52.2 
L 92.279352 -52.2 
L 94.168342 -52.2 
L 96.057333 -52.2 
L 97.946323 -52.2 
L 99.835314 -52.2 
L 101.724304 -52.2 
L 103.613295 -52.2 
L 105.502285 -52.2 
L 107.391276 -52.2 
L 109.280266 -52.2 
L 111.169257 -52.2 
L 113.058247 -52.2 
L 114.947237 -52.2 
L 116.836228 -52.2 
L 118.725218 -52.2 
L 120.614209 -52.2 
L 122.503199 -52.2 
L 124.39219 -52.2 
L 126.28118 -52.2 
L 128.170171 -52.2 
L 130.059161 -52.2 
L 131.948152 -52.2 
L 133.837142 -52.2 
L 135.726132 -52.2 
L 137.615123 -52.2 
L 139.504113 -52.2 
L 141.393104 -52.2 
L 143.282094 -52.2 
L 145.171085 -52.2 
L 147.060075 -52.2 
L 148.949066 -52.2 
L 150.838056 -52.2 
L 152.727046 -52.2 
L 154.616037 -52.2 
L 156.505027 -52.2 
L 158.394018 -52.2 
L 160.283008 -52.2 
L 162.171999 -52.2 
L 164.060989 -52.2 
L 165.94998 -52.2 
L 167.83897 -52.2 
L 169.727961 -52.2 
L 171.616951 -52.2 
L 173.505941 -52.2 
L 175.394932 -52.2 
L 177.283922 -52.2 
L 179.172913 -52.2 
L 181.061903 -52.2 
L 182.950894 -52.2 
L 184.839884 -52.2 
L 186.728875 -52.2 
L 188.617865 -52.2 
L 190.506856 -52.2 
L 192.395846 -52.2 
L 194.284836 -52.2 
L 196.173827 -52.2 
L 198.062817 -52.2 
L 199.951808 -52.2 
L 201.840798 -52.2 
L 203.729789 -52.2 
L 205.618779 -52.2 
L 207.50777 -52.2 
L 209.39676 -52.2 
L 211.285751 -52.2 
L 213.174741 -52.2 
L 215.063731 -52.2 
L 216.952722 -52.2 
L 218.841712 -52.2 
L 220.730703 -52.2 
L 222.619693 -52.2 
L 224.508684 -52.2 
L 226.397674 -52.2 
L 228.286665 -52.2 
L 230.175655 -52.2 
L 232.064645 -52.2 
L 233.953636 -52.2 
L 235.842626 -52.2 
L 237.731617 -52.2 
L 239.620607 -52.2 
L 241.509598 -52.2 
L 243.398588 -52.2 
L 245.287579 -52.2 
L 247.176569 -52.2 
L 249.06556 -52.2 
L 250.95455 -52.2 
L 252.84354 -52.2 
L 254.732531 -52.2 
L 256.621521 -52.2 
L 258.510512 -52.2 
L 260.399502 -52.2 
L 262.288493 -52.2 
L 264.177483 -52.2 
L 266.066474 -52.2 
L 267.955464 -52.2 
L 269.844455 -52.2 
L 271.733445 -52.2 
L 273.622435 -52.2 
L 275.511426 -52.2 
L 277.400416 -52.2 
L 279.289407 -52.2 
L 281.178397 -52.2 
L 283.067388 -52.2 
L 284.956378 -52.2 
L 286.845369 -52.2 
L 288.734359 -52.2 
L 290.623349 -52.2 
L 292.51234 -52.2 
L 294.40133 -52.2 
L 296.290321 -52.2 
L 298.179311 -52.2 
L 300.068302 -52.2 
L 301.957292 -52.2 
L 303.846283 -52.2 
L 305.735273 -52.2 
L 307.624264 -52.2 
L 309.513254 -52.2 
L 311.402244 -52.2 
L 313.291235 -52.2 
L 315.180225 -52.2 
L 317.069216 -52.2 
L 318.958206 -52.2 
L 320.847197 -52.2 
L 322.736187 -52.2 
L 324.625178 -52.2 
L 326.514168 -52.2 
L 328.403159 -52.2 
L 330.292149 -52.2 
L 332.181139 -52.2 
L 334.07013 -52.2 
L 335.95912 -52.2 
L 337.848111 -52.2 
L 339.737101 -52.2 
L 341.626092 -52.2 
L 343.515082 -52.2 
L 345.404073 -52.2 
L 347.293063 -52.2 
L 349.182054 -52.2 
L 351.071044 -52.2 
L 352.960034 -52.2 
L 354.849025 -52.2 
L 356.738015 -52.2 
L 358.627006 -52.2 
L 360.515996 -52.2 
L 362.404987 -52.2 
L 364.293977 -52.2 
L 366.182968 -52.2 
L 368.071958 -52.2 
L 369.960948 -52.2 
L 371.849939 -52.2 
L 373.738929 -52.2 
L 375.62792 -52.2 
L 377.51691 -52.2 
L 379.405901 -52.2 
L 381.294891 -52.2 
L 383.183882 -52.2 
L 385.072872 -52.2 
L 386.961863 -52.2 
L 388.850853 -52.2 
L 390.739843 -52.2 
L 392.628834 -52.2 
L 394.517824 -52.2 
L 396.406815 -52.2 
L 398.295805 -52.2 
L 400.184796 -52.2 
L 402.073786 -52.2 
L 403.962777 -52.2 
L 405.851767 -52.2 
L 407.740758 -52.2 
L 409.629748 -52.2 
L 411.518738 -52.2 
L 413.407729 -52.2 
L 415.296719 -52.2 
L 417.18571 -52.2 
L 419.0747 -52.2 
L 420.963691 -52.2 
L 422.852681 -52.2 
L 424.741672 -52.2 
L 426.630662 -52.2 
L 428.519653 -52.2 
L 430.408643 -52.2 
L 432.297633 -52.2 
L 434.186624 -52.2 
L 436.075614 -52.209093 
L 437.964605 -52.2 
L 437.964605 -52.200077 
L 437.964605 -52.200077 
L 436.075614 -52.372774 
L 434.186624 -52.223847 
L 432.297633 -55.356827 
L 430.408643 -154.587334 
L 428.519653 -246.849908 
L 426.630662 -187.417822 
L 424.741672 -151.963125 
L 422.852681 -92.49116 
L 420.963691 -139.634534 
L 419.0747 -264.777635 
L 417.18571 -289.394228 
L 415.296719 -233.861258 
L 413.407729 -215.319366 
L 411.518738 -115.344846 
L 409.629748 -278.61761 
L 407.740758 -246.697315 
L 405.851767 -189.139129 
L 403.962777 -267.427671 
L 402.073786 -303.986763 
L 400.184796 -227.659417 
L 398.295805 -250.524115 
L 396.406815 -134.672017 
L 394.517824 -243.100643 
L 392.628834 -270.310212 
L 390.739843 -223.142759 
L 388.850853 -304.2 
L 386.961863 -250.58656 
L 385.072872 -232.571229 
L 383.183882 -238.361215 
L 381.294891 -249.564776 
L 379.405901 -198.460367 
L 377.51691 -148.933938 
L 375.62792 -254.523919 
L 373.738929 -228.700279 
L 371.849939 -235.111467 
L 369.960948 -140.831461 
L 368.071958 -122.098608 
L 366.182968 -130.126923 
L 364.293977 -147.806528 
L 362.404987 -168.849664 
L 360.515996 -123.463311 
L 358.627006 -134.293642 
L 356.738015 -221.012504 
L 354.849025 -209.063026 
L 352.960034 -174.987956 
L 351.071044 -217.663389 
L 349.182054 -166.898679 
L 347.293063 -210.801079 
L 345.404073 -204.685602 
L 343.515082 -250.016323 
L 341.626092 -202.42157 
L 339.737101 -150.180597 
L 337.848111 -189.923638 
L 335.95912 -149.440082 
L 334.07013 -186.28087 
L 332.181139 -152.930976 
L 330.292149 -184.649381 
L 328.403159 -205.862377 
L 326.514168 -227.397249 
L 324.625178 -214.711531 
L 322.736187 -164.280305 
L 320.847197 -190.065704 
L 318.958206 -236.223398 
L 317.069216 -205.991758 
L 315.180225 -176.568757 
L 313.291235 -279.499391 
L 311.402244 -197.26911 
L 309.513254 -178.654804 
L 307.624264 -199.820717 
L 305.735273 -192.770793 
L 303.846283 -153.949352 
L 301.957292 -198.105235 
L 300.068302 -191.720752 
L 298.179311 -188.841072 
L 296.290321 -203.519659 
L 294.40133 -166.485835 
L 292.51234 -186.977831 
L 290.623349 -157.604051 
L 288.734359 -174.640019 
L 286.845369 -168.48588 
L 284.956378 -144.352937 
L 283.067388 -171.260025 
L 281.178397 -151.952972 
L 279.289407 -138.217695 
L 277.400416 -154.049451 
L 275.511426 -173.259619 
L 273.622435 -198.604683 
L 271.733445 -144.526555 
L 269.844455 -180.03098 
L 267.955464 -152.191372 
L 266.066474 -140.922985 
L 264.177483 -152.573042 
L 262.288493 -152.379995 
L 260.399502 -110.069575 
L 258.510512 -150.409881 
L 256.621521 -128.454824 
L 254.732531 -108.378421 
L 252.84354 -141.375728 
L 250.95455 -138.555475 
L 249.06556 -107.615588 
L 247.176569 -112.313117 
L 245.287579 -116.245571 
L 243.398588 -105.38146 
L 241.509598 -91.724854 
L 239.620607 -124.389834 
L 237.731617 -123.785155 
L 235.842626 -114.888542 
L 233.953636 -100.565372 
L 232.064645 -93.778684 
L 230.175655 -104.159336 
L 228.286665 -99.271861 
L 226.397674 -83.787526 
L 224.508684 -89.313457 
L 222.619693 -92.190598 
L 220.730703 -89.051902 
L 218.841712 -90.707466 
L 216.952722 -93.326931 
L 215.063731 -95.495509 
L 213.174741 -103.38336 
L 211.285751 -107.263414 
L 209.39676 -102.447261 
L 207.50777 -109.036506 
L 205.618779 -93.383575 
L 203.729789 -94.30052 
L 201.840798 -89.745348 
L 199.951808 -117.384823 
L 198.062817 -111.499167 
L 196.173827 -90.703957 
L 194.284836 -97.642983 
L 192.395846 -91.89523 
L 190.506856 -94.054692 
L 188.617865 -86.082513 
L 186.728875 -94.187983 
L 184.839884 -104.980068 
L 182.950894 -71.287717 
L 181.061903 -111.321067 
L 179.172913 -90.20804 
L 177.283922 -97.350983 
L 175.394932 -94.524333 
L 173.505941 -86.022056 
L 171.616951 -91.232257 
L 169.727961 -80.829196 
L 167.83897 -84.80476 
L 165.94998 -102.900368 
L 164.060989 -79.562208 
L 162.171999 -79.858035 
L 160.283008 -76.246064 
L 158.394018 -77.007082 
L 156.505027 -71.348925 
L 154.616037 -76.546043 
L 152.727046 -80.091635 
L 150.838056 -71.959505 
L 148.949066 -70.169505 
L 147.060075 -73.087885 
L 145.171085 -82.961241 
L 143.282094 -81.768982 
L 141.393104 -76.656864 
L 139.504113 -70.186965 
L 137.615123 -68.267133 
L 135.726132 -77.768787 
L 133.837142 -74.740547 
L 131.948152 -70.014183 
L 130.059161 -70.587341 
L 128.170171 -73.5736 
L 126.28118 -71.997511 
L 124.39219 -73.269941 
L 122.503199 -71.812555 
L 120.614209 -66.896684 
L 118.725218 -67.814812 
L 116.836228 -64.976047 
L 114.947237 -67.487304 
L 113.058247 -64.841769 
L 111.169257 -65.886781 
L 109.280266 -65.422123 
L 107.391276 -65.943638 
L 105.502285 -64.538739 
L 103.613295 -64.903524 
L 101.724304 -61.339473 
L 99.835314 -62.518968 
L 97.946323 -61.86167 
L 96.057333 -60.587648 
L 94.168342 -60.340508 
L 92.279352 -60.994752 
L 90.390362 -58.978696 
L 88.501371 -59.58249 
L 86.612381 -59.839191 
L 84.72339 -57.543969 
L 82.8344 -57.099557 
L 80.945409 -56.581322 
L 79.056419 -56.485998 
L 77.167428 -56.059019 
L 75.278438 -55.041293 
L 73.389447 -54.589344 
L 71.500457 -54.257787 
L 69.611467 -53.67583 
L 67.722476 -53.262736 
L 65.833486 -52.815561 
L 63.944495 -52.2 
z
" style="stroke: #008400; stroke-opacity: 0.1"/>
    </defs>
    <g clip-path="url(#pc6b005342c)">
     <use xlink:href="#m0c3e813066" x="0" y="360" style="fill: #008400; fill-opacity: 0.1; stroke: #008400; stroke-opacity: 0.1"/>
    </g>
   </g>
   <g id="line2d_16">
    <path d="M 63.944495 307.8 
L 437.964605 307.8 
L 437.964605 307.8 
" clip-path="url(#pc6b005342c)" style="fill: none; stroke: #000000; stroke-width: 1.5; stroke-linecap: round"/>
   </g>
   <g id="line2d_17">
    <path d="M 63.944495 307.8 
L 437.964605 307.8 
L 437.964605 307.8 
" clip-path="url(#pc6b005342c)" style="fill: none; stroke-dasharray: 5.55,2.4; stroke-dashoffset: 0; stroke: #000000; stroke-width: 1.5"/>
   </g>
   <g id="line2d_18">
    <path d="M 63.944495 307.8 
L 437.964605 307.8 
L 437.964605 307.8 
" clip-path="url(#pc6b005342c)" style="fill: none; stroke-dasharray: 5.55,2.4; stroke-dashoffset: 0; stroke: #000000; stroke-width: 1.5"/>
   </g>
   <g id="line2d_19">
    <path d="M 63.944495 307.8 
L 290.623349 307.742597 
L 292.51234 307.580907 
L 294.40133 307.726336 
L 303.846283 307.655496 
L 305.735273 304.022922 
L 307.624264 307.63648 
L 311.402244 307.660394 
L 315.180225 307.479902 
L 317.069216 303.656894 
L 318.958206 307.699251 
L 320.847197 302.400636 
L 322.736187 307.646498 
L 324.625178 307.595748 
L 326.514168 307.748746 
L 330.292149 307.665791 
L 334.07013 307.73165 
L 337.848111 307.694894 
L 339.737101 307.775011 
L 345.404073 307.746084 
L 356.738015 307.777936 
L 364.293977 307.791154 
L 386.961863 307.741736 
L 388.850853 307.652241 
L 392.628834 307.741042 
L 409.629748 307.624088 
L 411.518738 307.790894 
L 422.852681 307.751905 
L 426.630662 307.791326 
L 428.519653 303.017089 
L 430.408643 307.782029 
L 434.186624 307.799942 
L 436.075614 307.6636 
L 437.964605 307.799957 
L 437.964605 307.799957 
" clip-path="url(#pc6b005342c)" style="fill: none; stroke-dasharray: 5.55,2.4; stroke-dashoffset: 0; stroke: #000000; stroke-width: 1.5"/>
   </g>
   <g id="line2d_20">
    <path d="M 63.944495 307.8 
L 65.833486 307.184439 
L 75.278438 304.958707 
L 77.167428 303.940981 
L 79.056419 303.514002 
L 80.945409 303.418678 
L 84.72339 302.456031 
L 86.612381 300.160809 
L 88.501371 300.41751 
L 90.390362 301.021304 
L 92.279352 299.005248 
L 94.168342 299.659492 
L 96.057333 299.412352 
L 97.946323 298.13833 
L 99.835314 297.481032 
L 101.724304 298.660527 
L 103.613295 295.096476 
L 105.502285 295.461261 
L 107.391276 294.056362 
L 109.280266 294.577877 
L 111.169257 294.113219 
L 113.058247 295.158231 
L 114.947237 292.512696 
L 116.836228 295.023953 
L 118.725218 292.185188 
L 120.614209 293.103316 
L 122.503199 288.187445 
L 124.39219 286.730059 
L 126.28118 288.002489 
L 128.170171 286.4264 
L 130.059161 289.412659 
L 131.948152 289.985817 
L 133.837142 285.259453 
L 135.726132 282.231213 
L 137.615123 291.732867 
L 139.504113 289.813035 
L 141.393104 283.343136 
L 143.282094 278.231018 
L 145.171085 277.038759 
L 147.060075 286.912115 
L 148.949066 289.830495 
L 150.838056 288.040495 
L 152.727046 279.908365 
L 154.616037 283.453957 
L 156.505027 288.651075 
L 158.394018 282.992918 
L 160.283008 283.753936 
L 162.171999 280.141965 
L 164.060989 280.437792 
L 165.94998 257.099632 
L 167.83897 275.19524 
L 169.727961 279.170804 
L 171.616951 268.767743 
L 173.505941 273.977944 
L 175.394932 265.475667 
L 177.283922 262.649017 
L 179.172913 269.79196 
L 181.061903 248.678933 
L 182.950894 288.712283 
L 184.839884 255.019932 
L 186.728875 265.812017 
L 188.617865 273.917487 
L 190.506856 265.945308 
L 192.395846 268.10477 
L 194.284836 262.357017 
L 196.173827 269.296043 
L 198.062817 248.500833 
L 199.951808 242.615177 
L 201.840798 270.254652 
L 203.729789 265.69948 
L 205.618779 266.616425 
L 207.50777 250.963494 
L 209.39676 257.552739 
L 211.285751 252.736586 
L 213.174741 256.61664 
L 215.063731 264.504491 
L 216.952722 266.673069 
L 218.841712 269.292534 
L 220.730703 270.948098 
L 222.619693 267.809402 
L 224.508684 270.686543 
L 226.397674 276.212474 
L 228.286665 260.728139 
L 230.175655 255.840664 
L 232.064645 266.221316 
L 233.953636 259.434628 
L 235.842626 245.111458 
L 237.731617 236.214845 
L 239.620607 235.610166 
L 241.509598 268.275146 
L 243.398588 254.61854 
L 245.287579 243.754429 
L 247.176569 247.686883 
L 249.06556 252.384412 
L 250.95455 221.444525 
L 252.84354 218.624272 
L 254.732531 251.621579 
L 256.621521 231.545176 
L 258.510512 209.590119 
L 260.399502 249.930425 
L 262.288493 207.620005 
L 264.177483 207.426958 
L 266.066474 219.077015 
L 267.955464 207.808628 
L 269.844455 179.96902 
L 271.733445 215.473445 
L 273.622435 161.395317 
L 275.511426 186.740381 
L 277.400416 205.950549 
L 279.289407 221.782305 
L 281.178397 208.047028 
L 283.067388 188.739975 
L 284.956378 215.647063 
L 286.845369 191.51412 
L 288.734359 185.359981 
L 290.623349 202.395949 
L 292.51234 173.022169 
L 294.40133 193.514165 
L 296.290321 156.480341 
L 298.179311 171.158928 
L 300.068302 168.279248 
L 301.957292 161.894765 
L 303.846283 206.050648 
L 305.735273 167.229207 
L 307.624264 160.179283 
L 309.513254 181.345196 
L 311.402244 162.73089 
L 313.291235 80.500609 
L 315.180225 183.431243 
L 318.958206 123.776602 
L 320.847197 169.934296 
L 322.736187 195.719695 
L 324.625178 145.288469 
L 326.514168 132.602751 
L 330.292149 175.350619 
L 332.181139 207.069024 
L 334.07013 173.71913 
L 335.95912 210.559918 
L 337.848111 170.076362 
L 339.737101 209.819403 
L 341.626092 157.57843 
L 343.515082 109.983677 
L 345.404073 155.314398 
L 347.293063 149.198921 
L 349.182054 193.101321 
L 351.071044 142.336611 
L 352.960034 185.012044 
L 354.849025 150.936974 
L 356.738015 138.987496 
L 358.627006 225.706358 
L 360.515996 236.536689 
L 362.404987 191.150336 
L 364.293977 212.193472 
L 366.182968 229.873077 
L 368.071958 237.901392 
L 369.960948 219.168539 
L 371.849939 124.888533 
L 373.738929 131.299721 
L 375.62792 105.476081 
L 377.51691 211.066062 
L 381.294891 110.435224 
L 383.183882 121.638785 
L 385.072872 127.428771 
L 386.961863 109.41344 
L 388.850853 55.8 
L 390.739843 136.857241 
L 392.628834 89.689788 
L 394.517824 116.899357 
L 396.406815 225.327983 
L 398.295805 109.475885 
L 400.184796 132.340583 
L 402.073786 56.013237 
L 403.962777 92.572329 
L 405.851767 170.860871 
L 407.740758 113.302685 
L 409.629748 81.38239 
L 411.518738 244.655154 
L 413.407729 144.680634 
L 415.296719 126.138742 
L 417.18571 70.605772 
L 419.0747 95.222365 
L 420.963691 220.365466 
L 422.852681 267.50884 
L 424.741672 208.036875 
L 426.630662 172.582178 
L 428.519653 113.150092 
L 430.408643 205.412666 
L 432.297633 304.643173 
L 434.186624 307.776153 
L 436.075614 307.627226 
L 437.964605 307.799923 
L 437.964605 307.799923 
" clip-path="url(#pc6b005342c)" style="fill: none; stroke-dasharray: 5.55,2.4; stroke-dashoffset: 0; stroke: #000000; stroke-width: 1.5"/>
   </g>
   <g id="patch_3">
    <path d="M 63 320.4 
L 63 43.2 
" style="fill: none; stroke: #262626; stroke-width: 0.8; stroke-linejoin: miter; stroke-linecap: square"/>
   </g>
   <g id="patch_4">
    <path d="M 63 320.4 
L 453.6 320.4 
" style="fill: none; stroke: #262626; stroke-width: 0.8; stroke-linejoin: miter; stroke-linecap: square"/>
   </g>
   <g id="text_18">
    <!-- Artemether Concentration vs Parasite Density -->
    <g style="fill: #262626" transform="translate(97.266094 7.523062) scale(0.14 -0.14)">
     <defs>
      <path id="DejaVuSans-76" d="M 191 3500 
L 800 3500 
L 1894 563 
L 2988 3500 
L 3597 3500 
L 2284 0 
L 1503 0 
L 191 3500 
z
" transform="scale(0.015625)"/>
     </defs>
     <use xlink:href="#DejaVuSans-41"/>
     <use xlink:href="#DejaVuSans-72" transform="translate(68.408203 0)"/>
     <use xlink:href="#DejaVuSans-74" transform="translate(109.521484 0)"/>
     <use xlink:href="#DejaVuSans-65" transform="translate(148.730469 0)"/>
     <use xlink:href="#DejaVuSans-6d" transform="translate(210.253906 0)"/>
     <use xlink:href="#DejaVuSans-65" transform="translate(307.666016 0)"/>
     <use xlink:href="#DejaVuSans-74" transform="translate(369.189453 0)"/>
     <use xlink:href="#DejaVuSans-68" transform="translate(408.398438 0)"/>
     <use xlink:href="#DejaVuSans-65" transform="translate(471.777344 0)"/>
     <use xlink:href="#DejaVuSans-72" transform="translate(533.300781 0)"/>
     <use xlink:href="#DejaVuSans-20" transform="translate(574.414062 0)"/>
     <use xlink:href="#DejaVuSans-43" transform="translate(606.201172 0)"/>
     <use xlink:href="#DejaVuSans-6f" transform="translate(676.025391 0)"/>
     <use xlink:href="#DejaVuSans-6e" transform="translate(737.207031 0)"/>
     <use xlink:href="#DejaVuSans-63" transform="translate(800.585938 0)"/>
     <use xlink:href="#DejaVuSans-65" transform="translate(855.566406 0)"/>
     <use xlink:href="#DejaVuSans-6e" transform="translate(917.089844 0)"/>
     <use xlink:href="#DejaVuSans-74" transform="translate(980.46875 0)"/>
     <use xlink:href="#DejaVuSans-72" transform="translate(1019.677734 0)"/>
     <use xlink:href="#DejaVuSans-61" transform="translate(1060.791016 0)"/>
     <use xlink:href="#DejaVuSans-74" transform="translate(1122.070312 0)"/>
     <use xlink:href="#DejaVuSans-69" transform="translate(1161.279297 0)"/>
     <use xlink:href="#DejaVuSans-6f" transform="translate(1189.0625 0)"/>
     <use xlink:href="#DejaVuSans-6e" transform="translate(1250.244141 0)"/>
     <use xlink:href="#DejaVuSans-20" transform="translate(1313.623047 0)"/>
     <use xlink:href="#DejaVuSans-76" transform="translate(1345.410156 0)"/>
     <use xlink:href="#DejaVuSans-73" transform="translate(1404.589844 0)"/>
     <use xlink:href="#DejaVuSans-20" transform="translate(1456.689453 0)"/>
     <use xlink:href="#DejaVuSans-50" transform="translate(1488.476562 0)"/>
     <use xlink:href="#DejaVuSans-61" transform="translate(1544.279297 0)"/>
     <use xlink:href="#DejaVuSans-72" transform="translate(1605.558594 0)"/>
     <use xlink:href="#DejaVuSans-61" transform="translate(1646.671875 0)"/>
     <use xlink:href="#DejaVuSans-73" transform="translate(1707.951172 0)"/>
     <use xlink:href="#DejaVuSans-69" transform="translate(1760.050781 0)"/>
     <use xlink:href="#DejaVuSans-74" transform="translate(1787.833984 0)"/>
     <use xlink:href="#DejaVuSans-65" transform="translate(1827.042969 0)"/>
     <use xlink:href="#DejaVuSans-20" transform="translate(1888.566406 0)"/>
     <use xlink:href="#DejaVuSans-44" transform="translate(1920.353516 0)"/>
     <use xlink:href="#DejaVuSans-65" transform="translate(1997.355469 0)"/>
     <use xlink:href="#DejaVuSans-6e" transform="translate(2058.878906 0)"/>
     <use xlink:href="#DejaVuSans-73" transform="translate(2122.257812 0)"/>
     <use xlink:href="#DejaVuSans-69" transform="translate(2174.357422 0)"/>
     <use xlink:href="#DejaVuSans-74" transform="translate(2202.140625 0)"/>
     <use xlink:href="#DejaVuSans-79" transform="translate(2241.349609 0)"/>
    </g>
    <!-- (Percentile Bands) -->
    <g style="fill: #262626" transform="translate(194.466563 23.2) scale(0.14 -0.14)">
     <defs>
      <path id="DejaVuSans-42" d="M 1259 2228 
L 1259 519 
L 2272 519 
Q 2781 519 3026 730 
Q 3272 941 3272 1375 
Q 3272 1813 3026 2020 
Q 2781 2228 2272 2228 
L 1259 2228 
z
M 1259 4147 
L 1259 2741 
L 2194 2741 
Q 2656 2741 2882 2914 
Q 3109 3088 3109 3444 
Q 3109 3797 2882 3972 
Q 2656 4147 2194 4147 
L 1259 4147 
z
M 628 4666 
L 2241 4666 
Q 2963 4666 3353 4366 
Q 3744 4066 3744 3513 
Q 3744 3084 3544 2831 
Q 3344 2578 2956 2516 
Q 3422 2416 3680 2098 
Q 3938 1781 3938 1306 
Q 3938 681 3513 340 
Q 3088 0 2303 0 
L 628 0 
L 628 4666 
z
" transform="scale(0.015625)"/>
      <path id="DejaVuSans-64" d="M 2906 2969 
L 2906 4863 
L 3481 4863 
L 3481 0 
L 2906 0 
L 2906 525 
Q 2725 213 2448 61 
Q 2172 -91 1784 -91 
Q 1150 -91 751 415 
Q 353 922 353 1747 
Q 353 2572 751 3078 
Q 1150 3584 1784 3584 
Q 2172 3584 2448 3432 
Q 2725 3281 2906 2969 
z
M 947 1747 
Q 947 1113 1208 752 
Q 1469 391 1925 391 
Q 2381 391 2643 752 
Q 2906 1113 2906 1747 
Q 2906 2381 2643 2742 
Q 2381 3103 1925 3103 
Q 1469 3103 1208 2742 
Q 947 2381 947 1747 
z
" transform="scale(0.015625)"/>
     </defs>
     <use xlink:href="#DejaVuSans-28"/>
     <use xlink:href="#DejaVuSans-50" transform="translate(39.013672 0)"/>
     <use xlink:href="#DejaVuSans-65" transform="translate(95.691406 0)"/>
     <use xlink:href="#DejaVuSans-72" transform="translate(157.214844 0)"/>
     <use xlink:href="#DejaVuSans-63" transform="translate(196.078125 0)"/>
     <use xlink:href="#DejaVuSans-65" transform="translate(251.058594 0)"/>
     <use xlink:href="#DejaVuSans-6e" transform="translate(312.582031 0)"/>
     <use xlink:href="#DejaVuSans-74" transform="translate(375.960938 0)"/>
     <use xlink:href="#DejaVuSans-69" transform="translate(415.169922 0)"/>
     <use xlink:href="#DejaVuSans-6c" transform="translate(442.953125 0)"/>
     <use xlink:href="#DejaVuSans-65" transform="translate(470.736328 0)"/>
     <use xlink:href="#DejaVuSans-20" transform="translate(532.259766 0)"/>
     <use xlink:href="#DejaVuSans-42" transform="translate(564.046875 0)"/>
     <use xlink:href="#DejaVuSans-61" transform="translate(632.650391 0)"/>
     <use xlink:href="#DejaVuSans-6e" transform="translate(693.929688 0)"/>
     <use xlink:href="#DejaVuSans-64" transform="translate(757.308594 0)"/>
     <use xlink:href="#DejaVuSans-73" transform="translate(820.785156 0)"/>
     <use xlink:href="#DejaVuSans-29" transform="translate(872.884766 0)"/>
    </g>
   </g>
  </g>
 </g>
 <defs>
  <clipPath id="pc6b005342c">
   <rect x="63" y="43.2" width="390.6" height="277.2"/>
  </clipPath>
 </defs>
</svg>
