<?xml version="1.0" encoding="utf-8" standalone="no"?>
<!DOCTYPE svg PUBLIC "-//W3C//DTD SVG 1.1//EN"
  "http://www.w3.org/Graphics/SVG/1.1/DTD/svg11.dtd">
<svg xmlns:xlink="http://www.w3.org/1999/xlink" width="504pt" height="360pt" viewBox="0 0 504 360" xmlns="http://www.w3.org/2000/svg" version="1.1">
 <metadata>
  <rdf:RDF xmlns:dc="http://purl.org/dc/elements/1.1/" xmlns:cc="http://creativecommons.org/ns#" xmlns:rdf="http://www.w3.org/1999/02/22-rdf-syntax-ns#">
   <cc:Work>
    <dc:type rdf:resource="http://purl.org/dc/dcmitype/StillImage"/>
    <dc:date>2025-07-09T13:47:19.150472</dc:date>
    <dc:format>image/svg+xml</dc:format>
    <dc:creator>
     <cc:Agent>
      <dc:title>Matplotlib v3.10.1, https://matplotlib.org/</dc:title>
     </cc:Agent>
    </dc:creator>
   </cc:Work>
  </rdf:RDF>
 </metadata>
 <defs>
  <style type="text/css">*{stroke-linejoin: round; stroke-linecap: butt}</style>
 </defs>
 <g id="figure_1">
  <g id="patch_1">
   <path d="M 0 360 
L 504 360 
L 504 0 
L 0 0 
z
" style="fill: #ffffff"/>
  </g>
  <g id="axes_1">
   <g id="patch_2">
    <path d="M 63 320.4 
L 453.6 320.4 
L 453.6 43.2 
L 63 43.2 
z
" style="fill: #ffffff"/>
   </g>
   <g id="matplotlib.axis_1">
    <g id="xtick_1">
     <g id="line2d_1">
      <defs>
       <path id="mc757fc687e" d="M 0 0 
L 0 3.5 
" style="stroke: #262626; stroke-width: 0.8"/>
      </defs>
      <g>
       <use xlink:href="#mc757fc687e" x="63" y="320.4" style="fill: #262626; stroke: #262626; stroke-width: 0.8"/>
      </g>
     </g>
     <g id="text_1">
      <!-- 0 -->
      <g style="fill: #262626" transform="translate(58.54625 338.037813) scale(0.14 -0.14)">
       <defs>
        <path id="DejaVuSans-30" d="M 2034 4250 
Q 1547 4250 1301 3770 
Q 1056 3291 1056 2328 
Q 1056 1369 1301 889 
Q 1547 409 2034 409 
Q 2525 409 2770 889 
Q 3016 1369 3016 2328 
Q 3016 3291 2770 3770 
Q 2525 4250 2034 4250 
z
M 2034 4750 
Q 2819 4750 3233 4129 
Q 3647 3509 3647 2328 
Q 3647 1150 3233 529 
Q 2819 -91 2034 -91 
Q 1250 -91 836 529 
Q 422 1150 422 2328 
Q 422 3509 836 4129 
Q 1250 4750 2034 4750 
z
" transform="scale(0.015625)"/>
       </defs>
       <use xlink:href="#DejaVuSans-30"/>
      </g>
     </g>
    </g>
    <g id="xtick_2">
     <g id="line2d_2">
      <g>
       <use xlink:href="#mc757fc687e" x="118.143529" y="320.4" style="fill: #262626; stroke: #262626; stroke-width: 0.8"/>
      </g>
     </g>
     <g id="text_2">
      <!-- 1 -->
      <g style="fill: #262626" transform="translate(113.689779 338.037813) scale(0.14 -0.14)">
       <defs>
        <path id="DejaVuSans-31" d="M 794 531 
L 1825 531 
L 1825 4091 
L 703 3866 
L 703 4441 
L 1819 4666 
L 2450 4666 
L 2450 531 
L 3481 531 
L 3481 0 
L 794 0 
L 794 531 
z
" transform="scale(0.015625)"/>
       </defs>
       <use xlink:href="#DejaVuSans-31"/>
      </g>
     </g>
    </g>
    <g id="xtick_3">
     <g id="line2d_3">
      <g>
       <use xlink:href="#mc757fc687e" x="173.287059" y="320.4" style="fill: #262626; stroke: #262626; stroke-width: 0.8"/>
      </g>
     </g>
     <g id="text_3">
      <!-- 2 -->
      <g style="fill: #262626" transform="translate(168.833309 338.037813) scale(0.14 -0.14)">
       <defs>
        <path id="DejaVuSans-32" d="M 1228 531 
L 3431 531 
L 3431 0 
L 469 0 
L 469 531 
Q 828 903 1448 1529 
Q 2069 2156 2228 2338 
Q 2531 2678 2651 2914 
Q 2772 3150 2772 3378 
Q 2772 3750 2511 3984 
Q 2250 4219 1831 4219 
Q 1534 4219 1204 4116 
Q 875 4013 500 3803 
L 500 4441 
Q 881 4594 1212 4672 
Q 1544 4750 1819 4750 
Q 2544 4750 2975 4387 
Q 3406 4025 3406 3419 
Q 3406 3131 3298 2873 
Q 3191 2616 2906 2266 
Q 2828 2175 2409 1742 
Q 1991 1309 1228 531 
z
" transform="scale(0.015625)"/>
       </defs>
       <use xlink:href="#DejaVuSans-32"/>
      </g>
     </g>
    </g>
    <g id="xtick_4">
     <g id="line2d_4">
      <g>
       <use xlink:href="#mc757fc687e" x="228.430588" y="320.4" style="fill: #262626; stroke: #262626; stroke-width: 0.8"/>
      </g>
     </g>
     <g id="text_4">
      <!-- 3 -->
      <g style="fill: #262626" transform="translate(223.976838 338.037813) scale(0.14 -0.14)">
       <defs>
        <path id="DejaVuSans-33" d="M 2597 2516 
Q 3050 2419 3304 2112 
Q 3559 1806 3559 1356 
Q 3559 666 3084 287 
Q 2609 -91 1734 -91 
Q 1441 -91 1130 -33 
Q 819 25 488 141 
L 488 750 
Q 750 597 1062 519 
Q 1375 441 1716 441 
Q 2309 441 2620 675 
Q 2931 909 2931 1356 
Q 2931 1769 2642 2001 
Q 2353 2234 1838 2234 
L 1294 2234 
L 1294 2753 
L 1863 2753 
Q 2328 2753 2575 2939 
Q 2822 3125 2822 3475 
Q 2822 3834 2567 4026 
Q 2313 4219 1838 4219 
Q 1578 4219 1281 4162 
Q 984 4106 628 3988 
L 628 4550 
Q 988 4650 1302 4700 
Q 1616 4750 1894 4750 
Q 2613 4750 3031 4423 
Q 3450 4097 3450 3541 
Q 3450 3153 3228 2886 
Q 3006 2619 2597 2516 
z
" transform="scale(0.015625)"/>
       </defs>
       <use xlink:href="#DejaVuSans-33"/>
      </g>
     </g>
    </g>
    <g id="xtick_5">
     <g id="line2d_5">
      <g>
       <use xlink:href="#mc757fc687e" x="283.574118" y="320.4" style="fill: #262626; stroke: #262626; stroke-width: 0.8"/>
      </g>
     </g>
     <g id="text_5">
      <!-- 4 -->
      <g style="fill: #262626" transform="translate(279.120368 338.037813) scale(0.14 -0.14)">
       <defs>
        <path id="DejaVuSans-34" d="M 2419 4116 
L 825 1625 
L 2419 1625 
L 2419 4116 
z
M 2253 4666 
L 3047 4666 
L 3047 1625 
L 3713 1625 
L 3713 1100 
L 3047 1100 
L 3047 0 
L 2419 0 
L 2419 1100 
L 313 1100 
L 313 1709 
L 2253 4666 
z
" transform="scale(0.015625)"/>
       </defs>
       <use xlink:href="#DejaVuSans-34"/>
      </g>
     </g>
    </g>
    <g id="xtick_6">
     <g id="line2d_6">
      <g>
       <use xlink:href="#mc757fc687e" x="338.717647" y="320.4" style="fill: #262626; stroke: #262626; stroke-width: 0.8"/>
      </g>
     </g>
     <g id="text_6">
      <!-- 5 -->
      <g style="fill: #262626" transform="translate(334.263897 338.037813) scale(0.14 -0.14)">
       <defs>
        <path id="DejaVuSans-35" d="M 691 4666 
L 3169 4666 
L 3169 4134 
L 1269 4134 
L 1269 2991 
Q 1406 3038 1543 3061 
Q 1681 3084 1819 3084 
Q 2600 3084 3056 2656 
Q 3513 2228 3513 1497 
Q 3513 744 3044 326 
Q 2575 -91 1722 -91 
Q 1428 -91 1123 -41 
Q 819 9 494 109 
L 494 744 
Q 775 591 1075 516 
Q 1375 441 1709 441 
Q 2250 441 2565 725 
Q 2881 1009 2881 1497 
Q 2881 1984 2565 2268 
Q 2250 2553 1709 2553 
Q 1456 2553 1204 2497 
Q 953 2441 691 2322 
L 691 4666 
z
" transform="scale(0.015625)"/>
       </defs>
       <use xlink:href="#DejaVuSans-35"/>
      </g>
     </g>
    </g>
    <g id="xtick_7">
     <g id="line2d_7">
      <g>
       <use xlink:href="#mc757fc687e" x="393.861176" y="320.4" style="fill: #262626; stroke: #262626; stroke-width: 0.8"/>
      </g>
     </g>
     <g id="text_7">
      <!-- 6 -->
      <g style="fill: #262626" transform="translate(389.407426 338.037813) scale(0.14 -0.14)">
       <defs>
        <path id="DejaVuSans-36" d="M 2113 2584 
Q 1688 2584 1439 2293 
Q 1191 2003 1191 1497 
Q 1191 994 1439 701 
Q 1688 409 2113 409 
Q 2538 409 2786 701 
Q 3034 994 3034 1497 
Q 3034 2003 2786 2293 
Q 2538 2584 2113 2584 
z
M 3366 4563 
L 3366 3988 
Q 3128 4100 2886 4159 
Q 2644 4219 2406 4219 
Q 1781 4219 1451 3797 
Q 1122 3375 1075 2522 
Q 1259 2794 1537 2939 
Q 1816 3084 2150 3084 
Q 2853 3084 3261 2657 
Q 3669 2231 3669 1497 
Q 3669 778 3244 343 
Q 2819 -91 2113 -91 
Q 1303 -91 875 529 
Q 447 1150 447 2328 
Q 447 3434 972 4092 
Q 1497 4750 2381 4750 
Q 2619 4750 2861 4703 
Q 3103 4656 3366 4563 
z
" transform="scale(0.015625)"/>
       </defs>
       <use xlink:href="#DejaVuSans-36"/>
      </g>
     </g>
    </g>
    <g id="xtick_8">
     <g id="line2d_8">
      <g>
       <use xlink:href="#mc757fc687e" x="449.004706" y="320.4" style="fill: #262626; stroke: #262626; stroke-width: 0.8"/>
      </g>
     </g>
     <g id="text_8">
      <!-- 7 -->
      <g style="fill: #262626" transform="translate(444.550956 338.037813) scale(0.14 -0.14)">
       <defs>
        <path id="DejaVuSans-37" d="M 525 4666 
L 3525 4666 
L 3525 4397 
L 1831 0 
L 1172 0 
L 2766 4134 
L 525 4134 
L 525 4666 
z
" transform="scale(0.015625)"/>
       </defs>
       <use xlink:href="#DejaVuSans-37"/>
      </g>
     </g>
    </g>
    <g id="text_9">
     <!-- Day -->
     <g style="fill: #262626" transform="translate(244.477188 361.587188) scale(0.14 -0.14)">
      <defs>
       <path id="DejaVuSans-44" d="M 1259 4147 
L 1259 519 
L 2022 519 
Q 2988 519 3436 956 
Q 3884 1394 3884 2338 
Q 3884 3275 3436 3711 
Q 2988 4147 2022 4147 
L 1259 4147 
z
M 628 4666 
L 1925 4666 
Q 3281 4666 3915 4102 
Q 4550 3538 4550 2338 
Q 4550 1131 3912 565 
Q 3275 0 1925 0 
L 628 0 
L 628 4666 
z
" transform="scale(0.015625)"/>
       <path id="DejaVuSans-61" d="M 2194 1759 
Q 1497 1759 1228 1600 
Q 959 1441 959 1056 
Q 959 750 1161 570 
Q 1363 391 1709 391 
Q 2188 391 2477 730 
Q 2766 1069 2766 1631 
L 2766 1759 
L 2194 1759 
z
M 3341 1997 
L 3341 0 
L 2766 0 
L 2766 531 
Q 2569 213 2275 61 
Q 1981 -91 1556 -91 
Q 1019 -91 701 211 
Q 384 513 384 1019 
Q 384 1609 779 1909 
Q 1175 2209 1959 2209 
L 2766 2209 
L 2766 2266 
Q 2766 2663 2505 2880 
Q 2244 3097 1772 3097 
Q 1472 3097 1187 3025 
Q 903 2953 641 2809 
L 641 3341 
Q 956 3463 1253 3523 
Q 1550 3584 1831 3584 
Q 2591 3584 2966 3190 
Q 3341 2797 3341 1997 
z
" transform="scale(0.015625)"/>
       <path id="DejaVuSans-79" d="M 2059 -325 
Q 1816 -950 1584 -1140 
Q 1353 -1331 966 -1331 
L 506 -1331 
L 506 -850 
L 844 -850 
Q 1081 -850 1212 -737 
Q 1344 -625 1503 -206 
L 1606 56 
L 191 3500 
L 800 3500 
L 1894 763 
L 2988 3500 
L 3597 3500 
L 2059 -325 
z
" transform="scale(0.015625)"/>
      </defs>
      <use xlink:href="#DejaVuSans-44"/>
      <use xlink:href="#DejaVuSans-61" transform="translate(77.001953 0)"/>
      <use xlink:href="#DejaVuSans-79" transform="translate(138.28125 0)"/>
     </g>
    </g>
   </g>
   <g id="matplotlib.axis_2">
    <g id="ytick_1">
     <g id="line2d_9">
      <defs>
       <path id="m13840bb47a" d="M 0 0 
L -3.5 0 
" style="stroke: #262626; stroke-width: 0.8"/>
      </defs>
      <g>
       <use xlink:href="#m13840bb47a" x="63" y="320.4" style="fill: #262626; stroke: #262626; stroke-width: 0.8"/>
      </g>
     </g>
     <g id="text_10">
      <!-- −3 -->
      <g style="fill: #262626" transform="translate(35.360937 325.718906) scale(0.14 -0.14)">
       <defs>
        <path id="DejaVuSans-2212" d="M 678 2272 
L 4684 2272 
L 4684 1741 
L 678 1741 
L 678 2272 
z
" transform="scale(0.015625)"/>
       </defs>
       <use xlink:href="#DejaVuSans-2212"/>
       <use xlink:href="#DejaVuSans-33" transform="translate(83.789062 0)"/>
      </g>
     </g>
    </g>
    <g id="ytick_2">
     <g id="line2d_10">
      <g>
       <use xlink:href="#m13840bb47a" x="63" y="289.6" style="fill: #262626; stroke: #262626; stroke-width: 0.8"/>
      </g>
     </g>
     <g id="text_11">
      <!-- −2 -->
      <g style="fill: #262626" transform="translate(35.360937 294.918906) scale(0.14 -0.14)">
       <use xlink:href="#DejaVuSans-2212"/>
       <use xlink:href="#DejaVuSans-32" transform="translate(83.789062 0)"/>
      </g>
     </g>
    </g>
    <g id="ytick_3">
     <g id="line2d_11">
      <g>
       <use xlink:href="#m13840bb47a" x="63" y="258.8" style="fill: #262626; stroke: #262626; stroke-width: 0.8"/>
      </g>
     </g>
     <g id="text_12">
      <!-- −1 -->
      <g style="fill: #262626" transform="translate(35.360937 264.118906) scale(0.14 -0.14)">
       <use xlink:href="#DejaVuSans-2212"/>
       <use xlink:href="#DejaVuSans-31" transform="translate(83.789062 0)"/>
      </g>
     </g>
    </g>
    <g id="ytick_4">
     <g id="line2d_12">
      <g>
       <use xlink:href="#m13840bb47a" x="63" y="228" style="fill: #262626; stroke: #262626; stroke-width: 0.8"/>
      </g>
     </g>
     <g id="text_13">
      <!-- 0 -->
      <g style="fill: #262626" transform="translate(47.0925 233.318906) scale(0.14 -0.14)">
       <use xlink:href="#DejaVuSans-30"/>
      </g>
     </g>
    </g>
    <g id="ytick_5">
     <g id="line2d_13">
      <g>
       <use xlink:href="#m13840bb47a" x="63" y="197.2" style="fill: #262626; stroke: #262626; stroke-width: 0.8"/>
      </g>
     </g>
     <g id="text_14">
      <!-- 1 -->
      <g style="fill: #262626" transform="translate(47.0925 202.518906) scale(0.14 -0.14)">
       <use xlink:href="#DejaVuSans-31"/>
      </g>
     </g>
    </g>
    <g id="ytick_6">
     <g id="line2d_14">
      <g>
       <use xlink:href="#m13840bb47a" x="63" y="166.4" style="fill: #262626; stroke: #262626; stroke-width: 0.8"/>
      </g>
     </g>
     <g id="text_15">
      <!-- 2 -->
      <g style="fill: #262626" transform="translate(47.0925 171.718906) scale(0.14 -0.14)">
       <use xlink:href="#DejaVuSans-32"/>
      </g>
     </g>
    </g>
    <g id="ytick_7">
     <g id="line2d_15">
      <g>
       <use xlink:href="#m13840bb47a" x="63" y="135.6" style="fill: #262626; stroke: #262626; stroke-width: 0.8"/>
      </g>
     </g>
     <g id="text_16">
      <!-- 3 -->
      <g style="fill: #262626" transform="translate(47.0925 140.918906) scale(0.14 -0.14)">
       <use xlink:href="#DejaVuSans-33"/>
      </g>
     </g>
    </g>
    <g id="ytick_8">
     <g id="line2d_16">
      <g>
       <use xlink:href="#m13840bb47a" x="63" y="104.8" style="fill: #262626; stroke: #262626; stroke-width: 0.8"/>
      </g>
     </g>
     <g id="text_17">
      <!-- 4 -->
      <g style="fill: #262626" transform="translate(47.0925 110.118906) scale(0.14 -0.14)">
       <use xlink:href="#DejaVuSans-34"/>
      </g>
     </g>
    </g>
    <g id="ytick_9">
     <g id="line2d_17">
      <g>
       <use xlink:href="#m13840bb47a" x="63" y="74" style="fill: #262626; stroke: #262626; stroke-width: 0.8"/>
      </g>
     </g>
     <g id="text_18">
      <!-- 5 -->
      <g style="fill: #262626" transform="translate(47.0925 79.318906) scale(0.14 -0.14)">
       <use xlink:href="#DejaVuSans-35"/>
      </g>
     </g>
    </g>
    <g id="ytick_10">
     <g id="line2d_18">
      <g>
       <use xlink:href="#m13840bb47a" x="63" y="43.2" style="fill: #262626; stroke: #262626; stroke-width: 0.8"/>
      </g>
     </g>
     <g id="text_19">
      <!-- 6 -->
      <g style="fill: #262626" transform="translate(47.0925 48.518906) scale(0.14 -0.14)">
       <use xlink:href="#DejaVuSans-36"/>
      </g>
     </g>
    </g>
    <g id="text_20">
     <!-- Log 10 Parasite Density (Parasites/μl) -->
     <g style="fill: #262626" transform="translate(22.449375 312.599375) rotate(-90) scale(0.14 -0.14)">
      <defs>
       <path id="DejaVuSans-4c" d="M 628 4666 
L 1259 4666 
L 1259 531 
L 3531 531 
L 3531 0 
L 628 0 
L 628 4666 
z
" transform="scale(0.015625)"/>
       <path id="DejaVuSans-6f" d="M 1959 3097 
Q 1497 3097 1228 2736 
Q 959 2375 959 1747 
Q 959 1119 1226 758 
Q 1494 397 1959 397 
Q 2419 397 2687 759 
Q 2956 1122 2956 1747 
Q 2956 2369 2687 2733 
Q 2419 3097 1959 3097 
z
M 1959 3584 
Q 2709 3584 3137 3096 
Q 3566 2609 3566 1747 
Q 3566 888 3137 398 
Q 2709 -91 1959 -91 
Q 1206 -91 779 398 
Q 353 888 353 1747 
Q 353 2609 779 3096 
Q 1206 3584 1959 3584 
z
" transform="scale(0.015625)"/>
       <path id="DejaVuSans-67" d="M 2906 1791 
Q 2906 2416 2648 2759 
Q 2391 3103 1925 3103 
Q 1463 3103 1205 2759 
Q 947 2416 947 1791 
Q 947 1169 1205 825 
Q 1463 481 1925 481 
Q 2391 481 2648 825 
Q 2906 1169 2906 1791 
z
M 3481 434 
Q 3481 -459 3084 -895 
Q 2688 -1331 1869 -1331 
Q 1566 -1331 1297 -1286 
Q 1028 -1241 775 -1147 
L 775 -588 
Q 1028 -725 1275 -790 
Q 1522 -856 1778 -856 
Q 2344 -856 2625 -561 
Q 2906 -266 2906 331 
L 2906 616 
Q 2728 306 2450 153 
Q 2172 0 1784 0 
Q 1141 0 747 490 
Q 353 981 353 1791 
Q 353 2603 747 3093 
Q 1141 3584 1784 3584 
Q 2172 3584 2450 3431 
Q 2728 3278 2906 2969 
L 2906 3500 
L 3481 3500 
L 3481 434 
z
" transform="scale(0.015625)"/>
       <path id="DejaVuSans-20" transform="scale(0.015625)"/>
       <path id="DejaVuSans-50" d="M 1259 4147 
L 1259 2394 
L 2053 2394 
Q 2494 2394 2734 2622 
Q 2975 2850 2975 3272 
Q 2975 3691 2734 3919 
Q 2494 4147 2053 4147 
L 1259 4147 
z
M 628 4666 
L 2053 4666 
Q 2838 4666 3239 4311 
Q 3641 3956 3641 3272 
Q 3641 2581 3239 2228 
Q 2838 1875 2053 1875 
L 1259 1875 
L 1259 0 
L 628 0 
L 628 4666 
z
" transform="scale(0.015625)"/>
       <path id="DejaVuSans-72" d="M 2631 2963 
Q 2534 3019 2420 3045 
Q 2306 3072 2169 3072 
Q 1681 3072 1420 2755 
Q 1159 2438 1159 1844 
L 1159 0 
L 581 0 
L 581 3500 
L 1159 3500 
L 1159 2956 
Q 1341 3275 1631 3429 
Q 1922 3584 2338 3584 
Q 2397 3584 2469 3576 
Q 2541 3569 2628 3553 
L 2631 2963 
z
" transform="scale(0.015625)"/>
       <path id="DejaVuSans-73" d="M 2834 3397 
L 2834 2853 
Q 2591 2978 2328 3040 
Q 2066 3103 1784 3103 
Q 1356 3103 1142 2972 
Q 928 2841 928 2578 
Q 928 2378 1081 2264 
Q 1234 2150 1697 2047 
L 1894 2003 
Q 2506 1872 2764 1633 
Q 3022 1394 3022 966 
Q 3022 478 2636 193 
Q 2250 -91 1575 -91 
Q 1294 -91 989 -36 
Q 684 19 347 128 
L 347 722 
Q 666 556 975 473 
Q 1284 391 1588 391 
Q 1994 391 2212 530 
Q 2431 669 2431 922 
Q 2431 1156 2273 1281 
Q 2116 1406 1581 1522 
L 1381 1569 
Q 847 1681 609 1914 
Q 372 2147 372 2553 
Q 372 3047 722 3315 
Q 1072 3584 1716 3584 
Q 2034 3584 2315 3537 
Q 2597 3491 2834 3397 
z
" transform="scale(0.015625)"/>
       <path id="DejaVuSans-69" d="M 603 3500 
L 1178 3500 
L 1178 0 
L 603 0 
L 603 3500 
z
M 603 4863 
L 1178 4863 
L 1178 4134 
L 603 4134 
L 603 4863 
z
" transform="scale(0.015625)"/>
       <path id="DejaVuSans-74" d="M 1172 4494 
L 1172 3500 
L 2356 3500 
L 2356 3053 
L 1172 3053 
L 1172 1153 
Q 1172 725 1289 603 
Q 1406 481 1766 481 
L 2356 481 
L 2356 0 
L 1766 0 
Q 1100 0 847 248 
Q 594 497 594 1153 
L 594 3053 
L 172 3053 
L 172 3500 
L 594 3500 
L 594 4494 
L 1172 4494 
z
" transform="scale(0.015625)"/>
       <path id="DejaVuSans-65" d="M 3597 1894 
L 3597 1613 
L 953 1613 
Q 991 1019 1311 708 
Q 1631 397 2203 397 
Q 2534 397 2845 478 
Q 3156 559 3463 722 
L 3463 178 
Q 3153 47 2828 -22 
Q 2503 -91 2169 -91 
Q 1331 -91 842 396 
Q 353 884 353 1716 
Q 353 2575 817 3079 
Q 1281 3584 2069 3584 
Q 2775 3584 3186 3129 
Q 3597 2675 3597 1894 
z
M 3022 2063 
Q 3016 2534 2758 2815 
Q 2500 3097 2075 3097 
Q 1594 3097 1305 2825 
Q 1016 2553 972 2059 
L 3022 2063 
z
" transform="scale(0.015625)"/>
       <path id="DejaVuSans-6e" d="M 3513 2113 
L 3513 0 
L 2938 0 
L 2938 2094 
Q 2938 2591 2744 2837 
Q 2550 3084 2163 3084 
Q 1697 3084 1428 2787 
Q 1159 2491 1159 1978 
L 1159 0 
L 581 0 
L 581 3500 
L 1159 3500 
L 1159 2956 
Q 1366 3272 1645 3428 
Q 1925 3584 2291 3584 
Q 2894 3584 3203 3211 
Q 3513 2838 3513 2113 
z
" transform="scale(0.015625)"/>
       <path id="DejaVuSans-28" d="M 1984 4856 
Q 1566 4138 1362 3434 
Q 1159 2731 1159 2009 
Q 1159 1288 1364 580 
Q 1569 -128 1984 -844 
L 1484 -844 
Q 1016 -109 783 600 
Q 550 1309 550 2009 
Q 550 2706 781 3412 
Q 1013 4119 1484 4856 
L 1984 4856 
z
" transform="scale(0.015625)"/>
       <path id="DejaVuSans-2f" d="M 1625 4666 
L 2156 4666 
L 531 -594 
L 0 -594 
L 1625 4666 
z
" transform="scale(0.015625)"/>
       <path id="DejaVuSans-3bc" d="M 544 -1331 
L 544 3500 
L 1119 3500 
L 1119 1325 
Q 1119 872 1334 640 
Q 1550 409 1972 409 
Q 2434 409 2667 671 
Q 2900 934 2900 1459 
L 2900 3500 
L 3475 3500 
L 3475 806 
Q 3475 619 3529 530 
Q 3584 441 3700 441 
Q 3728 441 3778 458 
Q 3828 475 3916 513 
L 3916 50 
Q 3788 -22 3673 -56 
Q 3559 -91 3450 -91 
Q 3234 -91 3106 31 
Q 2978 153 2931 403 
Q 2775 156 2548 32 
Q 2322 -91 2016 -91 
Q 1697 -91 1473 31 
Q 1250 153 1119 397 
L 1119 -1331 
L 544 -1331 
z
" transform="scale(0.015625)"/>
       <path id="DejaVuSans-6c" d="M 603 4863 
L 1178 4863 
L 1178 0 
L 603 0 
L 603 4863 
z
" transform="scale(0.015625)"/>
       <path id="DejaVuSans-29" d="M 513 4856 
L 1013 4856 
Q 1481 4119 1714 3412 
Q 1947 2706 1947 2009 
Q 1947 1309 1714 600 
Q 1481 -109 1013 -844 
L 513 -844 
Q 928 -128 1133 580 
Q 1338 1288 1338 2009 
Q 1338 2731 1133 3434 
Q 928 4138 513 4856 
z
" transform="scale(0.015625)"/>
      </defs>
      <use xlink:href="#DejaVuSans-4c"/>
      <use xlink:href="#DejaVuSans-6f" transform="translate(53.962891 0)"/>
      <use xlink:href="#DejaVuSans-67" transform="translate(115.144531 0)"/>
      <use xlink:href="#DejaVuSans-20" transform="translate(178.621094 0)"/>
      <use xlink:href="#DejaVuSans-31" transform="translate(210.408203 0)"/>
      <use xlink:href="#DejaVuSans-30" transform="translate(274.03125 0)"/>
      <use xlink:href="#DejaVuSans-20" transform="translate(337.654297 0)"/>
      <use xlink:href="#DejaVuSans-50" transform="translate(369.441406 0)"/>
      <use xlink:href="#DejaVuSans-61" transform="translate(425.244141 0)"/>
      <use xlink:href="#DejaVuSans-72" transform="translate(486.523438 0)"/>
      <use xlink:href="#DejaVuSans-61" transform="translate(527.636719 0)"/>
      <use xlink:href="#DejaVuSans-73" transform="translate(588.916016 0)"/>
      <use xlink:href="#DejaVuSans-69" transform="translate(641.015625 0)"/>
      <use xlink:href="#DejaVuSans-74" transform="translate(668.798828 0)"/>
      <use xlink:href="#DejaVuSans-65" transform="translate(708.007812 0)"/>
      <use xlink:href="#DejaVuSans-20" transform="translate(769.53125 0)"/>
      <use xlink:href="#DejaVuSans-44" transform="translate(801.318359 0)"/>
      <use xlink:href="#DejaVuSans-65" transform="translate(878.320312 0)"/>
      <use xlink:href="#DejaVuSans-6e" transform="translate(939.84375 0)"/>
      <use xlink:href="#DejaVuSans-73" transform="translate(1003.222656 0)"/>
      <use xlink:href="#DejaVuSans-69" transform="translate(1055.322266 0)"/>
      <use xlink:href="#DejaVuSans-74" transform="translate(1083.105469 0)"/>
      <use xlink:href="#DejaVuSans-79" transform="translate(1122.314453 0)"/>
      <use xlink:href="#DejaVuSans-20" transform="translate(1181.494141 0)"/>
      <use xlink:href="#DejaVuSans-28" transform="translate(1213.28125 0)"/>
      <use xlink:href="#DejaVuSans-50" transform="translate(1252.294922 0)"/>
      <use xlink:href="#DejaVuSans-61" transform="translate(1308.097656 0)"/>
      <use xlink:href="#DejaVuSans-72" transform="translate(1369.376953 0)"/>
      <use xlink:href="#DejaVuSans-61" transform="translate(1410.490234 0)"/>
      <use xlink:href="#DejaVuSans-73" transform="translate(1471.769531 0)"/>
      <use xlink:href="#DejaVuSans-69" transform="translate(1523.869141 0)"/>
      <use xlink:href="#DejaVuSans-74" transform="translate(1551.652344 0)"/>
      <use xlink:href="#DejaVuSans-65" transform="translate(1590.861328 0)"/>
      <use xlink:href="#DejaVuSans-73" transform="translate(1652.384766 0)"/>
      <use xlink:href="#DejaVuSans-2f" transform="translate(1704.484375 0)"/>
      <use xlink:href="#DejaVuSans-3bc" transform="translate(1738.175781 0)"/>
      <use xlink:href="#DejaVuSans-6c" transform="translate(1801.798828 0)"/>
      <use xlink:href="#DejaVuSans-29" transform="translate(1829.582031 0)"/>
     </g>
    </g>
   </g>
   <g id="FillBetweenPolyCollection_1"/>
   <g id="FillBetweenPolyCollection_2"/>
   <g id="FillBetweenPolyCollection_3"/>
   <g id="FillBetweenPolyCollection_4"/>
   <g id="FillBetweenPolyCollection_5"/>
   <g id="FillBetweenPolyCollection_6">
    <path d="M 63 80.081838 
L 63 111.053764 
L 65.297647 117.906432 
L 67.595294 126.481119 
L 69.892941 135.049955 
L 72.190588 143.61565 
L 74.488235 152.179701 
L 76.785882 160.742841 
L 79.083529 169.305477 
L 81.381176 177.867909 
L 83.678824 186.380005 
L 85.976471 194.846205 
L 88.274118 202.918097 
L 90.571765 209.551359 
L 92.869412 217.557145 
L 95.167059 226.107264 
L 97.464706 234.65577 
L 99.762353 243.168441 
L 102.06 251.702173 
L 104.357647 260.209331 
L 106.655294 268.61777 
L 108.952941 276.818821 
L 111.250588 285.099257 
L 113.548235 292.584828 
L 115.845882 298.871724 
L 118.143529 305.704665 
L 120.441176 311.128276 
L 122.738824 311.128276 
L 125.036471 320.4 
L 127.334118 320.4 
L 129.631765 320.4 
L 131.929412 320.4 
L 134.227059 320.4 
L 136.524706 320.4 
L 138.822353 320.4 
L 141.12 320.4 
L 143.417647 320.4 
L 145.715294 320.4 
L 148.012941 320.4 
L 150.310588 320.4 
L 152.608235 320.4 
L 154.905882 320.4 
L 157.203529 320.4 
L 159.501176 320.4 
L 161.798824 320.4 
L 164.096471 320.4 
L 166.394118 320.4 
L 168.691765 320.4 
L 170.989412 320.4 
L 173.287059 320.4 
L 175.584706 320.4 
L 177.882353 320.4 
L 180.18 320.4 
L 182.477647 320.4 
L 184.775294 320.4 
L 187.072941 320.4 
L 189.370588 320.4 
L 191.668235 320.4 
L 193.965882 320.4 
L 196.263529 320.4 
L 198.561176 320.4 
L 200.858824 320.4 
L 203.156471 320.4 
L 205.454118 320.4 
L 207.751765 320.4 
L 210.049412 320.4 
L 212.347059 320.4 
L 214.644706 320.4 
L 216.942353 320.4 
L 219.24 320.4 
L 221.537647 320.4 
L 223.835294 320.4 
L 226.132941 320.4 
L 228.430588 320.4 
L 230.728235 320.4 
L 233.025882 320.4 
L 235.323529 320.4 
L 237.621176 320.4 
L 239.918824 320.4 
L 242.216471 320.4 
L 244.514118 320.4 
L 246.811765 320.4 
L 249.109412 320.4 
L 251.407059 320.4 
L 253.704706 320.4 
L 256.002353 320.4 
L 258.3 320.4 
L 260.597647 320.4 
L 262.895294 320.4 
L 265.192941 320.4 
L 267.490588 320.4 
L 269.788235 320.4 
L 272.085882 320.4 
L 274.383529 320.4 
L 276.681176 320.4 
L 278.978824 320.4 
L 281.276471 320.4 
L 283.574118 320.4 
L 285.871765 320.4 
L 288.169412 320.4 
L 290.467059 320.4 
L 292.764706 320.4 
L 295.062353 320.4 
L 297.36 320.4 
L 299.657647 320.4 
L 301.955294 320.4 
L 304.252941 320.4 
L 306.550588 320.4 
L 308.848235 320.4 
L 311.145882 320.4 
L 313.443529 320.4 
L 315.741176 320.4 
L 318.038824 320.4 
L 320.336471 320.4 
L 322.634118 320.4 
L 324.931765 320.4 
L 327.229412 320.4 
L 329.527059 320.4 
L 331.824706 320.4 
L 334.122353 320.4 
L 336.42 320.4 
L 338.717647 320.4 
L 341.015294 320.4 
L 343.312941 320.4 
L 345.610588 320.4 
L 347.908235 320.4 
L 350.205882 320.4 
L 352.503529 320.4 
L 354.801176 320.4 
L 357.098824 320.4 
L 359.396471 320.4 
L 361.694118 320.4 
L 363.991765 320.4 
L 366.289412 320.4 
L 368.587059 320.4 
L 370.884706 320.4 
L 373.182353 320.4 
L 375.48 320.4 
L 377.777647 320.4 
L 380.075294 320.4 
L 382.372941 320.4 
L 384.670588 320.4 
L 386.968235 320.4 
L 389.265882 320.4 
L 391.563529 320.4 
L 393.861176 320.4 
L 396.158824 320.4 
L 398.456471 320.4 
L 400.754118 320.4 
L 403.051765 320.4 
L 405.349412 320.4 
L 407.647059 320.4 
L 409.944706 320.4 
L 412.242353 320.4 
L 414.54 320.4 
L 416.837647 320.4 
L 419.135294 320.4 
L 421.432941 320.4 
L 423.730588 320.4 
L 426.028235 320.4 
L 428.325882 320.4 
L 430.623529 320.4 
L 432.921176 320.4 
L 435.218824 320.4 
L 437.516471 320.4 
L 439.814118 320.4 
L 442.111765 320.4 
L 444.409412 320.4 
L 446.707059 320.4 
L 449.004706 320.4 
L 451.302353 320.4 
L 453.6 320.4 
L 455.897647 320.4 
L 458.195294 320.4 
L 460.492941 320.4 
L 462.790588 320.4 
L 465.088235 320.4 
L 467.385882 320.4 
L 469.683529 320.4 
L 471.981176 320.4 
L 474.278824 320.4 
L 476.576471 320.4 
L 478.874118 320.4 
L 481.171765 320.4 
L 483.469412 320.4 
L 485.767059 320.4 
L 488.064706 320.4 
L 490.362353 320.4 
L 492.66 320.4 
L 494.957647 320.4 
L 497.255294 320.4 
L 499.552941 320.4 
L 501.850588 320.4 
L 504.148235 320.4 
L 506.445882 320.4 
L 508.743529 320.4 
L 511.041176 320.4 
L 513.338824 320.4 
L 515.636471 320.4 
L 517.934118 320.4 
L 520.231765 320.4 
L 522.529412 320.4 
L 524.827059 320.4 
L 527.124706 320.4 
L 529.422353 320.4 
L 531.72 320.4 
L 534.017647 320.4 
L 536.315294 320.4 
L 538.612941 320.4 
L 540.910588 320.4 
L 543.208235 320.4 
L 545.505882 320.4 
L 547.803529 320.4 
L 550.101176 320.4 
L 552.398824 320.4 
L 554.696471 320.4 
L 556.994118 320.4 
L 559.291765 320.4 
L 561.589412 320.4 
L 563.887059 320.4 
L 566.184706 320.4 
L 568.482353 320.4 
L 570.78 320.4 
L 573.077647 320.4 
L 575.375294 320.4 
L 577.672941 320.4 
L 579.970588 320.4 
L 582.268235 320.4 
L 584.565882 320.4 
L 586.863529 320.4 
L 589.161176 320.4 
L 591.458824 320.4 
L 593.756471 320.4 
L 596.054118 320.4 
L 598.351765 320.4 
L 600.649412 320.4 
L 602.947059 320.4 
L 605.244706 320.4 
L 607.542353 320.4 
L 609.84 320.4 
L 612.137647 320.4 
L 614.435294 320.4 
L 616.732941 320.4 
L 619.030588 320.4 
L 621.328235 320.4 
L 623.625882 320.4 
L 625.923529 320.4 
L 628.221176 320.4 
L 630.518824 320.4 
L 632.816471 320.4 
L 635.114118 320.4 
L 637.411765 320.4 
L 639.709412 320.4 
L 642.007059 320.4 
L 644.304706 320.4 
L 646.602353 320.4 
L 648.9 320.4 
L 651.197647 320.4 
L 653.495294 320.4 
L 655.792941 320.4 
L 658.090588 320.4 
L 660.388235 320.4 
L 662.685882 320.4 
L 664.983529 320.4 
L 667.281176 320.4 
L 669.578824 320.4 
L 671.876471 320.4 
L 674.174118 320.4 
L 676.471765 320.4 
L 678.769412 320.4 
L 681.067059 320.4 
L 683.364706 320.4 
L 685.662353 320.4 
L 687.96 320.4 
L 690.257647 320.4 
L 692.555294 320.4 
L 694.852941 320.4 
L 697.150588 320.4 
L 699.448235 320.4 
L 701.745882 320.4 
L 704.043529 320.4 
L 706.341176 320.4 
L 708.638824 320.4 
L 710.936471 320.4 
L 713.234118 320.4 
L 715.531765 320.4 
L 717.829412 320.4 
L 720.127059 320.4 
L 722.424706 320.4 
L 724.722353 320.4 
L 727.02 320.4 
L 729.317647 320.4 
L 731.615294 320.4 
L 733.912941 320.4 
L 736.210588 320.4 
L 738.508235 320.4 
L 740.805882 320.4 
L 743.103529 320.4 
L 745.401176 320.4 
L 747.698824 320.4 
L 749.996471 320.4 
L 752.294118 320.4 
L 754.591765 320.4 
L 756.889412 320.4 
L 759.187059 320.4 
L 761.484706 320.4 
L 763.782353 320.4 
L 766.08 320.4 
L 768.377647 320.4 
L 770.675294 320.4 
L 772.972941 320.4 
L 775.270588 320.4 
L 777.568235 320.4 
L 779.865882 320.4 
L 782.163529 320.4 
L 784.461176 320.4 
L 786.758824 320.4 
L 789.056471 320.4 
L 791.354118 320.4 
L 793.651765 320.4 
L 795.949412 320.4 
L 798.247059 320.4 
L 800.544706 320.4 
L 802.842353 320.4 
L 805.14 320.4 
L 807.437647 320.4 
L 809.735294 320.4 
L 812.032941 320.4 
L 814.330588 320.4 
L 816.628235 320.4 
L 818.925882 320.4 
L 821.223529 320.4 
L 823.521176 320.4 
L 825.818824 320.4 
L 828.116471 320.4 
L 830.414118 320.4 
L 832.711765 320.4 
L 835.009412 320.4 
L 837.307059 320.4 
L 839.604706 320.4 
L 841.902353 320.4 
L 844.2 320.4 
L 846.497647 320.4 
L 848.795294 320.4 
L 851.092941 320.4 
L 853.390588 320.4 
L 855.688235 320.4 
L 857.985882 320.4 
L 860.283529 320.4 
L 862.581176 320.4 
L 864.878824 320.4 
L 867.176471 320.4 
L 869.474118 320.4 
L 871.771765 320.4 
L 874.069412 320.4 
L 876.367059 320.4 
L 878.664706 320.4 
L 880.962353 320.4 
L 883.26 320.4 
L 885.557647 320.4 
L 887.855294 320.4 
L 890.152941 320.4 
L 892.450588 320.4 
L 894.748235 320.4 
L 897.045882 320.4 
L 899.343529 320.4 
L 901.641176 320.4 
L 903.938824 320.4 
L 906.236471 320.4 
L 908.534118 320.4 
L 910.831765 320.4 
L 913.129412 320.4 
L 915.427059 320.4 
L 917.724706 320.4 
L 920.022353 320.4 
L 922.32 320.4 
L 924.617647 320.4 
L 926.915294 320.4 
L 929.212941 320.4 
L 931.510588 320.4 
L 933.808235 320.4 
L 936.105882 320.4 
L 938.403529 320.4 
L 940.701176 320.4 
L 942.998824 320.4 
L 945.296471 320.4 
L 947.594118 320.4 
L 949.891765 320.4 
L 952.189412 320.4 
L 954.487059 320.4 
L 956.784706 320.4 
L 959.082353 320.4 
L 961.38 320.4 
L 963.677647 320.4 
L 965.975294 320.4 
L 968.272941 320.4 
L 970.570588 320.4 
L 972.868235 320.4 
L 975.165882 320.4 
L 977.463529 320.4 
L 979.761176 320.4 
L 982.058824 320.4 
L 984.356471 320.4 
L 986.654118 320.4 
L 988.951765 320.4 
L 991.249412 320.4 
L 993.547059 320.4 
L 995.844706 320.4 
L 998.142353 320.4 
L 1000.44 320.4 
L 1002.737647 320.4 
L 1005.035294 320.4 
L 1007.332941 320.4 
L 1009.630588 320.4 
L 1011.928235 320.4 
L 1014.225882 320.4 
L 1016.523529 320.4 
L 1018.821176 320.4 
L 1021.118824 320.4 
L 1023.416471 320.4 
L 1025.714118 320.4 
L 1028.011765 320.4 
L 1030.309412 320.4 
L 1032.607059 320.4 
L 1034.904706 320.4 
L 1037.202353 320.4 
L 1039.5 320.4 
L 1041.797647 320.4 
L 1044.095294 320.4 
L 1046.392941 320.4 
L 1048.690588 320.4 
L 1050.988235 320.4 
L 1053.285882 320.4 
L 1055.583529 320.4 
L 1057.881176 320.4 
L 1060.178824 320.4 
L 1062.476471 320.4 
L 1064.774118 320.4 
L 1067.071765 320.4 
L 1069.369412 320.4 
L 1071.667059 320.4 
L 1073.964706 320.4 
L 1076.262353 320.4 
L 1078.56 320.4 
L 1080.857647 320.4 
L 1083.155294 320.4 
L 1085.452941 320.4 
L 1087.750588 320.4 
L 1090.048235 320.4 
L 1092.345882 320.4 
L 1094.643529 320.4 
L 1096.941176 320.4 
L 1099.238824 320.4 
L 1101.536471 320.4 
L 1103.834118 320.4 
L 1106.131765 320.4 
L 1108.429412 320.4 
L 1110.727059 320.4 
L 1113.024706 320.4 
L 1115.322353 320.4 
L 1117.62 320.4 
L 1119.917647 320.4 
L 1122.215294 320.4 
L 1124.512941 320.4 
L 1126.810588 320.4 
L 1129.108235 320.4 
L 1131.405882 320.4 
L 1133.703529 320.4 
L 1136.001176 320.4 
L 1138.298824 320.4 
L 1140.596471 320.4 
L 1142.894118 320.4 
L 1145.191765 320.4 
L 1147.489412 320.4 
L 1149.787059 320.4 
L 1152.084706 320.4 
L 1154.382353 320.4 
L 1156.68 320.4 
L 1158.977647 320.4 
L 1161.275294 320.4 
L 1163.572941 320.4 
L 1165.870588 320.4 
L 1168.168235 320.4 
L 1170.465882 320.4 
L 1172.763529 320.4 
L 1175.061176 320.4 
L 1177.358824 320.4 
L 1179.656471 320.4 
L 1181.954118 320.4 
L 1184.251765 320.4 
L 1186.549412 320.4 
L 1188.847059 320.4 
L 1191.144706 320.4 
L 1193.442353 320.4 
L 1195.74 320.4 
L 1198.037647 320.4 
L 1200.335294 320.4 
L 1202.632941 320.4 
L 1204.930588 320.4 
L 1207.228235 320.4 
L 1209.525882 320.4 
L 1211.823529 320.4 
L 1214.121176 320.4 
L 1216.418824 320.4 
L 1218.716471 320.4 
L 1221.014118 320.4 
L 1223.311765 320.4 
L 1225.609412 320.4 
L 1227.907059 320.4 
L 1230.204706 320.4 
L 1232.502353 320.4 
L 1234.8 320.4 
L 1237.097647 320.4 
L 1239.395294 320.4 
L 1241.692941 320.4 
L 1243.990588 320.4 
L 1246.288235 320.4 
L 1248.585882 320.4 
L 1250.883529 320.4 
L 1253.181176 320.4 
L 1255.478824 320.4 
L 1257.776471 320.4 
L 1260.074118 320.4 
L 1262.371765 320.4 
L 1264.669412 320.4 
L 1266.967059 320.4 
L 1269.264706 320.4 
L 1271.562353 320.4 
L 1273.86 320.4 
L 1276.157647 320.4 
L 1278.455294 320.4 
L 1280.752941 320.4 
L 1283.050588 320.4 
L 1285.348235 320.4 
L 1287.645882 320.4 
L 1289.943529 320.4 
L 1292.241176 320.4 
L 1294.538824 320.4 
L 1296.836471 320.4 
L 1299.134118 320.4 
L 1301.431765 320.4 
L 1303.729412 320.4 
L 1306.027059 320.4 
L 1308.324706 320.4 
L 1310.622353 320.4 
L 1312.92 320.4 
L 1315.217647 320.4 
L 1317.515294 320.4 
L 1319.812941 320.4 
L 1322.110588 320.4 
L 1324.408235 320.4 
L 1326.705882 320.4 
L 1329.003529 320.4 
L 1331.301176 320.4 
L 1333.598824 320.4 
L 1335.896471 320.4 
L 1338.194118 320.4 
L 1340.491765 320.4 
L 1342.789412 320.4 
L 1345.087059 320.4 
L 1347.384706 320.4 
L 1349.682353 320.4 
L 1351.98 320.4 
L 1354.277647 320.4 
L 1356.575294 320.4 
L 1358.872941 320.4 
L 1361.170588 320.4 
L 1363.468235 320.4 
L 1365.765882 320.4 
L 1368.063529 320.4 
L 1370.361176 320.4 
L 1372.658824 320.4 
L 1374.956471 320.4 
L 1377.254118 320.4 
L 1379.551765 320.4 
L 1381.849412 320.4 
L 1384.147059 320.4 
L 1386.444706 320.4 
L 1388.742353 320.4 
L 1391.04 320.4 
L 1393.337647 320.4 
L 1395.635294 320.4 
L 1397.932941 320.4 
L 1400.230588 320.4 
L 1402.528235 320.4 
L 1404.825882 320.4 
L 1407.123529 320.4 
L 1409.421176 320.4 
L 1411.718824 320.4 
L 1414.016471 320.4 
L 1416.314118 320.4 
L 1418.611765 320.4 
L 1420.909412 320.4 
L 1423.207059 320.4 
L 1425.504706 320.4 
L 1427.802353 320.4 
L 1430.1 320.4 
L 1432.397647 320.4 
L 1434.695294 320.4 
L 1436.992941 320.4 
L 1439.290588 320.4 
L 1441.588235 320.4 
L 1443.885882 320.4 
L 1446.183529 320.4 
L 1448.481176 320.4 
L 1450.778824 320.4 
L 1453.076471 320.4 
L 1455.374118 320.4 
L 1457.671765 320.4 
L 1459.969412 320.4 
L 1462.267059 320.4 
L 1464.564706 320.4 
L 1466.862353 320.4 
L 1469.16 320.4 
L 1471.457647 320.4 
L 1473.755294 320.4 
L 1476.052941 320.4 
L 1478.350588 320.4 
L 1480.648235 320.4 
L 1482.945882 320.4 
L 1485.243529 320.4 
L 1487.541176 320.4 
L 1489.838824 320.4 
L 1492.136471 320.4 
L 1494.434118 320.4 
L 1496.731765 320.4 
L 1499.029412 320.4 
L 1501.327059 320.4 
L 1503.624706 320.4 
L 1505.922353 320.4 
L 1508.22 320.4 
L 1510.517647 320.4 
L 1512.815294 320.4 
L 1515.112941 320.4 
L 1517.410588 320.4 
L 1519.708235 320.4 
L 1522.005882 320.4 
L 1524.303529 320.4 
L 1526.601176 320.4 
L 1528.898824 320.4 
L 1531.196471 320.4 
L 1533.494118 320.4 
L 1535.791765 320.4 
L 1538.089412 320.4 
L 1540.387059 320.4 
L 1542.684706 320.4 
L 1544.982353 320.4 
L 1547.28 320.4 
L 1549.577647 320.4 
L 1551.875294 320.4 
L 1554.172941 320.4 
L 1556.470588 320.4 
L 1558.768235 320.4 
L 1561.065882 320.4 
L 1563.363529 320.4 
L 1565.661176 320.4 
L 1567.958824 320.4 
L 1570.256471 320.4 
L 1572.554118 320.4 
L 1574.851765 320.4 
L 1577.149412 320.4 
L 1579.447059 320.4 
L 1581.744706 320.4 
L 1584.042353 320.4 
L 1586.34 320.4 
L 1588.637647 320.4 
L 1590.935294 320.4 
L 1593.232941 320.4 
L 1595.530588 320.4 
L 1597.828235 320.4 
L 1600.125882 320.4 
L 1602.423529 320.4 
L 1604.721176 320.4 
L 1604.721176 320.4 
L 1604.721176 320.4 
L 1602.423529 320.4 
L 1600.125882 320.4 
L 1597.828235 320.4 
L 1595.530588 320.4 
L 1593.232941 320.4 
L 1590.935294 320.4 
L 1588.637647 320.4 
L 1586.34 320.4 
L 1584.042353 320.4 
L 1581.744706 320.4 
L 1579.447059 320.4 
L 1577.149412 320.4 
L 1574.851765 320.4 
L 1572.554118 320.4 
L 1570.256471 320.4 
L 1567.958824 320.4 
L 1565.661176 320.4 
L 1563.363529 320.4 
L 1561.065882 320.4 
L 1558.768235 320.4 
L 1556.470588 320.4 
L 1554.172941 320.4 
L 1551.875294 320.4 
L 1549.577647 320.4 
L 1547.28 320.4 
L 1544.982353 320.4 
L 1542.684706 320.4 
L 1540.387059 320.4 
L 1538.089412 320.4 
L 1535.791765 320.4 
L 1533.494118 320.4 
L 1531.196471 320.4 
L 1528.898824 320.4 
L 1526.601176 320.4 
L 1524.303529 320.4 
L 1522.005882 320.4 
L 1519.708235 320.4 
L 1517.410588 320.4 
L 1515.112941 320.4 
L 1512.815294 320.4 
L 1510.517647 320.4 
L 1508.22 320.4 
L 1505.922353 320.4 
L 1503.624706 320.4 
L 1501.327059 320.4 
L 1499.029412 320.4 
L 1496.731765 320.4 
L 1494.434118 320.4 
L 1492.136471 320.4 
L 1489.838824 320.4 
L 1487.541176 320.4 
L 1485.243529 320.4 
L 1482.945882 320.4 
L 1480.648235 320.4 
L 1478.350588 320.4 
L 1476.052941 320.4 
L 1473.755294 320.4 
L 1471.457647 320.4 
L 1469.16 320.4 
L 1466.862353 320.4 
L 1464.564706 320.4 
L 1462.267059 320.4 
L 1459.969412 320.4 
L 1457.671765 320.4 
L 1455.374118 320.4 
L 1453.076471 320.4 
L 1450.778824 320.4 
L 1448.481176 320.4 
L 1446.183529 320.4 
L 1443.885882 320.4 
L 1441.588235 320.4 
L 1439.290588 320.4 
L 1436.992941 320.4 
L 1434.695294 320.4 
L 1432.397647 320.4 
L 1430.1 320.4 
L 1427.802353 320.4 
L 1425.504706 320.4 
L 1423.207059 320.4 
L 1420.909412 320.4 
L 1418.611765 320.4 
L 1416.314118 320.4 
L 1414.016471 320.4 
L 1411.718824 320.4 
L 1409.421176 320.4 
L 1407.123529 320.4 
L 1404.825882 320.4 
L 1402.528235 320.4 
L 1400.230588 320.4 
L 1397.932941 320.4 
L 1395.635294 320.4 
L 1393.337647 320.4 
L 1391.04 320.4 
L 1388.742353 320.4 
L 1386.444706 320.4 
L 1384.147059 320.4 
L 1381.849412 320.4 
L 1379.551765 320.4 
L 1377.254118 320.4 
L 1374.956471 320.4 
L 1372.658824 320.4 
L 1370.361176 320.4 
L 1368.063529 320.4 
L 1365.765882 320.4 
L 1363.468235 320.4 
L 1361.170588 320.4 
L 1358.872941 320.4 
L 1356.575294 320.4 
L 1354.277647 320.4 
L 1351.98 320.4 
L 1349.682353 320.4 
L 1347.384706 320.4 
L 1345.087059 320.4 
L 1342.789412 320.4 
L 1340.491765 320.4 
L 1338.194118 320.4 
L 1335.896471 320.4 
L 1333.598824 320.4 
L 1331.301176 320.4 
L 1329.003529 320.4 
L 1326.705882 320.4 
L 1324.408235 320.4 
L 1322.110588 320.4 
L 1319.812941 320.4 
L 1317.515294 320.4 
L 1315.217647 320.4 
L 1312.92 320.4 
L 1310.622353 320.4 
L 1308.324706 320.4 
L 1306.027059 320.4 
L 1303.729412 320.4 
L 1301.431765 320.4 
L 1299.134118 320.4 
L 1296.836471 320.4 
L 1294.538824 320.4 
L 1292.241176 320.4 
L 1289.943529 320.4 
L 1287.645882 320.4 
L 1285.348235 320.4 
L 1283.050588 320.4 
L 1280.752941 320.4 
L 1278.455294 320.4 
L 1276.157647 320.4 
L 1273.86 320.4 
L 1271.562353 320.4 
L 1269.264706 320.4 
L 1266.967059 320.4 
L 1264.669412 320.4 
L 1262.371765 320.4 
L 1260.074118 320.4 
L 1257.776471 320.4 
L 1255.478824 320.4 
L 1253.181176 320.4 
L 1250.883529 320.4 
L 1248.585882 320.4 
L 1246.288235 320.4 
L 1243.990588 320.4 
L 1241.692941 320.4 
L 1239.395294 320.4 
L 1237.097647 320.4 
L 1234.8 320.4 
L 1232.502353 320.4 
L 1230.204706 320.4 
L 1227.907059 320.4 
L 1225.609412 320.4 
L 1223.311765 320.4 
L 1221.014118 320.4 
L 1218.716471 320.4 
L 1216.418824 320.4 
L 1214.121176 320.4 
L 1211.823529 320.4 
L 1209.525882 320.4 
L 1207.228235 320.4 
L 1204.930588 320.4 
L 1202.632941 320.4 
L 1200.335294 320.4 
L 1198.037647 320.4 
L 1195.74 320.4 
L 1193.442353 320.4 
L 1191.144706 320.4 
L 1188.847059 320.4 
L 1186.549412 320.4 
L 1184.251765 320.4 
L 1181.954118 320.4 
L 1179.656471 320.4 
L 1177.358824 320.4 
L 1175.061176 320.4 
L 1172.763529 320.4 
L 1170.465882 320.4 
L 1168.168235 320.4 
L 1165.870588 320.4 
L 1163.572941 320.4 
L 1161.275294 320.4 
L 1158.977647 320.4 
L 1156.68 320.4 
L 1154.382353 320.4 
L 1152.084706 320.4 
L 1149.787059 320.4 
L 1147.489412 320.4 
L 1145.191765 320.4 
L 1142.894118 320.4 
L 1140.596471 320.4 
L 1138.298824 320.4 
L 1136.001176 320.4 
L 1133.703529 320.4 
L 1131.405882 320.4 
L 1129.108235 320.4 
L 1126.810588 320.4 
L 1124.512941 320.4 
L 1122.215294 320.4 
L 1119.917647 320.4 
L 1117.62 320.4 
L 1115.322353 320.4 
L 1113.024706 320.4 
L 1110.727059 320.4 
L 1108.429412 320.4 
L 1106.131765 320.4 
L 1103.834118 320.4 
L 1101.536471 320.4 
L 1099.238824 320.4 
L 1096.941176 320.4 
L 1094.643529 320.4 
L 1092.345882 320.4 
L 1090.048235 320.4 
L 1087.750588 320.4 
L 1085.452941 320.4 
L 1083.155294 320.4 
L 1080.857647 320.4 
L 1078.56 320.4 
L 1076.262353 320.4 
L 1073.964706 320.4 
L 1071.667059 320.4 
L 1069.369412 320.4 
L 1067.071765 320.4 
L 1064.774118 320.4 
L 1062.476471 320.4 
L 1060.178824 320.4 
L 1057.881176 320.4 
L 1055.583529 320.4 
L 1053.285882 320.4 
L 1050.988235 320.4 
L 1048.690588 320.4 
L 1046.392941 320.4 
L 1044.095294 320.4 
L 1041.797647 320.4 
L 1039.5 320.4 
L 1037.202353 320.4 
L 1034.904706 320.4 
L 1032.607059 320.4 
L 1030.309412 320.4 
L 1028.011765 320.4 
L 1025.714118 320.4 
L 1023.416471 320.4 
L 1021.118824 320.4 
L 1018.821176 320.4 
L 1016.523529 320.4 
L 1014.225882 320.4 
L 1011.928235 320.4 
L 1009.630588 320.4 
L 1007.332941 320.4 
L 1005.035294 320.4 
L 1002.737647 320.4 
L 1000.44 320.4 
L 998.142353 320.4 
L 995.844706 320.4 
L 993.547059 320.4 
L 991.249412 320.4 
L 988.951765 320.4 
L 986.654118 320.4 
L 984.356471 320.4 
L 982.058824 320.4 
L 979.761176 320.4 
L 977.463529 320.4 
L 975.165882 320.4 
L 972.868235 320.4 
L 970.570588 320.4 
L 968.272941 320.4 
L 965.975294 320.4 
L 963.677647 320.4 
L 961.38 320.4 
L 959.082353 320.4 
L 956.784706 320.4 
L 954.487059 320.4 
L 952.189412 320.4 
L 949.891765 320.4 
L 947.594118 320.4 
L 945.296471 320.4 
L 942.998824 320.4 
L 940.701176 320.4 
L 938.403529 320.4 
L 936.105882 320.4 
L 933.808235 320.4 
L 931.510588 320.4 
L 929.212941 320.4 
L 926.915294 320.4 
L 924.617647 320.4 
L 922.32 320.4 
L 920.022353 320.4 
L 917.724706 320.4 
L 915.427059 320.4 
L 913.129412 320.4 
L 910.831765 320.4 
L 908.534118 320.4 
L 906.236471 320.4 
L 903.938824 320.4 
L 901.641176 320.4 
L 899.343529 320.4 
L 897.045882 320.4 
L 894.748235 320.4 
L 892.450588 320.4 
L 890.152941 320.4 
L 887.855294 320.4 
L 885.557647 320.4 
L 883.26 320.4 
L 880.962353 320.4 
L 878.664706 320.4 
L 876.367059 320.4 
L 874.069412 320.4 
L 871.771765 320.4 
L 869.474118 320.4 
L 867.176471 320.4 
L 864.878824 320.4 
L 862.581176 320.4 
L 860.283529 320.4 
L 857.985882 320.4 
L 855.688235 320.4 
L 853.390588 320.4 
L 851.092941 320.4 
L 848.795294 320.4 
L 846.497647 320.4 
L 844.2 320.4 
L 841.902353 320.4 
L 839.604706 320.4 
L 837.307059 320.4 
L 835.009412 320.4 
L 832.711765 320.4 
L 830.414118 320.4 
L 828.116471 320.4 
L 825.818824 320.4 
L 823.521176 320.4 
L 821.223529 320.4 
L 818.925882 320.4 
L 816.628235 320.4 
L 814.330588 320.4 
L 812.032941 320.4 
L 809.735294 320.4 
L 807.437647 320.4 
L 805.14 320.4 
L 802.842353 320.4 
L 800.544706 320.4 
L 798.247059 320.4 
L 795.949412 320.4 
L 793.651765 320.4 
L 791.354118 320.4 
L 789.056471 320.4 
L 786.758824 320.4 
L 784.461176 320.4 
L 782.163529 320.4 
L 779.865882 320.4 
L 777.568235 320.4 
L 775.270588 320.4 
L 772.972941 320.4 
L 770.675294 320.4 
L 768.377647 320.4 
L 766.08 320.4 
L 763.782353 320.4 
L 761.484706 320.4 
L 759.187059 320.4 
L 756.889412 320.4 
L 754.591765 320.4 
L 752.294118 320.4 
L 749.996471 320.4 
L 747.698824 320.4 
L 745.401176 320.4 
L 743.103529 320.4 
L 740.805882 320.4 
L 738.508235 320.4 
L 736.210588 320.4 
L 733.912941 320.4 
L 731.615294 320.4 
L 729.317647 320.4 
L 727.02 320.4 
L 724.722353 320.4 
L 722.424706 320.4 
L 720.127059 320.4 
L 717.829412 320.4 
L 715.531765 320.4 
L 713.234118 320.4 
L 710.936471 320.4 
L 708.638824 320.4 
L 706.341176 320.4 
L 704.043529 320.4 
L 701.745882 320.4 
L 699.448235 320.4 
L 697.150588 320.4 
L 694.852941 320.4 
L 692.555294 320.4 
L 690.257647 320.4 
L 687.96 320.4 
L 685.662353 320.4 
L 683.364706 320.4 
L 681.067059 320.4 
L 678.769412 320.4 
L 676.471765 320.4 
L 674.174118 320.4 
L 671.876471 320.4 
L 669.578824 320.4 
L 667.281176 320.4 
L 664.983529 320.4 
L 662.685882 320.4 
L 660.388235 320.4 
L 658.090588 320.4 
L 655.792941 320.4 
L 653.495294 320.4 
L 651.197647 320.4 
L 648.9 320.4 
L 646.602353 320.4 
L 644.304706 320.4 
L 642.007059 320.4 
L 639.709412 320.4 
L 637.411765 320.4 
L 635.114118 320.4 
L 632.816471 320.4 
L 630.518824 320.4 
L 628.221176 320.4 
L 625.923529 320.4 
L 623.625882 320.4 
L 621.328235 320.4 
L 619.030588 320.4 
L 616.732941 320.4 
L 614.435294 320.4 
L 612.137647 320.4 
L 609.84 320.4 
L 607.542353 320.4 
L 605.244706 320.4 
L 602.947059 320.4 
L 600.649412 320.4 
L 598.351765 320.4 
L 596.054118 320.4 
L 593.756471 320.4 
L 591.458824 320.4 
L 589.161176 320.4 
L 586.863529 320.4 
L 584.565882 320.4 
L 582.268235 320.4 
L 579.970588 320.4 
L 577.672941 320.4 
L 575.375294 320.4 
L 573.077647 320.4 
L 570.78 320.4 
L 568.482353 320.4 
L 566.184706 320.4 
L 563.887059 320.4 
L 561.589412 320.4 
L 559.291765 320.4 
L 556.994118 320.4 
L 554.696471 320.4 
L 552.398824 320.4 
L 550.101176 320.4 
L 547.803529 320.4 
L 545.505882 320.4 
L 543.208235 320.4 
L 540.910588 320.4 
L 538.612941 320.4 
L 536.315294 320.4 
L 534.017647 320.4 
L 531.72 320.4 
L 529.422353 320.4 
L 527.124706 320.4 
L 524.827059 320.4 
L 522.529412 320.4 
L 520.231765 320.4 
L 517.934118 320.4 
L 515.636471 320.4 
L 513.338824 320.4 
L 511.041176 320.4 
L 508.743529 320.4 
L 506.445882 320.4 
L 504.148235 320.4 
L 501.850588 320.4 
L 499.552941 320.4 
L 497.255294 320.4 
L 494.957647 320.4 
L 492.66 320.4 
L 490.362353 320.4 
L 488.064706 320.4 
L 485.767059 320.4 
L 483.469412 320.4 
L 481.171765 320.4 
L 478.874118 320.4 
L 476.576471 320.4 
L 474.278824 320.4 
L 471.981176 320.4 
L 469.683529 320.4 
L 467.385882 320.4 
L 465.088235 320.4 
L 462.790588 320.4 
L 460.492941 320.4 
L 458.195294 320.4 
L 455.897647 320.4 
L 453.6 320.4 
L 451.302353 320.4 
L 449.004706 320.4 
L 446.707059 320.4 
L 444.409412 320.4 
L 442.111765 320.4 
L 439.814118 320.4 
L 437.516471 320.4 
L 435.218824 320.4 
L 432.921176 320.4 
L 430.623529 320.4 
L 428.325882 320.4 
L 426.028235 320.4 
L 423.730588 320.4 
L 421.432941 320.4 
L 419.135294 320.4 
L 416.837647 320.4 
L 414.54 320.4 
L 412.242353 320.4 
L 409.944706 320.4 
L 407.647059 320.4 
L 405.349412 320.4 
L 403.051765 320.4 
L 400.754118 320.4 
L 398.456471 320.4 
L 396.158824 320.4 
L 393.861176 320.4 
L 391.563529 320.4 
L 389.265882 320.4 
L 386.968235 320.4 
L 384.670588 320.4 
L 382.372941 320.4 
L 380.075294 320.4 
L 377.777647 320.4 
L 375.48 320.4 
L 373.182353 320.4 
L 370.884706 320.4 
L 368.587059 320.4 
L 366.289412 320.4 
L 363.991765 320.4 
L 361.694118 320.4 
L 359.396471 320.4 
L 357.098824 320.4 
L 354.801176 320.4 
L 352.503529 320.4 
L 350.205882 320.4 
L 347.908235 320.4 
L 345.610588 320.4 
L 343.312941 320.4 
L 341.015294 320.4 
L 338.717647 320.4 
L 336.42 320.4 
L 334.122353 320.4 
L 331.824706 320.4 
L 329.527059 320.4 
L 327.229412 320.4 
L 324.931765 320.4 
L 322.634118 320.4 
L 320.336471 320.4 
L 318.038824 320.4 
L 315.741176 320.4 
L 313.443529 320.4 
L 311.145882 320.4 
L 308.848235 320.4 
L 306.550588 320.4 
L 304.252941 320.4 
L 301.955294 320.4 
L 299.657647 320.4 
L 297.36 320.4 
L 295.062353 320.4 
L 292.764706 320.4 
L 290.467059 320.4 
L 288.169412 320.4 
L 285.871765 320.4 
L 283.574118 320.4 
L 281.276471 320.4 
L 278.978824 320.4 
L 276.681176 320.4 
L 274.383529 320.4 
L 272.085882 320.4 
L 269.788235 320.4 
L 267.490588 320.4 
L 265.192941 320.4 
L 262.895294 320.4 
L 260.597647 320.4 
L 258.3 320.4 
L 256.002353 320.4 
L 253.704706 320.4 
L 251.407059 320.4 
L 249.109412 320.4 
L 246.811765 320.4 
L 244.514118 320.4 
L 242.216471 320.4 
L 239.918824 320.4 
L 237.621176 320.4 
L 235.323529 320.4 
L 233.025882 320.4 
L 230.728235 320.4 
L 228.430588 320.4 
L 226.132941 320.4 
L 223.835294 320.4 
L 221.537647 320.4 
L 219.24 320.4 
L 216.942353 320.4 
L 214.644706 320.4 
L 212.347059 320.4 
L 210.049412 320.4 
L 207.751765 320.4 
L 205.454118 320.4 
L 203.156471 320.4 
L 200.858824 320.4 
L 198.561176 320.4 
L 196.263529 320.4 
L 193.965882 320.4 
L 191.668235 320.4 
L 189.370588 320.4 
L 187.072941 320.4 
L 184.775294 320.4 
L 182.477647 320.4 
L 180.18 320.4 
L 177.882353 320.4 
L 175.584706 320.4 
L 173.287059 320.4 
L 170.989412 320.4 
L 168.691765 320.4 
L 166.394118 320.4 
L 164.096471 320.4 
L 161.798824 320.4 
L 159.501176 320.4 
L 157.203529 320.4 
L 154.905882 320.4 
L 152.608235 320.4 
L 150.310588 320.4 
L 148.012941 320.4 
L 145.715294 320.4 
L 143.417647 320.4 
L 141.12 320.4 
L 138.822353 320.4 
L 136.524706 320.4 
L 134.227059 320.4 
L 131.929412 311.128276 
L 129.631765 311.128276 
L 127.334118 305.704665 
L 125.036471 298.871724 
L 122.738824 292.584828 
L 120.441176 285.099257 
L 118.143529 277.889494 
L 115.845882 271.39521 
L 113.548235 263.57098 
L 111.250588 255.188044 
L 108.952941 246.704934 
L 106.655294 238.18504 
L 104.357647 229.64927 
L 102.06 221.090366 
L 99.762353 212.529452 
L 97.464706 203.970109 
L 95.167059 195.408373 
L 92.869412 186.846598 
L 90.571765 178.923719 
L 88.274118 172.226838 
L 85.976471 164.184731 
L 83.678824 155.806131 
L 81.381176 147.244167 
L 79.083529 138.679423 
L 76.785882 130.112155 
L 74.488235 121.540394 
L 72.190588 112.960294 
L 69.892941 104.365008 
L 67.595294 95.742893 
L 65.297647 87.075716 
L 63 80.081838 
z
" clip-path="url(#pea3ab45623)" style="fill: #008400; fill-opacity: 0.5; stroke: #008400; stroke-opacity: 0.5"/>
   </g>
   <g id="FillBetweenPolyCollection_7">
    <path d="M 63 68.129489 
L 63 123.274332 
L 65.297647 129.913748 
L 67.595294 138.481091 
L 69.892941 147.045983 
L 72.190588 155.609621 
L 74.488235 164.172523 
L 76.785882 172.734922 
L 79.083529 181.297248 
L 81.381176 189.85933 
L 83.678824 198.417647 
L 85.976471 206.890329 
L 88.274118 215.030315 
L 90.571765 222.64792 
L 92.869412 230.984828 
L 95.167059 239.5103 
L 97.464706 248.07221 
L 99.762353 256.586034 
L 102.06 264.980311 
L 104.357647 273.230449 
L 106.655294 281.737607 
L 108.952941 289.6 
L 111.250588 296.432941 
L 113.548235 301.856552 
L 115.845882 311.128276 
L 118.143529 311.128276 
L 120.441176 320.4 
L 122.738824 320.4 
L 125.036471 320.4 
L 127.334118 320.4 
L 129.631765 320.4 
L 131.929412 320.4 
L 134.227059 320.4 
L 136.524706 320.4 
L 138.822353 320.4 
L 141.12 320.4 
L 143.417647 320.4 
L 145.715294 320.4 
L 148.012941 320.4 
L 150.310588 320.4 
L 152.608235 320.4 
L 154.905882 320.4 
L 157.203529 320.4 
L 159.501176 320.4 
L 161.798824 320.4 
L 164.096471 320.4 
L 166.394118 320.4 
L 168.691765 320.4 
L 170.989412 320.4 
L 173.287059 320.4 
L 175.584706 320.4 
L 177.882353 320.4 
L 180.18 320.4 
L 182.477647 320.4 
L 184.775294 320.4 
L 187.072941 320.4 
L 189.370588 320.4 
L 191.668235 320.4 
L 193.965882 320.4 
L 196.263529 320.4 
L 198.561176 320.4 
L 200.858824 320.4 
L 203.156471 320.4 
L 205.454118 320.4 
L 207.751765 320.4 
L 210.049412 320.4 
L 212.347059 320.4 
L 214.644706 320.4 
L 216.942353 320.4 
L 219.24 320.4 
L 221.537647 320.4 
L 223.835294 320.4 
L 226.132941 320.4 
L 228.430588 320.4 
L 230.728235 320.4 
L 233.025882 320.4 
L 235.323529 320.4 
L 237.621176 320.4 
L 239.918824 320.4 
L 242.216471 320.4 
L 244.514118 320.4 
L 246.811765 320.4 
L 249.109412 320.4 
L 251.407059 320.4 
L 253.704706 320.4 
L 256.002353 320.4 
L 258.3 320.4 
L 260.597647 320.4 
L 262.895294 320.4 
L 265.192941 320.4 
L 267.490588 320.4 
L 269.788235 320.4 
L 272.085882 320.4 
L 274.383529 320.4 
L 276.681176 320.4 
L 278.978824 320.4 
L 281.276471 320.4 
L 283.574118 320.4 
L 285.871765 320.4 
L 288.169412 320.4 
L 290.467059 320.4 
L 292.764706 320.4 
L 295.062353 320.4 
L 297.36 320.4 
L 299.657647 320.4 
L 301.955294 320.4 
L 304.252941 320.4 
L 306.550588 320.4 
L 308.848235 320.4 
L 311.145882 320.4 
L 313.443529 320.4 
L 315.741176 320.4 
L 318.038824 320.4 
L 320.336471 320.4 
L 322.634118 320.4 
L 324.931765 320.4 
L 327.229412 320.4 
L 329.527059 320.4 
L 331.824706 320.4 
L 334.122353 320.4 
L 336.42 320.4 
L 338.717647 320.4 
L 341.015294 320.4 
L 343.312941 320.4 
L 345.610588 320.4 
L 347.908235 320.4 
L 350.205882 320.4 
L 352.503529 320.4 
L 354.801176 320.4 
L 357.098824 320.4 
L 359.396471 320.4 
L 361.694118 320.4 
L 363.991765 320.4 
L 366.289412 320.4 
L 368.587059 320.4 
L 370.884706 320.4 
L 373.182353 320.4 
L 375.48 320.4 
L 377.777647 320.4 
L 380.075294 320.4 
L 382.372941 320.4 
L 384.670588 320.4 
L 386.968235 320.4 
L 389.265882 320.4 
L 391.563529 320.4 
L 393.861176 320.4 
L 396.158824 320.4 
L 398.456471 320.4 
L 400.754118 320.4 
L 403.051765 320.4 
L 405.349412 320.4 
L 407.647059 320.4 
L 409.944706 320.4 
L 412.242353 320.4 
L 414.54 320.4 
L 416.837647 320.4 
L 419.135294 320.4 
L 421.432941 320.4 
L 423.730588 320.4 
L 426.028235 320.4 
L 428.325882 320.4 
L 430.623529 320.4 
L 432.921176 320.4 
L 435.218824 320.4 
L 437.516471 320.4 
L 439.814118 320.4 
L 442.111765 320.4 
L 444.409412 320.4 
L 446.707059 320.4 
L 449.004706 320.4 
L 451.302353 320.4 
L 453.6 320.4 
L 455.897647 320.4 
L 458.195294 320.4 
L 460.492941 320.4 
L 462.790588 320.4 
L 465.088235 320.4 
L 467.385882 320.4 
L 469.683529 320.4 
L 471.981176 320.4 
L 474.278824 320.4 
L 476.576471 320.4 
L 478.874118 320.4 
L 481.171765 320.4 
L 483.469412 320.4 
L 485.767059 320.4 
L 488.064706 320.4 
L 490.362353 320.4 
L 492.66 320.4 
L 494.957647 320.4 
L 497.255294 320.4 
L 499.552941 320.4 
L 501.850588 320.4 
L 504.148235 320.4 
L 506.445882 320.4 
L 508.743529 320.4 
L 511.041176 320.4 
L 513.338824 320.4 
L 515.636471 320.4 
L 517.934118 320.4 
L 520.231765 320.4 
L 522.529412 320.4 
L 524.827059 320.4 
L 527.124706 320.4 
L 529.422353 320.4 
L 531.72 320.4 
L 534.017647 320.4 
L 536.315294 320.4 
L 538.612941 320.4 
L 540.910588 320.4 
L 543.208235 320.4 
L 545.505882 320.4 
L 547.803529 320.4 
L 550.101176 320.4 
L 552.398824 320.4 
L 554.696471 320.4 
L 556.994118 320.4 
L 559.291765 320.4 
L 561.589412 320.4 
L 563.887059 320.4 
L 566.184706 320.4 
L 568.482353 320.4 
L 570.78 320.4 
L 573.077647 320.4 
L 575.375294 320.4 
L 577.672941 320.4 
L 579.970588 320.4 
L 582.268235 320.4 
L 584.565882 320.4 
L 586.863529 320.4 
L 589.161176 320.4 
L 591.458824 320.4 
L 593.756471 320.4 
L 596.054118 320.4 
L 598.351765 320.4 
L 600.649412 320.4 
L 602.947059 320.4 
L 605.244706 320.4 
L 607.542353 320.4 
L 609.84 320.4 
L 612.137647 320.4 
L 614.435294 320.4 
L 616.732941 320.4 
L 619.030588 320.4 
L 621.328235 320.4 
L 623.625882 320.4 
L 625.923529 320.4 
L 628.221176 320.4 
L 630.518824 320.4 
L 632.816471 320.4 
L 635.114118 320.4 
L 637.411765 320.4 
L 639.709412 320.4 
L 642.007059 320.4 
L 644.304706 320.4 
L 646.602353 320.4 
L 648.9 320.4 
L 651.197647 320.4 
L 653.495294 320.4 
L 655.792941 320.4 
L 658.090588 320.4 
L 660.388235 320.4 
L 662.685882 320.4 
L 664.983529 320.4 
L 667.281176 320.4 
L 669.578824 320.4 
L 671.876471 320.4 
L 674.174118 320.4 
L 676.471765 320.4 
L 678.769412 320.4 
L 681.067059 320.4 
L 683.364706 320.4 
L 685.662353 320.4 
L 687.96 320.4 
L 690.257647 320.4 
L 692.555294 320.4 
L 694.852941 320.4 
L 697.150588 320.4 
L 699.448235 320.4 
L 701.745882 320.4 
L 704.043529 320.4 
L 706.341176 320.4 
L 708.638824 320.4 
L 710.936471 320.4 
L 713.234118 320.4 
L 715.531765 320.4 
L 717.829412 320.4 
L 720.127059 320.4 
L 722.424706 320.4 
L 724.722353 320.4 
L 727.02 320.4 
L 729.317647 320.4 
L 731.615294 320.4 
L 733.912941 320.4 
L 736.210588 320.4 
L 738.508235 320.4 
L 740.805882 320.4 
L 743.103529 320.4 
L 745.401176 320.4 
L 747.698824 320.4 
L 749.996471 320.4 
L 752.294118 320.4 
L 754.591765 320.4 
L 756.889412 320.4 
L 759.187059 320.4 
L 761.484706 320.4 
L 763.782353 320.4 
L 766.08 320.4 
L 768.377647 320.4 
L 770.675294 320.4 
L 772.972941 320.4 
L 775.270588 320.4 
L 777.568235 320.4 
L 779.865882 320.4 
L 782.163529 320.4 
L 784.461176 320.4 
L 786.758824 320.4 
L 789.056471 320.4 
L 791.354118 320.4 
L 793.651765 320.4 
L 795.949412 320.4 
L 798.247059 320.4 
L 800.544706 320.4 
L 802.842353 320.4 
L 805.14 320.4 
L 807.437647 320.4 
L 809.735294 320.4 
L 812.032941 320.4 
L 814.330588 320.4 
L 816.628235 320.4 
L 818.925882 320.4 
L 821.223529 320.4 
L 823.521176 320.4 
L 825.818824 320.4 
L 828.116471 320.4 
L 830.414118 320.4 
L 832.711765 320.4 
L 835.009412 320.4 
L 837.307059 320.4 
L 839.604706 320.4 
L 841.902353 320.4 
L 844.2 320.4 
L 846.497647 320.4 
L 848.795294 320.4 
L 851.092941 320.4 
L 853.390588 320.4 
L 855.688235 320.4 
L 857.985882 320.4 
L 860.283529 320.4 
L 862.581176 320.4 
L 864.878824 320.4 
L 867.176471 320.4 
L 869.474118 320.4 
L 871.771765 320.4 
L 874.069412 320.4 
L 876.367059 320.4 
L 878.664706 320.4 
L 880.962353 320.4 
L 883.26 320.4 
L 885.557647 320.4 
L 887.855294 320.4 
L 890.152941 320.4 
L 892.450588 320.4 
L 894.748235 320.4 
L 897.045882 320.4 
L 899.343529 320.4 
L 901.641176 320.4 
L 903.938824 320.4 
L 906.236471 320.4 
L 908.534118 320.4 
L 910.831765 320.4 
L 913.129412 320.4 
L 915.427059 320.4 
L 917.724706 320.4 
L 920.022353 320.4 
L 922.32 320.4 
L 924.617647 320.4 
L 926.915294 320.4 
L 929.212941 320.4 
L 931.510588 320.4 
L 933.808235 320.4 
L 936.105882 320.4 
L 938.403529 320.4 
L 940.701176 320.4 
L 942.998824 320.4 
L 945.296471 320.4 
L 947.594118 320.4 
L 949.891765 320.4 
L 952.189412 320.4 
L 954.487059 320.4 
L 956.784706 320.4 
L 959.082353 320.4 
L 961.38 320.4 
L 963.677647 320.4 
L 965.975294 320.4 
L 968.272941 320.4 
L 970.570588 320.4 
L 972.868235 320.4 
L 975.165882 320.4 
L 977.463529 320.4 
L 979.761176 320.4 
L 982.058824 320.4 
L 984.356471 320.4 
L 986.654118 320.4 
L 988.951765 320.4 
L 991.249412 320.4 
L 993.547059 320.4 
L 995.844706 320.4 
L 998.142353 320.4 
L 1000.44 320.4 
L 1002.737647 320.4 
L 1005.035294 320.4 
L 1007.332941 320.4 
L 1009.630588 320.4 
L 1011.928235 320.4 
L 1014.225882 320.4 
L 1016.523529 320.4 
L 1018.821176 320.4 
L 1021.118824 320.4 
L 1023.416471 320.4 
L 1025.714118 320.4 
L 1028.011765 320.4 
L 1030.309412 320.4 
L 1032.607059 320.4 
L 1034.904706 320.4 
L 1037.202353 320.4 
L 1039.5 320.4 
L 1041.797647 320.4 
L 1044.095294 320.4 
L 1046.392941 320.4 
L 1048.690588 320.4 
L 1050.988235 320.4 
L 1053.285882 320.4 
L 1055.583529 320.4 
L 1057.881176 320.4 
L 1060.178824 320.4 
L 1062.476471 320.4 
L 1064.774118 320.4 
L 1067.071765 320.4 
L 1069.369412 320.4 
L 1071.667059 320.4 
L 1073.964706 320.4 
L 1076.262353 320.4 
L 1078.56 320.4 
L 1080.857647 320.4 
L 1083.155294 320.4 
L 1085.452941 320.4 
L 1087.750588 320.4 
L 1090.048235 320.4 
L 1092.345882 320.4 
L 1094.643529 320.4 
L 1096.941176 320.4 
L 1099.238824 320.4 
L 1101.536471 320.4 
L 1103.834118 320.4 
L 1106.131765 320.4 
L 1108.429412 320.4 
L 1110.727059 320.4 
L 1113.024706 320.4 
L 1115.322353 320.4 
L 1117.62 320.4 
L 1119.917647 320.4 
L 1122.215294 320.4 
L 1124.512941 320.4 
L 1126.810588 320.4 
L 1129.108235 320.4 
L 1131.405882 320.4 
L 1133.703529 320.4 
L 1136.001176 320.4 
L 1138.298824 320.4 
L 1140.596471 320.4 
L 1142.894118 320.4 
L 1145.191765 320.4 
L 1147.489412 320.4 
L 1149.787059 320.4 
L 1152.084706 320.4 
L 1154.382353 320.4 
L 1156.68 320.4 
L 1158.977647 320.4 
L 1161.275294 320.4 
L 1163.572941 320.4 
L 1165.870588 320.4 
L 1168.168235 320.4 
L 1170.465882 320.4 
L 1172.763529 320.4 
L 1175.061176 320.4 
L 1177.358824 320.4 
L 1179.656471 320.4 
L 1181.954118 320.4 
L 1184.251765 320.4 
L 1186.549412 320.4 
L 1188.847059 320.4 
L 1191.144706 320.4 
L 1193.442353 320.4 
L 1195.74 320.4 
L 1198.037647 320.4 
L 1200.335294 320.4 
L 1202.632941 320.4 
L 1204.930588 320.4 
L 1207.228235 320.4 
L 1209.525882 320.4 
L 1211.823529 320.4 
L 1214.121176 320.4 
L 1216.418824 320.4 
L 1218.716471 320.4 
L 1221.014118 320.4 
L 1223.311765 320.4 
L 1225.609412 320.4 
L 1227.907059 320.4 
L 1230.204706 320.4 
L 1232.502353 320.4 
L 1234.8 320.4 
L 1237.097647 320.4 
L 1239.395294 320.4 
L 1241.692941 320.4 
L 1243.990588 320.4 
L 1246.288235 320.4 
L 1248.585882 320.4 
L 1250.883529 320.4 
L 1253.181176 320.4 
L 1255.478824 320.4 
L 1257.776471 320.4 
L 1260.074118 320.4 
L 1262.371765 320.4 
L 1264.669412 320.4 
L 1266.967059 320.4 
L 1269.264706 320.4 
L 1271.562353 320.4 
L 1273.86 320.4 
L 1276.157647 320.4 
L 1278.455294 320.4 
L 1280.752941 320.4 
L 1283.050588 320.4 
L 1285.348235 320.4 
L 1287.645882 320.4 
L 1289.943529 320.4 
L 1292.241176 320.4 
L 1294.538824 320.4 
L 1296.836471 320.4 
L 1299.134118 320.4 
L 1301.431765 320.4 
L 1303.729412 320.4 
L 1306.027059 320.4 
L 1308.324706 320.4 
L 1310.622353 320.4 
L 1312.92 320.4 
L 1315.217647 320.4 
L 1317.515294 320.4 
L 1319.812941 320.4 
L 1322.110588 320.4 
L 1324.408235 320.4 
L 1326.705882 320.4 
L 1329.003529 320.4 
L 1331.301176 320.4 
L 1333.598824 320.4 
L 1335.896471 320.4 
L 1338.194118 320.4 
L 1340.491765 320.4 
L 1342.789412 320.4 
L 1345.087059 320.4 
L 1347.384706 320.4 
L 1349.682353 320.4 
L 1351.98 320.4 
L 1354.277647 320.4 
L 1356.575294 320.4 
L 1358.872941 320.4 
L 1361.170588 320.4 
L 1363.468235 320.4 
L 1365.765882 320.4 
L 1368.063529 320.4 
L 1370.361176 320.4 
L 1372.658824 320.4 
L 1374.956471 320.4 
L 1377.254118 320.4 
L 1379.551765 320.4 
L 1381.849412 320.4 
L 1384.147059 320.4 
L 1386.444706 320.4 
L 1388.742353 320.4 
L 1391.04 320.4 
L 1393.337647 320.4 
L 1395.635294 320.4 
L 1397.932941 320.4 
L 1400.230588 320.4 
L 1402.528235 320.4 
L 1404.825882 320.4 
L 1407.123529 320.4 
L 1409.421176 320.4 
L 1411.718824 320.4 
L 1414.016471 320.4 
L 1416.314118 320.4 
L 1418.611765 320.4 
L 1420.909412 320.4 
L 1423.207059 320.4 
L 1425.504706 320.4 
L 1427.802353 320.4 
L 1430.1 320.4 
L 1432.397647 320.4 
L 1434.695294 320.4 
L 1436.992941 320.4 
L 1439.290588 320.4 
L 1441.588235 320.4 
L 1443.885882 320.4 
L 1446.183529 320.4 
L 1448.481176 320.4 
L 1450.778824 320.4 
L 1453.076471 320.4 
L 1455.374118 320.4 
L 1457.671765 320.4 
L 1459.969412 320.4 
L 1462.267059 320.4 
L 1464.564706 320.4 
L 1466.862353 320.4 
L 1469.16 320.4 
L 1471.457647 320.4 
L 1473.755294 320.4 
L 1476.052941 320.4 
L 1478.350588 320.4 
L 1480.648235 320.4 
L 1482.945882 320.4 
L 1485.243529 320.4 
L 1487.541176 320.4 
L 1489.838824 320.4 
L 1492.136471 320.4 
L 1494.434118 320.4 
L 1496.731765 320.4 
L 1499.029412 320.4 
L 1501.327059 320.4 
L 1503.624706 320.4 
L 1505.922353 320.4 
L 1508.22 320.4 
L 1510.517647 320.4 
L 1512.815294 320.4 
L 1515.112941 320.4 
L 1517.410588 320.4 
L 1519.708235 320.4 
L 1522.005882 320.4 
L 1524.303529 320.4 
L 1526.601176 320.4 
L 1528.898824 320.4 
L 1531.196471 320.4 
L 1533.494118 320.4 
L 1535.791765 320.4 
L 1538.089412 320.4 
L 1540.387059 320.4 
L 1542.684706 320.4 
L 1544.982353 320.4 
L 1547.28 320.4 
L 1549.577647 320.4 
L 1551.875294 320.4 
L 1554.172941 320.4 
L 1556.470588 320.4 
L 1558.768235 320.4 
L 1561.065882 320.4 
L 1563.363529 320.4 
L 1565.661176 320.4 
L 1567.958824 320.4 
L 1570.256471 320.4 
L 1572.554118 320.4 
L 1574.851765 320.4 
L 1577.149412 320.4 
L 1579.447059 320.4 
L 1581.744706 320.4 
L 1584.042353 320.4 
L 1586.34 320.4 
L 1588.637647 320.4 
L 1590.935294 320.4 
L 1593.232941 320.4 
L 1595.530588 320.4 
L 1597.828235 320.4 
L 1600.125882 320.4 
L 1602.423529 320.4 
L 1604.721176 320.4 
L 1604.721176 320.4 
L 1604.721176 320.4 
L 1602.423529 320.4 
L 1600.125882 320.4 
L 1597.828235 320.4 
L 1595.530588 320.4 
L 1593.232941 320.4 
L 1590.935294 320.4 
L 1588.637647 320.4 
L 1586.34 320.4 
L 1584.042353 320.4 
L 1581.744706 320.4 
L 1579.447059 320.4 
L 1577.149412 320.4 
L 1574.851765 320.4 
L 1572.554118 320.4 
L 1570.256471 320.4 
L 1567.958824 320.4 
L 1565.661176 320.4 
L 1563.363529 320.4 
L 1561.065882 320.4 
L 1558.768235 320.4 
L 1556.470588 320.4 
L 1554.172941 320.4 
L 1551.875294 320.4 
L 1549.577647 320.4 
L 1547.28 320.4 
L 1544.982353 320.4 
L 1542.684706 320.4 
L 1540.387059 320.4 
L 1538.089412 320.4 
L 1535.791765 320.4 
L 1533.494118 320.4 
L 1531.196471 320.4 
L 1528.898824 320.4 
L 1526.601176 320.4 
L 1524.303529 320.4 
L 1522.005882 320.4 
L 1519.708235 320.4 
L 1517.410588 320.4 
L 1515.112941 320.4 
L 1512.815294 320.4 
L 1510.517647 320.4 
L 1508.22 320.4 
L 1505.922353 320.4 
L 1503.624706 320.4 
L 1501.327059 320.4 
L 1499.029412 320.4 
L 1496.731765 320.4 
L 1494.434118 320.4 
L 1492.136471 320.4 
L 1489.838824 320.4 
L 1487.541176 320.4 
L 1485.243529 320.4 
L 1482.945882 320.4 
L 1480.648235 320.4 
L 1478.350588 320.4 
L 1476.052941 320.4 
L 1473.755294 320.4 
L 1471.457647 320.4 
L 1469.16 320.4 
L 1466.862353 320.4 
L 1464.564706 320.4 
L 1462.267059 320.4 
L 1459.969412 320.4 
L 1457.671765 320.4 
L 1455.374118 320.4 
L 1453.076471 320.4 
L 1450.778824 320.4 
L 1448.481176 320.4 
L 1446.183529 320.4 
L 1443.885882 320.4 
L 1441.588235 320.4 
L 1439.290588 320.4 
L 1436.992941 320.4 
L 1434.695294 320.4 
L 1432.397647 320.4 
L 1430.1 320.4 
L 1427.802353 320.4 
L 1425.504706 320.4 
L 1423.207059 320.4 
L 1420.909412 320.4 
L 1418.611765 320.4 
L 1416.314118 320.4 
L 1414.016471 320.4 
L 1411.718824 320.4 
L 1409.421176 320.4 
L 1407.123529 320.4 
L 1404.825882 320.4 
L 1402.528235 320.4 
L 1400.230588 320.4 
L 1397.932941 320.4 
L 1395.635294 320.4 
L 1393.337647 320.4 
L 1391.04 320.4 
L 1388.742353 320.4 
L 1386.444706 320.4 
L 1384.147059 320.4 
L 1381.849412 320.4 
L 1379.551765 320.4 
L 1377.254118 320.4 
L 1374.956471 320.4 
L 1372.658824 320.4 
L 1370.361176 320.4 
L 1368.063529 320.4 
L 1365.765882 320.4 
L 1363.468235 320.4 
L 1361.170588 320.4 
L 1358.872941 320.4 
L 1356.575294 320.4 
L 1354.277647 320.4 
L 1351.98 320.4 
L 1349.682353 320.4 
L 1347.384706 320.4 
L 1345.087059 320.4 
L 1342.789412 320.4 
L 1340.491765 320.4 
L 1338.194118 320.4 
L 1335.896471 320.4 
L 1333.598824 320.4 
L 1331.301176 320.4 
L 1329.003529 320.4 
L 1326.705882 320.4 
L 1324.408235 320.4 
L 1322.110588 320.4 
L 1319.812941 320.4 
L 1317.515294 320.4 
L 1315.217647 320.4 
L 1312.92 320.4 
L 1310.622353 320.4 
L 1308.324706 320.4 
L 1306.027059 320.4 
L 1303.729412 320.4 
L 1301.431765 320.4 
L 1299.134118 320.4 
L 1296.836471 320.4 
L 1294.538824 320.4 
L 1292.241176 320.4 
L 1289.943529 320.4 
L 1287.645882 320.4 
L 1285.348235 320.4 
L 1283.050588 320.4 
L 1280.752941 320.4 
L 1278.455294 320.4 
L 1276.157647 320.4 
L 1273.86 320.4 
L 1271.562353 320.4 
L 1269.264706 320.4 
L 1266.967059 320.4 
L 1264.669412 320.4 
L 1262.371765 320.4 
L 1260.074118 320.4 
L 1257.776471 320.4 
L 1255.478824 320.4 
L 1253.181176 320.4 
L 1250.883529 320.4 
L 1248.585882 320.4 
L 1246.288235 320.4 
L 1243.990588 320.4 
L 1241.692941 320.4 
L 1239.395294 320.4 
L 1237.097647 320.4 
L 1234.8 320.4 
L 1232.502353 320.4 
L 1230.204706 320.4 
L 1227.907059 320.4 
L 1225.609412 320.4 
L 1223.311765 320.4 
L 1221.014118 320.4 
L 1218.716471 320.4 
L 1216.418824 320.4 
L 1214.121176 320.4 
L 1211.823529 320.4 
L 1209.525882 320.4 
L 1207.228235 320.4 
L 1204.930588 320.4 
L 1202.632941 320.4 
L 1200.335294 320.4 
L 1198.037647 320.4 
L 1195.74 320.4 
L 1193.442353 320.4 
L 1191.144706 320.4 
L 1188.847059 320.4 
L 1186.549412 320.4 
L 1184.251765 320.4 
L 1181.954118 320.4 
L 1179.656471 320.4 
L 1177.358824 320.4 
L 1175.061176 320.4 
L 1172.763529 320.4 
L 1170.465882 320.4 
L 1168.168235 320.4 
L 1165.870588 320.4 
L 1163.572941 320.4 
L 1161.275294 320.4 
L 1158.977647 320.4 
L 1156.68 320.4 
L 1154.382353 320.4 
L 1152.084706 320.4 
L 1149.787059 320.4 
L 1147.489412 320.4 
L 1145.191765 320.4 
L 1142.894118 320.4 
L 1140.596471 320.4 
L 1138.298824 320.4 
L 1136.001176 320.4 
L 1133.703529 320.4 
L 1131.405882 320.4 
L 1129.108235 320.4 
L 1126.810588 320.4 
L 1124.512941 320.4 
L 1122.215294 320.4 
L 1119.917647 320.4 
L 1117.62 320.4 
L 1115.322353 320.4 
L 1113.024706 320.4 
L 1110.727059 320.4 
L 1108.429412 320.4 
L 1106.131765 320.4 
L 1103.834118 320.4 
L 1101.536471 320.4 
L 1099.238824 320.4 
L 1096.941176 320.4 
L 1094.643529 320.4 
L 1092.345882 320.4 
L 1090.048235 320.4 
L 1087.750588 320.4 
L 1085.452941 320.4 
L 1083.155294 320.4 
L 1080.857647 320.4 
L 1078.56 320.4 
L 1076.262353 320.4 
L 1073.964706 320.4 
L 1071.667059 320.4 
L 1069.369412 320.4 
L 1067.071765 320.4 
L 1064.774118 320.4 
L 1062.476471 320.4 
L 1060.178824 320.4 
L 1057.881176 320.4 
L 1055.583529 320.4 
L 1053.285882 320.4 
L 1050.988235 320.4 
L 1048.690588 320.4 
L 1046.392941 320.4 
L 1044.095294 320.4 
L 1041.797647 320.4 
L 1039.5 320.4 
L 1037.202353 320.4 
L 1034.904706 320.4 
L 1032.607059 320.4 
L 1030.309412 320.4 
L 1028.011765 320.4 
L 1025.714118 320.4 
L 1023.416471 320.4 
L 1021.118824 320.4 
L 1018.821176 320.4 
L 1016.523529 320.4 
L 1014.225882 320.4 
L 1011.928235 320.4 
L 1009.630588 320.4 
L 1007.332941 320.4 
L 1005.035294 320.4 
L 1002.737647 320.4 
L 1000.44 320.4 
L 998.142353 320.4 
L 995.844706 320.4 
L 993.547059 320.4 
L 991.249412 320.4 
L 988.951765 320.4 
L 986.654118 320.4 
L 984.356471 320.4 
L 982.058824 320.4 
L 979.761176 320.4 
L 977.463529 320.4 
L 975.165882 320.4 
L 972.868235 320.4 
L 970.570588 320.4 
L 968.272941 320.4 
L 965.975294 320.4 
L 963.677647 320.4 
L 961.38 320.4 
L 959.082353 320.4 
L 956.784706 320.4 
L 954.487059 320.4 
L 952.189412 320.4 
L 949.891765 320.4 
L 947.594118 320.4 
L 945.296471 320.4 
L 942.998824 320.4 
L 940.701176 320.4 
L 938.403529 320.4 
L 936.105882 320.4 
L 933.808235 320.4 
L 931.510588 320.4 
L 929.212941 320.4 
L 926.915294 320.4 
L 924.617647 320.4 
L 922.32 320.4 
L 920.022353 320.4 
L 917.724706 320.4 
L 915.427059 320.4 
L 913.129412 320.4 
L 910.831765 320.4 
L 908.534118 320.4 
L 906.236471 320.4 
L 903.938824 320.4 
L 901.641176 320.4 
L 899.343529 320.4 
L 897.045882 320.4 
L 894.748235 320.4 
L 892.450588 320.4 
L 890.152941 320.4 
L 887.855294 320.4 
L 885.557647 320.4 
L 883.26 320.4 
L 880.962353 320.4 
L 878.664706 320.4 
L 876.367059 320.4 
L 874.069412 320.4 
L 871.771765 320.4 
L 869.474118 320.4 
L 867.176471 320.4 
L 864.878824 320.4 
L 862.581176 320.4 
L 860.283529 320.4 
L 857.985882 320.4 
L 855.688235 320.4 
L 853.390588 320.4 
L 851.092941 320.4 
L 848.795294 320.4 
L 846.497647 320.4 
L 844.2 320.4 
L 841.902353 320.4 
L 839.604706 320.4 
L 837.307059 320.4 
L 835.009412 320.4 
L 832.711765 320.4 
L 830.414118 320.4 
L 828.116471 320.4 
L 825.818824 320.4 
L 823.521176 320.4 
L 821.223529 320.4 
L 818.925882 320.4 
L 816.628235 320.4 
L 814.330588 320.4 
L 812.032941 320.4 
L 809.735294 320.4 
L 807.437647 320.4 
L 805.14 320.4 
L 802.842353 320.4 
L 800.544706 320.4 
L 798.247059 320.4 
L 795.949412 320.4 
L 793.651765 320.4 
L 791.354118 320.4 
L 789.056471 320.4 
L 786.758824 320.4 
L 784.461176 320.4 
L 782.163529 320.4 
L 779.865882 320.4 
L 777.568235 320.4 
L 775.270588 320.4 
L 772.972941 320.4 
L 770.675294 320.4 
L 768.377647 320.4 
L 766.08 320.4 
L 763.782353 320.4 
L 761.484706 320.4 
L 759.187059 320.4 
L 756.889412 320.4 
L 754.591765 320.4 
L 752.294118 320.4 
L 749.996471 320.4 
L 747.698824 320.4 
L 745.401176 320.4 
L 743.103529 320.4 
L 740.805882 320.4 
L 738.508235 320.4 
L 736.210588 320.4 
L 733.912941 320.4 
L 731.615294 320.4 
L 729.317647 320.4 
L 727.02 320.4 
L 724.722353 320.4 
L 722.424706 320.4 
L 720.127059 320.4 
L 717.829412 320.4 
L 715.531765 320.4 
L 713.234118 320.4 
L 710.936471 320.4 
L 708.638824 320.4 
L 706.341176 320.4 
L 704.043529 320.4 
L 701.745882 320.4 
L 699.448235 320.4 
L 697.150588 320.4 
L 694.852941 320.4 
L 692.555294 320.4 
L 690.257647 320.4 
L 687.96 320.4 
L 685.662353 320.4 
L 683.364706 320.4 
L 681.067059 320.4 
L 678.769412 320.4 
L 676.471765 320.4 
L 674.174118 320.4 
L 671.876471 320.4 
L 669.578824 320.4 
L 667.281176 320.4 
L 664.983529 320.4 
L 662.685882 320.4 
L 660.388235 320.4 
L 658.090588 320.4 
L 655.792941 320.4 
L 653.495294 320.4 
L 651.197647 320.4 
L 648.9 320.4 
L 646.602353 320.4 
L 644.304706 320.4 
L 642.007059 320.4 
L 639.709412 320.4 
L 637.411765 320.4 
L 635.114118 320.4 
L 632.816471 320.4 
L 630.518824 320.4 
L 628.221176 320.4 
L 625.923529 320.4 
L 623.625882 320.4 
L 621.328235 320.4 
L 619.030588 320.4 
L 616.732941 320.4 
L 614.435294 320.4 
L 612.137647 320.4 
L 609.84 320.4 
L 607.542353 320.4 
L 605.244706 320.4 
L 602.947059 320.4 
L 600.649412 320.4 
L 598.351765 320.4 
L 596.054118 320.4 
L 593.756471 320.4 
L 591.458824 320.4 
L 589.161176 320.4 
L 586.863529 320.4 
L 584.565882 320.4 
L 582.268235 320.4 
L 579.970588 320.4 
L 577.672941 320.4 
L 575.375294 320.4 
L 573.077647 320.4 
L 570.78 320.4 
L 568.482353 320.4 
L 566.184706 320.4 
L 563.887059 320.4 
L 561.589412 320.4 
L 559.291765 320.4 
L 556.994118 320.4 
L 554.696471 320.4 
L 552.398824 320.4 
L 550.101176 320.4 
L 547.803529 320.4 
L 545.505882 320.4 
L 543.208235 320.4 
L 540.910588 320.4 
L 538.612941 320.4 
L 536.315294 320.4 
L 534.017647 320.4 
L 531.72 320.4 
L 529.422353 320.4 
L 527.124706 320.4 
L 524.827059 320.4 
L 522.529412 320.4 
L 520.231765 320.4 
L 517.934118 320.4 
L 515.636471 320.4 
L 513.338824 320.4 
L 511.041176 320.4 
L 508.743529 320.4 
L 506.445882 320.4 
L 504.148235 320.4 
L 501.850588 320.4 
L 499.552941 320.4 
L 497.255294 320.4 
L 494.957647 320.4 
L 492.66 320.4 
L 490.362353 320.4 
L 488.064706 320.4 
L 485.767059 320.4 
L 483.469412 320.4 
L 481.171765 320.4 
L 478.874118 320.4 
L 476.576471 320.4 
L 474.278824 320.4 
L 471.981176 320.4 
L 469.683529 320.4 
L 467.385882 320.4 
L 465.088235 320.4 
L 462.790588 320.4 
L 460.492941 320.4 
L 458.195294 320.4 
L 455.897647 320.4 
L 453.6 320.4 
L 451.302353 320.4 
L 449.004706 320.4 
L 446.707059 320.4 
L 444.409412 320.4 
L 442.111765 320.4 
L 439.814118 320.4 
L 437.516471 320.4 
L 435.218824 320.4 
L 432.921176 320.4 
L 430.623529 320.4 
L 428.325882 320.4 
L 426.028235 320.4 
L 423.730588 320.4 
L 421.432941 320.4 
L 419.135294 320.4 
L 416.837647 320.4 
L 414.54 320.4 
L 412.242353 320.4 
L 409.944706 320.4 
L 407.647059 320.4 
L 405.349412 320.4 
L 403.051765 320.4 
L 400.754118 320.4 
L 398.456471 320.4 
L 396.158824 320.4 
L 393.861176 320.4 
L 391.563529 320.4 
L 389.265882 320.4 
L 386.968235 320.4 
L 384.670588 320.4 
L 382.372941 320.4 
L 380.075294 320.4 
L 377.777647 320.4 
L 375.48 320.4 
L 373.182353 320.4 
L 370.884706 320.4 
L 368.587059 320.4 
L 366.289412 320.4 
L 363.991765 320.4 
L 361.694118 320.4 
L 359.396471 320.4 
L 357.098824 320.4 
L 354.801176 320.4 
L 352.503529 320.4 
L 350.205882 320.4 
L 347.908235 320.4 
L 345.610588 320.4 
L 343.312941 320.4 
L 341.015294 320.4 
L 338.717647 320.4 
L 336.42 320.4 
L 334.122353 320.4 
L 331.824706 320.4 
L 329.527059 320.4 
L 327.229412 320.4 
L 324.931765 320.4 
L 322.634118 320.4 
L 320.336471 320.4 
L 318.038824 320.4 
L 315.741176 320.4 
L 313.443529 320.4 
L 311.145882 320.4 
L 308.848235 320.4 
L 306.550588 320.4 
L 304.252941 320.4 
L 301.955294 320.4 
L 299.657647 320.4 
L 297.36 320.4 
L 295.062353 320.4 
L 292.764706 320.4 
L 290.467059 320.4 
L 288.169412 320.4 
L 285.871765 320.4 
L 283.574118 320.4 
L 281.276471 320.4 
L 278.978824 320.4 
L 276.681176 320.4 
L 274.383529 320.4 
L 272.085882 320.4 
L 269.788235 320.4 
L 267.490588 320.4 
L 265.192941 320.4 
L 262.895294 320.4 
L 260.597647 320.4 
L 258.3 320.4 
L 256.002353 320.4 
L 253.704706 320.4 
L 251.407059 320.4 
L 249.109412 320.4 
L 246.811765 320.4 
L 244.514118 320.4 
L 242.216471 320.4 
L 239.918824 320.4 
L 237.621176 320.4 
L 235.323529 320.4 
L 233.025882 320.4 
L 230.728235 320.4 
L 228.430588 320.4 
L 226.132941 320.4 
L 223.835294 320.4 
L 221.537647 320.4 
L 219.24 320.4 
L 216.942353 320.4 
L 214.644706 320.4 
L 212.347059 320.4 
L 210.049412 320.4 
L 207.751765 320.4 
L 205.454118 320.4 
L 203.156471 320.4 
L 200.858824 320.4 
L 198.561176 320.4 
L 196.263529 320.4 
L 193.965882 320.4 
L 191.668235 320.4 
L 189.370588 320.4 
L 187.072941 320.4 
L 184.775294 320.4 
L 182.477647 320.4 
L 180.18 320.4 
L 177.882353 320.4 
L 175.584706 320.4 
L 173.287059 320.4 
L 170.989412 320.4 
L 168.691765 320.4 
L 166.394118 320.4 
L 164.096471 320.4 
L 161.798824 320.4 
L 159.501176 320.4 
L 157.203529 320.4 
L 154.905882 320.4 
L 152.608235 320.4 
L 150.310588 320.4 
L 148.012941 320.4 
L 145.715294 320.4 
L 143.417647 320.4 
L 141.12 320.4 
L 138.822353 320.4 
L 136.524706 320.4 
L 134.227059 311.128276 
L 131.929412 305.704665 
L 129.631765 301.856552 
L 127.334118 294.37098 
L 125.036471 286.090545 
L 122.738824 278.430318 
L 120.441176 269.781658 
L 118.143529 262.818686 
L 115.845882 258.14103 
L 113.548235 251.087064 
L 111.250588 242.870366 
L 108.952941 234.329768 
L 106.655294 225.785468 
L 104.357647 217.223712 
L 102.06 208.664046 
L 99.762353 200.104229 
L 97.464706 191.543278 
L 95.167059 182.981086 
L 92.869412 174.451445 
L 90.571765 166.693523 
L 88.274118 160.28137 
L 85.976471 152.387372 
L 83.678824 144.096772 
L 81.381176 135.537945 
L 79.083529 126.969339 
L 76.785882 118.395091 
L 74.488235 109.810428 
L 72.190588 101.20697 
L 69.892941 92.570835 
L 67.595294 83.88112 
L 65.297647 75.110332 
L 63 68.129489 
z
" clip-path="url(#pea3ab45623)" style="fill: #008400; fill-opacity: 0.1; stroke: #008400; stroke-opacity: 0.1"/>
   </g>
   <g id="line2d_19">
    <path d="M 63 102.345087 
L 81.381176 170.920622 
L 85.976471 187.217177 
L 88.274118 193.977067 
L 90.571765 201.85966 
L 108.952941 270.089172 
L 111.250588 277.889494 
L 115.845882 292.584828 
L 118.143529 298.871724 
L 120.441176 305.704665 
L 122.738824 311.128276 
L 125.036471 311.128276 
L 127.334118 320.4 
L 505 320.4 
L 505 320.4 
" clip-path="url(#pea3ab45623)" style="fill: none; stroke: #000000; stroke-width: 1.5; stroke-linecap: round"/>
   </g>
   <g id="line2d_20">
    <path d="M 63 129.913748 
L 83.678824 206.890329 
L 85.976471 215.030315 
L 88.274118 222.64792 
L 95.167059 248.07221 
L 104.357647 281.737607 
L 106.655294 289.6 
L 108.952941 296.432941 
L 111.250588 301.856552 
L 113.548235 311.128276 
L 115.845882 311.128276 
L 118.143529 320.4 
L 505 320.4 
L 505 320.4 
" clip-path="url(#pea3ab45623)" style="fill: none; stroke-dasharray: 5.55,2.4; stroke-dashoffset: 0; stroke: #000000; stroke-width: 1.5"/>
   </g>
   <g id="line2d_21">
    <path d="M 63 117.906432 
L 83.678824 194.846205 
L 85.976471 202.918097 
L 88.274118 209.551359 
L 90.571765 217.557145 
L 104.357647 268.61777 
L 108.952941 285.099257 
L 111.250588 292.584828 
L 113.548235 298.871724 
L 115.845882 305.704665 
L 118.143529 311.128276 
L 120.441176 311.128276 
L 122.738824 320.4 
L 505 320.4 
L 505 320.4 
" clip-path="url(#pea3ab45623)" style="fill: none; stroke-dasharray: 5.55,2.4; stroke-dashoffset: 0; stroke: #000000; stroke-width: 1.5"/>
   </g>
   <g id="line2d_22">
    <path d="M 63 87.075716 
L 76.785882 138.679423 
L 83.678824 164.184731 
L 85.976471 172.226838 
L 88.274118 178.923719 
L 90.571765 186.846598 
L 111.250588 263.57098 
L 113.548235 271.39521 
L 115.845882 277.889494 
L 120.441176 292.584828 
L 122.738824 298.871724 
L 125.036471 305.704665 
L 127.334118 311.128276 
L 129.631765 311.128276 
L 131.929412 320.4 
L 505 320.4 
L 505 320.4 
" clip-path="url(#pea3ab45623)" style="fill: none; stroke-dasharray: 5.55,2.4; stroke-dashoffset: 0; stroke: #000000; stroke-width: 1.5"/>
   </g>
   <g id="line2d_23">
    <path d="M 63 75.110332 
L 72.190588 109.810428 
L 83.678824 152.387372 
L 85.976471 160.28137 
L 88.274118 166.693523 
L 90.571765 174.451445 
L 111.250588 251.087064 
L 113.548235 258.14103 
L 115.845882 262.818686 
L 118.143529 269.781658 
L 120.441176 278.430318 
L 122.738824 286.090545 
L 125.036471 294.37098 
L 127.334118 301.856552 
L 129.631765 305.704665 
L 131.929412 311.128276 
L 134.227059 320.4 
L 505 320.4 
L 505 320.4 
" clip-path="url(#pea3ab45623)" style="fill: none; stroke-dasharray: 5.55,2.4; stroke-dashoffset: 0; stroke: #000000; stroke-width: 1.5"/>
   </g>
   <g id="patch_3">
    <path d="M 63 320.4 
L 63 43.2 
" style="fill: none; stroke: #262626; stroke-width: 0.8; stroke-linejoin: miter; stroke-linecap: square"/>
   </g>
   <g id="patch_4">
    <path d="M 63 320.4 
L 453.6 320.4 
" style="fill: none; stroke: #262626; stroke-width: 0.8; stroke-linejoin: miter; stroke-linecap: square"/>
   </g>
   <g id="text_21">
    <!-- Parasite Density in Patients Treated Successfully -->
    <g style="fill: #262626" transform="translate(88.992969 23.2) scale(0.14 -0.14)">
     <defs>
      <path id="DejaVuSans-54" d="M -19 4666 
L 3928 4666 
L 3928 4134 
L 2272 4134 
L 2272 0 
L 1638 0 
L 1638 4134 
L -19 4134 
L -19 4666 
z
" transform="scale(0.015625)"/>
      <path id="DejaVuSans-64" d="M 2906 2969 
L 2906 4863 
L 3481 4863 
L 3481 0 
L 2906 0 
L 2906 525 
Q 2725 213 2448 61 
Q 2172 -91 1784 -91 
Q 1150 -91 751 415 
Q 353 922 353 1747 
Q 353 2572 751 3078 
Q 1150 3584 1784 3584 
Q 2172 3584 2448 3432 
Q 2725 3281 2906 2969 
z
M 947 1747 
Q 947 1113 1208 752 
Q 1469 391 1925 391 
Q 2381 391 2643 752 
Q 2906 1113 2906 1747 
Q 2906 2381 2643 2742 
Q 2381 3103 1925 3103 
Q 1469 3103 1208 2742 
Q 947 2381 947 1747 
z
" transform="scale(0.015625)"/>
      <path id="DejaVuSans-53" d="M 3425 4513 
L 3425 3897 
Q 3066 4069 2747 4153 
Q 2428 4238 2131 4238 
Q 1616 4238 1336 4038 
Q 1056 3838 1056 3469 
Q 1056 3159 1242 3001 
Q 1428 2844 1947 2747 
L 2328 2669 
Q 3034 2534 3370 2195 
Q 3706 1856 3706 1288 
Q 3706 609 3251 259 
Q 2797 -91 1919 -91 
Q 1588 -91 1214 -16 
Q 841 59 441 206 
L 441 856 
Q 825 641 1194 531 
Q 1563 422 1919 422 
Q 2459 422 2753 634 
Q 3047 847 3047 1241 
Q 3047 1584 2836 1778 
Q 2625 1972 2144 2069 
L 1759 2144 
Q 1053 2284 737 2584 
Q 422 2884 422 3419 
Q 422 4038 858 4394 
Q 1294 4750 2059 4750 
Q 2388 4750 2728 4690 
Q 3069 4631 3425 4513 
z
" transform="scale(0.015625)"/>
      <path id="DejaVuSans-75" d="M 544 1381 
L 544 3500 
L 1119 3500 
L 1119 1403 
Q 1119 906 1312 657 
Q 1506 409 1894 409 
Q 2359 409 2629 706 
Q 2900 1003 2900 1516 
L 2900 3500 
L 3475 3500 
L 3475 0 
L 2900 0 
L 2900 538 
Q 2691 219 2414 64 
Q 2138 -91 1772 -91 
Q 1169 -91 856 284 
Q 544 659 544 1381 
z
M 1991 3584 
L 1991 3584 
z
" transform="scale(0.015625)"/>
      <path id="DejaVuSans-63" d="M 3122 3366 
L 3122 2828 
Q 2878 2963 2633 3030 
Q 2388 3097 2138 3097 
Q 1578 3097 1268 2742 
Q 959 2388 959 1747 
Q 959 1106 1268 751 
Q 1578 397 2138 397 
Q 2388 397 2633 464 
Q 2878 531 3122 666 
L 3122 134 
Q 2881 22 2623 -34 
Q 2366 -91 2075 -91 
Q 1284 -91 818 406 
Q 353 903 353 1747 
Q 353 2603 823 3093 
Q 1294 3584 2113 3584 
Q 2378 3584 2631 3529 
Q 2884 3475 3122 3366 
z
" transform="scale(0.015625)"/>
      <path id="DejaVuSans-66" d="M 2375 4863 
L 2375 4384 
L 1825 4384 
Q 1516 4384 1395 4259 
Q 1275 4134 1275 3809 
L 1275 3500 
L 2222 3500 
L 2222 3053 
L 1275 3053 
L 1275 0 
L 697 0 
L 697 3053 
L 147 3053 
L 147 3500 
L 697 3500 
L 697 3744 
Q 697 4328 969 4595 
Q 1241 4863 1831 4863 
L 2375 4863 
z
" transform="scale(0.015625)"/>
     </defs>
     <use xlink:href="#DejaVuSans-50"/>
     <use xlink:href="#DejaVuSans-61" transform="translate(55.802734 0)"/>
     <use xlink:href="#DejaVuSans-72" transform="translate(117.082031 0)"/>
     <use xlink:href="#DejaVuSans-61" transform="translate(158.195312 0)"/>
     <use xlink:href="#DejaVuSans-73" transform="translate(219.474609 0)"/>
     <use xlink:href="#DejaVuSans-69" transform="translate(271.574219 0)"/>
     <use xlink:href="#DejaVuSans-74" transform="translate(299.357422 0)"/>
     <use xlink:href="#DejaVuSans-65" transform="translate(338.566406 0)"/>
     <use xlink:href="#DejaVuSans-20" transform="translate(400.089844 0)"/>
     <use xlink:href="#DejaVuSans-44" transform="translate(431.876953 0)"/>
     <use xlink:href="#DejaVuSans-65" transform="translate(508.878906 0)"/>
     <use xlink:href="#DejaVuSans-6e" transform="translate(570.402344 0)"/>
     <use xlink:href="#DejaVuSans-73" transform="translate(633.78125 0)"/>
     <use xlink:href="#DejaVuSans-69" transform="translate(685.880859 0)"/>
     <use xlink:href="#DejaVuSans-74" transform="translate(713.664062 0)"/>
     <use xlink:href="#DejaVuSans-79" transform="translate(752.873047 0)"/>
     <use xlink:href="#DejaVuSans-20" transform="translate(812.052734 0)"/>
     <use xlink:href="#DejaVuSans-69" transform="translate(843.839844 0)"/>
     <use xlink:href="#DejaVuSans-6e" transform="translate(871.623047 0)"/>
     <use xlink:href="#DejaVuSans-20" transform="translate(935.001953 0)"/>
     <use xlink:href="#DejaVuSans-50" transform="translate(966.789062 0)"/>
     <use xlink:href="#DejaVuSans-61" transform="translate(1022.591797 0)"/>
     <use xlink:href="#DejaVuSans-74" transform="translate(1083.871094 0)"/>
     <use xlink:href="#DejaVuSans-69" transform="translate(1123.080078 0)"/>
     <use xlink:href="#DejaVuSans-65" transform="translate(1150.863281 0)"/>
     <use xlink:href="#DejaVuSans-6e" transform="translate(1212.386719 0)"/>
     <use xlink:href="#DejaVuSans-74" transform="translate(1275.765625 0)"/>
     <use xlink:href="#DejaVuSans-73" transform="translate(1314.974609 0)"/>
     <use xlink:href="#DejaVuSans-20" transform="translate(1367.074219 0)"/>
     <use xlink:href="#DejaVuSans-54" transform="translate(1398.861328 0)"/>
     <use xlink:href="#DejaVuSans-72" transform="translate(1445.195312 0)"/>
     <use xlink:href="#DejaVuSans-65" transform="translate(1484.058594 0)"/>
     <use xlink:href="#DejaVuSans-61" transform="translate(1545.582031 0)"/>
     <use xlink:href="#DejaVuSans-74" transform="translate(1606.861328 0)"/>
     <use xlink:href="#DejaVuSans-65" transform="translate(1646.070312 0)"/>
     <use xlink:href="#DejaVuSans-64" transform="translate(1707.59375 0)"/>
     <use xlink:href="#DejaVuSans-20" transform="translate(1771.070312 0)"/>
     <use xlink:href="#DejaVuSans-53" transform="translate(1802.857422 0)"/>
     <use xlink:href="#DejaVuSans-75" transform="translate(1866.333984 0)"/>
     <use xlink:href="#DejaVuSans-63" transform="translate(1929.712891 0)"/>
     <use xlink:href="#DejaVuSans-63" transform="translate(1984.693359 0)"/>
     <use xlink:href="#DejaVuSans-65" transform="translate(2039.673828 0)"/>
     <use xlink:href="#DejaVuSans-73" transform="translate(2101.197266 0)"/>
     <use xlink:href="#DejaVuSans-73" transform="translate(2153.296875 0)"/>
     <use xlink:href="#DejaVuSans-66" transform="translate(2205.396484 0)"/>
     <use xlink:href="#DejaVuSans-75" transform="translate(2240.601562 0)"/>
     <use xlink:href="#DejaVuSans-6c" transform="translate(2303.980469 0)"/>
     <use xlink:href="#DejaVuSans-6c" transform="translate(2331.763672 0)"/>
     <use xlink:href="#DejaVuSans-79" transform="translate(2359.546875 0)"/>
    </g>
   </g>
  </g>
 </g>
 <defs>
  <clipPath id="pea3ab45623">
   <rect x="63" y="43.2" width="390.6" height="277.2"/>
  </clipPath>
 </defs>
</svg>
