<?xml version="1.0" encoding="utf-8" standalone="no"?>
<!DOCTYPE svg PUBLIC "-//W3C//DTD SVG 1.1//EN"
  "http://www.w3.org/Graphics/SVG/1.1/DTD/svg11.dtd">
<svg xmlns:xlink="http://www.w3.org/1999/xlink" width="504pt" height="360pt" viewBox="0 0 504 360" xmlns="http://www.w3.org/2000/svg" version="1.1">
 <metadata>
  <rdf:RDF xmlns:dc="http://purl.org/dc/elements/1.1/" xmlns:cc="http://creativecommons.org/ns#" xmlns:rdf="http://www.w3.org/1999/02/22-rdf-syntax-ns#">
   <cc:Work>
    <dc:type rdf:resource="http://purl.org/dc/dcmitype/StillImage"/>
    <dc:date>2025-07-09T13:45:18.624316</dc:date>
    <dc:format>image/svg+xml</dc:format>
    <dc:creator>
     <cc:Agent>
      <dc:title>Matplotlib v3.10.1, https://matplotlib.org/</dc:title>
     </cc:Agent>
    </dc:creator>
   </cc:Work>
  </rdf:RDF>
 </metadata>
 <defs>
  <style type="text/css">*{stroke-linejoin: round; stroke-linecap: butt}</style>
 </defs>
 <g id="figure_1">
  <g id="patch_1">
   <path d="M 0 360 
L 504 360 
L 504 0 
L 0 0 
z
" style="fill: #ffffff"/>
  </g>
  <g id="axes_1">
   <g id="patch_2">
    <path d="M 63 320.4 
L 453.6 320.4 
L 453.6 43.2 
L 63 43.2 
z
" style="fill: #ffffff"/>
   </g>
   <g id="matplotlib.axis_1">
    <g id="xtick_1">
     <g id="line2d_1">
      <defs>
       <path id="m481ae2a0ac" d="M 0 0 
L 0 3.5 
" style="stroke: #262626; stroke-width: 0.8"/>
      </defs>
      <g>
       <use xlink:href="#m481ae2a0ac" x="76.785882" y="320.4" style="fill: #262626; stroke: #262626; stroke-width: 0.8"/>
      </g>
     </g>
     <g id="text_1">
      <!-- 1 -->
      <g style="fill: #262626" transform="translate(72.332132 338.037813) scale(0.14 -0.14)">
       <defs>
        <path id="DejaVuSans-31" d="M 794 531 
L 1825 531 
L 1825 4091 
L 703 3866 
L 703 4441 
L 1819 4666 
L 2450 4666 
L 2450 531 
L 3481 531 
L 3481 0 
L 794 0 
L 794 531 
z
" transform="scale(0.015625)"/>
       </defs>
       <use xlink:href="#DejaVuSans-31"/>
      </g>
     </g>
    </g>
    <g id="xtick_2">
     <g id="line2d_2">
      <g>
       <use xlink:href="#m481ae2a0ac" x="159.501176" y="320.4" style="fill: #262626; stroke: #262626; stroke-width: 0.8"/>
      </g>
     </g>
     <g id="text_2">
      <!-- 7 -->
      <g style="fill: #262626" transform="translate(155.047426 338.037813) scale(0.14 -0.14)">
       <defs>
        <path id="DejaVuSans-37" d="M 525 4666 
L 3525 4666 
L 3525 4397 
L 1831 0 
L 1172 0 
L 2766 4134 
L 525 4134 
L 525 4666 
z
" transform="scale(0.015625)"/>
       </defs>
       <use xlink:href="#DejaVuSans-37"/>
      </g>
     </g>
    </g>
    <g id="xtick_3">
     <g id="line2d_3">
      <g>
       <use xlink:href="#m481ae2a0ac" x="256.002353" y="320.4" style="fill: #262626; stroke: #262626; stroke-width: 0.8"/>
      </g>
     </g>
     <g id="text_3">
      <!-- 14 -->
      <g style="fill: #262626" transform="translate(247.094853 338.037813) scale(0.14 -0.14)">
       <defs>
        <path id="DejaVuSans-34" d="M 2419 4116 
L 825 1625 
L 2419 1625 
L 2419 4116 
z
M 2253 4666 
L 3047 4666 
L 3047 1625 
L 3713 1625 
L 3713 1100 
L 3047 1100 
L 3047 0 
L 2419 0 
L 2419 1100 
L 313 1100 
L 313 1709 
L 2253 4666 
z
" transform="scale(0.015625)"/>
       </defs>
       <use xlink:href="#DejaVuSans-31"/>
       <use xlink:href="#DejaVuSans-34" transform="translate(63.623047 0)"/>
      </g>
     </g>
    </g>
    <g id="xtick_4">
     <g id="line2d_4">
      <g>
       <use xlink:href="#m481ae2a0ac" x="352.503529" y="320.4" style="fill: #262626; stroke: #262626; stroke-width: 0.8"/>
      </g>
     </g>
     <g id="text_4">
      <!-- 21 -->
      <g style="fill: #262626" transform="translate(343.596029 338.037813) scale(0.14 -0.14)">
       <defs>
        <path id="DejaVuSans-32" d="M 1228 531 
L 3431 531 
L 3431 0 
L 469 0 
L 469 531 
Q 828 903 1448 1529 
Q 2069 2156 2228 2338 
Q 2531 2678 2651 2914 
Q 2772 3150 2772 3378 
Q 2772 3750 2511 3984 
Q 2250 4219 1831 4219 
Q 1534 4219 1204 4116 
Q 875 4013 500 3803 
L 500 4441 
Q 881 4594 1212 4672 
Q 1544 4750 1819 4750 
Q 2544 4750 2975 4387 
Q 3406 4025 3406 3419 
Q 3406 3131 3298 2873 
Q 3191 2616 2906 2266 
Q 2828 2175 2409 1742 
Q 1991 1309 1228 531 
z
" transform="scale(0.015625)"/>
       </defs>
       <use xlink:href="#DejaVuSans-32"/>
       <use xlink:href="#DejaVuSans-31" transform="translate(63.623047 0)"/>
      </g>
     </g>
    </g>
    <g id="xtick_5">
     <g id="line2d_5">
      <g>
       <use xlink:href="#m481ae2a0ac" x="448.430294" y="320.4" style="fill: #262626; stroke: #262626; stroke-width: 0.8"/>
      </g>
     </g>
     <g id="text_5">
      <!-- 28 -->
      <g style="fill: #262626" transform="translate(439.522794 338.037813) scale(0.14 -0.14)">
       <defs>
        <path id="DejaVuSans-38" d="M 2034 2216 
Q 1584 2216 1326 1975 
Q 1069 1734 1069 1313 
Q 1069 891 1326 650 
Q 1584 409 2034 409 
Q 2484 409 2743 651 
Q 3003 894 3003 1313 
Q 3003 1734 2745 1975 
Q 2488 2216 2034 2216 
z
M 1403 2484 
Q 997 2584 770 2862 
Q 544 3141 544 3541 
Q 544 4100 942 4425 
Q 1341 4750 2034 4750 
Q 2731 4750 3128 4425 
Q 3525 4100 3525 3541 
Q 3525 3141 3298 2862 
Q 3072 2584 2669 2484 
Q 3125 2378 3379 2068 
Q 3634 1759 3634 1313 
Q 3634 634 3220 271 
Q 2806 -91 2034 -91 
Q 1263 -91 848 271 
Q 434 634 434 1313 
Q 434 1759 690 2068 
Q 947 2378 1403 2484 
z
M 1172 3481 
Q 1172 3119 1398 2916 
Q 1625 2713 2034 2713 
Q 2441 2713 2670 2916 
Q 2900 3119 2900 3481 
Q 2900 3844 2670 4047 
Q 2441 4250 2034 4250 
Q 1625 4250 1398 4047 
Q 1172 3844 1172 3481 
z
" transform="scale(0.015625)"/>
       </defs>
       <use xlink:href="#DejaVuSans-32"/>
       <use xlink:href="#DejaVuSans-38" transform="translate(63.623047 0)"/>
      </g>
     </g>
    </g>
    <g id="text_6">
     <!-- Day -->
     <g style="fill: #262626" transform="translate(244.477188 361.587188) scale(0.14 -0.14)">
      <defs>
       <path id="DejaVuSans-44" d="M 1259 4147 
L 1259 519 
L 2022 519 
Q 2988 519 3436 956 
Q 3884 1394 3884 2338 
Q 3884 3275 3436 3711 
Q 2988 4147 2022 4147 
L 1259 4147 
z
M 628 4666 
L 1925 4666 
Q 3281 4666 3915 4102 
Q 4550 3538 4550 2338 
Q 4550 1131 3912 565 
Q 3275 0 1925 0 
L 628 0 
L 628 4666 
z
" transform="scale(0.015625)"/>
       <path id="DejaVuSans-61" d="M 2194 1759 
Q 1497 1759 1228 1600 
Q 959 1441 959 1056 
Q 959 750 1161 570 
Q 1363 391 1709 391 
Q 2188 391 2477 730 
Q 2766 1069 2766 1631 
L 2766 1759 
L 2194 1759 
z
M 3341 1997 
L 3341 0 
L 2766 0 
L 2766 531 
Q 2569 213 2275 61 
Q 1981 -91 1556 -91 
Q 1019 -91 701 211 
Q 384 513 384 1019 
Q 384 1609 779 1909 
Q 1175 2209 1959 2209 
L 2766 2209 
L 2766 2266 
Q 2766 2663 2505 2880 
Q 2244 3097 1772 3097 
Q 1472 3097 1187 3025 
Q 903 2953 641 2809 
L 641 3341 
Q 956 3463 1253 3523 
Q 1550 3584 1831 3584 
Q 2591 3584 2966 3190 
Q 3341 2797 3341 1997 
z
" transform="scale(0.015625)"/>
       <path id="DejaVuSans-79" d="M 2059 -325 
Q 1816 -950 1584 -1140 
Q 1353 -1331 966 -1331 
L 506 -1331 
L 506 -850 
L 844 -850 
Q 1081 -850 1212 -737 
Q 1344 -625 1503 -206 
L 1606 56 
L 191 3500 
L 800 3500 
L 1894 763 
L 2988 3500 
L 3597 3500 
L 2059 -325 
z
" transform="scale(0.015625)"/>
      </defs>
      <use xlink:href="#DejaVuSans-44"/>
      <use xlink:href="#DejaVuSans-61" transform="translate(77.001953 0)"/>
      <use xlink:href="#DejaVuSans-79" transform="translate(138.28125 0)"/>
     </g>
    </g>
   </g>
   <g id="matplotlib.axis_2">
    <g id="ytick_1">
     <g id="line2d_6">
      <defs>
       <path id="m6babec76af" d="M 0 0 
L -3.5 0 
" style="stroke: #262626; stroke-width: 0.8"/>
      </defs>
      <g>
       <use xlink:href="#m6babec76af" x="63" y="320.4" style="fill: #262626; stroke: #262626; stroke-width: 0.8"/>
      </g>
     </g>
     <g id="text_7">
      <!-- −3 -->
      <g style="fill: #262626" transform="translate(35.360937 325.718906) scale(0.14 -0.14)">
       <defs>
        <path id="DejaVuSans-2212" d="M 678 2272 
L 4684 2272 
L 4684 1741 
L 678 1741 
L 678 2272 
z
" transform="scale(0.015625)"/>
        <path id="DejaVuSans-33" d="M 2597 2516 
Q 3050 2419 3304 2112 
Q 3559 1806 3559 1356 
Q 3559 666 3084 287 
Q 2609 -91 1734 -91 
Q 1441 -91 1130 -33 
Q 819 25 488 141 
L 488 750 
Q 750 597 1062 519 
Q 1375 441 1716 441 
Q 2309 441 2620 675 
Q 2931 909 2931 1356 
Q 2931 1769 2642 2001 
Q 2353 2234 1838 2234 
L 1294 2234 
L 1294 2753 
L 1863 2753 
Q 2328 2753 2575 2939 
Q 2822 3125 2822 3475 
Q 2822 3834 2567 4026 
Q 2313 4219 1838 4219 
Q 1578 4219 1281 4162 
Q 984 4106 628 3988 
L 628 4550 
Q 988 4650 1302 4700 
Q 1616 4750 1894 4750 
Q 2613 4750 3031 4423 
Q 3450 4097 3450 3541 
Q 3450 3153 3228 2886 
Q 3006 2619 2597 2516 
z
" transform="scale(0.015625)"/>
       </defs>
       <use xlink:href="#DejaVuSans-2212"/>
       <use xlink:href="#DejaVuSans-33" transform="translate(83.789062 0)"/>
      </g>
     </g>
    </g>
    <g id="ytick_2">
     <g id="line2d_7">
      <g>
       <use xlink:href="#m6babec76af" x="63" y="289.6" style="fill: #262626; stroke: #262626; stroke-width: 0.8"/>
      </g>
     </g>
     <g id="text_8">
      <!-- −2 -->
      <g style="fill: #262626" transform="translate(35.360937 294.918906) scale(0.14 -0.14)">
       <use xlink:href="#DejaVuSans-2212"/>
       <use xlink:href="#DejaVuSans-32" transform="translate(83.789062 0)"/>
      </g>
     </g>
    </g>
    <g id="ytick_3">
     <g id="line2d_8">
      <g>
       <use xlink:href="#m6babec76af" x="63" y="258.8" style="fill: #262626; stroke: #262626; stroke-width: 0.8"/>
      </g>
     </g>
     <g id="text_9">
      <!-- −1 -->
      <g style="fill: #262626" transform="translate(35.360937 264.118906) scale(0.14 -0.14)">
       <use xlink:href="#DejaVuSans-2212"/>
       <use xlink:href="#DejaVuSans-31" transform="translate(83.789062 0)"/>
      </g>
     </g>
    </g>
    <g id="ytick_4">
     <g id="line2d_9">
      <g>
       <use xlink:href="#m6babec76af" x="63" y="228" style="fill: #262626; stroke: #262626; stroke-width: 0.8"/>
      </g>
     </g>
     <g id="text_10">
      <!-- 0 -->
      <g style="fill: #262626" transform="translate(47.0925 233.318906) scale(0.14 -0.14)">
       <defs>
        <path id="DejaVuSans-30" d="M 2034 4250 
Q 1547 4250 1301 3770 
Q 1056 3291 1056 2328 
Q 1056 1369 1301 889 
Q 1547 409 2034 409 
Q 2525 409 2770 889 
Q 3016 1369 3016 2328 
Q 3016 3291 2770 3770 
Q 2525 4250 2034 4250 
z
M 2034 4750 
Q 2819 4750 3233 4129 
Q 3647 3509 3647 2328 
Q 3647 1150 3233 529 
Q 2819 -91 2034 -91 
Q 1250 -91 836 529 
Q 422 1150 422 2328 
Q 422 3509 836 4129 
Q 1250 4750 2034 4750 
z
" transform="scale(0.015625)"/>
       </defs>
       <use xlink:href="#DejaVuSans-30"/>
      </g>
     </g>
    </g>
    <g id="ytick_5">
     <g id="line2d_10">
      <g>
       <use xlink:href="#m6babec76af" x="63" y="197.2" style="fill: #262626; stroke: #262626; stroke-width: 0.8"/>
      </g>
     </g>
     <g id="text_11">
      <!-- 1 -->
      <g style="fill: #262626" transform="translate(47.0925 202.518906) scale(0.14 -0.14)">
       <use xlink:href="#DejaVuSans-31"/>
      </g>
     </g>
    </g>
    <g id="ytick_6">
     <g id="line2d_11">
      <g>
       <use xlink:href="#m6babec76af" x="63" y="166.4" style="fill: #262626; stroke: #262626; stroke-width: 0.8"/>
      </g>
     </g>
     <g id="text_12">
      <!-- 2 -->
      <g style="fill: #262626" transform="translate(47.0925 171.718906) scale(0.14 -0.14)">
       <use xlink:href="#DejaVuSans-32"/>
      </g>
     </g>
    </g>
    <g id="ytick_7">
     <g id="line2d_12">
      <g>
       <use xlink:href="#m6babec76af" x="63" y="135.6" style="fill: #262626; stroke: #262626; stroke-width: 0.8"/>
      </g>
     </g>
     <g id="text_13">
      <!-- 3 -->
      <g style="fill: #262626" transform="translate(47.0925 140.918906) scale(0.14 -0.14)">
       <use xlink:href="#DejaVuSans-33"/>
      </g>
     </g>
    </g>
    <g id="ytick_8">
     <g id="line2d_13">
      <g>
       <use xlink:href="#m6babec76af" x="63" y="104.8" style="fill: #262626; stroke: #262626; stroke-width: 0.8"/>
      </g>
     </g>
     <g id="text_14">
      <!-- 4 -->
      <g style="fill: #262626" transform="translate(47.0925 110.118906) scale(0.14 -0.14)">
       <use xlink:href="#DejaVuSans-34"/>
      </g>
     </g>
    </g>
    <g id="ytick_9">
     <g id="line2d_14">
      <g>
       <use xlink:href="#m6babec76af" x="63" y="74" style="fill: #262626; stroke: #262626; stroke-width: 0.8"/>
      </g>
     </g>
     <g id="text_15">
      <!-- 5 -->
      <g style="fill: #262626" transform="translate(47.0925 79.318906) scale(0.14 -0.14)">
       <defs>
        <path id="DejaVuSans-35" d="M 691 4666 
L 3169 4666 
L 3169 4134 
L 1269 4134 
L 1269 2991 
Q 1406 3038 1543 3061 
Q 1681 3084 1819 3084 
Q 2600 3084 3056 2656 
Q 3513 2228 3513 1497 
Q 3513 744 3044 326 
Q 2575 -91 1722 -91 
Q 1428 -91 1123 -41 
Q 819 9 494 109 
L 494 744 
Q 775 591 1075 516 
Q 1375 441 1709 441 
Q 2250 441 2565 725 
Q 2881 1009 2881 1497 
Q 2881 1984 2565 2268 
Q 2250 2553 1709 2553 
Q 1456 2553 1204 2497 
Q 953 2441 691 2322 
L 691 4666 
z
" transform="scale(0.015625)"/>
       </defs>
       <use xlink:href="#DejaVuSans-35"/>
      </g>
     </g>
    </g>
    <g id="ytick_10">
     <g id="line2d_15">
      <g>
       <use xlink:href="#m6babec76af" x="63" y="43.2" style="fill: #262626; stroke: #262626; stroke-width: 0.8"/>
      </g>
     </g>
     <g id="text_16">
      <!-- 6 -->
      <g style="fill: #262626" transform="translate(47.0925 48.518906) scale(0.14 -0.14)">
       <defs>
        <path id="DejaVuSans-36" d="M 2113 2584 
Q 1688 2584 1439 2293 
Q 1191 2003 1191 1497 
Q 1191 994 1439 701 
Q 1688 409 2113 409 
Q 2538 409 2786 701 
Q 3034 994 3034 1497 
Q 3034 2003 2786 2293 
Q 2538 2584 2113 2584 
z
M 3366 4563 
L 3366 3988 
Q 3128 4100 2886 4159 
Q 2644 4219 2406 4219 
Q 1781 4219 1451 3797 
Q 1122 3375 1075 2522 
Q 1259 2794 1537 2939 
Q 1816 3084 2150 3084 
Q 2853 3084 3261 2657 
Q 3669 2231 3669 1497 
Q 3669 778 3244 343 
Q 2819 -91 2113 -91 
Q 1303 -91 875 529 
Q 447 1150 447 2328 
Q 447 3434 972 4092 
Q 1497 4750 2381 4750 
Q 2619 4750 2861 4703 
Q 3103 4656 3366 4563 
z
" transform="scale(0.015625)"/>
       </defs>
       <use xlink:href="#DejaVuSans-36"/>
      </g>
     </g>
    </g>
    <g id="text_17">
     <!-- Log 10 Parasite Density (Parasites/μl) -->
     <g style="fill: #262626" transform="translate(22.449375 312.599375) rotate(-90) scale(0.14 -0.14)">
      <defs>
       <path id="DejaVuSans-4c" d="M 628 4666 
L 1259 4666 
L 1259 531 
L 3531 531 
L 3531 0 
L 628 0 
L 628 4666 
z
" transform="scale(0.015625)"/>
       <path id="DejaVuSans-6f" d="M 1959 3097 
Q 1497 3097 1228 2736 
Q 959 2375 959 1747 
Q 959 1119 1226 758 
Q 1494 397 1959 397 
Q 2419 397 2687 759 
Q 2956 1122 2956 1747 
Q 2956 2369 2687 2733 
Q 2419 3097 1959 3097 
z
M 1959 3584 
Q 2709 3584 3137 3096 
Q 3566 2609 3566 1747 
Q 3566 888 3137 398 
Q 2709 -91 1959 -91 
Q 1206 -91 779 398 
Q 353 888 353 1747 
Q 353 2609 779 3096 
Q 1206 3584 1959 3584 
z
" transform="scale(0.015625)"/>
       <path id="DejaVuSans-67" d="M 2906 1791 
Q 2906 2416 2648 2759 
Q 2391 3103 1925 3103 
Q 1463 3103 1205 2759 
Q 947 2416 947 1791 
Q 947 1169 1205 825 
Q 1463 481 1925 481 
Q 2391 481 2648 825 
Q 2906 1169 2906 1791 
z
M 3481 434 
Q 3481 -459 3084 -895 
Q 2688 -1331 1869 -1331 
Q 1566 -1331 1297 -1286 
Q 1028 -1241 775 -1147 
L 775 -588 
Q 1028 -725 1275 -790 
Q 1522 -856 1778 -856 
Q 2344 -856 2625 -561 
Q 2906 -266 2906 331 
L 2906 616 
Q 2728 306 2450 153 
Q 2172 0 1784 0 
Q 1141 0 747 490 
Q 353 981 353 1791 
Q 353 2603 747 3093 
Q 1141 3584 1784 3584 
Q 2172 3584 2450 3431 
Q 2728 3278 2906 2969 
L 2906 3500 
L 3481 3500 
L 3481 434 
z
" transform="scale(0.015625)"/>
       <path id="DejaVuSans-20" transform="scale(0.015625)"/>
       <path id="DejaVuSans-50" d="M 1259 4147 
L 1259 2394 
L 2053 2394 
Q 2494 2394 2734 2622 
Q 2975 2850 2975 3272 
Q 2975 3691 2734 3919 
Q 2494 4147 2053 4147 
L 1259 4147 
z
M 628 4666 
L 2053 4666 
Q 2838 4666 3239 4311 
Q 3641 3956 3641 3272 
Q 3641 2581 3239 2228 
Q 2838 1875 2053 1875 
L 1259 1875 
L 1259 0 
L 628 0 
L 628 4666 
z
" transform="scale(0.015625)"/>
       <path id="DejaVuSans-72" d="M 2631 2963 
Q 2534 3019 2420 3045 
Q 2306 3072 2169 3072 
Q 1681 3072 1420 2755 
Q 1159 2438 1159 1844 
L 1159 0 
L 581 0 
L 581 3500 
L 1159 3500 
L 1159 2956 
Q 1341 3275 1631 3429 
Q 1922 3584 2338 3584 
Q 2397 3584 2469 3576 
Q 2541 3569 2628 3553 
L 2631 2963 
z
" transform="scale(0.015625)"/>
       <path id="DejaVuSans-73" d="M 2834 3397 
L 2834 2853 
Q 2591 2978 2328 3040 
Q 2066 3103 1784 3103 
Q 1356 3103 1142 2972 
Q 928 2841 928 2578 
Q 928 2378 1081 2264 
Q 1234 2150 1697 2047 
L 1894 2003 
Q 2506 1872 2764 1633 
Q 3022 1394 3022 966 
Q 3022 478 2636 193 
Q 2250 -91 1575 -91 
Q 1294 -91 989 -36 
Q 684 19 347 128 
L 347 722 
Q 666 556 975 473 
Q 1284 391 1588 391 
Q 1994 391 2212 530 
Q 2431 669 2431 922 
Q 2431 1156 2273 1281 
Q 2116 1406 1581 1522 
L 1381 1569 
Q 847 1681 609 1914 
Q 372 2147 372 2553 
Q 372 3047 722 3315 
Q 1072 3584 1716 3584 
Q 2034 3584 2315 3537 
Q 2597 3491 2834 3397 
z
" transform="scale(0.015625)"/>
       <path id="DejaVuSans-69" d="M 603 3500 
L 1178 3500 
L 1178 0 
L 603 0 
L 603 3500 
z
M 603 4863 
L 1178 4863 
L 1178 4134 
L 603 4134 
L 603 4863 
z
" transform="scale(0.015625)"/>
       <path id="DejaVuSans-74" d="M 1172 4494 
L 1172 3500 
L 2356 3500 
L 2356 3053 
L 1172 3053 
L 1172 1153 
Q 1172 725 1289 603 
Q 1406 481 1766 481 
L 2356 481 
L 2356 0 
L 1766 0 
Q 1100 0 847 248 
Q 594 497 594 1153 
L 594 3053 
L 172 3053 
L 172 3500 
L 594 3500 
L 594 4494 
L 1172 4494 
z
" transform="scale(0.015625)"/>
       <path id="DejaVuSans-65" d="M 3597 1894 
L 3597 1613 
L 953 1613 
Q 991 1019 1311 708 
Q 1631 397 2203 397 
Q 2534 397 2845 478 
Q 3156 559 3463 722 
L 3463 178 
Q 3153 47 2828 -22 
Q 2503 -91 2169 -91 
Q 1331 -91 842 396 
Q 353 884 353 1716 
Q 353 2575 817 3079 
Q 1281 3584 2069 3584 
Q 2775 3584 3186 3129 
Q 3597 2675 3597 1894 
z
M 3022 2063 
Q 3016 2534 2758 2815 
Q 2500 3097 2075 3097 
Q 1594 3097 1305 2825 
Q 1016 2553 972 2059 
L 3022 2063 
z
" transform="scale(0.015625)"/>
       <path id="DejaVuSans-6e" d="M 3513 2113 
L 3513 0 
L 2938 0 
L 2938 2094 
Q 2938 2591 2744 2837 
Q 2550 3084 2163 3084 
Q 1697 3084 1428 2787 
Q 1159 2491 1159 1978 
L 1159 0 
L 581 0 
L 581 3500 
L 1159 3500 
L 1159 2956 
Q 1366 3272 1645 3428 
Q 1925 3584 2291 3584 
Q 2894 3584 3203 3211 
Q 3513 2838 3513 2113 
z
" transform="scale(0.015625)"/>
       <path id="DejaVuSans-28" d="M 1984 4856 
Q 1566 4138 1362 3434 
Q 1159 2731 1159 2009 
Q 1159 1288 1364 580 
Q 1569 -128 1984 -844 
L 1484 -844 
Q 1016 -109 783 600 
Q 550 1309 550 2009 
Q 550 2706 781 3412 
Q 1013 4119 1484 4856 
L 1984 4856 
z
" transform="scale(0.015625)"/>
       <path id="DejaVuSans-2f" d="M 1625 4666 
L 2156 4666 
L 531 -594 
L 0 -594 
L 1625 4666 
z
" transform="scale(0.015625)"/>
       <path id="DejaVuSans-3bc" d="M 544 -1331 
L 544 3500 
L 1119 3500 
L 1119 1325 
Q 1119 872 1334 640 
Q 1550 409 1972 409 
Q 2434 409 2667 671 
Q 2900 934 2900 1459 
L 2900 3500 
L 3475 3500 
L 3475 806 
Q 3475 619 3529 530 
Q 3584 441 3700 441 
Q 3728 441 3778 458 
Q 3828 475 3916 513 
L 3916 50 
Q 3788 -22 3673 -56 
Q 3559 -91 3450 -91 
Q 3234 -91 3106 31 
Q 2978 153 2931 403 
Q 2775 156 2548 32 
Q 2322 -91 2016 -91 
Q 1697 -91 1473 31 
Q 1250 153 1119 397 
L 1119 -1331 
L 544 -1331 
z
" transform="scale(0.015625)"/>
       <path id="DejaVuSans-6c" d="M 603 4863 
L 1178 4863 
L 1178 0 
L 603 0 
L 603 4863 
z
" transform="scale(0.015625)"/>
       <path id="DejaVuSans-29" d="M 513 4856 
L 1013 4856 
Q 1481 4119 1714 3412 
Q 1947 2706 1947 2009 
Q 1947 1309 1714 600 
Q 1481 -109 1013 -844 
L 513 -844 
Q 928 -128 1133 580 
Q 1338 1288 1338 2009 
Q 1338 2731 1133 3434 
Q 928 4138 513 4856 
z
" transform="scale(0.015625)"/>
      </defs>
      <use xlink:href="#DejaVuSans-4c"/>
      <use xlink:href="#DejaVuSans-6f" transform="translate(53.962891 0)"/>
      <use xlink:href="#DejaVuSans-67" transform="translate(115.144531 0)"/>
      <use xlink:href="#DejaVuSans-20" transform="translate(178.621094 0)"/>
      <use xlink:href="#DejaVuSans-31" transform="translate(210.408203 0)"/>
      <use xlink:href="#DejaVuSans-30" transform="translate(274.03125 0)"/>
      <use xlink:href="#DejaVuSans-20" transform="translate(337.654297 0)"/>
      <use xlink:href="#DejaVuSans-50" transform="translate(369.441406 0)"/>
      <use xlink:href="#DejaVuSans-61" transform="translate(425.244141 0)"/>
      <use xlink:href="#DejaVuSans-72" transform="translate(486.523438 0)"/>
      <use xlink:href="#DejaVuSans-61" transform="translate(527.636719 0)"/>
      <use xlink:href="#DejaVuSans-73" transform="translate(588.916016 0)"/>
      <use xlink:href="#DejaVuSans-69" transform="translate(641.015625 0)"/>
      <use xlink:href="#DejaVuSans-74" transform="translate(668.798828 0)"/>
      <use xlink:href="#DejaVuSans-65" transform="translate(708.007812 0)"/>
      <use xlink:href="#DejaVuSans-20" transform="translate(769.53125 0)"/>
      <use xlink:href="#DejaVuSans-44" transform="translate(801.318359 0)"/>
      <use xlink:href="#DejaVuSans-65" transform="translate(878.320312 0)"/>
      <use xlink:href="#DejaVuSans-6e" transform="translate(939.84375 0)"/>
      <use xlink:href="#DejaVuSans-73" transform="translate(1003.222656 0)"/>
      <use xlink:href="#DejaVuSans-69" transform="translate(1055.322266 0)"/>
      <use xlink:href="#DejaVuSans-74" transform="translate(1083.105469 0)"/>
      <use xlink:href="#DejaVuSans-79" transform="translate(1122.314453 0)"/>
      <use xlink:href="#DejaVuSans-20" transform="translate(1181.494141 0)"/>
      <use xlink:href="#DejaVuSans-28" transform="translate(1213.28125 0)"/>
      <use xlink:href="#DejaVuSans-50" transform="translate(1252.294922 0)"/>
      <use xlink:href="#DejaVuSans-61" transform="translate(1308.097656 0)"/>
      <use xlink:href="#DejaVuSans-72" transform="translate(1369.376953 0)"/>
      <use xlink:href="#DejaVuSans-61" transform="translate(1410.490234 0)"/>
      <use xlink:href="#DejaVuSans-73" transform="translate(1471.769531 0)"/>
      <use xlink:href="#DejaVuSans-69" transform="translate(1523.869141 0)"/>
      <use xlink:href="#DejaVuSans-74" transform="translate(1551.652344 0)"/>
      <use xlink:href="#DejaVuSans-65" transform="translate(1590.861328 0)"/>
      <use xlink:href="#DejaVuSans-73" transform="translate(1652.384766 0)"/>
      <use xlink:href="#DejaVuSans-2f" transform="translate(1704.484375 0)"/>
      <use xlink:href="#DejaVuSans-3bc" transform="translate(1738.175781 0)"/>
      <use xlink:href="#DejaVuSans-6c" transform="translate(1801.798828 0)"/>
      <use xlink:href="#DejaVuSans-29" transform="translate(1829.582031 0)"/>
     </g>
    </g>
   </g>
   <g id="FillBetweenPolyCollection_1"/>
   <g id="FillBetweenPolyCollection_2"/>
   <g id="FillBetweenPolyCollection_3"/>
   <g id="FillBetweenPolyCollection_4"/>
   <g id="FillBetweenPolyCollection_5"/>
   <g id="FillBetweenPolyCollection_6">
    <defs>
     <path id="m382c4db734" d="M 63 -279.918162 
L 63 -248.946236 
L 63.574412 -242.093568 
L 64.148824 -233.518881 
L 64.723235 -224.950045 
L 65.297647 -216.38435 
L 65.872059 -207.820299 
L 66.446471 -199.257159 
L 67.020882 -190.694523 
L 67.595294 -182.132091 
L 68.169706 -173.619995 
L 68.744118 -165.153795 
L 69.318529 -157.081903 
L 69.892941 -150.448641 
L 70.467353 -142.442855 
L 71.041765 -133.892736 
L 71.616176 -125.34423 
L 72.190588 -116.831559 
L 72.765 -108.297827 
L 73.339412 -99.790669 
L 73.913824 -91.38223 
L 74.488235 -83.181179 
L 75.062647 -74.900743 
L 75.637059 -67.415172 
L 76.211471 -61.128276 
L 76.785882 -54.295335 
L 77.360294 -48.871724 
L 77.934706 -48.871724 
L 78.509118 -39.6 
L 79.083529 -39.6 
L 79.657941 -39.6 
L 80.232353 -39.6 
L 80.806765 -39.6 
L 81.381176 -39.6 
L 81.955588 -39.6 
L 82.53 -39.6 
L 83.104412 -39.6 
L 83.678824 -39.6 
L 84.253235 -39.6 
L 84.827647 -39.6 
L 85.402059 -39.6 
L 85.976471 -39.6 
L 86.550882 -39.6 
L 87.125294 -39.6 
L 87.699706 -39.6 
L 88.274118 -39.6 
L 88.848529 -39.6 
L 89.422941 -39.6 
L 89.997353 -39.6 
L 90.571765 -39.6 
L 91.146176 -39.6 
L 91.720588 -39.6 
L 92.295 -39.6 
L 92.869412 -39.6 
L 93.443824 -39.6 
L 94.018235 -39.6 
L 94.592647 -39.6 
L 95.167059 -39.6 
L 95.741471 -39.6 
L 96.315882 -39.6 
L 96.890294 -39.6 
L 97.464706 -39.6 
L 98.039118 -39.6 
L 98.613529 -39.6 
L 99.187941 -39.6 
L 99.762353 -39.6 
L 100.336765 -39.6 
L 100.911176 -39.6 
L 101.485588 -39.6 
L 102.06 -39.6 
L 102.634412 -39.6 
L 103.208824 -39.6 
L 103.783235 -39.6 
L 104.357647 -39.6 
L 104.932059 -39.6 
L 105.506471 -39.6 
L 106.080882 -39.6 
L 106.655294 -39.6 
L 107.229706 -39.6 
L 107.804118 -39.6 
L 108.378529 -39.6 
L 108.952941 -39.6 
L 109.527353 -39.6 
L 110.101765 -39.6 
L 110.676176 -39.6 
L 111.250588 -39.6 
L 111.825 -39.6 
L 112.399412 -39.6 
L 112.973824 -39.6 
L 113.548235 -39.6 
L 114.122647 -39.6 
L 114.697059 -39.6 
L 115.271471 -39.6 
L 115.845882 -39.6 
L 116.420294 -39.6 
L 116.994706 -39.6 
L 117.569118 -39.6 
L 118.143529 -39.6 
L 118.717941 -39.6 
L 119.292353 -39.6 
L 119.866765 -39.6 
L 120.441176 -39.6 
L 121.015588 -39.6 
L 121.59 -39.6 
L 122.164412 -39.6 
L 122.738824 -39.6 
L 123.313235 -39.6 
L 123.887647 -39.6 
L 124.462059 -39.6 
L 125.036471 -39.6 
L 125.610882 -39.6 
L 126.185294 -39.6 
L 126.759706 -39.6 
L 127.334118 -39.6 
L 127.908529 -39.6 
L 128.482941 -39.6 
L 129.057353 -39.6 
L 129.631765 -39.6 
L 130.206176 -39.6 
L 130.780588 -39.6 
L 131.355 -39.6 
L 131.929412 -39.6 
L 132.503824 -39.6 
L 133.078235 -39.6 
L 133.652647 -39.6 
L 134.227059 -39.6 
L 134.801471 -39.6 
L 135.375882 -39.6 
L 135.950294 -39.6 
L 136.524706 -39.6 
L 137.099118 -39.6 
L 137.673529 -39.6 
L 138.247941 -39.6 
L 138.822353 -39.6 
L 139.396765 -39.6 
L 139.971176 -39.6 
L 140.545588 -39.6 
L 141.12 -39.6 
L 141.694412 -39.6 
L 142.268824 -39.6 
L 142.843235 -39.6 
L 143.417647 -39.6 
L 143.992059 -39.6 
L 144.566471 -39.6 
L 145.140882 -39.6 
L 145.715294 -39.6 
L 146.289706 -39.6 
L 146.864118 -39.6 
L 147.438529 -39.6 
L 148.012941 -39.6 
L 148.587353 -39.6 
L 149.161765 -39.6 
L 149.736176 -39.6 
L 150.310588 -39.6 
L 150.885 -39.6 
L 151.459412 -39.6 
L 152.033824 -39.6 
L 152.608235 -39.6 
L 153.182647 -39.6 
L 153.757059 -39.6 
L 154.331471 -39.6 
L 154.905882 -39.6 
L 155.480294 -39.6 
L 156.054706 -39.6 
L 156.629118 -39.6 
L 157.203529 -39.6 
L 157.777941 -39.6 
L 158.352353 -39.6 
L 158.926765 -39.6 
L 159.501176 -39.6 
L 160.075588 -39.6 
L 160.65 -39.6 
L 161.224412 -39.6 
L 161.798824 -39.6 
L 162.373235 -39.6 
L 162.947647 -39.6 
L 163.522059 -39.6 
L 164.096471 -39.6 
L 164.670882 -39.6 
L 165.245294 -39.6 
L 165.819706 -39.6 
L 166.394118 -39.6 
L 166.968529 -39.6 
L 167.542941 -39.6 
L 168.117353 -39.6 
L 168.691765 -39.6 
L 169.266176 -39.6 
L 169.840588 -39.6 
L 170.415 -39.6 
L 170.989412 -39.6 
L 171.563824 -39.6 
L 172.138235 -39.6 
L 172.712647 -39.6 
L 173.287059 -39.6 
L 173.861471 -39.6 
L 174.435882 -39.6 
L 175.010294 -39.6 
L 175.584706 -39.6 
L 176.159118 -39.6 
L 176.733529 -39.6 
L 177.307941 -39.6 
L 177.882353 -39.6 
L 178.456765 -39.6 
L 179.031176 -39.6 
L 179.605588 -39.6 
L 180.18 -39.6 
L 180.754412 -39.6 
L 181.328824 -39.6 
L 181.903235 -39.6 
L 182.477647 -39.6 
L 183.052059 -39.6 
L 183.626471 -39.6 
L 184.200882 -39.6 
L 184.775294 -39.6 
L 185.349706 -39.6 
L 185.924118 -39.6 
L 186.498529 -39.6 
L 187.072941 -39.6 
L 187.647353 -39.6 
L 188.221765 -39.6 
L 188.796176 -39.6 
L 189.370588 -39.6 
L 189.945 -39.6 
L 190.519412 -39.6 
L 191.093824 -39.6 
L 191.668235 -39.6 
L 192.242647 -39.6 
L 192.817059 -39.6 
L 193.391471 -39.6 
L 193.965882 -39.6 
L 194.540294 -39.6 
L 195.114706 -39.6 
L 195.689118 -39.6 
L 196.263529 -39.6 
L 196.837941 -39.6 
L 197.412353 -39.6 
L 197.986765 -39.6 
L 198.561176 -39.6 
L 199.135588 -39.6 
L 199.71 -39.6 
L 200.284412 -39.6 
L 200.858824 -39.6 
L 201.433235 -39.6 
L 202.007647 -39.6 
L 202.582059 -39.6 
L 203.156471 -39.6 
L 203.730882 -39.6 
L 204.305294 -39.6 
L 204.879706 -39.6 
L 205.454118 -39.6 
L 206.028529 -39.6 
L 206.602941 -39.6 
L 207.177353 -39.6 
L 207.751765 -39.6 
L 208.326176 -39.6 
L 208.900588 -39.6 
L 209.475 -39.6 
L 210.049412 -39.6 
L 210.623824 -39.6 
L 211.198235 -39.6 
L 211.772647 -39.6 
L 212.347059 -39.6 
L 212.921471 -39.6 
L 213.495882 -39.6 
L 214.070294 -39.6 
L 214.644706 -39.6 
L 215.219118 -39.6 
L 215.793529 -39.6 
L 216.367941 -39.6 
L 216.942353 -39.6 
L 217.516765 -39.6 
L 218.091176 -39.6 
L 218.665588 -39.6 
L 219.24 -39.6 
L 219.814412 -39.6 
L 220.388824 -39.6 
L 220.963235 -39.6 
L 221.537647 -39.6 
L 222.112059 -39.6 
L 222.686471 -39.6 
L 223.260882 -39.6 
L 223.835294 -39.6 
L 224.409706 -39.6 
L 224.984118 -39.6 
L 225.558529 -39.6 
L 226.132941 -39.6 
L 226.707353 -39.6 
L 227.281765 -39.6 
L 227.856176 -39.6 
L 228.430588 -39.6 
L 229.005 -39.6 
L 229.579412 -39.6 
L 230.153824 -39.6 
L 230.728235 -39.6 
L 231.302647 -39.6 
L 231.877059 -39.6 
L 232.451471 -39.6 
L 233.025882 -39.6 
L 233.600294 -39.6 
L 234.174706 -39.6 
L 234.749118 -39.6 
L 235.323529 -39.6 
L 235.897941 -39.6 
L 236.472353 -39.6 
L 237.046765 -39.6 
L 237.621176 -39.6 
L 238.195588 -39.6 
L 238.77 -39.6 
L 239.344412 -39.6 
L 239.918824 -39.6 
L 240.493235 -39.6 
L 241.067647 -39.6 
L 241.642059 -39.6 
L 242.216471 -39.6 
L 242.790882 -39.6 
L 243.365294 -39.6 
L 243.939706 -39.6 
L 244.514118 -39.6 
L 245.088529 -39.6 
L 245.662941 -39.6 
L 246.237353 -39.6 
L 246.811765 -39.6 
L 247.386176 -39.6 
L 247.960588 -39.6 
L 248.535 -39.6 
L 249.109412 -39.6 
L 249.683824 -39.6 
L 250.258235 -39.6 
L 250.832647 -39.6 
L 251.407059 -39.6 
L 251.981471 -39.6 
L 252.555882 -39.6 
L 253.130294 -39.6 
L 253.704706 -39.6 
L 254.279118 -39.6 
L 254.853529 -39.6 
L 255.427941 -39.6 
L 256.002353 -39.6 
L 256.576765 -39.6 
L 257.151176 -39.6 
L 257.725588 -39.6 
L 258.3 -39.6 
L 258.874412 -39.6 
L 259.448824 -39.6 
L 260.023235 -39.6 
L 260.597647 -39.6 
L 261.172059 -39.6 
L 261.746471 -39.6 
L 262.320882 -39.6 
L 262.895294 -39.6 
L 263.469706 -39.6 
L 264.044118 -39.6 
L 264.618529 -39.6 
L 265.192941 -39.6 
L 265.767353 -39.6 
L 266.341765 -39.6 
L 266.916176 -39.6 
L 267.490588 -39.6 
L 268.065 -39.6 
L 268.639412 -39.6 
L 269.213824 -39.6 
L 269.788235 -39.6 
L 270.362647 -39.6 
L 270.937059 -39.6 
L 271.511471 -39.6 
L 272.085882 -39.6 
L 272.660294 -39.6 
L 273.234706 -39.6 
L 273.809118 -39.6 
L 274.383529 -39.6 
L 274.957941 -39.6 
L 275.532353 -39.6 
L 276.106765 -39.6 
L 276.681176 -39.6 
L 277.255588 -39.6 
L 277.83 -39.6 
L 278.404412 -39.6 
L 278.978824 -39.6 
L 279.553235 -39.6 
L 280.127647 -39.6 
L 280.702059 -39.6 
L 281.276471 -39.6 
L 281.850882 -39.6 
L 282.425294 -39.6 
L 282.999706 -39.6 
L 283.574118 -39.6 
L 284.148529 -39.6 
L 284.722941 -39.6 
L 285.297353 -39.6 
L 285.871765 -39.6 
L 286.446176 -39.6 
L 287.020588 -39.6 
L 287.595 -39.6 
L 288.169412 -39.6 
L 288.743824 -39.6 
L 289.318235 -39.6 
L 289.892647 -39.6 
L 290.467059 -39.6 
L 291.041471 -39.6 
L 291.615882 -39.6 
L 292.190294 -39.6 
L 292.764706 -39.6 
L 293.339118 -39.6 
L 293.913529 -39.6 
L 294.487941 -39.6 
L 295.062353 -39.6 
L 295.636765 -39.6 
L 296.211176 -39.6 
L 296.785588 -39.6 
L 297.36 -39.6 
L 297.934412 -39.6 
L 298.508824 -39.6 
L 299.083235 -39.6 
L 299.657647 -39.6 
L 300.232059 -39.6 
L 300.806471 -39.6 
L 301.380882 -39.6 
L 301.955294 -39.6 
L 302.529706 -39.6 
L 303.104118 -39.6 
L 303.678529 -39.6 
L 304.252941 -39.6 
L 304.827353 -39.6 
L 305.401765 -39.6 
L 305.976176 -39.6 
L 306.550588 -39.6 
L 307.125 -39.6 
L 307.699412 -39.6 
L 308.273824 -39.6 
L 308.848235 -39.6 
L 309.422647 -39.6 
L 309.997059 -39.6 
L 310.571471 -39.6 
L 311.145882 -39.6 
L 311.720294 -39.6 
L 312.294706 -39.6 
L 312.869118 -39.6 
L 313.443529 -39.6 
L 314.017941 -39.6 
L 314.592353 -39.6 
L 315.166765 -39.6 
L 315.741176 -39.6 
L 316.315588 -39.6 
L 316.89 -39.6 
L 317.464412 -39.6 
L 318.038824 -39.6 
L 318.613235 -39.6 
L 319.187647 -39.6 
L 319.762059 -39.6 
L 320.336471 -39.6 
L 320.910882 -39.6 
L 321.485294 -39.6 
L 322.059706 -39.6 
L 322.634118 -39.6 
L 323.208529 -39.6 
L 323.782941 -39.6 
L 324.357353 -39.6 
L 324.931765 -39.6 
L 325.506176 -39.6 
L 326.080588 -39.6 
L 326.655 -39.6 
L 327.229412 -39.6 
L 327.803824 -39.6 
L 328.378235 -39.6 
L 328.952647 -39.6 
L 329.527059 -39.6 
L 330.101471 -39.6 
L 330.675882 -39.6 
L 331.250294 -39.6 
L 331.824706 -39.6 
L 332.399118 -39.6 
L 332.973529 -39.6 
L 333.547941 -39.6 
L 334.122353 -39.6 
L 334.696765 -39.6 
L 335.271176 -39.6 
L 335.845588 -39.6 
L 336.42 -39.6 
L 336.994412 -39.6 
L 337.568824 -39.6 
L 338.143235 -39.6 
L 338.717647 -39.6 
L 339.292059 -39.6 
L 339.866471 -39.6 
L 340.440882 -39.6 
L 341.015294 -39.6 
L 341.589706 -39.6 
L 342.164118 -39.6 
L 342.738529 -39.6 
L 343.312941 -39.6 
L 343.887353 -39.6 
L 344.461765 -39.6 
L 345.036176 -39.6 
L 345.610588 -39.6 
L 346.185 -39.6 
L 346.759412 -39.6 
L 347.333824 -39.6 
L 347.908235 -39.6 
L 348.482647 -39.6 
L 349.057059 -39.6 
L 349.631471 -39.6 
L 350.205882 -39.6 
L 350.780294 -39.6 
L 351.354706 -39.6 
L 351.929118 -39.6 
L 352.503529 -39.6 
L 353.077941 -39.6 
L 353.652353 -39.6 
L 354.226765 -39.6 
L 354.801176 -39.6 
L 355.375588 -39.6 
L 355.95 -39.6 
L 356.524412 -39.6 
L 357.098824 -39.6 
L 357.673235 -39.6 
L 358.247647 -39.6 
L 358.822059 -39.6 
L 359.396471 -39.6 
L 359.970882 -39.6 
L 360.545294 -39.6 
L 361.119706 -39.6 
L 361.694118 -39.6 
L 362.268529 -39.6 
L 362.842941 -39.6 
L 363.417353 -39.6 
L 363.991765 -39.6 
L 364.566176 -39.6 
L 365.140588 -39.6 
L 365.715 -39.6 
L 366.289412 -39.6 
L 366.863824 -39.6 
L 367.438235 -39.6 
L 368.012647 -39.6 
L 368.587059 -39.6 
L 369.161471 -39.6 
L 369.735882 -39.6 
L 370.310294 -39.6 
L 370.884706 -39.6 
L 371.459118 -39.6 
L 372.033529 -39.6 
L 372.607941 -39.6 
L 373.182353 -39.6 
L 373.756765 -39.6 
L 374.331176 -39.6 
L 374.905588 -39.6 
L 375.48 -39.6 
L 376.054412 -39.6 
L 376.628824 -39.6 
L 377.203235 -39.6 
L 377.777647 -39.6 
L 378.352059 -39.6 
L 378.926471 -39.6 
L 379.500882 -39.6 
L 380.075294 -39.6 
L 380.649706 -39.6 
L 381.224118 -39.6 
L 381.798529 -39.6 
L 382.372941 -39.6 
L 382.947353 -39.6 
L 383.521765 -39.6 
L 384.096176 -39.6 
L 384.670588 -39.6 
L 385.245 -39.6 
L 385.819412 -39.6 
L 386.393824 -39.6 
L 386.968235 -39.6 
L 387.542647 -39.6 
L 388.117059 -39.6 
L 388.691471 -39.6 
L 389.265882 -39.6 
L 389.840294 -39.6 
L 390.414706 -39.6 
L 390.989118 -39.6 
L 391.563529 -39.6 
L 392.137941 -39.6 
L 392.712353 -39.6 
L 393.286765 -39.6 
L 393.861176 -39.6 
L 394.435588 -39.6 
L 395.01 -39.6 
L 395.584412 -39.6 
L 396.158824 -39.6 
L 396.733235 -39.6 
L 397.307647 -39.6 
L 397.882059 -39.6 
L 398.456471 -39.6 
L 399.030882 -39.6 
L 399.605294 -39.6 
L 400.179706 -39.6 
L 400.754118 -39.6 
L 401.328529 -39.6 
L 401.902941 -39.6 
L 402.477353 -39.6 
L 403.051765 -39.6 
L 403.626176 -39.6 
L 404.200588 -39.6 
L 404.775 -39.6 
L 405.349412 -39.6 
L 405.923824 -39.6 
L 406.498235 -39.6 
L 407.072647 -39.6 
L 407.647059 -39.6 
L 408.221471 -39.6 
L 408.795882 -39.6 
L 409.370294 -39.6 
L 409.944706 -39.6 
L 410.519118 -39.6 
L 411.093529 -39.6 
L 411.667941 -39.6 
L 412.242353 -39.6 
L 412.816765 -39.6 
L 413.391176 -39.6 
L 413.965588 -39.6 
L 414.54 -39.6 
L 415.114412 -39.6 
L 415.688824 -39.6 
L 416.263235 -39.6 
L 416.837647 -39.6 
L 417.412059 -39.6 
L 417.986471 -39.6 
L 418.560882 -39.6 
L 419.135294 -39.6 
L 419.709706 -39.6 
L 420.284118 -39.6 
L 420.858529 -39.6 
L 421.432941 -39.6 
L 422.007353 -39.6 
L 422.581765 -39.6 
L 423.156176 -39.6 
L 423.730588 -39.6 
L 424.305 -39.6 
L 424.879412 -39.6 
L 425.453824 -39.6 
L 426.028235 -39.6 
L 426.602647 -39.6 
L 427.177059 -39.6 
L 427.751471 -39.6 
L 428.325882 -39.6 
L 428.900294 -39.6 
L 429.474706 -39.6 
L 430.049118 -39.6 
L 430.623529 -39.6 
L 431.197941 -39.6 
L 431.772353 -39.6 
L 432.346765 -39.6 
L 432.921176 -39.6 
L 433.495588 -39.6 
L 434.07 -39.6 
L 434.644412 -39.6 
L 435.218824 -39.6 
L 435.793235 -39.6 
L 436.367647 -39.6 
L 436.942059 -39.6 
L 437.516471 -39.6 
L 438.090882 -39.6 
L 438.665294 -39.6 
L 439.239706 -39.6 
L 439.814118 -39.6 
L 440.388529 -39.6 
L 440.962941 -39.6 
L 441.537353 -39.6 
L 442.111765 -39.6 
L 442.686176 -39.6 
L 443.260588 -39.6 
L 443.835 -39.6 
L 444.409412 -39.6 
L 444.983824 -39.6 
L 445.558235 -39.6 
L 446.132647 -39.6 
L 446.707059 -39.6 
L 447.281471 -39.6 
L 447.855882 -39.6 
L 448.430294 -39.6 
L 448.430294 -39.6 
L 448.430294 -39.6 
L 447.855882 -39.6 
L 447.281471 -39.6 
L 446.707059 -39.6 
L 446.132647 -39.6 
L 445.558235 -39.6 
L 444.983824 -39.6 
L 444.409412 -39.6 
L 443.835 -39.6 
L 443.260588 -39.6 
L 442.686176 -39.6 
L 442.111765 -39.6 
L 441.537353 -39.6 
L 440.962941 -39.6 
L 440.388529 -39.6 
L 439.814118 -39.6 
L 439.239706 -39.6 
L 438.665294 -39.6 
L 438.090882 -39.6 
L 437.516471 -39.6 
L 436.942059 -39.6 
L 436.367647 -39.6 
L 435.793235 -39.6 
L 435.218824 -39.6 
L 434.644412 -39.6 
L 434.07 -39.6 
L 433.495588 -39.6 
L 432.921176 -39.6 
L 432.346765 -39.6 
L 431.772353 -39.6 
L 431.197941 -39.6 
L 430.623529 -39.6 
L 430.049118 -39.6 
L 429.474706 -39.6 
L 428.900294 -39.6 
L 428.325882 -39.6 
L 427.751471 -39.6 
L 427.177059 -39.6 
L 426.602647 -39.6 
L 426.028235 -39.6 
L 425.453824 -39.6 
L 424.879412 -39.6 
L 424.305 -39.6 
L 423.730588 -39.6 
L 423.156176 -39.6 
L 422.581765 -39.6 
L 422.007353 -39.6 
L 421.432941 -39.6 
L 420.858529 -39.6 
L 420.284118 -39.6 
L 419.709706 -39.6 
L 419.135294 -39.6 
L 418.560882 -39.6 
L 417.986471 -39.6 
L 417.412059 -39.6 
L 416.837647 -39.6 
L 416.263235 -39.6 
L 415.688824 -39.6 
L 415.114412 -39.6 
L 414.54 -39.6 
L 413.965588 -39.6 
L 413.391176 -39.6 
L 412.816765 -39.6 
L 412.242353 -39.6 
L 411.667941 -39.6 
L 411.093529 -39.6 
L 410.519118 -39.6 
L 409.944706 -39.6 
L 409.370294 -39.6 
L 408.795882 -39.6 
L 408.221471 -39.6 
L 407.647059 -39.6 
L 407.072647 -39.6 
L 406.498235 -39.6 
L 405.923824 -39.6 
L 405.349412 -39.6 
L 404.775 -39.6 
L 404.200588 -39.6 
L 403.626176 -39.6 
L 403.051765 -39.6 
L 402.477353 -39.6 
L 401.902941 -39.6 
L 401.328529 -39.6 
L 400.754118 -39.6 
L 400.179706 -39.6 
L 399.605294 -39.6 
L 399.030882 -39.6 
L 398.456471 -39.6 
L 397.882059 -39.6 
L 397.307647 -39.6 
L 396.733235 -39.6 
L 396.158824 -39.6 
L 395.584412 -39.6 
L 395.01 -39.6 
L 394.435588 -39.6 
L 393.861176 -39.6 
L 393.286765 -39.6 
L 392.712353 -39.6 
L 392.137941 -39.6 
L 391.563529 -39.6 
L 390.989118 -39.6 
L 390.414706 -39.6 
L 389.840294 -39.6 
L 389.265882 -39.6 
L 388.691471 -39.6 
L 388.117059 -39.6 
L 387.542647 -39.6 
L 386.968235 -39.6 
L 386.393824 -39.6 
L 385.819412 -39.6 
L 385.245 -39.6 
L 384.670588 -39.6 
L 384.096176 -39.6 
L 383.521765 -39.6 
L 382.947353 -39.6 
L 382.372941 -39.6 
L 381.798529 -39.6 
L 381.224118 -39.6 
L 380.649706 -39.6 
L 380.075294 -39.6 
L 379.500882 -39.6 
L 378.926471 -39.6 
L 378.352059 -39.6 
L 377.777647 -39.6 
L 377.203235 -39.6 
L 376.628824 -39.6 
L 376.054412 -39.6 
L 375.48 -39.6 
L 374.905588 -39.6 
L 374.331176 -39.6 
L 373.756765 -39.6 
L 373.182353 -39.6 
L 372.607941 -39.6 
L 372.033529 -39.6 
L 371.459118 -39.6 
L 370.884706 -39.6 
L 370.310294 -39.6 
L 369.735882 -39.6 
L 369.161471 -39.6 
L 368.587059 -39.6 
L 368.012647 -39.6 
L 367.438235 -39.6 
L 366.863824 -39.6 
L 366.289412 -39.6 
L 365.715 -39.6 
L 365.140588 -39.6 
L 364.566176 -39.6 
L 363.991765 -39.6 
L 363.417353 -39.6 
L 362.842941 -39.6 
L 362.268529 -39.6 
L 361.694118 -39.6 
L 361.119706 -39.6 
L 360.545294 -39.6 
L 359.970882 -39.6 
L 359.396471 -39.6 
L 358.822059 -39.6 
L 358.247647 -39.6 
L 357.673235 -39.6 
L 357.098824 -39.6 
L 356.524412 -39.6 
L 355.95 -39.6 
L 355.375588 -39.6 
L 354.801176 -39.6 
L 354.226765 -39.6 
L 353.652353 -39.6 
L 353.077941 -39.6 
L 352.503529 -39.6 
L 351.929118 -39.6 
L 351.354706 -39.6 
L 350.780294 -39.6 
L 350.205882 -39.6 
L 349.631471 -39.6 
L 349.057059 -39.6 
L 348.482647 -39.6 
L 347.908235 -39.6 
L 347.333824 -39.6 
L 346.759412 -39.6 
L 346.185 -39.6 
L 345.610588 -39.6 
L 345.036176 -39.6 
L 344.461765 -39.6 
L 343.887353 -39.6 
L 343.312941 -39.6 
L 342.738529 -39.6 
L 342.164118 -39.6 
L 341.589706 -39.6 
L 341.015294 -39.6 
L 340.440882 -39.6 
L 339.866471 -39.6 
L 339.292059 -39.6 
L 338.717647 -39.6 
L 338.143235 -39.6 
L 337.568824 -39.6 
L 336.994412 -39.6 
L 336.42 -39.6 
L 335.845588 -39.6 
L 335.271176 -39.6 
L 334.696765 -39.6 
L 334.122353 -39.6 
L 333.547941 -39.6 
L 332.973529 -39.6 
L 332.399118 -39.6 
L 331.824706 -39.6 
L 331.250294 -39.6 
L 330.675882 -39.6 
L 330.101471 -39.6 
L 329.527059 -39.6 
L 328.952647 -39.6 
L 328.378235 -39.6 
L 327.803824 -39.6 
L 327.229412 -39.6 
L 326.655 -39.6 
L 326.080588 -39.6 
L 325.506176 -39.6 
L 324.931765 -39.6 
L 324.357353 -39.6 
L 323.782941 -39.6 
L 323.208529 -39.6 
L 322.634118 -39.6 
L 322.059706 -39.6 
L 321.485294 -39.6 
L 320.910882 -39.6 
L 320.336471 -39.6 
L 319.762059 -39.6 
L 319.187647 -39.6 
L 318.613235 -39.6 
L 318.038824 -39.6 
L 317.464412 -39.6 
L 316.89 -39.6 
L 316.315588 -39.6 
L 315.741176 -39.6 
L 315.166765 -39.6 
L 314.592353 -39.6 
L 314.017941 -39.6 
L 313.443529 -39.6 
L 312.869118 -39.6 
L 312.294706 -39.6 
L 311.720294 -39.6 
L 311.145882 -39.6 
L 310.571471 -39.6 
L 309.997059 -39.6 
L 309.422647 -39.6 
L 308.848235 -39.6 
L 308.273824 -39.6 
L 307.699412 -39.6 
L 307.125 -39.6 
L 306.550588 -39.6 
L 305.976176 -39.6 
L 305.401765 -39.6 
L 304.827353 -39.6 
L 304.252941 -39.6 
L 303.678529 -39.6 
L 303.104118 -39.6 
L 302.529706 -39.6 
L 301.955294 -39.6 
L 301.380882 -39.6 
L 300.806471 -39.6 
L 300.232059 -39.6 
L 299.657647 -39.6 
L 299.083235 -39.6 
L 298.508824 -39.6 
L 297.934412 -39.6 
L 297.36 -39.6 
L 296.785588 -39.6 
L 296.211176 -39.6 
L 295.636765 -39.6 
L 295.062353 -39.6 
L 294.487941 -39.6 
L 293.913529 -39.6 
L 293.339118 -39.6 
L 292.764706 -39.6 
L 292.190294 -39.6 
L 291.615882 -39.6 
L 291.041471 -39.6 
L 290.467059 -39.6 
L 289.892647 -39.6 
L 289.318235 -39.6 
L 288.743824 -39.6 
L 288.169412 -39.6 
L 287.595 -39.6 
L 287.020588 -39.6 
L 286.446176 -39.6 
L 285.871765 -39.6 
L 285.297353 -39.6 
L 284.722941 -39.6 
L 284.148529 -39.6 
L 283.574118 -39.6 
L 282.999706 -39.6 
L 282.425294 -39.6 
L 281.850882 -39.6 
L 281.276471 -39.6 
L 280.702059 -39.6 
L 280.127647 -39.6 
L 279.553235 -39.6 
L 278.978824 -39.6 
L 278.404412 -39.6 
L 277.83 -39.6 
L 277.255588 -39.6 
L 276.681176 -39.6 
L 276.106765 -39.6 
L 275.532353 -39.6 
L 274.957941 -39.6 
L 274.383529 -39.6 
L 273.809118 -39.6 
L 273.234706 -39.6 
L 272.660294 -39.6 
L 272.085882 -39.6 
L 271.511471 -39.6 
L 270.937059 -39.6 
L 270.362647 -39.6 
L 269.788235 -39.6 
L 269.213824 -39.6 
L 268.639412 -39.6 
L 268.065 -39.6 
L 267.490588 -39.6 
L 266.916176 -39.6 
L 266.341765 -39.6 
L 265.767353 -39.6 
L 265.192941 -39.6 
L 264.618529 -39.6 
L 264.044118 -39.6 
L 263.469706 -39.6 
L 262.895294 -39.6 
L 262.320882 -39.6 
L 261.746471 -39.6 
L 261.172059 -39.6 
L 260.597647 -39.6 
L 260.023235 -39.6 
L 259.448824 -39.6 
L 258.874412 -39.6 
L 258.3 -39.6 
L 257.725588 -39.6 
L 257.151176 -39.6 
L 256.576765 -39.6 
L 256.002353 -39.6 
L 255.427941 -39.6 
L 254.853529 -39.6 
L 254.279118 -39.6 
L 253.704706 -39.6 
L 253.130294 -39.6 
L 252.555882 -39.6 
L 251.981471 -39.6 
L 251.407059 -39.6 
L 250.832647 -39.6 
L 250.258235 -39.6 
L 249.683824 -39.6 
L 249.109412 -39.6 
L 248.535 -39.6 
L 247.960588 -39.6 
L 247.386176 -39.6 
L 246.811765 -39.6 
L 246.237353 -39.6 
L 245.662941 -39.6 
L 245.088529 -39.6 
L 244.514118 -39.6 
L 243.939706 -39.6 
L 243.365294 -39.6 
L 242.790882 -39.6 
L 242.216471 -39.6 
L 241.642059 -39.6 
L 241.067647 -39.6 
L 240.493235 -39.6 
L 239.918824 -39.6 
L 239.344412 -39.6 
L 238.77 -39.6 
L 238.195588 -39.6 
L 237.621176 -39.6 
L 237.046765 -39.6 
L 236.472353 -39.6 
L 235.897941 -39.6 
L 235.323529 -39.6 
L 234.749118 -39.6 
L 234.174706 -39.6 
L 233.600294 -39.6 
L 233.025882 -39.6 
L 232.451471 -39.6 
L 231.877059 -39.6 
L 231.302647 -39.6 
L 230.728235 -39.6 
L 230.153824 -39.6 
L 229.579412 -39.6 
L 229.005 -39.6 
L 228.430588 -39.6 
L 227.856176 -39.6 
L 227.281765 -39.6 
L 226.707353 -39.6 
L 226.132941 -39.6 
L 225.558529 -39.6 
L 224.984118 -39.6 
L 224.409706 -39.6 
L 223.835294 -39.6 
L 223.260882 -39.6 
L 222.686471 -39.6 
L 222.112059 -39.6 
L 221.537647 -39.6 
L 220.963235 -39.6 
L 220.388824 -39.6 
L 219.814412 -39.6 
L 219.24 -39.6 
L 218.665588 -39.6 
L 218.091176 -39.6 
L 217.516765 -39.6 
L 216.942353 -39.6 
L 216.367941 -39.6 
L 215.793529 -39.6 
L 215.219118 -39.6 
L 214.644706 -39.6 
L 214.070294 -39.6 
L 213.495882 -39.6 
L 212.921471 -39.6 
L 212.347059 -39.6 
L 211.772647 -39.6 
L 211.198235 -39.6 
L 210.623824 -39.6 
L 210.049412 -39.6 
L 209.475 -39.6 
L 208.900588 -39.6 
L 208.326176 -39.6 
L 207.751765 -39.6 
L 207.177353 -39.6 
L 206.602941 -39.6 
L 206.028529 -39.6 
L 205.454118 -39.6 
L 204.879706 -39.6 
L 204.305294 -39.6 
L 203.730882 -39.6 
L 203.156471 -39.6 
L 202.582059 -39.6 
L 202.007647 -39.6 
L 201.433235 -39.6 
L 200.858824 -39.6 
L 200.284412 -39.6 
L 199.71 -39.6 
L 199.135588 -39.6 
L 198.561176 -39.6 
L 197.986765 -39.6 
L 197.412353 -39.6 
L 196.837941 -39.6 
L 196.263529 -39.6 
L 195.689118 -39.6 
L 195.114706 -39.6 
L 194.540294 -39.6 
L 193.965882 -39.6 
L 193.391471 -39.6 
L 192.817059 -39.6 
L 192.242647 -39.6 
L 191.668235 -39.6 
L 191.093824 -39.6 
L 190.519412 -39.6 
L 189.945 -39.6 
L 189.370588 -39.6 
L 188.796176 -39.6 
L 188.221765 -39.6 
L 187.647353 -39.6 
L 187.072941 -39.6 
L 186.498529 -39.6 
L 185.924118 -39.6 
L 185.349706 -39.6 
L 184.775294 -39.6 
L 184.200882 -39.6 
L 183.626471 -39.6 
L 183.052059 -39.6 
L 182.477647 -39.6 
L 181.903235 -39.6 
L 181.328824 -39.6 
L 180.754412 -39.6 
L 180.18 -39.6 
L 179.605588 -39.6 
L 179.031176 -39.6 
L 178.456765 -39.6 
L 177.882353 -39.6 
L 177.307941 -39.6 
L 176.733529 -39.6 
L 176.159118 -39.6 
L 175.584706 -39.6 
L 175.010294 -39.6 
L 174.435882 -39.6 
L 173.861471 -39.6 
L 173.287059 -39.6 
L 172.712647 -39.6 
L 172.138235 -39.6 
L 171.563824 -39.6 
L 170.989412 -39.6 
L 170.415 -39.6 
L 169.840588 -39.6 
L 169.266176 -39.6 
L 168.691765 -39.6 
L 168.117353 -39.6 
L 167.542941 -39.6 
L 166.968529 -39.6 
L 166.394118 -39.6 
L 165.819706 -39.6 
L 165.245294 -39.6 
L 164.670882 -39.6 
L 164.096471 -39.6 
L 163.522059 -39.6 
L 162.947647 -39.6 
L 162.373235 -39.6 
L 161.798824 -39.6 
L 161.224412 -39.6 
L 160.65 -39.6 
L 160.075588 -39.6 
L 159.501176 -39.6 
L 158.926765 -39.6 
L 158.352353 -39.6 
L 157.777941 -39.6 
L 157.203529 -39.6 
L 156.629118 -39.6 
L 156.054706 -39.6 
L 155.480294 -39.6 
L 154.905882 -39.6 
L 154.331471 -39.6 
L 153.757059 -39.6 
L 153.182647 -39.6 
L 152.608235 -39.6 
L 152.033824 -39.6 
L 151.459412 -39.6 
L 150.885 -39.6 
L 150.310588 -39.6 
L 149.736176 -39.6 
L 149.161765 -39.6 
L 148.587353 -39.6 
L 148.012941 -39.6 
L 147.438529 -39.6 
L 146.864118 -39.6 
L 146.289706 -39.6 
L 145.715294 -39.6 
L 145.140882 -39.6 
L 144.566471 -39.6 
L 143.992059 -39.6 
L 143.417647 -39.6 
L 142.843235 -39.6 
L 142.268824 -39.6 
L 141.694412 -39.6 
L 141.12 -39.6 
L 140.545588 -39.6 
L 139.971176 -39.6 
L 139.396765 -39.6 
L 138.822353 -39.6 
L 138.247941 -39.6 
L 137.673529 -39.6 
L 137.099118 -39.6 
L 136.524706 -39.6 
L 135.950294 -39.6 
L 135.375882 -39.6 
L 134.801471 -39.6 
L 134.227059 -39.6 
L 133.652647 -39.6 
L 133.078235 -39.6 
L 132.503824 -39.6 
L 131.929412 -39.6 
L 131.355 -39.6 
L 130.780588 -39.6 
L 130.206176 -39.6 
L 129.631765 -39.6 
L 129.057353 -39.6 
L 128.482941 -39.6 
L 127.908529 -39.6 
L 127.334118 -39.6 
L 126.759706 -39.6 
L 126.185294 -39.6 
L 125.610882 -39.6 
L 125.036471 -39.6 
L 124.462059 -39.6 
L 123.887647 -39.6 
L 123.313235 -39.6 
L 122.738824 -39.6 
L 122.164412 -39.6 
L 121.59 -39.6 
L 121.015588 -39.6 
L 120.441176 -39.6 
L 119.866765 -39.6 
L 119.292353 -39.6 
L 118.717941 -39.6 
L 118.143529 -39.6 
L 117.569118 -39.6 
L 116.994706 -39.6 
L 116.420294 -39.6 
L 115.845882 -39.6 
L 115.271471 -39.6 
L 114.697059 -39.6 
L 114.122647 -39.6 
L 113.548235 -39.6 
L 112.973824 -39.6 
L 112.399412 -39.6 
L 111.825 -39.6 
L 111.250588 -39.6 
L 110.676176 -39.6 
L 110.101765 -39.6 
L 109.527353 -39.6 
L 108.952941 -39.6 
L 108.378529 -39.6 
L 107.804118 -39.6 
L 107.229706 -39.6 
L 106.655294 -39.6 
L 106.080882 -39.6 
L 105.506471 -39.6 
L 104.932059 -39.6 
L 104.357647 -39.6 
L 103.783235 -39.6 
L 103.208824 -39.6 
L 102.634412 -39.6 
L 102.06 -39.6 
L 101.485588 -39.6 
L 100.911176 -39.6 
L 100.336765 -39.6 
L 99.762353 -39.6 
L 99.187941 -39.6 
L 98.613529 -39.6 
L 98.039118 -39.6 
L 97.464706 -39.6 
L 96.890294 -39.6 
L 96.315882 -39.6 
L 95.741471 -39.6 
L 95.167059 -39.6 
L 94.592647 -39.6 
L 94.018235 -39.6 
L 93.443824 -39.6 
L 92.869412 -39.6 
L 92.295 -39.6 
L 91.720588 -39.6 
L 91.146176 -39.6 
L 90.571765 -39.6 
L 89.997353 -39.6 
L 89.422941 -39.6 
L 88.848529 -39.6 
L 88.274118 -39.6 
L 87.699706 -39.6 
L 87.125294 -39.6 
L 86.550882 -39.6 
L 85.976471 -39.6 
L 85.402059 -39.6 
L 84.827647 -39.6 
L 84.253235 -39.6 
L 83.678824 -39.6 
L 83.104412 -39.6 
L 82.53 -39.6 
L 81.955588 -39.6 
L 81.381176 -39.6 
L 80.806765 -39.6 
L 80.232353 -48.871724 
L 79.657941 -48.871724 
L 79.083529 -54.295335 
L 78.509118 -61.128276 
L 77.934706 -67.415172 
L 77.360294 -74.900743 
L 76.785882 -82.110506 
L 76.211471 -88.60479 
L 75.637059 -96.42902 
L 75.062647 -104.811956 
L 74.488235 -113.295066 
L 73.913824 -121.81496 
L 73.339412 -130.35073 
L 72.765 -138.909634 
L 72.190588 -147.470548 
L 71.616176 -156.029891 
L 71.041765 -164.591627 
L 70.467353 -173.153402 
L 69.892941 -181.076281 
L 69.318529 -187.773162 
L 68.744118 -195.815269 
L 68.169706 -204.193869 
L 67.595294 -212.755833 
L 67.020882 -221.320577 
L 66.446471 -229.887845 
L 65.872059 -238.459606 
L 65.297647 -247.039706 
L 64.723235 -255.634992 
L 64.148824 -264.257107 
L 63.574412 -272.924284 
L 63 -279.918162 
z
" style="stroke: #008400; stroke-opacity: 0.5"/>
    </defs>
    <g clip-path="url(#pcceb728431)">
     <use xlink:href="#m382c4db734" x="0" y="360" style="fill: #008400; fill-opacity: 0.5; stroke: #008400; stroke-opacity: 0.5"/>
    </g>
   </g>
   <g id="FillBetweenPolyCollection_7">
    <defs>
     <path id="mde9eeb2ce1" d="M 63 -291.870511 
L 63 -236.725668 
L 63.574412 -230.086252 
L 64.148824 -221.518909 
L 64.723235 -212.954017 
L 65.297647 -204.390379 
L 65.872059 -195.827477 
L 66.446471 -187.265078 
L 67.020882 -178.702752 
L 67.595294 -170.14067 
L 68.169706 -161.582353 
L 68.744118 -153.109671 
L 69.318529 -144.969685 
L 69.892941 -137.35208 
L 70.467353 -129.015172 
L 71.041765 -120.4897 
L 71.616176 -111.92779 
L 72.190588 -103.413966 
L 72.765 -95.019689 
L 73.339412 -86.769551 
L 73.913824 -78.262393 
L 74.488235 -70.4 
L 75.062647 -63.567059 
L 75.637059 -58.143448 
L 76.211471 -48.871724 
L 76.785882 -48.871724 
L 77.360294 -39.6 
L 77.934706 -39.6 
L 78.509118 -39.6 
L 79.083529 -39.6 
L 79.657941 -39.6 
L 80.232353 -39.6 
L 80.806765 -39.6 
L 81.381176 -39.6 
L 81.955588 -39.6 
L 82.53 -39.6 
L 83.104412 -39.6 
L 83.678824 -39.6 
L 84.253235 -39.6 
L 84.827647 -39.6 
L 85.402059 -39.6 
L 85.976471 -39.6 
L 86.550882 -39.6 
L 87.125294 -39.6 
L 87.699706 -39.6 
L 88.274118 -39.6 
L 88.848529 -39.6 
L 89.422941 -39.6 
L 89.997353 -39.6 
L 90.571765 -39.6 
L 91.146176 -39.6 
L 91.720588 -39.6 
L 92.295 -39.6 
L 92.869412 -39.6 
L 93.443824 -39.6 
L 94.018235 -39.6 
L 94.592647 -39.6 
L 95.167059 -39.6 
L 95.741471 -39.6 
L 96.315882 -39.6 
L 96.890294 -39.6 
L 97.464706 -39.6 
L 98.039118 -39.6 
L 98.613529 -39.6 
L 99.187941 -39.6 
L 99.762353 -39.6 
L 100.336765 -39.6 
L 100.911176 -39.6 
L 101.485588 -39.6 
L 102.06 -39.6 
L 102.634412 -39.6 
L 103.208824 -39.6 
L 103.783235 -39.6 
L 104.357647 -39.6 
L 104.932059 -39.6 
L 105.506471 -39.6 
L 106.080882 -39.6 
L 106.655294 -39.6 
L 107.229706 -39.6 
L 107.804118 -39.6 
L 108.378529 -39.6 
L 108.952941 -39.6 
L 109.527353 -39.6 
L 110.101765 -39.6 
L 110.676176 -39.6 
L 111.250588 -39.6 
L 111.825 -39.6 
L 112.399412 -39.6 
L 112.973824 -39.6 
L 113.548235 -39.6 
L 114.122647 -39.6 
L 114.697059 -39.6 
L 115.271471 -39.6 
L 115.845882 -39.6 
L 116.420294 -39.6 
L 116.994706 -39.6 
L 117.569118 -39.6 
L 118.143529 -39.6 
L 118.717941 -39.6 
L 119.292353 -39.6 
L 119.866765 -39.6 
L 120.441176 -39.6 
L 121.015588 -39.6 
L 121.59 -39.6 
L 122.164412 -39.6 
L 122.738824 -39.6 
L 123.313235 -39.6 
L 123.887647 -39.6 
L 124.462059 -39.6 
L 125.036471 -39.6 
L 125.610882 -39.6 
L 126.185294 -39.6 
L 126.759706 -39.6 
L 127.334118 -39.6 
L 127.908529 -39.6 
L 128.482941 -39.6 
L 129.057353 -39.6 
L 129.631765 -39.6 
L 130.206176 -39.6 
L 130.780588 -39.6 
L 131.355 -39.6 
L 131.929412 -39.6 
L 132.503824 -39.6 
L 133.078235 -39.6 
L 133.652647 -39.6 
L 134.227059 -39.6 
L 134.801471 -39.6 
L 135.375882 -39.6 
L 135.950294 -39.6 
L 136.524706 -39.6 
L 137.099118 -39.6 
L 137.673529 -39.6 
L 138.247941 -39.6 
L 138.822353 -39.6 
L 139.396765 -39.6 
L 139.971176 -39.6 
L 140.545588 -39.6 
L 141.12 -39.6 
L 141.694412 -39.6 
L 142.268824 -39.6 
L 142.843235 -39.6 
L 143.417647 -39.6 
L 143.992059 -39.6 
L 144.566471 -39.6 
L 145.140882 -39.6 
L 145.715294 -39.6 
L 146.289706 -39.6 
L 146.864118 -39.6 
L 147.438529 -39.6 
L 148.012941 -39.6 
L 148.587353 -39.6 
L 149.161765 -39.6 
L 149.736176 -39.6 
L 150.310588 -39.6 
L 150.885 -39.6 
L 151.459412 -39.6 
L 152.033824 -39.6 
L 152.608235 -39.6 
L 153.182647 -39.6 
L 153.757059 -39.6 
L 154.331471 -39.6 
L 154.905882 -39.6 
L 155.480294 -39.6 
L 156.054706 -39.6 
L 156.629118 -39.6 
L 157.203529 -39.6 
L 157.777941 -39.6 
L 158.352353 -39.6 
L 158.926765 -39.6 
L 159.501176 -39.6 
L 160.075588 -39.6 
L 160.65 -39.6 
L 161.224412 -39.6 
L 161.798824 -39.6 
L 162.373235 -39.6 
L 162.947647 -39.6 
L 163.522059 -39.6 
L 164.096471 -39.6 
L 164.670882 -39.6 
L 165.245294 -39.6 
L 165.819706 -39.6 
L 166.394118 -39.6 
L 166.968529 -39.6 
L 167.542941 -39.6 
L 168.117353 -39.6 
L 168.691765 -39.6 
L 169.266176 -39.6 
L 169.840588 -39.6 
L 170.415 -39.6 
L 170.989412 -39.6 
L 171.563824 -39.6 
L 172.138235 -39.6 
L 172.712647 -39.6 
L 173.287059 -39.6 
L 173.861471 -39.6 
L 174.435882 -39.6 
L 175.010294 -39.6 
L 175.584706 -39.6 
L 176.159118 -39.6 
L 176.733529 -39.6 
L 177.307941 -39.6 
L 177.882353 -39.6 
L 178.456765 -39.6 
L 179.031176 -39.6 
L 179.605588 -39.6 
L 180.18 -39.6 
L 180.754412 -39.6 
L 181.328824 -39.6 
L 181.903235 -39.6 
L 182.477647 -39.6 
L 183.052059 -39.6 
L 183.626471 -39.6 
L 184.200882 -39.6 
L 184.775294 -39.6 
L 185.349706 -39.6 
L 185.924118 -39.6 
L 186.498529 -39.6 
L 187.072941 -39.6 
L 187.647353 -39.6 
L 188.221765 -39.6 
L 188.796176 -39.6 
L 189.370588 -39.6 
L 189.945 -39.6 
L 190.519412 -39.6 
L 191.093824 -39.6 
L 191.668235 -39.6 
L 192.242647 -39.6 
L 192.817059 -39.6 
L 193.391471 -39.6 
L 193.965882 -39.6 
L 194.540294 -39.6 
L 195.114706 -39.6 
L 195.689118 -39.6 
L 196.263529 -39.6 
L 196.837941 -39.6 
L 197.412353 -39.6 
L 197.986765 -39.6 
L 198.561176 -39.6 
L 199.135588 -39.6 
L 199.71 -39.6 
L 200.284412 -39.6 
L 200.858824 -39.6 
L 201.433235 -39.6 
L 202.007647 -39.6 
L 202.582059 -39.6 
L 203.156471 -39.6 
L 203.730882 -39.6 
L 204.305294 -39.6 
L 204.879706 -39.6 
L 205.454118 -39.6 
L 206.028529 -39.6 
L 206.602941 -39.6 
L 207.177353 -39.6 
L 207.751765 -39.6 
L 208.326176 -39.6 
L 208.900588 -39.6 
L 209.475 -39.6 
L 210.049412 -39.6 
L 210.623824 -39.6 
L 211.198235 -39.6 
L 211.772647 -39.6 
L 212.347059 -39.6 
L 212.921471 -39.6 
L 213.495882 -39.6 
L 214.070294 -39.6 
L 214.644706 -39.6 
L 215.219118 -39.6 
L 215.793529 -39.6 
L 216.367941 -39.6 
L 216.942353 -39.6 
L 217.516765 -39.6 
L 218.091176 -39.6 
L 218.665588 -39.6 
L 219.24 -39.6 
L 219.814412 -39.6 
L 220.388824 -39.6 
L 220.963235 -39.6 
L 221.537647 -39.6 
L 222.112059 -39.6 
L 222.686471 -39.6 
L 223.260882 -39.6 
L 223.835294 -39.6 
L 224.409706 -39.6 
L 224.984118 -39.6 
L 225.558529 -39.6 
L 226.132941 -39.6 
L 226.707353 -39.6 
L 227.281765 -39.6 
L 227.856176 -39.6 
L 228.430588 -39.6 
L 229.005 -39.6 
L 229.579412 -39.6 
L 230.153824 -39.6 
L 230.728235 -39.6 
L 231.302647 -39.6 
L 231.877059 -39.6 
L 232.451471 -39.6 
L 233.025882 -39.6 
L 233.600294 -39.6 
L 234.174706 -39.6 
L 234.749118 -39.6 
L 235.323529 -39.6 
L 235.897941 -39.6 
L 236.472353 -39.6 
L 237.046765 -39.6 
L 237.621176 -39.6 
L 238.195588 -39.6 
L 238.77 -39.6 
L 239.344412 -39.6 
L 239.918824 -39.6 
L 240.493235 -39.6 
L 241.067647 -39.6 
L 241.642059 -39.6 
L 242.216471 -39.6 
L 242.790882 -39.6 
L 243.365294 -39.6 
L 243.939706 -39.6 
L 244.514118 -39.6 
L 245.088529 -39.6 
L 245.662941 -39.6 
L 246.237353 -39.6 
L 246.811765 -39.6 
L 247.386176 -39.6 
L 247.960588 -39.6 
L 248.535 -39.6 
L 249.109412 -39.6 
L 249.683824 -39.6 
L 250.258235 -39.6 
L 250.832647 -39.6 
L 251.407059 -39.6 
L 251.981471 -39.6 
L 252.555882 -39.6 
L 253.130294 -39.6 
L 253.704706 -39.6 
L 254.279118 -39.6 
L 254.853529 -39.6 
L 255.427941 -39.6 
L 256.002353 -39.6 
L 256.576765 -39.6 
L 257.151176 -39.6 
L 257.725588 -39.6 
L 258.3 -39.6 
L 258.874412 -39.6 
L 259.448824 -39.6 
L 260.023235 -39.6 
L 260.597647 -39.6 
L 261.172059 -39.6 
L 261.746471 -39.6 
L 262.320882 -39.6 
L 262.895294 -39.6 
L 263.469706 -39.6 
L 264.044118 -39.6 
L 264.618529 -39.6 
L 265.192941 -39.6 
L 265.767353 -39.6 
L 266.341765 -39.6 
L 266.916176 -39.6 
L 267.490588 -39.6 
L 268.065 -39.6 
L 268.639412 -39.6 
L 269.213824 -39.6 
L 269.788235 -39.6 
L 270.362647 -39.6 
L 270.937059 -39.6 
L 271.511471 -39.6 
L 272.085882 -39.6 
L 272.660294 -39.6 
L 273.234706 -39.6 
L 273.809118 -39.6 
L 274.383529 -39.6 
L 274.957941 -39.6 
L 275.532353 -39.6 
L 276.106765 -39.6 
L 276.681176 -39.6 
L 277.255588 -39.6 
L 277.83 -39.6 
L 278.404412 -39.6 
L 278.978824 -39.6 
L 279.553235 -39.6 
L 280.127647 -39.6 
L 280.702059 -39.6 
L 281.276471 -39.6 
L 281.850882 -39.6 
L 282.425294 -39.6 
L 282.999706 -39.6 
L 283.574118 -39.6 
L 284.148529 -39.6 
L 284.722941 -39.6 
L 285.297353 -39.6 
L 285.871765 -39.6 
L 286.446176 -39.6 
L 287.020588 -39.6 
L 287.595 -39.6 
L 288.169412 -39.6 
L 288.743824 -39.6 
L 289.318235 -39.6 
L 289.892647 -39.6 
L 290.467059 -39.6 
L 291.041471 -39.6 
L 291.615882 -39.6 
L 292.190294 -39.6 
L 292.764706 -39.6 
L 293.339118 -39.6 
L 293.913529 -39.6 
L 294.487941 -39.6 
L 295.062353 -39.6 
L 295.636765 -39.6 
L 296.211176 -39.6 
L 296.785588 -39.6 
L 297.36 -39.6 
L 297.934412 -39.6 
L 298.508824 -39.6 
L 299.083235 -39.6 
L 299.657647 -39.6 
L 300.232059 -39.6 
L 300.806471 -39.6 
L 301.380882 -39.6 
L 301.955294 -39.6 
L 302.529706 -39.6 
L 303.104118 -39.6 
L 303.678529 -39.6 
L 304.252941 -39.6 
L 304.827353 -39.6 
L 305.401765 -39.6 
L 305.976176 -39.6 
L 306.550588 -39.6 
L 307.125 -39.6 
L 307.699412 -39.6 
L 308.273824 -39.6 
L 308.848235 -39.6 
L 309.422647 -39.6 
L 309.997059 -39.6 
L 310.571471 -39.6 
L 311.145882 -39.6 
L 311.720294 -39.6 
L 312.294706 -39.6 
L 312.869118 -39.6 
L 313.443529 -39.6 
L 314.017941 -39.6 
L 314.592353 -39.6 
L 315.166765 -39.6 
L 315.741176 -39.6 
L 316.315588 -39.6 
L 316.89 -39.6 
L 317.464412 -39.6 
L 318.038824 -39.6 
L 318.613235 -39.6 
L 319.187647 -39.6 
L 319.762059 -39.6 
L 320.336471 -39.6 
L 320.910882 -39.6 
L 321.485294 -39.6 
L 322.059706 -39.6 
L 322.634118 -39.6 
L 323.208529 -39.6 
L 323.782941 -39.6 
L 324.357353 -39.6 
L 324.931765 -39.6 
L 325.506176 -39.6 
L 326.080588 -39.6 
L 326.655 -39.6 
L 327.229412 -39.6 
L 327.803824 -39.6 
L 328.378235 -39.6 
L 328.952647 -39.6 
L 329.527059 -39.6 
L 330.101471 -39.6 
L 330.675882 -39.6 
L 331.250294 -39.6 
L 331.824706 -39.6 
L 332.399118 -39.6 
L 332.973529 -39.6 
L 333.547941 -39.6 
L 334.122353 -39.6 
L 334.696765 -39.6 
L 335.271176 -39.6 
L 335.845588 -39.6 
L 336.42 -39.6 
L 336.994412 -39.6 
L 337.568824 -39.6 
L 338.143235 -39.6 
L 338.717647 -39.6 
L 339.292059 -39.6 
L 339.866471 -39.6 
L 340.440882 -39.6 
L 341.015294 -39.6 
L 341.589706 -39.6 
L 342.164118 -39.6 
L 342.738529 -39.6 
L 343.312941 -39.6 
L 343.887353 -39.6 
L 344.461765 -39.6 
L 345.036176 -39.6 
L 345.610588 -39.6 
L 346.185 -39.6 
L 346.759412 -39.6 
L 347.333824 -39.6 
L 347.908235 -39.6 
L 348.482647 -39.6 
L 349.057059 -39.6 
L 349.631471 -39.6 
L 350.205882 -39.6 
L 350.780294 -39.6 
L 351.354706 -39.6 
L 351.929118 -39.6 
L 352.503529 -39.6 
L 353.077941 -39.6 
L 353.652353 -39.6 
L 354.226765 -39.6 
L 354.801176 -39.6 
L 355.375588 -39.6 
L 355.95 -39.6 
L 356.524412 -39.6 
L 357.098824 -39.6 
L 357.673235 -39.6 
L 358.247647 -39.6 
L 358.822059 -39.6 
L 359.396471 -39.6 
L 359.970882 -39.6 
L 360.545294 -39.6 
L 361.119706 -39.6 
L 361.694118 -39.6 
L 362.268529 -39.6 
L 362.842941 -39.6 
L 363.417353 -39.6 
L 363.991765 -39.6 
L 364.566176 -39.6 
L 365.140588 -39.6 
L 365.715 -39.6 
L 366.289412 -39.6 
L 366.863824 -39.6 
L 367.438235 -39.6 
L 368.012647 -39.6 
L 368.587059 -39.6 
L 369.161471 -39.6 
L 369.735882 -39.6 
L 370.310294 -39.6 
L 370.884706 -39.6 
L 371.459118 -39.6 
L 372.033529 -39.6 
L 372.607941 -39.6 
L 373.182353 -39.6 
L 373.756765 -39.6 
L 374.331176 -39.6 
L 374.905588 -39.6 
L 375.48 -39.6 
L 376.054412 -39.6 
L 376.628824 -39.6 
L 377.203235 -39.6 
L 377.777647 -39.6 
L 378.352059 -39.6 
L 378.926471 -39.6 
L 379.500882 -39.6 
L 380.075294 -39.6 
L 380.649706 -39.6 
L 381.224118 -39.6 
L 381.798529 -39.6 
L 382.372941 -39.6 
L 382.947353 -39.6 
L 383.521765 -39.6 
L 384.096176 -39.6 
L 384.670588 -39.6 
L 385.245 -39.6 
L 385.819412 -39.6 
L 386.393824 -39.6 
L 386.968235 -39.6 
L 387.542647 -39.6 
L 388.117059 -39.6 
L 388.691471 -39.6 
L 389.265882 -39.6 
L 389.840294 -39.6 
L 390.414706 -39.6 
L 390.989118 -39.6 
L 391.563529 -39.6 
L 392.137941 -39.6 
L 392.712353 -39.6 
L 393.286765 -39.6 
L 393.861176 -39.6 
L 394.435588 -39.6 
L 395.01 -39.6 
L 395.584412 -39.6 
L 396.158824 -39.6 
L 396.733235 -39.6 
L 397.307647 -39.6 
L 397.882059 -39.6 
L 398.456471 -39.6 
L 399.030882 -39.6 
L 399.605294 -39.6 
L 400.179706 -39.6 
L 400.754118 -39.6 
L 401.328529 -39.6 
L 401.902941 -39.6 
L 402.477353 -39.6 
L 403.051765 -39.6 
L 403.626176 -39.6 
L 404.200588 -39.6 
L 404.775 -39.6 
L 405.349412 -39.6 
L 405.923824 -39.6 
L 406.498235 -39.6 
L 407.072647 -39.6 
L 407.647059 -39.6 
L 408.221471 -39.6 
L 408.795882 -39.6 
L 409.370294 -39.6 
L 409.944706 -39.6 
L 410.519118 -39.6 
L 411.093529 -39.6 
L 411.667941 -39.6 
L 412.242353 -39.6 
L 412.816765 -39.6 
L 413.391176 -39.6 
L 413.965588 -39.6 
L 414.54 -39.6 
L 415.114412 -39.6 
L 415.688824 -39.6 
L 416.263235 -39.6 
L 416.837647 -39.6 
L 417.412059 -39.6 
L 417.986471 -39.6 
L 418.560882 -39.6 
L 419.135294 -39.6 
L 419.709706 -39.6 
L 420.284118 -39.6 
L 420.858529 -39.6 
L 421.432941 -39.6 
L 422.007353 -39.6 
L 422.581765 -39.6 
L 423.156176 -39.6 
L 423.730588 -39.6 
L 424.305 -39.6 
L 424.879412 -39.6 
L 425.453824 -39.6 
L 426.028235 -39.6 
L 426.602647 -39.6 
L 427.177059 -39.6 
L 427.751471 -39.6 
L 428.325882 -39.6 
L 428.900294 -39.6 
L 429.474706 -39.6 
L 430.049118 -39.6 
L 430.623529 -39.6 
L 431.197941 -39.6 
L 431.772353 -39.6 
L 432.346765 -39.6 
L 432.921176 -39.6 
L 433.495588 -39.6 
L 434.07 -39.6 
L 434.644412 -39.6 
L 435.218824 -39.6 
L 435.793235 -39.6 
L 436.367647 -39.6 
L 436.942059 -39.6 
L 437.516471 -39.6 
L 438.090882 -39.6 
L 438.665294 -39.6 
L 439.239706 -39.6 
L 439.814118 -39.6 
L 440.388529 -39.6 
L 440.962941 -39.6 
L 441.537353 -39.6 
L 442.111765 -39.6 
L 442.686176 -39.6 
L 443.260588 -39.6 
L 443.835 -39.6 
L 444.409412 -39.6 
L 444.983824 -39.6 
L 445.558235 -39.6 
L 446.132647 -39.6 
L 446.707059 -39.6 
L 447.281471 -39.6 
L 447.855882 -39.6 
L 448.430294 -39.6 
L 448.430294 -39.6 
L 448.430294 -39.6 
L 447.855882 -39.6 
L 447.281471 -39.6 
L 446.707059 -39.6 
L 446.132647 -39.6 
L 445.558235 -39.6 
L 444.983824 -39.6 
L 444.409412 -39.6 
L 443.835 -39.6 
L 443.260588 -39.6 
L 442.686176 -39.6 
L 442.111765 -39.6 
L 441.537353 -39.6 
L 440.962941 -39.6 
L 440.388529 -39.6 
L 439.814118 -39.6 
L 439.239706 -39.6 
L 438.665294 -39.6 
L 438.090882 -39.6 
L 437.516471 -39.6 
L 436.942059 -39.6 
L 436.367647 -39.6 
L 435.793235 -39.6 
L 435.218824 -39.6 
L 434.644412 -39.6 
L 434.07 -39.6 
L 433.495588 -39.6 
L 432.921176 -39.6 
L 432.346765 -39.6 
L 431.772353 -39.6 
L 431.197941 -39.6 
L 430.623529 -39.6 
L 430.049118 -39.6 
L 429.474706 -39.6 
L 428.900294 -39.6 
L 428.325882 -39.6 
L 427.751471 -39.6 
L 427.177059 -39.6 
L 426.602647 -39.6 
L 426.028235 -39.6 
L 425.453824 -39.6 
L 424.879412 -39.6 
L 424.305 -39.6 
L 423.730588 -39.6 
L 423.156176 -39.6 
L 422.581765 -39.6 
L 422.007353 -39.6 
L 421.432941 -39.6 
L 420.858529 -39.6 
L 420.284118 -39.6 
L 419.709706 -39.6 
L 419.135294 -39.6 
L 418.560882 -39.6 
L 417.986471 -39.6 
L 417.412059 -39.6 
L 416.837647 -39.6 
L 416.263235 -39.6 
L 415.688824 -39.6 
L 415.114412 -39.6 
L 414.54 -39.6 
L 413.965588 -39.6 
L 413.391176 -39.6 
L 412.816765 -39.6 
L 412.242353 -39.6 
L 411.667941 -39.6 
L 411.093529 -39.6 
L 410.519118 -39.6 
L 409.944706 -39.6 
L 409.370294 -39.6 
L 408.795882 -39.6 
L 408.221471 -39.6 
L 407.647059 -39.6 
L 407.072647 -39.6 
L 406.498235 -39.6 
L 405.923824 -39.6 
L 405.349412 -39.6 
L 404.775 -39.6 
L 404.200588 -39.6 
L 403.626176 -39.6 
L 403.051765 -39.6 
L 402.477353 -39.6 
L 401.902941 -39.6 
L 401.328529 -39.6 
L 400.754118 -39.6 
L 400.179706 -39.6 
L 399.605294 -39.6 
L 399.030882 -39.6 
L 398.456471 -39.6 
L 397.882059 -39.6 
L 397.307647 -39.6 
L 396.733235 -39.6 
L 396.158824 -39.6 
L 395.584412 -39.6 
L 395.01 -39.6 
L 394.435588 -39.6 
L 393.861176 -39.6 
L 393.286765 -39.6 
L 392.712353 -39.6 
L 392.137941 -39.6 
L 391.563529 -39.6 
L 390.989118 -39.6 
L 390.414706 -39.6 
L 389.840294 -39.6 
L 389.265882 -39.6 
L 388.691471 -39.6 
L 388.117059 -39.6 
L 387.542647 -39.6 
L 386.968235 -39.6 
L 386.393824 -39.6 
L 385.819412 -39.6 
L 385.245 -39.6 
L 384.670588 -39.6 
L 384.096176 -39.6 
L 383.521765 -39.6 
L 382.947353 -39.6 
L 382.372941 -39.6 
L 381.798529 -39.6 
L 381.224118 -39.6 
L 380.649706 -39.6 
L 380.075294 -39.6 
L 379.500882 -39.6 
L 378.926471 -39.6 
L 378.352059 -39.6 
L 377.777647 -39.6 
L 377.203235 -39.6 
L 376.628824 -39.6 
L 376.054412 -39.6 
L 375.48 -39.6 
L 374.905588 -39.6 
L 374.331176 -39.6 
L 373.756765 -39.6 
L 373.182353 -39.6 
L 372.607941 -39.6 
L 372.033529 -39.6 
L 371.459118 -39.6 
L 370.884706 -39.6 
L 370.310294 -39.6 
L 369.735882 -39.6 
L 369.161471 -39.6 
L 368.587059 -39.6 
L 368.012647 -39.6 
L 367.438235 -39.6 
L 366.863824 -39.6 
L 366.289412 -39.6 
L 365.715 -39.6 
L 365.140588 -39.6 
L 364.566176 -39.6 
L 363.991765 -39.6 
L 363.417353 -39.6 
L 362.842941 -39.6 
L 362.268529 -39.6 
L 361.694118 -39.6 
L 361.119706 -39.6 
L 360.545294 -39.6 
L 359.970882 -39.6 
L 359.396471 -39.6 
L 358.822059 -39.6 
L 358.247647 -39.6 
L 357.673235 -39.6 
L 357.098824 -39.6 
L 356.524412 -39.6 
L 355.95 -39.6 
L 355.375588 -39.6 
L 354.801176 -39.6 
L 354.226765 -39.6 
L 353.652353 -39.6 
L 353.077941 -39.6 
L 352.503529 -39.6 
L 351.929118 -39.6 
L 351.354706 -39.6 
L 350.780294 -39.6 
L 350.205882 -39.6 
L 349.631471 -39.6 
L 349.057059 -39.6 
L 348.482647 -39.6 
L 347.908235 -39.6 
L 347.333824 -39.6 
L 346.759412 -39.6 
L 346.185 -39.6 
L 345.610588 -39.6 
L 345.036176 -39.6 
L 344.461765 -39.6 
L 343.887353 -39.6 
L 343.312941 -39.6 
L 342.738529 -39.6 
L 342.164118 -39.6 
L 341.589706 -39.6 
L 341.015294 -39.6 
L 340.440882 -39.6 
L 339.866471 -39.6 
L 339.292059 -39.6 
L 338.717647 -39.6 
L 338.143235 -39.6 
L 337.568824 -39.6 
L 336.994412 -39.6 
L 336.42 -39.6 
L 335.845588 -39.6 
L 335.271176 -39.6 
L 334.696765 -39.6 
L 334.122353 -39.6 
L 333.547941 -39.6 
L 332.973529 -39.6 
L 332.399118 -39.6 
L 331.824706 -39.6 
L 331.250294 -39.6 
L 330.675882 -39.6 
L 330.101471 -39.6 
L 329.527059 -39.6 
L 328.952647 -39.6 
L 328.378235 -39.6 
L 327.803824 -39.6 
L 327.229412 -39.6 
L 326.655 -39.6 
L 326.080588 -39.6 
L 325.506176 -39.6 
L 324.931765 -39.6 
L 324.357353 -39.6 
L 323.782941 -39.6 
L 323.208529 -39.6 
L 322.634118 -39.6 
L 322.059706 -39.6 
L 321.485294 -39.6 
L 320.910882 -39.6 
L 320.336471 -39.6 
L 319.762059 -39.6 
L 319.187647 -39.6 
L 318.613235 -39.6 
L 318.038824 -39.6 
L 317.464412 -39.6 
L 316.89 -39.6 
L 316.315588 -39.6 
L 315.741176 -39.6 
L 315.166765 -39.6 
L 314.592353 -39.6 
L 314.017941 -39.6 
L 313.443529 -39.6 
L 312.869118 -39.6 
L 312.294706 -39.6 
L 311.720294 -39.6 
L 311.145882 -39.6 
L 310.571471 -39.6 
L 309.997059 -39.6 
L 309.422647 -39.6 
L 308.848235 -39.6 
L 308.273824 -39.6 
L 307.699412 -39.6 
L 307.125 -39.6 
L 306.550588 -39.6 
L 305.976176 -39.6 
L 305.401765 -39.6 
L 304.827353 -39.6 
L 304.252941 -39.6 
L 303.678529 -39.6 
L 303.104118 -39.6 
L 302.529706 -39.6 
L 301.955294 -39.6 
L 301.380882 -39.6 
L 300.806471 -39.6 
L 300.232059 -39.6 
L 299.657647 -39.6 
L 299.083235 -39.6 
L 298.508824 -39.6 
L 297.934412 -39.6 
L 297.36 -39.6 
L 296.785588 -39.6 
L 296.211176 -39.6 
L 295.636765 -39.6 
L 295.062353 -39.6 
L 294.487941 -39.6 
L 293.913529 -39.6 
L 293.339118 -39.6 
L 292.764706 -39.6 
L 292.190294 -39.6 
L 291.615882 -39.6 
L 291.041471 -39.6 
L 290.467059 -39.6 
L 289.892647 -39.6 
L 289.318235 -39.6 
L 288.743824 -39.6 
L 288.169412 -39.6 
L 287.595 -39.6 
L 287.020588 -39.6 
L 286.446176 -39.6 
L 285.871765 -39.6 
L 285.297353 -39.6 
L 284.722941 -39.6 
L 284.148529 -39.6 
L 283.574118 -39.6 
L 282.999706 -39.6 
L 282.425294 -39.6 
L 281.850882 -39.6 
L 281.276471 -39.6 
L 280.702059 -39.6 
L 280.127647 -39.6 
L 279.553235 -39.6 
L 278.978824 -39.6 
L 278.404412 -39.6 
L 277.83 -39.6 
L 277.255588 -39.6 
L 276.681176 -39.6 
L 276.106765 -39.6 
L 275.532353 -39.6 
L 274.957941 -39.6 
L 274.383529 -39.6 
L 273.809118 -39.6 
L 273.234706 -39.6 
L 272.660294 -39.6 
L 272.085882 -39.6 
L 271.511471 -39.6 
L 270.937059 -39.6 
L 270.362647 -39.6 
L 269.788235 -39.6 
L 269.213824 -39.6 
L 268.639412 -39.6 
L 268.065 -39.6 
L 267.490588 -39.6 
L 266.916176 -39.6 
L 266.341765 -39.6 
L 265.767353 -39.6 
L 265.192941 -39.6 
L 264.618529 -39.6 
L 264.044118 -39.6 
L 263.469706 -39.6 
L 262.895294 -39.6 
L 262.320882 -39.6 
L 261.746471 -39.6 
L 261.172059 -39.6 
L 260.597647 -39.6 
L 260.023235 -39.6 
L 259.448824 -39.6 
L 258.874412 -39.6 
L 258.3 -39.6 
L 257.725588 -39.6 
L 257.151176 -39.6 
L 256.576765 -39.6 
L 256.002353 -39.6 
L 255.427941 -39.6 
L 254.853529 -39.6 
L 254.279118 -39.6 
L 253.704706 -39.6 
L 253.130294 -39.6 
L 252.555882 -39.6 
L 251.981471 -39.6 
L 251.407059 -39.6 
L 250.832647 -39.6 
L 250.258235 -39.6 
L 249.683824 -39.6 
L 249.109412 -39.6 
L 248.535 -39.6 
L 247.960588 -39.6 
L 247.386176 -39.6 
L 246.811765 -39.6 
L 246.237353 -39.6 
L 245.662941 -39.6 
L 245.088529 -39.6 
L 244.514118 -39.6 
L 243.939706 -39.6 
L 243.365294 -39.6 
L 242.790882 -39.6 
L 242.216471 -39.6 
L 241.642059 -39.6 
L 241.067647 -39.6 
L 240.493235 -39.6 
L 239.918824 -39.6 
L 239.344412 -39.6 
L 238.77 -39.6 
L 238.195588 -39.6 
L 237.621176 -39.6 
L 237.046765 -39.6 
L 236.472353 -39.6 
L 235.897941 -39.6 
L 235.323529 -39.6 
L 234.749118 -39.6 
L 234.174706 -39.6 
L 233.600294 -39.6 
L 233.025882 -39.6 
L 232.451471 -39.6 
L 231.877059 -39.6 
L 231.302647 -39.6 
L 230.728235 -39.6 
L 230.153824 -39.6 
L 229.579412 -39.6 
L 229.005 -39.6 
L 228.430588 -39.6 
L 227.856176 -39.6 
L 227.281765 -39.6 
L 226.707353 -39.6 
L 226.132941 -39.6 
L 225.558529 -39.6 
L 224.984118 -39.6 
L 224.409706 -39.6 
L 223.835294 -39.6 
L 223.260882 -39.6 
L 222.686471 -39.6 
L 222.112059 -39.6 
L 221.537647 -39.6 
L 220.963235 -39.6 
L 220.388824 -39.6 
L 219.814412 -39.6 
L 219.24 -39.6 
L 218.665588 -39.6 
L 218.091176 -39.6 
L 217.516765 -39.6 
L 216.942353 -39.6 
L 216.367941 -39.6 
L 215.793529 -39.6 
L 215.219118 -39.6 
L 214.644706 -39.6 
L 214.070294 -39.6 
L 213.495882 -39.6 
L 212.921471 -39.6 
L 212.347059 -39.6 
L 211.772647 -39.6 
L 211.198235 -39.6 
L 210.623824 -39.6 
L 210.049412 -39.6 
L 209.475 -39.6 
L 208.900588 -39.6 
L 208.326176 -39.6 
L 207.751765 -39.6 
L 207.177353 -39.6 
L 206.602941 -39.6 
L 206.028529 -39.6 
L 205.454118 -39.6 
L 204.879706 -39.6 
L 204.305294 -39.6 
L 203.730882 -39.6 
L 203.156471 -39.6 
L 202.582059 -39.6 
L 202.007647 -39.6 
L 201.433235 -39.6 
L 200.858824 -39.6 
L 200.284412 -39.6 
L 199.71 -39.6 
L 199.135588 -39.6 
L 198.561176 -39.6 
L 197.986765 -39.6 
L 197.412353 -39.6 
L 196.837941 -39.6 
L 196.263529 -39.6 
L 195.689118 -39.6 
L 195.114706 -39.6 
L 194.540294 -39.6 
L 193.965882 -39.6 
L 193.391471 -39.6 
L 192.817059 -39.6 
L 192.242647 -39.6 
L 191.668235 -39.6 
L 191.093824 -39.6 
L 190.519412 -39.6 
L 189.945 -39.6 
L 189.370588 -39.6 
L 188.796176 -39.6 
L 188.221765 -39.6 
L 187.647353 -39.6 
L 187.072941 -39.6 
L 186.498529 -39.6 
L 185.924118 -39.6 
L 185.349706 -39.6 
L 184.775294 -39.6 
L 184.200882 -39.6 
L 183.626471 -39.6 
L 183.052059 -39.6 
L 182.477647 -39.6 
L 181.903235 -39.6 
L 181.328824 -39.6 
L 180.754412 -39.6 
L 180.18 -39.6 
L 179.605588 -39.6 
L 179.031176 -39.6 
L 178.456765 -39.6 
L 177.882353 -39.6 
L 177.307941 -39.6 
L 176.733529 -39.6 
L 176.159118 -39.6 
L 175.584706 -39.6 
L 175.010294 -39.6 
L 174.435882 -39.6 
L 173.861471 -39.6 
L 173.287059 -39.6 
L 172.712647 -39.6 
L 172.138235 -39.6 
L 171.563824 -39.6 
L 170.989412 -39.6 
L 170.415 -39.6 
L 169.840588 -39.6 
L 169.266176 -39.6 
L 168.691765 -39.6 
L 168.117353 -39.6 
L 167.542941 -39.6 
L 166.968529 -39.6 
L 166.394118 -39.6 
L 165.819706 -39.6 
L 165.245294 -39.6 
L 164.670882 -39.6 
L 164.096471 -39.6 
L 163.522059 -39.6 
L 162.947647 -39.6 
L 162.373235 -39.6 
L 161.798824 -39.6 
L 161.224412 -39.6 
L 160.65 -39.6 
L 160.075588 -39.6 
L 159.501176 -39.6 
L 158.926765 -39.6 
L 158.352353 -39.6 
L 157.777941 -39.6 
L 157.203529 -39.6 
L 156.629118 -39.6 
L 156.054706 -39.6 
L 155.480294 -39.6 
L 154.905882 -39.6 
L 154.331471 -39.6 
L 153.757059 -39.6 
L 153.182647 -39.6 
L 152.608235 -39.6 
L 152.033824 -39.6 
L 151.459412 -39.6 
L 150.885 -39.6 
L 150.310588 -39.6 
L 149.736176 -39.6 
L 149.161765 -39.6 
L 148.587353 -39.6 
L 148.012941 -39.6 
L 147.438529 -39.6 
L 146.864118 -39.6 
L 146.289706 -39.6 
L 145.715294 -39.6 
L 145.140882 -39.6 
L 144.566471 -39.6 
L 143.992059 -39.6 
L 143.417647 -39.6 
L 142.843235 -39.6 
L 142.268824 -39.6 
L 141.694412 -39.6 
L 141.12 -39.6 
L 140.545588 -39.6 
L 139.971176 -39.6 
L 139.396765 -39.6 
L 138.822353 -39.6 
L 138.247941 -39.6 
L 137.673529 -39.6 
L 137.099118 -39.6 
L 136.524706 -39.6 
L 135.950294 -39.6 
L 135.375882 -39.6 
L 134.801471 -39.6 
L 134.227059 -39.6 
L 133.652647 -39.6 
L 133.078235 -39.6 
L 132.503824 -39.6 
L 131.929412 -39.6 
L 131.355 -39.6 
L 130.780588 -39.6 
L 130.206176 -39.6 
L 129.631765 -39.6 
L 129.057353 -39.6 
L 128.482941 -39.6 
L 127.908529 -39.6 
L 127.334118 -39.6 
L 126.759706 -39.6 
L 126.185294 -39.6 
L 125.610882 -39.6 
L 125.036471 -39.6 
L 124.462059 -39.6 
L 123.887647 -39.6 
L 123.313235 -39.6 
L 122.738824 -39.6 
L 122.164412 -39.6 
L 121.59 -39.6 
L 121.015588 -39.6 
L 120.441176 -39.6 
L 119.866765 -39.6 
L 119.292353 -39.6 
L 118.717941 -39.6 
L 118.143529 -39.6 
L 117.569118 -39.6 
L 116.994706 -39.6 
L 116.420294 -39.6 
L 115.845882 -39.6 
L 115.271471 -39.6 
L 114.697059 -39.6 
L 114.122647 -39.6 
L 113.548235 -39.6 
L 112.973824 -39.6 
L 112.399412 -39.6 
L 111.825 -39.6 
L 111.250588 -39.6 
L 110.676176 -39.6 
L 110.101765 -39.6 
L 109.527353 -39.6 
L 108.952941 -39.6 
L 108.378529 -39.6 
L 107.804118 -39.6 
L 107.229706 -39.6 
L 106.655294 -39.6 
L 106.080882 -39.6 
L 105.506471 -39.6 
L 104.932059 -39.6 
L 104.357647 -39.6 
L 103.783235 -39.6 
L 103.208824 -39.6 
L 102.634412 -39.6 
L 102.06 -39.6 
L 101.485588 -39.6 
L 100.911176 -39.6 
L 100.336765 -39.6 
L 99.762353 -39.6 
L 99.187941 -39.6 
L 98.613529 -39.6 
L 98.039118 -39.6 
L 97.464706 -39.6 
L 96.890294 -39.6 
L 96.315882 -39.6 
L 95.741471 -39.6 
L 95.167059 -39.6 
L 94.592647 -39.6 
L 94.018235 -39.6 
L 93.443824 -39.6 
L 92.869412 -39.6 
L 92.295 -39.6 
L 91.720588 -39.6 
L 91.146176 -39.6 
L 90.571765 -39.6 
L 89.997353 -39.6 
L 89.422941 -39.6 
L 88.848529 -39.6 
L 88.274118 -39.6 
L 87.699706 -39.6 
L 87.125294 -39.6 
L 86.550882 -39.6 
L 85.976471 -39.6 
L 85.402059 -39.6 
L 84.827647 -39.6 
L 84.253235 -39.6 
L 83.678824 -39.6 
L 83.104412 -39.6 
L 82.53 -39.6 
L 81.955588 -39.6 
L 81.381176 -39.6 
L 80.806765 -48.871724 
L 80.232353 -54.295335 
L 79.657941 -58.143448 
L 79.083529 -65.62902 
L 78.509118 -73.909455 
L 77.934706 -81.569682 
L 77.360294 -90.218342 
L 76.785882 -97.181314 
L 76.211471 -101.85897 
L 75.637059 -108.912936 
L 75.062647 -117.129634 
L 74.488235 -125.670232 
L 73.913824 -134.214532 
L 73.339412 -142.776288 
L 72.765 -151.335954 
L 72.190588 -159.895771 
L 71.616176 -168.456722 
L 71.041765 -177.018914 
L 70.467353 -185.548555 
L 69.892941 -193.306477 
L 69.318529 -199.71863 
L 68.744118 -207.612628 
L 68.169706 -215.903228 
L 67.595294 -224.462055 
L 67.020882 -233.030661 
L 66.446471 -241.604909 
L 65.872059 -250.189572 
L 65.297647 -258.79303 
L 64.723235 -267.429165 
L 64.148824 -276.11888 
L 63.574412 -284.889668 
L 63 -291.870511 
z
" style="stroke: #008400; stroke-opacity: 0.1"/>
    </defs>
    <g clip-path="url(#pcceb728431)">
     <use xlink:href="#mde9eeb2ce1" x="0" y="360" style="fill: #008400; fill-opacity: 0.1; stroke: #008400; stroke-opacity: 0.1"/>
    </g>
   </g>
   <g id="line2d_16">
    <path d="M 63 102.345087 
L 68.744118 187.217177 
L 69.892941 201.85966 
L 75.062647 277.889494 
L 77.360294 305.704665 
L 77.934706 311.128276 
L 78.509118 311.128276 
L 79.083529 320.4 
L 447.855882 320.4 
L 447.855882 320.4 
" clip-path="url(#pcceb728431)" style="fill: none; stroke: #000000; stroke-width: 1.5; stroke-linecap: round"/>
   </g>
   <g id="line2d_17">
    <path d="M 63 129.913748 
L 69.318529 222.64792 
L 74.488235 296.432941 
L 75.062647 301.856552 
L 75.637059 311.128276 
L 76.211471 311.128276 
L 76.785882 320.4 
L 447.855882 320.4 
L 447.855882 320.4 
" clip-path="url(#pcceb728431)" style="fill: none; stroke-dasharray: 5.55,2.4; stroke-dashoffset: 0; stroke: #000000; stroke-width: 1.5"/>
   </g>
   <g id="line2d_18">
    <path d="M 63 117.906432 
L 68.744118 202.918097 
L 69.318529 209.551359 
L 71.041765 234.65577 
L 74.488235 285.099257 
L 75.637059 298.871724 
L 76.211471 305.704665 
L 76.785882 311.128276 
L 77.360294 311.128276 
L 77.934706 320.4 
L 447.855882 320.4 
L 447.855882 320.4 
" clip-path="url(#pcceb728431)" style="fill: none; stroke-dasharray: 5.55,2.4; stroke-dashoffset: 0; stroke: #000000; stroke-width: 1.5"/>
   </g>
   <g id="line2d_19">
    <path d="M 63 87.075716 
L 68.744118 172.226838 
L 69.892941 186.846598 
L 75.637059 271.39521 
L 76.785882 285.099257 
L 77.934706 298.871724 
L 78.509118 305.704665 
L 79.083529 311.128276 
L 79.657941 311.128276 
L 80.232353 320.4 
L 447.855882 320.4 
L 447.855882 320.4 
" clip-path="url(#pcceb728431)" style="fill: none; stroke-dasharray: 5.55,2.4; stroke-dashoffset: 0; stroke: #000000; stroke-width: 1.5"/>
   </g>
   <g id="line2d_20">
    <path d="M 63 75.110332 
L 68.169706 152.387372 
L 69.318529 166.693523 
L 70.467353 182.981086 
L 75.062647 251.087064 
L 75.637059 258.14103 
L 76.211471 262.818686 
L 76.785882 269.781658 
L 78.509118 294.37098 
L 79.083529 301.856552 
L 79.657941 305.704665 
L 80.232353 311.128276 
L 80.806765 320.4 
L 447.855882 320.4 
L 447.855882 320.4 
" clip-path="url(#pcceb728431)" style="fill: none; stroke-dasharray: 5.55,2.4; stroke-dashoffset: 0; stroke: #000000; stroke-width: 1.5"/>
   </g>
   <g id="patch_3">
    <path d="M 63 320.4 
L 63 43.2 
" style="fill: none; stroke: #262626; stroke-width: 0.8; stroke-linejoin: miter; stroke-linecap: square"/>
   </g>
   <g id="patch_4">
    <path d="M 63 320.4 
L 453.6 320.4 
" style="fill: none; stroke: #262626; stroke-width: 0.8; stroke-linejoin: miter; stroke-linecap: square"/>
   </g>
   <g id="text_18">
    <!-- Parasite Density in Patients Treated Successfully -->
    <g style="fill: #262626" transform="translate(88.992969 23.2) scale(0.14 -0.14)">
     <defs>
      <path id="DejaVuSans-54" d="M -19 4666 
L 3928 4666 
L 3928 4134 
L 2272 4134 
L 2272 0 
L 1638 0 
L 1638 4134 
L -19 4134 
L -19 4666 
z
" transform="scale(0.015625)"/>
      <path id="DejaVuSans-64" d="M 2906 2969 
L 2906 4863 
L 3481 4863 
L 3481 0 
L 2906 0 
L 2906 525 
Q 2725 213 2448 61 
Q 2172 -91 1784 -91 
Q 1150 -91 751 415 
Q 353 922 353 1747 
Q 353 2572 751 3078 
Q 1150 3584 1784 3584 
Q 2172 3584 2448 3432 
Q 2725 3281 2906 2969 
z
M 947 1747 
Q 947 1113 1208 752 
Q 1469 391 1925 391 
Q 2381 391 2643 752 
Q 2906 1113 2906 1747 
Q 2906 2381 2643 2742 
Q 2381 3103 1925 3103 
Q 1469 3103 1208 2742 
Q 947 2381 947 1747 
z
" transform="scale(0.015625)"/>
      <path id="DejaVuSans-53" d="M 3425 4513 
L 3425 3897 
Q 3066 4069 2747 4153 
Q 2428 4238 2131 4238 
Q 1616 4238 1336 4038 
Q 1056 3838 1056 3469 
Q 1056 3159 1242 3001 
Q 1428 2844 1947 2747 
L 2328 2669 
Q 3034 2534 3370 2195 
Q 3706 1856 3706 1288 
Q 3706 609 3251 259 
Q 2797 -91 1919 -91 
Q 1588 -91 1214 -16 
Q 841 59 441 206 
L 441 856 
Q 825 641 1194 531 
Q 1563 422 1919 422 
Q 2459 422 2753 634 
Q 3047 847 3047 1241 
Q 3047 1584 2836 1778 
Q 2625 1972 2144 2069 
L 1759 2144 
Q 1053 2284 737 2584 
Q 422 2884 422 3419 
Q 422 4038 858 4394 
Q 1294 4750 2059 4750 
Q 2388 4750 2728 4690 
Q 3069 4631 3425 4513 
z
" transform="scale(0.015625)"/>
      <path id="DejaVuSans-75" d="M 544 1381 
L 544 3500 
L 1119 3500 
L 1119 1403 
Q 1119 906 1312 657 
Q 1506 409 1894 409 
Q 2359 409 2629 706 
Q 2900 1003 2900 1516 
L 2900 3500 
L 3475 3500 
L 3475 0 
L 2900 0 
L 2900 538 
Q 2691 219 2414 64 
Q 2138 -91 1772 -91 
Q 1169 -91 856 284 
Q 544 659 544 1381 
z
M 1991 3584 
L 1991 3584 
z
" transform="scale(0.015625)"/>
      <path id="DejaVuSans-63" d="M 3122 3366 
L 3122 2828 
Q 2878 2963 2633 3030 
Q 2388 3097 2138 3097 
Q 1578 3097 1268 2742 
Q 959 2388 959 1747 
Q 959 1106 1268 751 
Q 1578 397 2138 397 
Q 2388 397 2633 464 
Q 2878 531 3122 666 
L 3122 134 
Q 2881 22 2623 -34 
Q 2366 -91 2075 -91 
Q 1284 -91 818 406 
Q 353 903 353 1747 
Q 353 2603 823 3093 
Q 1294 3584 2113 3584 
Q 2378 3584 2631 3529 
Q 2884 3475 3122 3366 
z
" transform="scale(0.015625)"/>
      <path id="DejaVuSans-66" d="M 2375 4863 
L 2375 4384 
L 1825 4384 
Q 1516 4384 1395 4259 
Q 1275 4134 1275 3809 
L 1275 3500 
L 2222 3500 
L 2222 3053 
L 1275 3053 
L 1275 0 
L 697 0 
L 697 3053 
L 147 3053 
L 147 3500 
L 697 3500 
L 697 3744 
Q 697 4328 969 4595 
Q 1241 4863 1831 4863 
L 2375 4863 
z
" transform="scale(0.015625)"/>
     </defs>
     <use xlink:href="#DejaVuSans-50"/>
     <use xlink:href="#DejaVuSans-61" transform="translate(55.802734 0)"/>
     <use xlink:href="#DejaVuSans-72" transform="translate(117.082031 0)"/>
     <use xlink:href="#DejaVuSans-61" transform="translate(158.195312 0)"/>
     <use xlink:href="#DejaVuSans-73" transform="translate(219.474609 0)"/>
     <use xlink:href="#DejaVuSans-69" transform="translate(271.574219 0)"/>
     <use xlink:href="#DejaVuSans-74" transform="translate(299.357422 0)"/>
     <use xlink:href="#DejaVuSans-65" transform="translate(338.566406 0)"/>
     <use xlink:href="#DejaVuSans-20" transform="translate(400.089844 0)"/>
     <use xlink:href="#DejaVuSans-44" transform="translate(431.876953 0)"/>
     <use xlink:href="#DejaVuSans-65" transform="translate(508.878906 0)"/>
     <use xlink:href="#DejaVuSans-6e" transform="translate(570.402344 0)"/>
     <use xlink:href="#DejaVuSans-73" transform="translate(633.78125 0)"/>
     <use xlink:href="#DejaVuSans-69" transform="translate(685.880859 0)"/>
     <use xlink:href="#DejaVuSans-74" transform="translate(713.664062 0)"/>
     <use xlink:href="#DejaVuSans-79" transform="translate(752.873047 0)"/>
     <use xlink:href="#DejaVuSans-20" transform="translate(812.052734 0)"/>
     <use xlink:href="#DejaVuSans-69" transform="translate(843.839844 0)"/>
     <use xlink:href="#DejaVuSans-6e" transform="translate(871.623047 0)"/>
     <use xlink:href="#DejaVuSans-20" transform="translate(935.001953 0)"/>
     <use xlink:href="#DejaVuSans-50" transform="translate(966.789062 0)"/>
     <use xlink:href="#DejaVuSans-61" transform="translate(1022.591797 0)"/>
     <use xlink:href="#DejaVuSans-74" transform="translate(1083.871094 0)"/>
     <use xlink:href="#DejaVuSans-69" transform="translate(1123.080078 0)"/>
     <use xlink:href="#DejaVuSans-65" transform="translate(1150.863281 0)"/>
     <use xlink:href="#DejaVuSans-6e" transform="translate(1212.386719 0)"/>
     <use xlink:href="#DejaVuSans-74" transform="translate(1275.765625 0)"/>
     <use xlink:href="#DejaVuSans-73" transform="translate(1314.974609 0)"/>
     <use xlink:href="#DejaVuSans-20" transform="translate(1367.074219 0)"/>
     <use xlink:href="#DejaVuSans-54" transform="translate(1398.861328 0)"/>
     <use xlink:href="#DejaVuSans-72" transform="translate(1445.195312 0)"/>
     <use xlink:href="#DejaVuSans-65" transform="translate(1484.058594 0)"/>
     <use xlink:href="#DejaVuSans-61" transform="translate(1545.582031 0)"/>
     <use xlink:href="#DejaVuSans-74" transform="translate(1606.861328 0)"/>
     <use xlink:href="#DejaVuSans-65" transform="translate(1646.070312 0)"/>
     <use xlink:href="#DejaVuSans-64" transform="translate(1707.59375 0)"/>
     <use xlink:href="#DejaVuSans-20" transform="translate(1771.070312 0)"/>
     <use xlink:href="#DejaVuSans-53" transform="translate(1802.857422 0)"/>
     <use xlink:href="#DejaVuSans-75" transform="translate(1866.333984 0)"/>
     <use xlink:href="#DejaVuSans-63" transform="translate(1929.712891 0)"/>
     <use xlink:href="#DejaVuSans-63" transform="translate(1984.693359 0)"/>
     <use xlink:href="#DejaVuSans-65" transform="translate(2039.673828 0)"/>
     <use xlink:href="#DejaVuSans-73" transform="translate(2101.197266 0)"/>
     <use xlink:href="#DejaVuSans-73" transform="translate(2153.296875 0)"/>
     <use xlink:href="#DejaVuSans-66" transform="translate(2205.396484 0)"/>
     <use xlink:href="#DejaVuSans-75" transform="translate(2240.601562 0)"/>
     <use xlink:href="#DejaVuSans-6c" transform="translate(2303.980469 0)"/>
     <use xlink:href="#DejaVuSans-6c" transform="translate(2331.763672 0)"/>
     <use xlink:href="#DejaVuSans-79" transform="translate(2359.546875 0)"/>
    </g>
   </g>
  </g>
 </g>
 <defs>
  <clipPath id="pcceb728431">
   <rect x="63" y="43.2" width="390.6" height="277.2"/>
  </clipPath>
 </defs>
</svg>
