<?xml version="1.0" encoding="utf-8" standalone="no"?>
<!DOCTYPE svg PUBLIC "-//W3C//DTD SVG 1.1//EN"
  "http://www.w3.org/Graphics/SVG/1.1/DTD/svg11.dtd">
<svg xmlns:xlink="http://www.w3.org/1999/xlink" width="504pt" height="360pt" viewBox="0 0 504 360" xmlns="http://www.w3.org/2000/svg" version="1.1">
 <metadata>
  <rdf:RDF xmlns:dc="http://purl.org/dc/elements/1.1/" xmlns:cc="http://creativecommons.org/ns#" xmlns:rdf="http://www.w3.org/1999/02/22-rdf-syntax-ns#">
   <cc:Work>
    <dc:type rdf:resource="http://purl.org/dc/dcmitype/StillImage"/>
    <dc:date>2025-07-09T15:29:37.751079</dc:date>
    <dc:format>image/svg+xml</dc:format>
    <dc:creator>
     <cc:Agent>
      <dc:title>Matplotlib v3.10.1, https://matplotlib.org/</dc:title>
     </cc:Agent>
    </dc:creator>
   </cc:Work>
  </rdf:RDF>
 </metadata>
 <defs>
  <style type="text/css">*{stroke-linejoin: round; stroke-linecap: butt}</style>
 </defs>
 <g id="figure_1">
  <g id="patch_1">
   <path d="M 0 360 
L 504 360 
L 504 0 
L 0 0 
z
" style="fill: #ffffff"/>
  </g>
  <g id="axes_1">
   <g id="patch_2">
    <path d="M 63 320.4 
L 453.6 320.4 
L 453.6 43.2 
L 63 43.2 
z
" style="fill: #ffffff"/>
   </g>
   <g id="matplotlib.axis_1">
    <g id="xtick_1">
     <g id="line2d_1">
      <defs>
       <path id="mebf1efc644" d="M 0 0 
L 0 3.5 
" style="stroke: #262626; stroke-width: 0.8"/>
      </defs>
      <g>
       <use xlink:href="#mebf1efc644" x="63" y="320.4" style="fill: #262626; stroke: #262626; stroke-width: 0.8"/>
      </g>
     </g>
     <g id="text_1">
      <!-- 0 -->
      <g style="fill: #262626" transform="translate(58.54625 338.037813) scale(0.14 -0.14)">
       <defs>
        <path id="DejaVuSans-30" d="M 2034 4250 
Q 1547 4250 1301 3770 
Q 1056 3291 1056 2328 
Q 1056 1369 1301 889 
Q 1547 409 2034 409 
Q 2525 409 2770 889 
Q 3016 1369 3016 2328 
Q 3016 3291 2770 3770 
Q 2525 4250 2034 4250 
z
M 2034 4750 
Q 2819 4750 3233 4129 
Q 3647 3509 3647 2328 
Q 3647 1150 3233 529 
Q 2819 -91 2034 -91 
Q 1250 -91 836 529 
Q 422 1150 422 2328 
Q 422 3509 836 4129 
Q 1250 4750 2034 4750 
z
" transform="scale(0.015625)"/>
       </defs>
       <use xlink:href="#DejaVuSans-30"/>
      </g>
     </g>
    </g>
    <g id="xtick_2">
     <g id="line2d_2">
      <g>
       <use xlink:href="#mebf1efc644" x="106.4" y="320.4" style="fill: #262626; stroke: #262626; stroke-width: 0.8"/>
      </g>
     </g>
     <g id="text_2">
      <!-- 2 -->
      <g style="fill: #262626" transform="translate(101.94625 338.037813) scale(0.14 -0.14)">
       <defs>
        <path id="DejaVuSans-32" d="M 1228 531 
L 3431 531 
L 3431 0 
L 469 0 
L 469 531 
Q 828 903 1448 1529 
Q 2069 2156 2228 2338 
Q 2531 2678 2651 2914 
Q 2772 3150 2772 3378 
Q 2772 3750 2511 3984 
Q 2250 4219 1831 4219 
Q 1534 4219 1204 4116 
Q 875 4013 500 3803 
L 500 4441 
Q 881 4594 1212 4672 
Q 1544 4750 1819 4750 
Q 2544 4750 2975 4387 
Q 3406 4025 3406 3419 
Q 3406 3131 3298 2873 
Q 3191 2616 2906 2266 
Q 2828 2175 2409 1742 
Q 1991 1309 1228 531 
z
" transform="scale(0.015625)"/>
       </defs>
       <use xlink:href="#DejaVuSans-32"/>
      </g>
     </g>
    </g>
    <g id="xtick_3">
     <g id="line2d_3">
      <g>
       <use xlink:href="#mebf1efc644" x="149.8" y="320.4" style="fill: #262626; stroke: #262626; stroke-width: 0.8"/>
      </g>
     </g>
     <g id="text_3">
      <!-- 4 -->
      <g style="fill: #262626" transform="translate(145.34625 338.037813) scale(0.14 -0.14)">
       <defs>
        <path id="DejaVuSans-34" d="M 2419 4116 
L 825 1625 
L 2419 1625 
L 2419 4116 
z
M 2253 4666 
L 3047 4666 
L 3047 1625 
L 3713 1625 
L 3713 1100 
L 3047 1100 
L 3047 0 
L 2419 0 
L 2419 1100 
L 313 1100 
L 313 1709 
L 2253 4666 
z
" transform="scale(0.015625)"/>
       </defs>
       <use xlink:href="#DejaVuSans-34"/>
      </g>
     </g>
    </g>
    <g id="xtick_4">
     <g id="line2d_4">
      <g>
       <use xlink:href="#mebf1efc644" x="193.2" y="320.4" style="fill: #262626; stroke: #262626; stroke-width: 0.8"/>
      </g>
     </g>
     <g id="text_4">
      <!-- 6 -->
      <g style="fill: #262626" transform="translate(188.74625 338.037813) scale(0.14 -0.14)">
       <defs>
        <path id="DejaVuSans-36" d="M 2113 2584 
Q 1688 2584 1439 2293 
Q 1191 2003 1191 1497 
Q 1191 994 1439 701 
Q 1688 409 2113 409 
Q 2538 409 2786 701 
Q 3034 994 3034 1497 
Q 3034 2003 2786 2293 
Q 2538 2584 2113 2584 
z
M 3366 4563 
L 3366 3988 
Q 3128 4100 2886 4159 
Q 2644 4219 2406 4219 
Q 1781 4219 1451 3797 
Q 1122 3375 1075 2522 
Q 1259 2794 1537 2939 
Q 1816 3084 2150 3084 
Q 2853 3084 3261 2657 
Q 3669 2231 3669 1497 
Q 3669 778 3244 343 
Q 2819 -91 2113 -91 
Q 1303 -91 875 529 
Q 447 1150 447 2328 
Q 447 3434 972 4092 
Q 1497 4750 2381 4750 
Q 2619 4750 2861 4703 
Q 3103 4656 3366 4563 
z
" transform="scale(0.015625)"/>
       </defs>
       <use xlink:href="#DejaVuSans-36"/>
      </g>
     </g>
    </g>
    <g id="xtick_5">
     <g id="line2d_5">
      <g>
       <use xlink:href="#mebf1efc644" x="236.6" y="320.4" style="fill: #262626; stroke: #262626; stroke-width: 0.8"/>
      </g>
     </g>
     <g id="text_5">
      <!-- 8 -->
      <g style="fill: #262626" transform="translate(232.14625 338.037813) scale(0.14 -0.14)">
       <defs>
        <path id="DejaVuSans-38" d="M 2034 2216 
Q 1584 2216 1326 1975 
Q 1069 1734 1069 1313 
Q 1069 891 1326 650 
Q 1584 409 2034 409 
Q 2484 409 2743 651 
Q 3003 894 3003 1313 
Q 3003 1734 2745 1975 
Q 2488 2216 2034 2216 
z
M 1403 2484 
Q 997 2584 770 2862 
Q 544 3141 544 3541 
Q 544 4100 942 4425 
Q 1341 4750 2034 4750 
Q 2731 4750 3128 4425 
Q 3525 4100 3525 3541 
Q 3525 3141 3298 2862 
Q 3072 2584 2669 2484 
Q 3125 2378 3379 2068 
Q 3634 1759 3634 1313 
Q 3634 634 3220 271 
Q 2806 -91 2034 -91 
Q 1263 -91 848 271 
Q 434 634 434 1313 
Q 434 1759 690 2068 
Q 947 2378 1403 2484 
z
M 1172 3481 
Q 1172 3119 1398 2916 
Q 1625 2713 2034 2713 
Q 2441 2713 2670 2916 
Q 2900 3119 2900 3481 
Q 2900 3844 2670 4047 
Q 2441 4250 2034 4250 
Q 1625 4250 1398 4047 
Q 1172 3844 1172 3481 
z
" transform="scale(0.015625)"/>
       </defs>
       <use xlink:href="#DejaVuSans-38"/>
      </g>
     </g>
    </g>
    <g id="xtick_6">
     <g id="line2d_6">
      <g>
       <use xlink:href="#mebf1efc644" x="280" y="320.4" style="fill: #262626; stroke: #262626; stroke-width: 0.8"/>
      </g>
     </g>
     <g id="text_6">
      <!-- 10 -->
      <g style="fill: #262626" transform="translate(271.0925 338.037813) scale(0.14 -0.14)">
       <defs>
        <path id="DejaVuSans-31" d="M 794 531 
L 1825 531 
L 1825 4091 
L 703 3866 
L 703 4441 
L 1819 4666 
L 2450 4666 
L 2450 531 
L 3481 531 
L 3481 0 
L 794 0 
L 794 531 
z
" transform="scale(0.015625)"/>
       </defs>
       <use xlink:href="#DejaVuSans-31"/>
       <use xlink:href="#DejaVuSans-30" transform="translate(63.623047 0)"/>
      </g>
     </g>
    </g>
    <g id="xtick_7">
     <g id="line2d_7">
      <g>
       <use xlink:href="#mebf1efc644" x="323.4" y="320.4" style="fill: #262626; stroke: #262626; stroke-width: 0.8"/>
      </g>
     </g>
     <g id="text_7">
      <!-- 12 -->
      <g style="fill: #262626" transform="translate(314.4925 338.037813) scale(0.14 -0.14)">
       <use xlink:href="#DejaVuSans-31"/>
       <use xlink:href="#DejaVuSans-32" transform="translate(63.623047 0)"/>
      </g>
     </g>
    </g>
    <g id="xtick_8">
     <g id="line2d_8">
      <g>
       <use xlink:href="#mebf1efc644" x="366.8" y="320.4" style="fill: #262626; stroke: #262626; stroke-width: 0.8"/>
      </g>
     </g>
     <g id="text_8">
      <!-- 14 -->
      <g style="fill: #262626" transform="translate(357.8925 338.037813) scale(0.14 -0.14)">
       <use xlink:href="#DejaVuSans-31"/>
       <use xlink:href="#DejaVuSans-34" transform="translate(63.623047 0)"/>
      </g>
     </g>
    </g>
    <g id="xtick_9">
     <g id="line2d_9">
      <g>
       <use xlink:href="#mebf1efc644" x="410.2" y="320.4" style="fill: #262626; stroke: #262626; stroke-width: 0.8"/>
      </g>
     </g>
     <g id="text_9">
      <!-- 16 -->
      <g style="fill: #262626" transform="translate(401.2925 338.037813) scale(0.14 -0.14)">
       <use xlink:href="#DejaVuSans-31"/>
       <use xlink:href="#DejaVuSans-36" transform="translate(63.623047 0)"/>
      </g>
     </g>
    </g>
    <g id="xtick_10">
     <g id="line2d_10">
      <g>
       <use xlink:href="#mebf1efc644" x="453.6" y="320.4" style="fill: #262626; stroke: #262626; stroke-width: 0.8"/>
      </g>
     </g>
     <g id="text_10">
      <!-- 18 -->
      <g style="fill: #262626" transform="translate(444.6925 338.037813) scale(0.14 -0.14)">
       <use xlink:href="#DejaVuSans-31"/>
       <use xlink:href="#DejaVuSans-38" transform="translate(63.623047 0)"/>
      </g>
     </g>
    </g>
    <g id="text_11">
     <!-- Artemether Concentration (mg/ml) -->
     <g style="fill: #262626" transform="translate(136.276875 361.587188) scale(0.14 -0.14)">
      <defs>
       <path id="DejaVuSans-41" d="M 2188 4044 
L 1331 1722 
L 3047 1722 
L 2188 4044 
z
M 1831 4666 
L 2547 4666 
L 4325 0 
L 3669 0 
L 3244 1197 
L 1141 1197 
L 716 0 
L 50 0 
L 1831 4666 
z
" transform="scale(0.015625)"/>
       <path id="DejaVuSans-72" d="M 2631 2963 
Q 2534 3019 2420 3045 
Q 2306 3072 2169 3072 
Q 1681 3072 1420 2755 
Q 1159 2438 1159 1844 
L 1159 0 
L 581 0 
L 581 3500 
L 1159 3500 
L 1159 2956 
Q 1341 3275 1631 3429 
Q 1922 3584 2338 3584 
Q 2397 3584 2469 3576 
Q 2541 3569 2628 3553 
L 2631 2963 
z
" transform="scale(0.015625)"/>
       <path id="DejaVuSans-74" d="M 1172 4494 
L 1172 3500 
L 2356 3500 
L 2356 3053 
L 1172 3053 
L 1172 1153 
Q 1172 725 1289 603 
Q 1406 481 1766 481 
L 2356 481 
L 2356 0 
L 1766 0 
Q 1100 0 847 248 
Q 594 497 594 1153 
L 594 3053 
L 172 3053 
L 172 3500 
L 594 3500 
L 594 4494 
L 1172 4494 
z
" transform="scale(0.015625)"/>
       <path id="DejaVuSans-65" d="M 3597 1894 
L 3597 1613 
L 953 1613 
Q 991 1019 1311 708 
Q 1631 397 2203 397 
Q 2534 397 2845 478 
Q 3156 559 3463 722 
L 3463 178 
Q 3153 47 2828 -22 
Q 2503 -91 2169 -91 
Q 1331 -91 842 396 
Q 353 884 353 1716 
Q 353 2575 817 3079 
Q 1281 3584 2069 3584 
Q 2775 3584 3186 3129 
Q 3597 2675 3597 1894 
z
M 3022 2063 
Q 3016 2534 2758 2815 
Q 2500 3097 2075 3097 
Q 1594 3097 1305 2825 
Q 1016 2553 972 2059 
L 3022 2063 
z
" transform="scale(0.015625)"/>
       <path id="DejaVuSans-6d" d="M 3328 2828 
Q 3544 3216 3844 3400 
Q 4144 3584 4550 3584 
Q 5097 3584 5394 3201 
Q 5691 2819 5691 2113 
L 5691 0 
L 5113 0 
L 5113 2094 
Q 5113 2597 4934 2840 
Q 4756 3084 4391 3084 
Q 3944 3084 3684 2787 
Q 3425 2491 3425 1978 
L 3425 0 
L 2847 0 
L 2847 2094 
Q 2847 2600 2669 2842 
Q 2491 3084 2119 3084 
Q 1678 3084 1418 2786 
Q 1159 2488 1159 1978 
L 1159 0 
L 581 0 
L 581 3500 
L 1159 3500 
L 1159 2956 
Q 1356 3278 1631 3431 
Q 1906 3584 2284 3584 
Q 2666 3584 2933 3390 
Q 3200 3197 3328 2828 
z
" transform="scale(0.015625)"/>
       <path id="DejaVuSans-68" d="M 3513 2113 
L 3513 0 
L 2938 0 
L 2938 2094 
Q 2938 2591 2744 2837 
Q 2550 3084 2163 3084 
Q 1697 3084 1428 2787 
Q 1159 2491 1159 1978 
L 1159 0 
L 581 0 
L 581 4863 
L 1159 4863 
L 1159 2956 
Q 1366 3272 1645 3428 
Q 1925 3584 2291 3584 
Q 2894 3584 3203 3211 
Q 3513 2838 3513 2113 
z
" transform="scale(0.015625)"/>
       <path id="DejaVuSans-20" transform="scale(0.015625)"/>
       <path id="DejaVuSans-43" d="M 4122 4306 
L 4122 3641 
Q 3803 3938 3442 4084 
Q 3081 4231 2675 4231 
Q 1875 4231 1450 3742 
Q 1025 3253 1025 2328 
Q 1025 1406 1450 917 
Q 1875 428 2675 428 
Q 3081 428 3442 575 
Q 3803 722 4122 1019 
L 4122 359 
Q 3791 134 3420 21 
Q 3050 -91 2638 -91 
Q 1578 -91 968 557 
Q 359 1206 359 2328 
Q 359 3453 968 4101 
Q 1578 4750 2638 4750 
Q 3056 4750 3426 4639 
Q 3797 4528 4122 4306 
z
" transform="scale(0.015625)"/>
       <path id="DejaVuSans-6f" d="M 1959 3097 
Q 1497 3097 1228 2736 
Q 959 2375 959 1747 
Q 959 1119 1226 758 
Q 1494 397 1959 397 
Q 2419 397 2687 759 
Q 2956 1122 2956 1747 
Q 2956 2369 2687 2733 
Q 2419 3097 1959 3097 
z
M 1959 3584 
Q 2709 3584 3137 3096 
Q 3566 2609 3566 1747 
Q 3566 888 3137 398 
Q 2709 -91 1959 -91 
Q 1206 -91 779 398 
Q 353 888 353 1747 
Q 353 2609 779 3096 
Q 1206 3584 1959 3584 
z
" transform="scale(0.015625)"/>
       <path id="DejaVuSans-6e" d="M 3513 2113 
L 3513 0 
L 2938 0 
L 2938 2094 
Q 2938 2591 2744 2837 
Q 2550 3084 2163 3084 
Q 1697 3084 1428 2787 
Q 1159 2491 1159 1978 
L 1159 0 
L 581 0 
L 581 3500 
L 1159 3500 
L 1159 2956 
Q 1366 3272 1645 3428 
Q 1925 3584 2291 3584 
Q 2894 3584 3203 3211 
Q 3513 2838 3513 2113 
z
" transform="scale(0.015625)"/>
       <path id="DejaVuSans-63" d="M 3122 3366 
L 3122 2828 
Q 2878 2963 2633 3030 
Q 2388 3097 2138 3097 
Q 1578 3097 1268 2742 
Q 959 2388 959 1747 
Q 959 1106 1268 751 
Q 1578 397 2138 397 
Q 2388 397 2633 464 
Q 2878 531 3122 666 
L 3122 134 
Q 2881 22 2623 -34 
Q 2366 -91 2075 -91 
Q 1284 -91 818 406 
Q 353 903 353 1747 
Q 353 2603 823 3093 
Q 1294 3584 2113 3584 
Q 2378 3584 2631 3529 
Q 2884 3475 3122 3366 
z
" transform="scale(0.015625)"/>
       <path id="DejaVuSans-61" d="M 2194 1759 
Q 1497 1759 1228 1600 
Q 959 1441 959 1056 
Q 959 750 1161 570 
Q 1363 391 1709 391 
Q 2188 391 2477 730 
Q 2766 1069 2766 1631 
L 2766 1759 
L 2194 1759 
z
M 3341 1997 
L 3341 0 
L 2766 0 
L 2766 531 
Q 2569 213 2275 61 
Q 1981 -91 1556 -91 
Q 1019 -91 701 211 
Q 384 513 384 1019 
Q 384 1609 779 1909 
Q 1175 2209 1959 2209 
L 2766 2209 
L 2766 2266 
Q 2766 2663 2505 2880 
Q 2244 3097 1772 3097 
Q 1472 3097 1187 3025 
Q 903 2953 641 2809 
L 641 3341 
Q 956 3463 1253 3523 
Q 1550 3584 1831 3584 
Q 2591 3584 2966 3190 
Q 3341 2797 3341 1997 
z
" transform="scale(0.015625)"/>
       <path id="DejaVuSans-69" d="M 603 3500 
L 1178 3500 
L 1178 0 
L 603 0 
L 603 3500 
z
M 603 4863 
L 1178 4863 
L 1178 4134 
L 603 4134 
L 603 4863 
z
" transform="scale(0.015625)"/>
       <path id="DejaVuSans-28" d="M 1984 4856 
Q 1566 4138 1362 3434 
Q 1159 2731 1159 2009 
Q 1159 1288 1364 580 
Q 1569 -128 1984 -844 
L 1484 -844 
Q 1016 -109 783 600 
Q 550 1309 550 2009 
Q 550 2706 781 3412 
Q 1013 4119 1484 4856 
L 1984 4856 
z
" transform="scale(0.015625)"/>
       <path id="DejaVuSans-67" d="M 2906 1791 
Q 2906 2416 2648 2759 
Q 2391 3103 1925 3103 
Q 1463 3103 1205 2759 
Q 947 2416 947 1791 
Q 947 1169 1205 825 
Q 1463 481 1925 481 
Q 2391 481 2648 825 
Q 2906 1169 2906 1791 
z
M 3481 434 
Q 3481 -459 3084 -895 
Q 2688 -1331 1869 -1331 
Q 1566 -1331 1297 -1286 
Q 1028 -1241 775 -1147 
L 775 -588 
Q 1028 -725 1275 -790 
Q 1522 -856 1778 -856 
Q 2344 -856 2625 -561 
Q 2906 -266 2906 331 
L 2906 616 
Q 2728 306 2450 153 
Q 2172 0 1784 0 
Q 1141 0 747 490 
Q 353 981 353 1791 
Q 353 2603 747 3093 
Q 1141 3584 1784 3584 
Q 2172 3584 2450 3431 
Q 2728 3278 2906 2969 
L 2906 3500 
L 3481 3500 
L 3481 434 
z
" transform="scale(0.015625)"/>
       <path id="DejaVuSans-2f" d="M 1625 4666 
L 2156 4666 
L 531 -594 
L 0 -594 
L 1625 4666 
z
" transform="scale(0.015625)"/>
       <path id="DejaVuSans-6c" d="M 603 4863 
L 1178 4863 
L 1178 0 
L 603 0 
L 603 4863 
z
" transform="scale(0.015625)"/>
       <path id="DejaVuSans-29" d="M 513 4856 
L 1013 4856 
Q 1481 4119 1714 3412 
Q 1947 2706 1947 2009 
Q 1947 1309 1714 600 
Q 1481 -109 1013 -844 
L 513 -844 
Q 928 -128 1133 580 
Q 1338 1288 1338 2009 
Q 1338 2731 1133 3434 
Q 928 4138 513 4856 
z
" transform="scale(0.015625)"/>
      </defs>
      <use xlink:href="#DejaVuSans-41"/>
      <use xlink:href="#DejaVuSans-72" transform="translate(68.408203 0)"/>
      <use xlink:href="#DejaVuSans-74" transform="translate(109.521484 0)"/>
      <use xlink:href="#DejaVuSans-65" transform="translate(148.730469 0)"/>
      <use xlink:href="#DejaVuSans-6d" transform="translate(210.253906 0)"/>
      <use xlink:href="#DejaVuSans-65" transform="translate(307.666016 0)"/>
      <use xlink:href="#DejaVuSans-74" transform="translate(369.189453 0)"/>
      <use xlink:href="#DejaVuSans-68" transform="translate(408.398438 0)"/>
      <use xlink:href="#DejaVuSans-65" transform="translate(471.777344 0)"/>
      <use xlink:href="#DejaVuSans-72" transform="translate(533.300781 0)"/>
      <use xlink:href="#DejaVuSans-20" transform="translate(574.414062 0)"/>
      <use xlink:href="#DejaVuSans-43" transform="translate(606.201172 0)"/>
      <use xlink:href="#DejaVuSans-6f" transform="translate(676.025391 0)"/>
      <use xlink:href="#DejaVuSans-6e" transform="translate(737.207031 0)"/>
      <use xlink:href="#DejaVuSans-63" transform="translate(800.585938 0)"/>
      <use xlink:href="#DejaVuSans-65" transform="translate(855.566406 0)"/>
      <use xlink:href="#DejaVuSans-6e" transform="translate(917.089844 0)"/>
      <use xlink:href="#DejaVuSans-74" transform="translate(980.46875 0)"/>
      <use xlink:href="#DejaVuSans-72" transform="translate(1019.677734 0)"/>
      <use xlink:href="#DejaVuSans-61" transform="translate(1060.791016 0)"/>
      <use xlink:href="#DejaVuSans-74" transform="translate(1122.070312 0)"/>
      <use xlink:href="#DejaVuSans-69" transform="translate(1161.279297 0)"/>
      <use xlink:href="#DejaVuSans-6f" transform="translate(1189.0625 0)"/>
      <use xlink:href="#DejaVuSans-6e" transform="translate(1250.244141 0)"/>
      <use xlink:href="#DejaVuSans-20" transform="translate(1313.623047 0)"/>
      <use xlink:href="#DejaVuSans-28" transform="translate(1345.410156 0)"/>
      <use xlink:href="#DejaVuSans-6d" transform="translate(1384.423828 0)"/>
      <use xlink:href="#DejaVuSans-67" transform="translate(1481.835938 0)"/>
      <use xlink:href="#DejaVuSans-2f" transform="translate(1545.3125 0)"/>
      <use xlink:href="#DejaVuSans-6d" transform="translate(1579.003906 0)"/>
      <use xlink:href="#DejaVuSans-6c" transform="translate(1676.416016 0)"/>
      <use xlink:href="#DejaVuSans-29" transform="translate(1704.199219 0)"/>
     </g>
    </g>
   </g>
   <g id="matplotlib.axis_2">
    <g id="ytick_1">
     <g id="line2d_11">
      <defs>
       <path id="m2ca8c7d17a" d="M 0 0 
L -3.5 0 
" style="stroke: #262626; stroke-width: 0.8"/>
      </defs>
      <g>
       <use xlink:href="#m2ca8c7d17a" x="63" y="320.4" style="fill: #262626; stroke: #262626; stroke-width: 0.8"/>
      </g>
     </g>
     <g id="text_12">
      <!-- −3 -->
      <g style="fill: #262626" transform="translate(35.360937 325.718906) scale(0.14 -0.14)">
       <defs>
        <path id="DejaVuSans-2212" d="M 678 2272 
L 4684 2272 
L 4684 1741 
L 678 1741 
L 678 2272 
z
" transform="scale(0.015625)"/>
        <path id="DejaVuSans-33" d="M 2597 2516 
Q 3050 2419 3304 2112 
Q 3559 1806 3559 1356 
Q 3559 666 3084 287 
Q 2609 -91 1734 -91 
Q 1441 -91 1130 -33 
Q 819 25 488 141 
L 488 750 
Q 750 597 1062 519 
Q 1375 441 1716 441 
Q 2309 441 2620 675 
Q 2931 909 2931 1356 
Q 2931 1769 2642 2001 
Q 2353 2234 1838 2234 
L 1294 2234 
L 1294 2753 
L 1863 2753 
Q 2328 2753 2575 2939 
Q 2822 3125 2822 3475 
Q 2822 3834 2567 4026 
Q 2313 4219 1838 4219 
Q 1578 4219 1281 4162 
Q 984 4106 628 3988 
L 628 4550 
Q 988 4650 1302 4700 
Q 1616 4750 1894 4750 
Q 2613 4750 3031 4423 
Q 3450 4097 3450 3541 
Q 3450 3153 3228 2886 
Q 3006 2619 2597 2516 
z
" transform="scale(0.015625)"/>
       </defs>
       <use xlink:href="#DejaVuSans-2212"/>
       <use xlink:href="#DejaVuSans-33" transform="translate(83.789062 0)"/>
      </g>
     </g>
    </g>
    <g id="ytick_2">
     <g id="line2d_12">
      <g>
       <use xlink:href="#m2ca8c7d17a" x="63" y="289.6" style="fill: #262626; stroke: #262626; stroke-width: 0.8"/>
      </g>
     </g>
     <g id="text_13">
      <!-- −2 -->
      <g style="fill: #262626" transform="translate(35.360937 294.918906) scale(0.14 -0.14)">
       <use xlink:href="#DejaVuSans-2212"/>
       <use xlink:href="#DejaVuSans-32" transform="translate(83.789062 0)"/>
      </g>
     </g>
    </g>
    <g id="ytick_3">
     <g id="line2d_13">
      <g>
       <use xlink:href="#m2ca8c7d17a" x="63" y="258.8" style="fill: #262626; stroke: #262626; stroke-width: 0.8"/>
      </g>
     </g>
     <g id="text_14">
      <!-- −1 -->
      <g style="fill: #262626" transform="translate(35.360937 264.118906) scale(0.14 -0.14)">
       <use xlink:href="#DejaVuSans-2212"/>
       <use xlink:href="#DejaVuSans-31" transform="translate(83.789062 0)"/>
      </g>
     </g>
    </g>
    <g id="ytick_4">
     <g id="line2d_14">
      <g>
       <use xlink:href="#m2ca8c7d17a" x="63" y="228" style="fill: #262626; stroke: #262626; stroke-width: 0.8"/>
      </g>
     </g>
     <g id="text_15">
      <!-- 0 -->
      <g style="fill: #262626" transform="translate(47.0925 233.318906) scale(0.14 -0.14)">
       <use xlink:href="#DejaVuSans-30"/>
      </g>
     </g>
    </g>
    <g id="ytick_5">
     <g id="line2d_15">
      <g>
       <use xlink:href="#m2ca8c7d17a" x="63" y="197.2" style="fill: #262626; stroke: #262626; stroke-width: 0.8"/>
      </g>
     </g>
     <g id="text_16">
      <!-- 1 -->
      <g style="fill: #262626" transform="translate(47.0925 202.518906) scale(0.14 -0.14)">
       <use xlink:href="#DejaVuSans-31"/>
      </g>
     </g>
    </g>
    <g id="ytick_6">
     <g id="line2d_16">
      <g>
       <use xlink:href="#m2ca8c7d17a" x="63" y="166.4" style="fill: #262626; stroke: #262626; stroke-width: 0.8"/>
      </g>
     </g>
     <g id="text_17">
      <!-- 2 -->
      <g style="fill: #262626" transform="translate(47.0925 171.718906) scale(0.14 -0.14)">
       <use xlink:href="#DejaVuSans-32"/>
      </g>
     </g>
    </g>
    <g id="ytick_7">
     <g id="line2d_17">
      <g>
       <use xlink:href="#m2ca8c7d17a" x="63" y="135.6" style="fill: #262626; stroke: #262626; stroke-width: 0.8"/>
      </g>
     </g>
     <g id="text_18">
      <!-- 3 -->
      <g style="fill: #262626" transform="translate(47.0925 140.918906) scale(0.14 -0.14)">
       <use xlink:href="#DejaVuSans-33"/>
      </g>
     </g>
    </g>
    <g id="ytick_8">
     <g id="line2d_18">
      <g>
       <use xlink:href="#m2ca8c7d17a" x="63" y="104.8" style="fill: #262626; stroke: #262626; stroke-width: 0.8"/>
      </g>
     </g>
     <g id="text_19">
      <!-- 4 -->
      <g style="fill: #262626" transform="translate(47.0925 110.118906) scale(0.14 -0.14)">
       <use xlink:href="#DejaVuSans-34"/>
      </g>
     </g>
    </g>
    <g id="ytick_9">
     <g id="line2d_19">
      <g>
       <use xlink:href="#m2ca8c7d17a" x="63" y="74" style="fill: #262626; stroke: #262626; stroke-width: 0.8"/>
      </g>
     </g>
     <g id="text_20">
      <!-- 5 -->
      <g style="fill: #262626" transform="translate(47.0925 79.318906) scale(0.14 -0.14)">
       <defs>
        <path id="DejaVuSans-35" d="M 691 4666 
L 3169 4666 
L 3169 4134 
L 1269 4134 
L 1269 2991 
Q 1406 3038 1543 3061 
Q 1681 3084 1819 3084 
Q 2600 3084 3056 2656 
Q 3513 2228 3513 1497 
Q 3513 744 3044 326 
Q 2575 -91 1722 -91 
Q 1428 -91 1123 -41 
Q 819 9 494 109 
L 494 744 
Q 775 591 1075 516 
Q 1375 441 1709 441 
Q 2250 441 2565 725 
Q 2881 1009 2881 1497 
Q 2881 1984 2565 2268 
Q 2250 2553 1709 2553 
Q 1456 2553 1204 2497 
Q 953 2441 691 2322 
L 691 4666 
z
" transform="scale(0.015625)"/>
       </defs>
       <use xlink:href="#DejaVuSans-35"/>
      </g>
     </g>
    </g>
    <g id="ytick_10">
     <g id="line2d_20">
      <g>
       <use xlink:href="#m2ca8c7d17a" x="63" y="43.2" style="fill: #262626; stroke: #262626; stroke-width: 0.8"/>
      </g>
     </g>
     <g id="text_21">
      <!-- 6 -->
      <g style="fill: #262626" transform="translate(47.0925 48.518906) scale(0.14 -0.14)">
       <use xlink:href="#DejaVuSans-36"/>
      </g>
     </g>
    </g>
    <g id="text_22">
     <!-- Log₁₀ Parasite Density -->
     <g style="fill: #262626" transform="translate(22.449375 258.984844) rotate(-90) scale(0.14 -0.14)">
      <defs>
       <path id="DejaVuSans-4c" d="M 628 4666 
L 1259 4666 
L 1259 531 
L 3531 531 
L 3531 0 
L 628 0 
L 628 4666 
z
" transform="scale(0.015625)"/>
       <path id="DejaVuSans-2081" d="M 488 319 
L 1125 319 
L 1125 2229 
L 428 2101 
L 428 2463 
L 1147 2585 
L 1575 2585 
L 1575 319 
L 2216 319 
L 2216 -24 
L 488 -24 
L 488 319 
z
" transform="scale(0.015625)"/>
       <path id="DejaVuSans-2080" d="M 1781 2091 
Q 1625 2360 1309 2360 
Q 994 2360 838 2091 
Q 678 1822 678 1285 
Q 678 744 838 476 
Q 994 207 1309 207 
Q 1625 207 1781 476 
Q 1941 744 1941 1285 
Q 1941 1822 1781 2091 
z
M 1309 2638 
Q 1813 2638 2078 2291 
Q 2344 1944 2344 1285 
Q 2344 622 2078 275 
Q 1813 -71 1309 -71 
Q 803 -71 537 275 
Q 272 622 272 1285 
Q 272 1944 537 2291 
Q 803 2638 1309 2638 
z
" transform="scale(0.015625)"/>
       <path id="DejaVuSans-50" d="M 1259 4147 
L 1259 2394 
L 2053 2394 
Q 2494 2394 2734 2622 
Q 2975 2850 2975 3272 
Q 2975 3691 2734 3919 
Q 2494 4147 2053 4147 
L 1259 4147 
z
M 628 4666 
L 2053 4666 
Q 2838 4666 3239 4311 
Q 3641 3956 3641 3272 
Q 3641 2581 3239 2228 
Q 2838 1875 2053 1875 
L 1259 1875 
L 1259 0 
L 628 0 
L 628 4666 
z
" transform="scale(0.015625)"/>
       <path id="DejaVuSans-73" d="M 2834 3397 
L 2834 2853 
Q 2591 2978 2328 3040 
Q 2066 3103 1784 3103 
Q 1356 3103 1142 2972 
Q 928 2841 928 2578 
Q 928 2378 1081 2264 
Q 1234 2150 1697 2047 
L 1894 2003 
Q 2506 1872 2764 1633 
Q 3022 1394 3022 966 
Q 3022 478 2636 193 
Q 2250 -91 1575 -91 
Q 1294 -91 989 -36 
Q 684 19 347 128 
L 347 722 
Q 666 556 975 473 
Q 1284 391 1588 391 
Q 1994 391 2212 530 
Q 2431 669 2431 922 
Q 2431 1156 2273 1281 
Q 2116 1406 1581 1522 
L 1381 1569 
Q 847 1681 609 1914 
Q 372 2147 372 2553 
Q 372 3047 722 3315 
Q 1072 3584 1716 3584 
Q 2034 3584 2315 3537 
Q 2597 3491 2834 3397 
z
" transform="scale(0.015625)"/>
       <path id="DejaVuSans-44" d="M 1259 4147 
L 1259 519 
L 2022 519 
Q 2988 519 3436 956 
Q 3884 1394 3884 2338 
Q 3884 3275 3436 3711 
Q 2988 4147 2022 4147 
L 1259 4147 
z
M 628 4666 
L 1925 4666 
Q 3281 4666 3915 4102 
Q 4550 3538 4550 2338 
Q 4550 1131 3912 565 
Q 3275 0 1925 0 
L 628 0 
L 628 4666 
z
" transform="scale(0.015625)"/>
       <path id="DejaVuSans-79" d="M 2059 -325 
Q 1816 -950 1584 -1140 
Q 1353 -1331 966 -1331 
L 506 -1331 
L 506 -850 
L 844 -850 
Q 1081 -850 1212 -737 
Q 1344 -625 1503 -206 
L 1606 56 
L 191 3500 
L 800 3500 
L 1894 763 
L 2988 3500 
L 3597 3500 
L 2059 -325 
z
" transform="scale(0.015625)"/>
      </defs>
      <use xlink:href="#DejaVuSans-4c"/>
      <use xlink:href="#DejaVuSans-6f" transform="translate(53.962891 0)"/>
      <use xlink:href="#DejaVuSans-67" transform="translate(115.144531 0)"/>
      <use xlink:href="#DejaVuSans-2081" transform="translate(178.621094 0)"/>
      <use xlink:href="#DejaVuSans-2080" transform="translate(218.708984 0)"/>
      <use xlink:href="#DejaVuSans-20" transform="translate(258.796875 0)"/>
      <use xlink:href="#DejaVuSans-50" transform="translate(290.583984 0)"/>
      <use xlink:href="#DejaVuSans-61" transform="translate(346.386719 0)"/>
      <use xlink:href="#DejaVuSans-72" transform="translate(407.666016 0)"/>
      <use xlink:href="#DejaVuSans-61" transform="translate(448.779297 0)"/>
      <use xlink:href="#DejaVuSans-73" transform="translate(510.058594 0)"/>
      <use xlink:href="#DejaVuSans-69" transform="translate(562.158203 0)"/>
      <use xlink:href="#DejaVuSans-74" transform="translate(589.941406 0)"/>
      <use xlink:href="#DejaVuSans-65" transform="translate(629.150391 0)"/>
      <use xlink:href="#DejaVuSans-20" transform="translate(690.673828 0)"/>
      <use xlink:href="#DejaVuSans-44" transform="translate(722.460938 0)"/>
      <use xlink:href="#DejaVuSans-65" transform="translate(799.462891 0)"/>
      <use xlink:href="#DejaVuSans-6e" transform="translate(860.986328 0)"/>
      <use xlink:href="#DejaVuSans-73" transform="translate(924.365234 0)"/>
      <use xlink:href="#DejaVuSans-69" transform="translate(976.464844 0)"/>
      <use xlink:href="#DejaVuSans-74" transform="translate(1004.248047 0)"/>
      <use xlink:href="#DejaVuSans-79" transform="translate(1043.457031 0)"/>
     </g>
    </g>
   </g>
   <g id="FillBetweenPolyCollection_1"/>
   <g id="FillBetweenPolyCollection_2"/>
   <g id="FillBetweenPolyCollection_3"/>
   <g id="FillBetweenPolyCollection_4"/>
   <g id="FillBetweenPolyCollection_5"/>
   <g id="FillBetweenPolyCollection_6">
    <defs>
     <path id="mb7d9fba2d4" d="M 63.944495 -39.6 
L 63.944495 -39.6 
L 65.833486 -39.6 
L 67.722476 -39.6 
L 69.611467 -39.6 
L 71.500457 -39.6 
L 73.389447 -39.6 
L 75.278438 -39.6 
L 77.167428 -39.6 
L 79.056419 -39.6 
L 80.945409 -39.6 
L 82.8344 -39.6 
L 84.72339 -39.6 
L 86.612381 -39.6 
L 88.501371 -39.6 
L 90.390362 -39.6 
L 92.279352 -39.6 
L 94.168342 -39.6 
L 96.057333 -39.6 
L 97.946323 -39.6 
L 99.835314 -39.6 
L 101.724304 -39.6 
L 103.613295 -39.6 
L 105.502285 -39.6 
L 107.391276 -39.6 
L 109.280266 -39.6 
L 111.169257 -39.6 
L 113.058247 -39.6 
L 114.947237 -39.6 
L 116.836228 -39.6 
L 118.725218 -39.6 
L 120.614209 -39.6 
L 122.503199 -39.6 
L 124.39219 -39.6 
L 126.28118 -39.6 
L 128.170171 -39.6 
L 130.059161 -39.6 
L 131.948152 -39.6 
L 133.837142 -39.6 
L 135.726132 -39.6 
L 137.615123 -39.6 
L 139.504113 -39.6 
L 141.393104 -39.6 
L 143.282094 -39.6 
L 145.171085 -39.6 
L 147.060075 -39.6 
L 148.949066 -39.6 
L 150.838056 -39.6 
L 152.727046 -39.6 
L 154.616037 -39.6 
L 156.505027 -39.6 
L 158.394018 -39.6 
L 160.283008 -39.6 
L 162.171999 -39.6 
L 164.060989 -39.6 
L 165.94998 -39.6 
L 167.83897 -39.6 
L 169.727961 -39.6 
L 171.616951 -39.6 
L 173.505941 -39.6 
L 175.394932 -39.6 
L 177.283922 -39.6 
L 179.172913 -39.6 
L 181.061903 -39.6 
L 182.950894 -39.6 
L 184.839884 -39.6 
L 186.728875 -39.6 
L 188.617865 -39.6 
L 190.506856 -39.6 
L 192.395846 -39.6 
L 194.284836 -39.6 
L 196.173827 -39.6 
L 198.062817 -39.6 
L 199.951808 -39.6 
L 201.840798 -39.6 
L 203.729789 -39.6 
L 205.618779 -39.6 
L 207.50777 -39.6 
L 209.39676 -39.6 
L 211.285751 -39.6 
L 213.174741 -39.6 
L 215.063731 -39.6 
L 216.952722 -39.6 
L 218.841712 -39.6 
L 220.730703 -39.6 
L 222.619693 -39.6 
L 224.508684 -39.6 
L 226.397674 -39.6 
L 228.286665 -39.6 
L 230.175655 -39.6 
L 232.064645 -39.6 
L 233.953636 -39.6 
L 235.842626 -39.6 
L 237.731617 -39.6 
L 239.620607 -39.6 
L 241.509598 -39.6 
L 243.398588 -39.6 
L 245.287579 -39.6 
L 247.176569 -39.6 
L 249.06556 -39.6 
L 250.95455 -39.6 
L 252.84354 -39.6 
L 254.732531 -39.6 
L 256.621521 -39.6 
L 258.510512 -39.6 
L 260.399502 -39.6 
L 262.288493 -39.6 
L 264.177483 -39.6 
L 266.066474 -39.6 
L 267.955464 -39.6 
L 269.844455 -39.6 
L 271.733445 -39.6 
L 273.622435 -39.6 
L 275.511426 -39.6 
L 277.400416 -39.6 
L 279.289407 -39.6 
L 281.178397 -39.6 
L 283.067388 -39.6 
L 284.956378 -39.6 
L 286.845369 -39.6 
L 288.734359 -39.6 
L 290.623349 -39.6 
L 292.51234 -39.6 
L 294.40133 -39.6 
L 296.290321 -39.6 
L 298.179311 -39.6 
L 300.068302 -39.6 
L 301.957292 -39.6 
L 303.846283 -39.6 
L 305.735273 -39.6 
L 307.624264 -39.6 
L 309.513254 -39.6 
L 311.402244 -39.6 
L 313.291235 -39.6 
L 315.180225 -39.6 
L 317.069216 -39.6 
L 318.958206 -39.6 
L 320.847197 -39.6 
L 322.736187 -39.6 
L 324.625178 -39.6 
L 326.514168 -39.6 
L 328.403159 -39.6 
L 330.292149 -39.6 
L 332.181139 -39.6 
L 334.07013 -39.6 
L 335.95912 -39.6 
L 337.848111 -39.6 
L 339.737101 -39.6 
L 341.626092 -39.6 
L 343.515082 -39.6 
L 345.404073 -39.6 
L 347.293063 -39.6 
L 349.182054 -39.6 
L 351.071044 -39.6 
L 352.960034 -39.6 
L 354.849025 -39.6 
L 356.738015 -39.6 
L 358.627006 -39.6 
L 360.515996 -39.6 
L 362.404987 -39.6 
L 364.293977 -39.6 
L 366.182968 -39.6 
L 368.071958 -39.6 
L 369.960948 -39.6 
L 371.849939 -39.6 
L 373.738929 -39.6 
L 375.62792 -39.6 
L 377.51691 -39.6 
L 379.405901 -39.6 
L 381.294891 -39.6 
L 383.183882 -39.6 
L 385.072872 -39.6 
L 386.961863 -39.6 
L 388.850853 -39.6 
L 390.739843 -39.6 
L 392.628834 -39.6 
L 394.517824 -39.6 
L 396.406815 -39.6 
L 398.295805 -39.6 
L 400.184796 -39.6 
L 402.073786 -39.6 
L 403.962777 -39.6 
L 405.851767 -39.6 
L 407.740758 -39.6 
L 409.629748 -39.6 
L 411.518738 -39.6 
L 413.407729 -39.6 
L 415.296719 -39.6 
L 417.18571 -39.6 
L 419.0747 -39.6 
L 420.963691 -39.6 
L 422.852681 -39.6 
L 424.741672 -39.6 
L 426.630662 -39.6 
L 428.519653 -39.6 
L 430.408643 -39.6 
L 432.297633 -39.6 
L 434.186624 -39.6 
L 436.075614 -74.046861 
L 437.964605 -39.6 
L 437.964605 -57.711805 
L 437.964605 -57.711805 
L 436.075614 -142.940584 
L 434.186624 -71.037447 
L 432.297633 -142.601558 
L 430.408643 -146.021657 
L 428.519653 -204.83798 
L 426.630662 -136.680181 
L 424.741672 -138.811522 
L 422.852681 -159.592559 
L 420.963691 -167.944315 
L 419.0747 -165.261058 
L 417.18571 -176.646967 
L 415.296719 -163.603376 
L 413.407729 -153.445058 
L 411.518738 -137.343111 
L 409.629748 -176.936287 
L 407.740758 -170.066713 
L 405.851767 -160.17482 
L 403.962777 -169.458265 
L 402.073786 -161.382662 
L 400.184796 -171.184466 
L 398.295805 -166.594497 
L 396.406815 -159.16826 
L 394.517824 -163.771113 
L 392.628834 -162.320669 
L 390.739843 -161.762948 
L 388.850853 -174.609026 
L 386.961863 -162.089804 
L 385.072872 -147.901328 
L 383.183882 -161.719402 
L 381.294891 -161.739898 
L 379.405901 -164.832864 
L 377.51691 -150.206341 
L 375.62792 -162.774561 
L 373.738929 -166.320769 
L 371.849939 -147.283763 
L 369.960948 -136.287604 
L 368.071958 -140.638913 
L 366.182968 -130.840976 
L 364.293977 -136.930146 
L 362.404987 -162.403597 
L 360.515996 -137.822726 
L 358.627006 -158.125839 
L 356.738015 -149.173633 
L 354.849025 -140.351245 
L 352.960034 -156.190352 
L 351.071044 -162.033362 
L 349.182054 -171.019705 
L 347.293063 -154.114901 
L 345.404073 -161.124981 
L 343.515082 -161.307339 
L 341.626092 -164.133137 
L 339.737101 -150.832521 
L 337.848111 -170.0482 
L 335.95912 -172.795151 
L 334.07013 -164.295421 
L 332.181139 -161.732839 
L 330.292149 -173.322885 
L 328.403159 -171.443687 
L 326.514168 -160.443658 
L 324.625178 -178.853404 
L 322.736187 -175.114737 
L 320.847197 -222.736157 
L 318.958206 -169.486489 
L 317.069216 -219.200217 
L 315.180225 -184.925374 
L 313.291235 -177.319733 
L 311.402244 -173.850182 
L 309.513254 -169.257293 
L 307.624264 -175.965072 
L 305.735273 -217.912259 
L 303.846283 -174.311142 
L 301.957292 -171.44672 
L 300.068302 -169.456133 
L 298.179311 -169.364888 
L 296.290321 -169.178848 
L 294.40133 -165.299064 
L 292.51234 -179.878266 
L 290.623349 -161.962217 
L 288.734359 -164.945777 
L 286.845369 -170.92762 
L 284.956378 -163.845366 
L 283.067388 -160.728996 
L 281.178397 -160.323888 
L 279.289407 -154.021979 
L 277.400416 -145.995134 
L 275.511426 -162.049666 
L 273.622435 -161.527849 
L 271.733445 -158.716184 
L 269.844455 -161.595145 
L 267.955464 -160.241369 
L 266.066474 -153.578875 
L 264.177483 -157.694281 
L 262.288493 -156.540861 
L 260.399502 -151.938395 
L 258.510512 -139.277587 
L 256.621521 -135.796639 
L 254.732531 -144.315199 
L 252.84354 -149.902818 
L 250.95455 -153.587003 
L 249.06556 -138.349294 
L 247.176569 -141.312534 
L 245.287579 -145.927428 
L 243.398588 -143.670927 
L 241.509598 -127.990401 
L 239.620607 -143.223131 
L 237.731617 -137.036801 
L 235.842626 -134.526007 
L 233.953636 -135.894609 
L 232.064645 -133.316893 
L 230.175655 -139.254276 
L 228.286665 -126.796613 
L 226.397674 -130.66082 
L 224.508684 -127.355143 
L 222.619693 -127.716848 
L 220.730703 -127.966997 
L 218.841712 -123.896554 
L 216.952722 -128.676215 
L 215.063731 -120.896184 
L 213.174741 -135.115319 
L 211.285751 -131.965367 
L 209.39676 -130.482869 
L 207.50777 -137.298179 
L 205.618779 -127.845202 
L 203.729789 -131.973221 
L 201.840798 -131.862184 
L 199.951808 -133.335421 
L 198.062817 -143.7085 
L 196.173827 -116.758619 
L 194.284836 -131.625399 
L 192.395846 -127.73445 
L 190.506856 -119.092489 
L 188.617865 -123.757728 
L 186.728875 -136.347459 
L 184.839884 -139.929108 
L 182.950894 -123.323341 
L 181.061903 -136.066648 
L 179.172913 -130.527754 
L 177.283922 -141.117005 
L 175.394932 -123.455348 
L 173.505941 -125.031233 
L 171.616951 -120.546446 
L 169.727961 -125.255938 
L 167.83897 -128.13404 
L 165.94998 -130.235976 
L 164.060989 -121.076232 
L 162.171999 -123.557487 
L 160.283008 -124.339396 
L 158.394018 -114.719132 
L 156.505027 -109.099447 
L 154.616037 -116.229662 
L 152.727046 -116.691838 
L 150.838056 -112.57136 
L 148.949066 -110.369963 
L 147.060075 -112.224393 
L 145.171085 -118.707561 
L 143.282094 -124.026422 
L 141.393104 -108.912936 
L 139.504113 -118.98656 
L 137.615123 -105.913448 
L 135.726132 -123.091037 
L 133.837142 -116.16022 
L 131.948152 -110.834485 
L 130.059161 -125.054609 
L 128.170171 -129.813902 
L 126.28118 -118.342926 
L 124.39219 -114.286354 
L 122.503199 -120.865469 
L 120.614209 -113.186204 
L 118.725218 -119.197402 
L 116.836228 -107.650053 
L 114.947237 -114.584632 
L 113.058247 -113.076673 
L 111.169257 -107.979329 
L 109.280266 -114.486004 
L 107.391276 -109.855644 
L 105.502285 -119.15378 
L 103.613295 -107.528437 
L 101.724304 -115.162205 
L 99.835314 -113.469741 
L 97.946323 -108.799254 
L 96.057333 -109.715024 
L 94.168342 -112.910506 
L 92.279352 -109.873014 
L 90.390362 -104.264767 
L 88.501371 -110.404675 
L 86.612381 -106.353374 
L 84.72339 -105.748346 
L 82.8344 -106.754767 
L 80.945409 -102.229452 
L 79.056419 -103.069493 
L 77.167428 -101.464885 
L 75.278438 -100.372338 
L 73.389447 -95.991732 
L 71.500457 -94.588159 
L 69.611467 -92.193161 
L 67.722476 -89.596078 
L 65.833486 -82.656552 
L 63.944495 -39.6 
z
" style="stroke: #008400; stroke-opacity: 0.5"/>
    </defs>
    <g clip-path="url(#p53b25b792a)">
     <use xlink:href="#mb7d9fba2d4" x="0" y="360" style="fill: #008400; fill-opacity: 0.5; stroke: #008400; stroke-opacity: 0.5"/>
    </g>
   </g>
   <g id="FillBetweenPolyCollection_7">
    <defs>
     <path id="meb1da7e58f" d="M 63.944495 -39.6 
L 63.944495 -39.6 
L 65.833486 -39.6 
L 67.722476 -39.6 
L 69.611467 -39.6 
L 71.500457 -39.6 
L 73.389447 -39.6 
L 75.278438 -39.6 
L 77.167428 -39.6 
L 79.056419 -39.6 
L 80.945409 -39.6 
L 82.8344 -39.6 
L 84.72339 -39.6 
L 86.612381 -39.6 
L 88.501371 -39.6 
L 90.390362 -39.6 
L 92.279352 -39.6 
L 94.168342 -39.6 
L 96.057333 -39.6 
L 97.946323 -39.6 
L 99.835314 -39.6 
L 101.724304 -39.6 
L 103.613295 -39.6 
L 105.502285 -39.6 
L 107.391276 -39.6 
L 109.280266 -39.6 
L 111.169257 -39.6 
L 113.058247 -39.6 
L 114.947237 -39.6 
L 116.836228 -39.6 
L 118.725218 -39.6 
L 120.614209 -39.6 
L 122.503199 -39.6 
L 124.39219 -39.6 
L 126.28118 -39.6 
L 128.170171 -39.6 
L 130.059161 -39.6 
L 131.948152 -39.6 
L 133.837142 -39.6 
L 135.726132 -39.6 
L 137.615123 -39.6 
L 139.504113 -39.6 
L 141.393104 -39.6 
L 143.282094 -39.6 
L 145.171085 -39.6 
L 147.060075 -39.6 
L 148.949066 -39.6 
L 150.838056 -39.6 
L 152.727046 -39.6 
L 154.616037 -39.6 
L 156.505027 -39.6 
L 158.394018 -39.6 
L 160.283008 -39.6 
L 162.171999 -39.6 
L 164.060989 -39.6 
L 165.94998 -39.6 
L 167.83897 -39.6 
L 169.727961 -39.6 
L 171.616951 -39.6 
L 173.505941 -39.6 
L 175.394932 -39.6 
L 177.283922 -39.6 
L 179.172913 -39.6 
L 181.061903 -39.6 
L 182.950894 -39.6 
L 184.839884 -39.6 
L 186.728875 -39.6 
L 188.617865 -39.6 
L 190.506856 -39.6 
L 192.395846 -39.6 
L 194.284836 -39.6 
L 196.173827 -39.6 
L 198.062817 -39.6 
L 199.951808 -39.6 
L 201.840798 -39.6 
L 203.729789 -39.6 
L 205.618779 -39.6 
L 207.50777 -39.6 
L 209.39676 -39.6 
L 211.285751 -39.6 
L 213.174741 -39.6 
L 215.063731 -39.6 
L 216.952722 -39.6 
L 218.841712 -39.6 
L 220.730703 -39.6 
L 222.619693 -39.6 
L 224.508684 -39.6 
L 226.397674 -39.6 
L 228.286665 -39.6 
L 230.175655 -39.6 
L 232.064645 -39.6 
L 233.953636 -39.6 
L 235.842626 -39.6 
L 237.731617 -39.6 
L 239.620607 -39.6 
L 241.509598 -39.6 
L 243.398588 -39.6 
L 245.287579 -39.6 
L 247.176569 -39.6 
L 249.06556 -39.6 
L 250.95455 -39.6 
L 252.84354 -39.6 
L 254.732531 -39.6 
L 256.621521 -39.6 
L 258.510512 -39.6 
L 260.399502 -39.6 
L 262.288493 -39.6 
L 264.177483 -39.6 
L 266.066474 -39.6 
L 267.955464 -39.6 
L 269.844455 -39.6 
L 271.733445 -39.6 
L 273.622435 -39.6 
L 275.511426 -39.6 
L 277.400416 -39.6 
L 279.289407 -39.6 
L 281.178397 -39.6 
L 283.067388 -39.6 
L 284.956378 -39.6 
L 286.845369 -39.6 
L 288.734359 -39.6 
L 290.623349 -39.6 
L 292.51234 -39.6 
L 294.40133 -39.6 
L 296.290321 -39.6 
L 298.179311 -39.6 
L 300.068302 -39.6 
L 301.957292 -39.6 
L 303.846283 -39.6 
L 305.735273 -39.6 
L 307.624264 -39.6 
L 309.513254 -39.6 
L 311.402244 -39.6 
L 313.291235 -39.6 
L 315.180225 -39.6 
L 317.069216 -39.6 
L 318.958206 -39.6 
L 320.847197 -39.6 
L 322.736187 -39.6 
L 324.625178 -39.6 
L 326.514168 -39.6 
L 328.403159 -39.6 
L 330.292149 -39.6 
L 332.181139 -39.6 
L 334.07013 -39.6 
L 335.95912 -39.6 
L 337.848111 -39.6 
L 339.737101 -39.6 
L 341.626092 -39.6 
L 343.515082 -39.6 
L 345.404073 -39.6 
L 347.293063 -39.6 
L 349.182054 -39.6 
L 351.071044 -39.6 
L 352.960034 -39.6 
L 354.849025 -39.6 
L 356.738015 -39.6 
L 358.627006 -39.6 
L 360.515996 -39.6 
L 362.404987 -39.6 
L 364.293977 -39.6 
L 366.182968 -39.6 
L 368.071958 -39.6 
L 369.960948 -39.6 
L 371.849939 -39.6 
L 373.738929 -39.6 
L 375.62792 -39.6 
L 377.51691 -39.6 
L 379.405901 -39.6 
L 381.294891 -39.6 
L 383.183882 -39.6 
L 385.072872 -39.6 
L 386.961863 -39.6 
L 388.850853 -39.6 
L 390.739843 -39.6 
L 392.628834 -39.6 
L 394.517824 -39.6 
L 396.406815 -39.6 
L 398.295805 -39.6 
L 400.184796 -39.6 
L 402.073786 -39.6 
L 403.962777 -39.6 
L 405.851767 -39.6 
L 407.740758 -39.6 
L 409.629748 -39.6 
L 411.518738 -39.6 
L 413.407729 -39.6 
L 415.296719 -39.6 
L 417.18571 -39.6 
L 419.0747 -39.6 
L 420.963691 -39.6 
L 422.852681 -39.6 
L 424.741672 -39.6 
L 426.630662 -39.6 
L 428.519653 -39.6 
L 430.408643 -39.6 
L 432.297633 -39.6 
L 434.186624 -39.6 
L 436.075614 -46.489372 
L 437.964605 -39.6 
L 437.964605 -72.20125 
L 437.964605 -72.20125 
L 436.075614 -170.498072 
L 434.186624 -148.876968 
L 432.297633 -185.493386 
L 430.408643 -259.490763 
L 428.519653 -269.769723 
L 426.630662 -264.582778 
L 424.741672 -261.725309 
L 422.852681 -249.551171 
L 420.963691 -259.880264 
L 419.0747 -271.821907 
L 417.18571 -273.139047 
L 415.296719 -269.76265 
L 413.407729 -268.322479 
L 411.518738 -255.636883 
L 409.629748 -272.717789 
L 407.740758 -270.685094 
L 405.851767 -265.990818 
L 403.962777 -272.039787 
L 402.073786 -274.122952 
L 400.184796 -269.306705 
L 398.295805 -270.941814 
L 396.406815 -259.194458 
L 394.517824 -270.426071 
L 392.628834 -272.217776 
L 390.739843 -268.958357 
L 388.850853 -274.137291 
L 386.961863 -270.942922 
L 385.072872 -269.672265 
L 383.183882 -270.091951 
L 381.294891 -270.865657 
L 379.405901 -266.87221 
L 377.51691 -261.341379 
L 375.62792 -271.19299 
L 373.738929 -269.386121 
L 371.849939 -269.856681 
L 369.960948 -260.166861 
L 368.071958 -256.984216 
L 366.182968 -258.385257 
L 364.293977 -261.05511 
L 362.404987 -263.839854 
L 360.515996 -257.246864 
L 358.627006 -259.002193 
L 356.738015 -268.790615 
L 354.849025 -267.772923 
L 352.960034 -264.532553 
L 351.071044 -268.522555 
L 349.182054 -263.620946 
L 347.293063 -267.9508 
L 345.404073 -267.430003 
L 343.515082 -270.911346 
L 341.626092 -267.205125 
L 339.737101 -261.513669 
L 337.848111 -266.067548 
L 335.95912 -261.412188 
L 334.07013 -265.709421 
L 332.181139 -261.87332 
L 330.292149 -265.543021 
L 328.403159 -267.532542 
L 326.514168 -269.287189 
L 324.625178 -268.281683 
L 322.736187 -263.311942 
L 320.847197 -266.077401 
L 318.958206 -269.937423 
L 317.069216 -267.522276 
L 315.180225 -264.703281 
L 313.291235 -272.769559 
L 311.402244 -266.763056 
L 309.513254 -264.925705 
L 307.624264 -266.994225 
L 305.735273 -266.341496 
L 303.846283 -262.012802 
L 301.957292 -266.839793 
L 300.068302 -266.237728 
L 298.179311 -265.962458 
L 296.290321 -267.327324 
L 294.40133 -263.56875 
L 292.51234 -265.778794 
L 290.623349 -262.489504 
L 288.734359 -264.491471 
L 286.845369 -263.804769 
L 284.956378 -260.691288 
L 283.067388 -264.119402 
L 281.178397 -261.753321 
L 279.289407 -259.769335 
L 277.400416 -262.031683 
L 275.511426 -264.342931 
L 273.622435 -266.884703 
L 271.733445 -260.718582 
L 269.844455 -265.040774 
L 267.955464 -261.785176 
L 266.066474 -260.17423 
L 264.177483 -261.836282 
L 262.288493 -261.809615 
L 260.399502 -254.467619 
L 258.510512 -261.544935 
L 256.621521 -258.160374 
L 254.732531 -254.072707 
L 252.84354 -260.246823 
L 250.95455 -259.822579 
L 249.06556 -253.887259 
L 247.176569 -254.978806 
L 245.287579 -255.822861 
L 243.398588 -253.335792 
L 241.509598 -249.356936 
L 239.620607 -257.42729 
L 237.731617 -257.315009 
L 235.842626 -255.534674 
L 233.953636 -252.068383 
L 232.064645 -250.047679 
L 230.175655 -253.028995 
L 228.286665 -251.707573 
L 226.397674 -246.370812 
L 224.508684 -248.528046 
L 222.619693 -249.52624 
L 220.730703 -248.376578 
L 218.841712 -249.020179 
L 216.952722 -249.901645 
L 215.063731 -250.58899 
L 213.174741 -252.826364 
L 211.285751 -253.804993 
L 209.39676 -252.578276 
L 207.50777 -254.229079 
L 205.618779 -249.918881 
L 203.729789 -250.214553 
L 201.840798 -248.680423 
L 199.951808 -256.058712 
L 198.062817 -254.795473 
L 196.173827 -249.020122 
L 194.284836 -251.235998 
L 192.395846 -249.424915 
L 190.506856 -250.128483 
L 188.617865 -247.309806 
L 186.728875 -250.178412 
L 184.839884 -253.23861 
L 182.950894 -239.630211 
L 181.061903 -254.755699 
L 179.172913 -248.846597 
L 177.283922 -251.150288 
L 175.394932 -250.285498 
L 173.505941 -247.285908 
L 171.616951 -249.201047 
L 169.727961 -245.056279 
L 167.83897 -246.795367 
L 165.94998 -252.700895 
L 164.060989 -244.450772 
L 162.171999 -244.594436 
L 160.283008 -242.722678 
L 158.394018 -243.139484 
L 156.505027 -239.655572 
L 154.616037 -242.888356 
L 152.727046 -244.707029 
L 150.838056 -240.092833 
L 148.949066 -238.826132 
L 147.060075 -240.837646 
L 145.171085 -246.015157 
L 143.282094 -245.486531 
L 141.393104 -242.94928 
L 139.504113 -238.83926 
L 137.615123 -237.329238 
L 135.726132 -243.543861 
L 133.837142 -241.857857 
L 131.948152 -238.704554 
L 130.059161 -239.13338 
L 128.170171 -241.14676 
L 126.28118 -240.122164 
L 124.39219 -240.955384 
L 122.503199 -239.996609 
L 120.614209 -236.136307 
L 118.725218 -236.94735 
L 116.836228 -234.263561 
L 114.947237 -236.663918 
L 113.058247 -234.122213 
L 111.169257 -235.183776 
L 109.280266 -234.722459 
L 107.391276 -235.240093 
L 105.502285 -233.794645 
L 103.613295 -234.186884 
L 101.724304 -229.782923 
L 99.835314 -231.406559 
L 97.946323 -230.526169 
L 96.057333 -228.634681 
L 94.168342 -228.234631 
L 92.279352 -229.268574 
L 90.390362 -225.785837 
L 88.501371 -226.927189 
L 86.612381 -227.384415 
L 84.72339 -222.604779 
L 82.8344 -221.443397 
L 80.945409 -219.947961 
L 79.056419 -219.653679 
L 77.167428 -218.249994 
L 75.278438 -214.154875 
L 73.389447 -211.837568 
L 71.500457 -209.83905 
L 69.611467 -205.39292 
L 67.722476 -201.000535 
L 65.833486 -193.69623 
L 63.944495 -39.6 
z
" style="stroke: #008400; stroke-opacity: 0.1"/>
    </defs>
    <g clip-path="url(#p53b25b792a)">
     <use xlink:href="#meb1da7e58f" x="0" y="360" style="fill: #008400; fill-opacity: 0.1; stroke: #008400; stroke-opacity: 0.1"/>
    </g>
   </g>
   <g id="line2d_21">
    <path d="M 63.944495 320.4 
L 260.399502 320.4 
L 262.288493 311.128276 
L 264.177483 320.4 
L 266.066474 320.4 
L 267.955464 311.128276 
L 271.733445 320.4 
L 273.622435 320.4 
L 275.511426 311.128276 
L 277.400416 320.4 
L 279.289407 311.128276 
L 284.956378 311.128276 
L 286.845369 305.704665 
L 288.734359 311.128276 
L 290.623349 311.128276 
L 292.51234 305.704665 
L 298.179311 305.704665 
L 300.068302 303.780609 
L 301.957292 311.128276 
L 303.846283 305.704665 
L 305.735273 301.856552 
L 307.624264 298.871724 
L 311.402244 301.856552 
L 313.291235 301.856552 
L 315.180225 311.128276 
L 318.958206 311.128276 
L 320.847197 291.009331 
L 322.736187 301.856552 
L 324.625178 298.871724 
L 326.514168 311.128276 
L 328.403159 320.4 
L 330.292149 311.128276 
L 332.181139 320.4 
L 334.07013 320.4 
L 335.95912 308.416471 
L 337.848111 305.704665 
L 339.737101 320.4 
L 341.626092 311.128276 
L 343.515082 320.4 
L 347.293063 320.4 
L 349.182054 311.128276 
L 351.071044 311.128276 
L 352.960034 320.4 
L 371.849939 320.4 
L 373.738929 311.128276 
L 375.62792 311.128276 
L 377.51691 320.4 
L 379.405901 320.4 
L 381.294891 311.128276 
L 383.183882 305.704665 
L 385.072872 320.4 
L 386.961863 311.128276 
L 388.850853 308.416471 
L 390.739843 311.128276 
L 396.406815 311.128276 
L 400.184796 305.704665 
L 402.073786 311.128276 
L 403.962777 303.780609 
L 405.851767 311.128276 
L 407.740758 305.704665 
L 409.629748 296.432941 
L 411.518738 320.4 
L 413.407729 320.4 
L 415.296719 311.128276 
L 417.18571 303.780609 
L 419.0747 311.128276 
L 420.963691 308.416471 
L 422.852681 320.4 
L 424.741672 320.4 
L 426.630662 303.780609 
L 428.519653 292.584828 
L 430.408643 320.4 
L 432.297633 305.704665 
L 434.186624 320.4 
L 436.075614 251.506278 
L 437.964605 320.4 
L 437.964605 320.4 
" clip-path="url(#p53b25b792a)" style="fill: none; stroke: #000000; stroke-width: 1.5; stroke-linecap: round"/>
   </g>
   <g id="line2d_22">
    <path d="M 63.944495 320.4 
L 434.186624 320.4 
L 436.075614 313.510628 
L 437.964605 320.4 
L 437.964605 320.4 
" clip-path="url(#p53b25b792a)" style="fill: none; stroke-dasharray: 5.55,2.4; stroke-dashoffset: 0; stroke: #000000; stroke-width: 1.5"/>
   </g>
   <g id="line2d_23">
    <path d="M 63.944495 320.4 
L 434.186624 320.4 
L 436.075614 285.953139 
L 437.964605 320.4 
L 437.964605 320.4 
" clip-path="url(#p53b25b792a)" style="fill: none; stroke-dasharray: 5.55,2.4; stroke-dashoffset: 0; stroke: #000000; stroke-width: 1.5"/>
   </g>
   <g id="line2d_24">
    <path d="M 63.944495 320.4 
L 65.833486 277.343448 
L 67.722476 270.403922 
L 69.611467 267.806839 
L 71.500457 265.411841 
L 73.389447 264.008268 
L 75.278438 259.627662 
L 77.167428 258.535115 
L 79.056419 256.930507 
L 80.945409 257.770548 
L 82.8344 253.245233 
L 84.72339 254.251654 
L 86.612381 253.646626 
L 88.501371 249.595325 
L 90.390362 255.735233 
L 92.279352 250.126986 
L 94.168342 247.089494 
L 96.057333 250.284976 
L 97.946323 251.200746 
L 99.835314 246.530259 
L 101.724304 244.837795 
L 103.613295 252.471563 
L 105.502285 240.84622 
L 107.391276 250.144356 
L 109.280266 245.513996 
L 111.169257 252.020671 
L 113.058247 246.923327 
L 114.947237 245.415368 
L 116.836228 252.349947 
L 118.725218 240.802598 
L 120.614209 246.813796 
L 122.503199 239.134531 
L 124.39219 245.713646 
L 126.28118 241.657074 
L 128.170171 230.186098 
L 130.059161 234.945391 
L 131.948152 249.165515 
L 133.837142 243.83978 
L 135.726132 236.908963 
L 137.615123 254.086552 
L 139.504113 241.01344 
L 141.393104 251.087064 
L 143.282094 235.973578 
L 145.171085 241.292439 
L 147.060075 247.775607 
L 148.949066 249.630037 
L 150.838056 247.42864 
L 152.727046 243.308162 
L 154.616037 243.770338 
L 156.505027 250.900553 
L 158.394018 245.280868 
L 160.283008 235.660604 
L 162.171999 236.442513 
L 164.060989 238.923768 
L 165.94998 229.764024 
L 167.83897 231.86596 
L 169.727961 234.744062 
L 171.616951 239.453554 
L 173.505941 234.968767 
L 175.394932 236.544652 
L 177.283922 218.882995 
L 179.172913 229.472246 
L 181.061903 223.933352 
L 182.950894 236.676659 
L 184.839884 220.070892 
L 186.728875 223.652541 
L 188.617865 236.242272 
L 190.506856 240.907511 
L 192.395846 232.26555 
L 194.284836 228.374601 
L 196.173827 243.241381 
L 198.062817 216.2915 
L 199.951808 226.664579 
L 201.840798 228.137816 
L 203.729789 228.026779 
L 205.618779 232.154798 
L 207.50777 222.701821 
L 209.39676 229.517131 
L 211.285751 228.034633 
L 213.174741 224.884681 
L 215.063731 239.103816 
L 216.952722 231.323785 
L 218.841712 236.103446 
L 220.730703 232.033003 
L 224.508684 232.644857 
L 226.397674 229.33918 
L 228.286665 233.203387 
L 230.175655 220.745724 
L 232.064645 226.683107 
L 233.953636 224.105391 
L 235.842626 225.473993 
L 237.731617 222.963199 
L 239.620607 216.776869 
L 241.509598 232.009599 
L 243.398588 216.329073 
L 245.287579 214.072572 
L 247.176569 218.687466 
L 249.06556 221.650706 
L 250.95455 206.412997 
L 252.84354 210.097182 
L 254.732531 215.684801 
L 256.621521 224.203361 
L 258.510512 220.722413 
L 260.399502 208.061605 
L 262.288493 203.459139 
L 264.177483 202.305719 
L 266.066474 206.421125 
L 267.955464 199.758631 
L 269.844455 198.404855 
L 271.733445 201.283816 
L 273.622435 198.472151 
L 275.511426 197.950334 
L 277.400416 214.004866 
L 279.289407 205.978021 
L 281.178397 199.676112 
L 283.067388 199.271004 
L 284.956378 196.154634 
L 286.845369 189.07238 
L 288.734359 195.054223 
L 290.623349 198.037783 
L 292.51234 180.121734 
L 294.40133 194.700936 
L 296.290321 190.821152 
L 300.068302 190.543867 
L 301.957292 188.55328 
L 303.846283 185.688858 
L 305.735273 142.087741 
L 307.624264 184.034928 
L 309.513254 190.742707 
L 311.402244 186.149818 
L 313.291235 182.680267 
L 315.180225 175.074626 
L 317.069216 140.799783 
L 318.958206 190.513511 
L 320.847197 137.263843 
L 322.736187 184.885263 
L 324.625178 181.146596 
L 326.514168 199.556342 
L 328.403159 188.556313 
L 330.292149 186.677115 
L 332.181139 198.267161 
L 334.07013 195.704579 
L 335.95912 187.204849 
L 337.848111 189.9518 
L 339.737101 209.167479 
L 341.626092 195.866863 
L 343.515082 198.692661 
L 345.404073 198.875019 
L 347.293063 205.885099 
L 349.182054 188.980295 
L 351.071044 197.966638 
L 352.960034 203.809648 
L 354.849025 219.648755 
L 358.627006 201.874161 
L 360.515996 222.177274 
L 362.404987 197.596403 
L 364.293977 223.069854 
L 366.182968 229.159024 
L 368.071958 219.361087 
L 369.960948 223.712396 
L 371.849939 212.716237 
L 373.738929 193.679231 
L 375.62792 197.225439 
L 377.51691 209.793659 
L 379.405901 195.167136 
L 381.294891 198.260102 
L 383.183882 198.280598 
L 385.072872 212.098672 
L 386.961863 197.910196 
L 388.850853 185.390974 
L 390.739843 198.237052 
L 392.628834 197.679331 
L 394.517824 196.228887 
L 396.406815 200.83174 
L 398.295805 193.405503 
L 400.184796 188.815534 
L 402.073786 198.617338 
L 403.962777 190.541735 
L 405.851767 199.82518 
L 407.740758 189.933287 
L 409.629748 183.063713 
L 411.518738 222.656889 
L 413.407729 206.554942 
L 415.296719 196.396624 
L 417.18571 183.353033 
L 419.0747 194.738942 
L 420.963691 192.055685 
L 422.852681 200.407441 
L 424.741672 221.188478 
L 426.630662 223.319819 
L 428.519653 155.16202 
L 430.408643 213.978343 
L 432.297633 217.398442 
L 434.186624 288.962553 
L 436.075614 217.059416 
L 437.964605 302.288195 
L 437.964605 302.288195 
" clip-path="url(#p53b25b792a)" style="fill: none; stroke-dasharray: 5.55,2.4; stroke-dashoffset: 0; stroke: #000000; stroke-width: 1.5"/>
   </g>
   <g id="line2d_25">
    <path d="M 63.944495 320.4 
L 65.833486 166.30377 
L 67.722476 158.999465 
L 71.500457 150.16095 
L 73.389447 148.162432 
L 75.278438 145.845125 
L 77.167428 141.750006 
L 79.056419 140.346321 
L 80.945409 140.052039 
L 82.8344 138.556603 
L 84.72339 137.395221 
L 86.612381 132.615585 
L 88.501371 133.072811 
L 90.390362 134.214163 
L 92.279352 130.731426 
L 94.168342 131.765369 
L 96.057333 131.365319 
L 97.946323 129.473831 
L 99.835314 128.593441 
L 101.724304 130.217077 
L 103.613295 125.813116 
L 105.502285 126.205355 
L 107.391276 124.759907 
L 109.280266 125.277541 
L 111.169257 124.816224 
L 113.058247 125.877787 
L 114.947237 123.336082 
L 116.836228 125.736439 
L 118.725218 123.05265 
L 120.614209 123.863693 
L 122.503199 120.003391 
L 124.39219 119.044616 
L 126.28118 119.877836 
L 128.170171 118.85324 
L 130.059161 120.86662 
L 131.948152 121.295446 
L 133.837142 118.142143 
L 135.726132 116.456139 
L 137.615123 122.670762 
L 139.504113 121.16074 
L 141.393104 117.05072 
L 143.282094 114.513469 
L 145.171085 113.984843 
L 147.060075 119.162354 
L 148.949066 121.173868 
L 150.838056 119.907167 
L 152.727046 115.292971 
L 154.616037 117.111644 
L 156.505027 120.344428 
L 158.394018 116.860516 
L 160.283008 117.277322 
L 162.171999 115.405564 
L 164.060989 115.549228 
L 165.94998 107.299105 
L 167.83897 113.204633 
L 169.727961 114.943721 
L 171.616951 110.798953 
L 173.505941 112.714092 
L 175.394932 109.714502 
L 177.283922 108.849712 
L 179.172913 111.153403 
L 181.061903 105.244301 
L 182.950894 120.369789 
L 184.839884 106.76139 
L 188.617865 112.690194 
L 190.506856 109.871517 
L 192.395846 110.575085 
L 194.284836 108.764002 
L 196.173827 110.979878 
L 198.062817 105.204527 
L 199.951808 103.941288 
L 201.840798 111.319577 
L 203.729789 109.785447 
L 205.618779 110.081119 
L 207.50777 105.770921 
L 209.39676 107.421724 
L 211.285751 106.195007 
L 213.174741 107.173636 
L 215.063731 109.41101 
L 216.952722 110.098355 
L 218.841712 110.979821 
L 220.730703 111.623422 
L 222.619693 110.47376 
L 224.508684 111.471954 
L 226.397674 113.629188 
L 228.286665 108.292427 
L 230.175655 106.971005 
L 232.064645 109.952321 
L 233.953636 107.931617 
L 235.842626 104.465326 
L 237.731617 102.684991 
L 239.620607 102.57271 
L 241.509598 110.643064 
L 243.398588 106.664208 
L 245.287579 104.177139 
L 247.176569 105.021194 
L 249.06556 106.112741 
L 250.95455 100.177421 
L 252.84354 99.753177 
L 254.732531 105.927293 
L 256.621521 101.839626 
L 258.510512 98.455065 
L 260.399502 105.532381 
L 262.288493 98.190385 
L 264.177483 98.163718 
L 266.066474 99.82577 
L 267.955464 98.214824 
L 269.844455 94.959226 
L 271.733445 99.281418 
L 273.622435 93.115297 
L 275.511426 95.657069 
L 279.289407 100.230665 
L 281.178397 98.246679 
L 283.067388 95.880598 
L 284.956378 99.308712 
L 286.845369 96.195231 
L 288.734359 95.508529 
L 290.623349 97.510496 
L 292.51234 94.221206 
L 294.40133 96.43125 
L 296.290321 92.672676 
L 298.179311 94.037542 
L 300.068302 93.762272 
L 301.957292 93.160207 
L 303.846283 97.987198 
L 305.735273 93.658504 
L 307.624264 93.005775 
L 309.513254 95.074295 
L 311.402244 93.236944 
L 313.291235 87.230441 
L 315.180225 95.296719 
L 317.069216 92.477724 
L 318.958206 90.062577 
L 320.847197 93.922599 
L 322.736187 96.688058 
L 324.625178 91.718317 
L 326.514168 90.712811 
L 328.403159 92.467458 
L 330.292149 94.456979 
L 332.181139 98.12668 
L 334.07013 94.290579 
L 335.95912 98.587812 
L 337.848111 93.932452 
L 339.737101 98.486331 
L 341.626092 92.794875 
L 343.515082 89.088654 
L 345.404073 92.569997 
L 347.293063 92.0492 
L 349.182054 96.379054 
L 351.071044 91.477445 
L 352.960034 95.467447 
L 354.849025 92.227077 
L 356.738015 91.209385 
L 358.627006 100.997807 
L 360.515996 102.753136 
L 362.404987 96.160146 
L 366.182968 101.614743 
L 368.071958 103.015784 
L 369.960948 99.833139 
L 371.849939 90.143319 
L 373.738929 90.613879 
L 375.62792 88.80701 
L 377.51691 98.658621 
L 379.405901 93.12779 
L 381.294891 89.134343 
L 383.183882 89.908049 
L 385.072872 90.327735 
L 386.961863 89.057078 
L 388.850853 85.862709 
L 390.739843 91.041643 
L 392.628834 87.782224 
L 394.517824 89.573929 
L 396.406815 100.805542 
L 398.295805 89.058186 
L 400.184796 90.693295 
L 402.073786 85.877048 
L 403.962777 87.960213 
L 405.851767 94.009182 
L 407.740758 89.314906 
L 409.629748 87.282211 
L 411.518738 104.363117 
L 413.407729 91.677521 
L 415.296719 90.23735 
L 417.18571 86.860953 
L 419.0747 88.178093 
L 420.963691 100.119736 
L 422.852681 110.448829 
L 424.741672 98.274691 
L 426.630662 95.417222 
L 428.519653 90.230277 
L 430.408643 100.509237 
L 432.297633 174.506614 
L 434.186624 211.123032 
L 436.075614 189.501928 
L 437.964605 287.79875 
L 437.964605 287.79875 
" clip-path="url(#p53b25b792a)" style="fill: none; stroke-dasharray: 5.55,2.4; stroke-dashoffset: 0; stroke: #000000; stroke-width: 1.5"/>
   </g>
   <g id="patch_3">
    <path d="M 63 320.4 
L 63 43.2 
" style="fill: none; stroke: #262626; stroke-width: 0.8; stroke-linejoin: miter; stroke-linecap: square"/>
   </g>
   <g id="patch_4">
    <path d="M 63 320.4 
L 453.6 320.4 
" style="fill: none; stroke: #262626; stroke-width: 0.8; stroke-linejoin: miter; stroke-linecap: square"/>
   </g>
   <g id="text_23">
    <!-- Artemether Concentration vs Log₁₀ Parasite Density -->
    <g style="fill: #262626" transform="translate(76.923438 7.523062) scale(0.14 -0.14)">
     <defs>
      <path id="DejaVuSans-76" d="M 191 3500 
L 800 3500 
L 1894 563 
L 2988 3500 
L 3597 3500 
L 2284 0 
L 1503 0 
L 191 3500 
z
" transform="scale(0.015625)"/>
     </defs>
     <use xlink:href="#DejaVuSans-41"/>
     <use xlink:href="#DejaVuSans-72" transform="translate(68.408203 0)"/>
     <use xlink:href="#DejaVuSans-74" transform="translate(109.521484 0)"/>
     <use xlink:href="#DejaVuSans-65" transform="translate(148.730469 0)"/>
     <use xlink:href="#DejaVuSans-6d" transform="translate(210.253906 0)"/>
     <use xlink:href="#DejaVuSans-65" transform="translate(307.666016 0)"/>
     <use xlink:href="#DejaVuSans-74" transform="translate(369.189453 0)"/>
     <use xlink:href="#DejaVuSans-68" transform="translate(408.398438 0)"/>
     <use xlink:href="#DejaVuSans-65" transform="translate(471.777344 0)"/>
     <use xlink:href="#DejaVuSans-72" transform="translate(533.300781 0)"/>
     <use xlink:href="#DejaVuSans-20" transform="translate(574.414062 0)"/>
     <use xlink:href="#DejaVuSans-43" transform="translate(606.201172 0)"/>
     <use xlink:href="#DejaVuSans-6f" transform="translate(676.025391 0)"/>
     <use xlink:href="#DejaVuSans-6e" transform="translate(737.207031 0)"/>
     <use xlink:href="#DejaVuSans-63" transform="translate(800.585938 0)"/>
     <use xlink:href="#DejaVuSans-65" transform="translate(855.566406 0)"/>
     <use xlink:href="#DejaVuSans-6e" transform="translate(917.089844 0)"/>
     <use xlink:href="#DejaVuSans-74" transform="translate(980.46875 0)"/>
     <use xlink:href="#DejaVuSans-72" transform="translate(1019.677734 0)"/>
     <use xlink:href="#DejaVuSans-61" transform="translate(1060.791016 0)"/>
     <use xlink:href="#DejaVuSans-74" transform="translate(1122.070312 0)"/>
     <use xlink:href="#DejaVuSans-69" transform="translate(1161.279297 0)"/>
     <use xlink:href="#DejaVuSans-6f" transform="translate(1189.0625 0)"/>
     <use xlink:href="#DejaVuSans-6e" transform="translate(1250.244141 0)"/>
     <use xlink:href="#DejaVuSans-20" transform="translate(1313.623047 0)"/>
     <use xlink:href="#DejaVuSans-76" transform="translate(1345.410156 0)"/>
     <use xlink:href="#DejaVuSans-73" transform="translate(1404.589844 0)"/>
     <use xlink:href="#DejaVuSans-20" transform="translate(1456.689453 0)"/>
     <use xlink:href="#DejaVuSans-4c" transform="translate(1488.476562 0)"/>
     <use xlink:href="#DejaVuSans-6f" transform="translate(1542.439453 0)"/>
     <use xlink:href="#DejaVuSans-67" transform="translate(1603.621094 0)"/>
     <use xlink:href="#DejaVuSans-2081" transform="translate(1667.097656 0)"/>
     <use xlink:href="#DejaVuSans-2080" transform="translate(1707.185547 0)"/>
     <use xlink:href="#DejaVuSans-20" transform="translate(1747.273438 0)"/>
     <use xlink:href="#DejaVuSans-50" transform="translate(1779.060547 0)"/>
     <use xlink:href="#DejaVuSans-61" transform="translate(1834.863281 0)"/>
     <use xlink:href="#DejaVuSans-72" transform="translate(1896.142578 0)"/>
     <use xlink:href="#DejaVuSans-61" transform="translate(1937.255859 0)"/>
     <use xlink:href="#DejaVuSans-73" transform="translate(1998.535156 0)"/>
     <use xlink:href="#DejaVuSans-69" transform="translate(2050.634766 0)"/>
     <use xlink:href="#DejaVuSans-74" transform="translate(2078.417969 0)"/>
     <use xlink:href="#DejaVuSans-65" transform="translate(2117.626953 0)"/>
     <use xlink:href="#DejaVuSans-20" transform="translate(2179.150391 0)"/>
     <use xlink:href="#DejaVuSans-44" transform="translate(2210.9375 0)"/>
     <use xlink:href="#DejaVuSans-65" transform="translate(2287.939453 0)"/>
     <use xlink:href="#DejaVuSans-6e" transform="translate(2349.462891 0)"/>
     <use xlink:href="#DejaVuSans-73" transform="translate(2412.841797 0)"/>
     <use xlink:href="#DejaVuSans-69" transform="translate(2464.941406 0)"/>
     <use xlink:href="#DejaVuSans-74" transform="translate(2492.724609 0)"/>
     <use xlink:href="#DejaVuSans-79" transform="translate(2531.933594 0)"/>
    </g>
    <!-- (Percentile Bands) -->
    <g style="fill: #262626" transform="translate(194.466563 23.2) scale(0.14 -0.14)">
     <defs>
      <path id="DejaVuSans-42" d="M 1259 2228 
L 1259 519 
L 2272 519 
Q 2781 519 3026 730 
Q 3272 941 3272 1375 
Q 3272 1813 3026 2020 
Q 2781 2228 2272 2228 
L 1259 2228 
z
M 1259 4147 
L 1259 2741 
L 2194 2741 
Q 2656 2741 2882 2914 
Q 3109 3088 3109 3444 
Q 3109 3797 2882 3972 
Q 2656 4147 2194 4147 
L 1259 4147 
z
M 628 4666 
L 2241 4666 
Q 2963 4666 3353 4366 
Q 3744 4066 3744 3513 
Q 3744 3084 3544 2831 
Q 3344 2578 2956 2516 
Q 3422 2416 3680 2098 
Q 3938 1781 3938 1306 
Q 3938 681 3513 340 
Q 3088 0 2303 0 
L 628 0 
L 628 4666 
z
" transform="scale(0.015625)"/>
      <path id="DejaVuSans-64" d="M 2906 2969 
L 2906 4863 
L 3481 4863 
L 3481 0 
L 2906 0 
L 2906 525 
Q 2725 213 2448 61 
Q 2172 -91 1784 -91 
Q 1150 -91 751 415 
Q 353 922 353 1747 
Q 353 2572 751 3078 
Q 1150 3584 1784 3584 
Q 2172 3584 2448 3432 
Q 2725 3281 2906 2969 
z
M 947 1747 
Q 947 1113 1208 752 
Q 1469 391 1925 391 
Q 2381 391 2643 752 
Q 2906 1113 2906 1747 
Q 2906 2381 2643 2742 
Q 2381 3103 1925 3103 
Q 1469 3103 1208 2742 
Q 947 2381 947 1747 
z
" transform="scale(0.015625)"/>
     </defs>
     <use xlink:href="#DejaVuSans-28"/>
     <use xlink:href="#DejaVuSans-50" transform="translate(39.013672 0)"/>
     <use xlink:href="#DejaVuSans-65" transform="translate(95.691406 0)"/>
     <use xlink:href="#DejaVuSans-72" transform="translate(157.214844 0)"/>
     <use xlink:href="#DejaVuSans-63" transform="translate(196.078125 0)"/>
     <use xlink:href="#DejaVuSans-65" transform="translate(251.058594 0)"/>
     <use xlink:href="#DejaVuSans-6e" transform="translate(312.582031 0)"/>
     <use xlink:href="#DejaVuSans-74" transform="translate(375.960938 0)"/>
     <use xlink:href="#DejaVuSans-69" transform="translate(415.169922 0)"/>
     <use xlink:href="#DejaVuSans-6c" transform="translate(442.953125 0)"/>
     <use xlink:href="#DejaVuSans-65" transform="translate(470.736328 0)"/>
     <use xlink:href="#DejaVuSans-20" transform="translate(532.259766 0)"/>
     <use xlink:href="#DejaVuSans-42" transform="translate(564.046875 0)"/>
     <use xlink:href="#DejaVuSans-61" transform="translate(632.650391 0)"/>
     <use xlink:href="#DejaVuSans-6e" transform="translate(693.929688 0)"/>
     <use xlink:href="#DejaVuSans-64" transform="translate(757.308594 0)"/>
     <use xlink:href="#DejaVuSans-73" transform="translate(820.785156 0)"/>
     <use xlink:href="#DejaVuSans-29" transform="translate(872.884766 0)"/>
    </g>
   </g>
  </g>
 </g>
 <defs>
  <clipPath id="p53b25b792a">
   <rect x="63" y="43.2" width="390.6" height="277.2"/>
  </clipPath>
 </defs>
</svg>
